<?xml version="1.0" encoding="UTF-8"?><svg id="Layer_1" xmlns="http://www.w3.org/2000/svg" viewBox="0 0 1920 695.13"><defs><style>.cls-1{letter-spacing:-.01em;}.cls-2{letter-spacing:.1em;}.cls-3{letter-spacing:.1em;}.cls-3,.cls-4,.cls-5{fill:#fff;}.cls-3,.cls-5{font-family:Halcom-Regular, Halcom;font-size:16.35px;}.cls-4{font-family:Halcom-Black, Halcom;font-size:29.74px;font-weight:800;}.cls-6{letter-spacing:.05em;}.cls-7{letter-spacing:0em;}.cls-8{letter-spacing:.04em;}.cls-9{fill:#e95800;}.cls-9,.cls-10{stroke-width:0px;}.cls-10{fill:#002f3f;}</style></defs><rect class="cls-10" x="241.89" y="69.74" width="667.09" height="548.88"/><text class="cls-4" transform="translate(315.78 408.2)"><tspan x="0" y="0">PET</tspan><tspan class="cls-7" x="58.96" y="0">R</tspan><tspan x="79.96" y="0">OLEUM B</tspan><tspan class="cls-1" x="220.49" y="0">L</tspan><tspan x="237.61" y="0">UE</tspan></text><text class="cls-3" transform="translate(315.78 471.88)"><tspan x="0" y="0">HEX</tspan></text><text class="cls-3" transform="translate(315.78 502.39)"><tspan x="0" y="0">RGB</tspan></text><text class="cls-3" transform="translate(315.78 532.89)"><tspan x="0" y="0">CMYK</tspan></text><text class="cls-5" transform="translate(315.78 563.4)"><tspan class="cls-8" x="0" y="0">P</tspan><tspan class="cls-2" x="11.76" y="0">AN</tspan><tspan class="cls-6" x="39.41" y="0">T</tspan><tspan class="cls-2" x="50.39" y="0">ONE</tspan></text><text class="cls-3" transform="translate(450.11 471.88)"><tspan x="0" y="0">#002F3F</tspan></text><text class="cls-3" transform="translate(450.11 502.39)"><tspan x="0" y="0">233, 88, 0</tspan></text><text class="cls-3" transform="translate(450.11 532.89)"><tspan x="0" y="0">99, 27, 22, 80</tspan></text><text class="cls-3" transform="translate(450.11 563.4)"><tspan x="0" y="0">309C</tspan></text><rect class="cls-9" x="1011.02" y="69.74" width="667.09" height="548.88"/><text class="cls-4" transform="translate(1084.91 408.2)"><tspan x="0" y="0">ORANGE</tspan></text><text class="cls-3" transform="translate(1084.91 471.88)"><tspan x="0" y="0">HEX</tspan></text><text class="cls-3" transform="translate(1084.91 502.39)"><tspan x="0" y="0">RGB</tspan></text><text class="cls-3" transform="translate(1084.91 532.89)"><tspan x="0" y="0">CMYK</tspan></text><text class="cls-5" transform="translate(1084.91 563.4)"><tspan class="cls-8" x="0" y="0">P</tspan><tspan class="cls-2" x="11.76" y="0">AN</tspan><tspan class="cls-6" x="39.41" y="0">T</tspan><tspan class="cls-2" x="50.39" y="0">ONE</tspan></text><text class="cls-3" transform="translate(1219.24 471.88)"><tspan x="0" y="0">#002F3F</tspan></text><text class="cls-3" transform="translate(1219.24 502.39)"><tspan x="0" y="0">0, 47, 63</tspan></text><text class="cls-3" transform="translate(1219.24 532.89)"><tspan x="0" y="0">0, 65, 100, 0</tspan></text><text class="cls-3" transform="translate(1219.24 563.4)"><tspan x="0" y="0">021C</tspan></text></svg>