<?xml version="1.0" encoding="UTF-8"?><svg id="Layer_1" xmlns="http://www.w3.org/2000/svg" viewBox="0 0 1920 297.58"><defs><style>.cls-1{fill:#1f2121;}.cls-1,.cls-2,.cls-3,.cls-4{stroke-width:0px;}.cls-2{fill:#80abbb;}.cls-3{fill:#e95800;}.cls-4{fill:#003041;}</style></defs><rect class="cls-2" x="63.72" y="49.84" width="195.09" height="195.09"/><polygon class="cls-3" points="133.29 175.42 133.29 98.65 112.59 98.65 112.59 196.12 209.95 196.12 209.95 175.42 133.29 175.42"/><polygon class="cls-3" points="174.68 134.02 174.68 98.65 153.99 98.65 153.99 154.72 209.95 154.72 209.95 134.02 174.68 134.02"/><rect class="cls-3" x="280.89" y="49.84" width="195.09" height="195.09"/><polygon class="cls-2" points="350.45 175.42 350.45 98.65 329.75 98.65 329.75 196.12 427.11 196.12 427.11 175.42 350.45 175.42"/><polygon class="cls-2" points="391.85 134.02 391.85 98.65 371.15 98.65 371.15 154.72 427.11 154.72 427.11 134.02 391.85 134.02"/><rect class="cls-1" x="715.22" y="49.84" width="195.09" height="195.09"/><polygon class="cls-4" points="784.78 175.42 784.78 98.65 764.08 98.65 764.08 196.12 861.44 196.12 861.44 175.42 784.78 175.42"/><polygon class="cls-4" points="826.17 134.02 826.17 98.65 805.48 98.65 805.48 154.72 861.44 154.72 861.44 134.02 826.17 134.02"/><rect class="cls-4" x="498.05" y="49.84" width="195.09" height="195.09"/><polygon class="cls-1" points="567.61 175.42 567.61 98.65 546.92 98.65 546.92 196.12 644.27 196.12 644.27 175.42 567.61 175.42"/><polygon class="cls-1" points="609.01 134.02 609.01 98.65 588.31 98.65 588.31 154.72 644.28 154.72 644.28 134.02 609.01 134.02"/></svg>