<?xml version="1.0" encoding="UTF-8"?><svg id="Layer_1" xmlns="http://www.w3.org/2000/svg" viewBox="0 0 1920 297.58"><defs><style>.cls-1{fill:#1f2121;}.cls-1,.cls-2,.cls-3,.cls-4{stroke-width:0px;}.cls-2{fill:#80abbb;}.cls-3{fill:#e95800;}.cls-4{fill:#003041;}</style></defs><rect class="cls-2" x="209.42" y="49.84" width="195.09" height="195.09"/><polygon class="cls-3" points="278.98 175.42 278.98 98.65 258.28 98.65 258.28 196.12 355.64 196.12 355.64 175.42 278.98 175.42"/><polygon class="cls-3" points="320.38 134.02 320.38 98.65 299.68 98.65 299.68 154.72 355.64 154.72 355.64 134.02 320.38 134.02"/><rect class="cls-3" x="424.67" y="49.84" width="195.09" height="195.09"/><polygon class="cls-2" points="494.23 175.42 494.23 98.65 473.53 98.65 473.53 196.12 570.89 196.12 570.89 175.42 494.23 175.42"/><polygon class="cls-2" points="535.62 134.02 535.62 98.65 514.93 98.65 514.93 154.72 570.89 154.72 570.89 134.02 535.62 134.02"/><rect class="cls-1" x="860.91" y="49.84" width="195.09" height="195.09"/><polygon class="cls-4" points="930.47 175.42 930.47 98.65 909.78 98.65 909.78 196.12 1007.13 196.12 1007.13 175.42 930.47 175.42"/><polygon class="cls-4" points="971.87 134.02 971.87 98.65 951.17 98.65 951.17 154.72 1007.13 154.72 1007.13 134.02 971.87 134.02"/><rect class="cls-4" x="639.79" y="49.84" width="195.09" height="195.09"/><polygon class="cls-1" points="709.35 175.42 709.35 98.65 688.65 98.65 688.65 196.12 786.01 196.12 786.01 175.42 709.35 175.42"/><polygon class="cls-1" points="750.74 134.02 750.74 98.65 730.05 98.65 730.05 154.72 786.01 154.72 786.01 134.02 750.74 134.02"/></svg>