<?xml version="1.0" encoding="UTF-8"?><svg id="Layer_1" xmlns="http://www.w3.org/2000/svg" viewBox="0 0 1920 514.42"><defs><style>.cls-1{fill:#3e647e;}.cls-1,.cls-2,.cls-3,.cls-4,.cls-5,.cls-6{stroke-width:0px;}.cls-2{fill:#1f2121;}.cls-3{fill:#80abbb;}.cls-4{fill:#fff;}.cls-5{fill:#e95800;}.cls-6{fill:#003041;}</style></defs><rect class="cls-6" x="209.42" y="49.84" width="195.09" height="195.09"/><polygon class="cls-5" points="278.98 175.42 278.98 98.65 258.28 98.65 258.28 196.12 355.64 196.12 355.64 175.42 278.98 175.42"/><polygon class="cls-5" points="320.38 134.02 320.38 98.65 299.68 98.65 299.68 154.72 355.64 154.72 355.64 134.02 320.38 134.02"/><rect class="cls-4" x="1291.53" y="49.84" width="195.09" height="195.09"/><polygon class="cls-6" points="1361.1 175.42 1361.1 98.65 1340.4 98.65 1340.4 196.12 1437.76 196.12 1437.76 175.42 1361.1 175.42"/><polygon class="cls-6" points="1402.49 134.02 1402.49 98.65 1381.79 98.65 1381.79 154.72 1437.76 154.72 1437.76 134.02 1402.49 134.02"/><rect class="cls-4" x="1076.28" y="49.84" width="195.09" height="195.09"/><polygon class="cls-5" points="1145.85 175.42 1145.85 98.65 1125.15 98.65 1125.15 196.12 1222.51 196.12 1222.51 175.42 1145.85 175.42"/><polygon class="cls-5" points="1187.24 134.02 1187.24 98.65 1166.55 98.65 1166.55 154.72 1222.51 154.72 1222.51 134.02 1187.24 134.02"/><rect class="cls-6" x="424.67" y="49.84" width="195.09" height="195.09"/><polygon class="cls-4" points="494.23 175.42 494.23 98.65 473.53 98.65 473.53 196.12 570.89 196.12 570.89 175.42 494.23 175.42"/><polygon class="cls-4" points="535.62 134.02 535.62 98.65 514.93 98.65 514.93 154.72 570.89 154.72 570.89 134.02 535.62 134.02"/><rect class="cls-4" x="1515.49" y="52.88" width="195.09" height="195.09"/><polygon class="cls-3" points="1585.05 178.46 1585.05 101.69 1564.36 101.69 1564.36 199.16 1661.71 199.16 1661.71 178.46 1585.05 178.46"/><polygon class="cls-3" points="1626.45 137.06 1626.45 101.69 1605.75 101.69 1605.75 157.76 1661.72 157.76 1661.72 137.06 1626.45 137.06"/><rect class="cls-6" x="855.16" y="49.84" width="195.09" height="195.09"/><polygon class="cls-1" points="924.72 175.42 924.72 98.65 904.03 98.65 904.03 196.12 1001.38 196.12 1001.38 175.42 924.72 175.42"/><polygon class="cls-1" points="966.12 134.02 966.12 98.65 945.42 98.65 945.42 154.72 1001.39 154.72 1001.39 134.02 966.12 134.02"/><rect class="cls-6" x="639.91" y="49.84" width="195.09" height="195.09"/><polygon class="cls-3" points="709.48 175.42 709.48 98.65 688.78 98.65 688.78 196.12 786.14 196.12 786.14 175.42 709.48 175.42"/><polygon class="cls-3" points="750.87 134.02 750.87 98.65 730.18 98.65 730.18 154.72 786.14 154.72 786.14 134.02 750.87 134.02"/><rect class="cls-5" x="209.42" y="264" width="195.09" height="195.09"/><polygon class="cls-4" points="278.98 389.58 278.98 312.81 258.28 312.81 258.28 410.28 355.64 410.28 355.64 389.58 278.98 389.58"/><polygon class="cls-4" points="320.38 348.18 320.38 312.81 299.68 312.81 299.68 368.88 355.64 368.88 355.64 348.18 320.38 348.18"/><rect class="cls-2" x="1291.53" y="264" width="195.09" height="195.09"/><polygon class="cls-3" points="1361.1 389.58 1361.1 312.81 1340.4 312.81 1340.4 410.28 1437.76 410.28 1437.76 389.58 1361.1 389.58"/><polygon class="cls-3" points="1402.49 348.18 1402.49 312.81 1381.79 312.81 1381.79 368.88 1437.76 368.88 1437.76 348.18 1402.49 348.18"/><rect class="cls-2" x="1076.28" y="264" width="195.09" height="195.09"/><polygon class="cls-5" points="1145.85 389.58 1145.85 312.81 1125.15 312.81 1125.15 410.28 1222.51 410.28 1222.51 389.58 1145.85 389.58"/><polygon class="cls-5" points="1187.24 348.18 1187.24 312.81 1166.55 312.81 1166.55 368.88 1222.51 368.88 1222.51 348.18 1187.24 348.18"/><rect class="cls-5" x="424.67" y="264" width="195.09" height="195.09"/><polygon class="cls-6" points="494.23 389.58 494.23 312.81 473.53 312.81 473.53 410.28 570.89 410.28 570.89 389.58 494.23 389.58"/><polygon class="cls-6" points="535.62 348.18 535.62 312.81 514.93 312.81 514.93 368.88 570.89 368.88 570.89 348.18 535.62 348.18"/><rect class="cls-2" x="1515.49" y="267.04" width="195.09" height="195.09"/><polygon class="cls-4" points="1585.05 392.62 1585.05 315.85 1564.36 315.85 1564.36 413.32 1661.71 413.32 1661.71 392.62 1585.05 392.62"/><polygon class="cls-4" points="1626.45 351.22 1626.45 315.85 1605.75 315.85 1605.75 371.92 1661.72 371.92 1661.72 351.22 1626.45 351.22"/><rect class="cls-3" x="855.16" y="264" width="195.09" height="195.09"/><polygon class="cls-6" points="924.72 389.58 924.72 312.81 904.03 312.81 904.03 410.28 1001.38 410.28 1001.38 389.58 924.72 389.58"/><polygon class="cls-6" points="966.12 348.18 966.12 312.81 945.42 312.81 945.42 368.88 1001.39 368.88 1001.39 348.18 966.12 348.18"/><rect class="cls-3" x="639.91" y="264" width="195.09" height="195.09"/><polygon class="cls-4" points="709.48 389.58 709.48 312.81 688.78 312.81 688.78 410.28 786.14 410.28 786.14 389.58 709.48 389.58"/><polygon class="cls-4" points="750.87 348.18 750.87 312.81 730.18 312.81 730.18 368.88 786.14 368.88 786.14 348.18 750.87 348.18"/></svg>