<?xml version="1.0" encoding="UTF-8"?><svg id="Layer_1" xmlns="http://www.w3.org/2000/svg" viewBox="0 0 1920 514.42"><defs><style>.cls-1{fill:#3e647e;}.cls-1,.cls-2,.cls-3,.cls-4,.cls-5,.cls-6{stroke-width:0px;}.cls-2{fill:#1f2121;}.cls-3{fill:#80abbb;}.cls-4{fill:#fff;}.cls-5{fill:#e95800;}.cls-6{fill:#003041;}</style></defs><rect class="cls-6" x="63.72" y="49.84" width="195.09" height="195.09"/><polygon class="cls-5" points="133.29 175.42 133.29 98.65 112.59 98.65 112.59 196.12 209.95 196.12 209.95 175.42 133.29 175.42"/><polygon class="cls-5" points="174.68 134.02 174.68 98.65 153.99 98.65 153.99 154.72 209.95 154.72 209.95 134.02 174.68 134.02"/><rect class="cls-4" x="1145.84" y="49.84" width="195.09" height="195.09"/><polygon class="cls-6" points="1215.4 175.42 1215.4 98.65 1194.71 98.65 1194.71 196.12 1292.06 196.12 1292.06 175.42 1215.4 175.42"/><polygon class="cls-6" points="1256.8 134.02 1256.8 98.65 1236.1 98.65 1236.1 154.72 1292.06 154.72 1292.06 134.02 1256.8 134.02"/><rect class="cls-4" x="930.59" y="49.84" width="195.09" height="195.09"/><polygon class="cls-5" points="1000.15 175.42 1000.15 98.65 979.46 98.65 979.46 196.12 1076.81 196.12 1076.81 175.42 1000.15 175.42"/><polygon class="cls-5" points="1041.55 134.02 1041.55 98.65 1020.85 98.65 1020.85 154.72 1076.81 154.72 1076.81 134.02 1041.55 134.02"/><rect class="cls-6" x="278.97" y="49.84" width="195.09" height="195.09"/><polygon class="cls-4" points="348.54 175.42 348.54 98.65 327.84 98.65 327.84 196.12 425.2 196.12 425.2 175.42 348.54 175.42"/><polygon class="cls-4" points="389.93 134.02 389.93 98.65 369.23 98.65 369.23 154.72 425.2 154.72 425.2 134.02 389.93 134.02"/><rect class="cls-4" x="1369.8" y="52.88" width="195.09" height="195.09"/><polygon class="cls-3" points="1439.36 178.46 1439.36 101.69 1418.66 101.69 1418.66 199.16 1516.02 199.16 1516.02 178.46 1439.36 178.46"/><polygon class="cls-3" points="1480.76 137.06 1480.76 101.69 1460.06 101.69 1460.06 157.76 1516.02 157.76 1516.02 137.06 1480.76 137.06"/><rect class="cls-6" x="709.47" y="49.84" width="195.09" height="195.09"/><polygon class="cls-1" points="779.03 175.42 779.03 98.65 758.33 98.65 758.33 196.12 855.69 196.12 855.69 175.42 779.03 175.42"/><polygon class="cls-1" points="820.43 134.02 820.43 98.65 799.73 98.65 799.73 154.72 855.69 154.72 855.69 134.02 820.43 134.02"/><rect class="cls-6" x="494.22" y="49.84" width="195.09" height="195.09"/><polygon class="cls-3" points="563.78 175.42 563.78 98.65 543.09 98.65 543.09 196.12 640.44 196.12 640.44 175.42 563.78 175.42"/><polygon class="cls-3" points="605.18 134.02 605.18 98.65 584.48 98.65 584.48 154.72 640.44 154.72 640.44 134.02 605.18 134.02"/><rect class="cls-5" x="63.72" y="264" width="195.09" height="195.09"/><polygon class="cls-4" points="133.29 389.58 133.29 312.81 112.59 312.81 112.59 410.28 209.95 410.28 209.95 389.58 133.29 389.58"/><polygon class="cls-4" points="174.68 348.18 174.68 312.81 153.99 312.81 153.99 368.88 209.95 368.88 209.95 348.18 174.68 348.18"/><rect class="cls-2" x="1145.84" y="264" width="195.09" height="195.09"/><polygon class="cls-3" points="1215.4 389.58 1215.4 312.81 1194.71 312.81 1194.71 410.28 1292.06 410.28 1292.06 389.58 1215.4 389.58"/><polygon class="cls-3" points="1256.8 348.18 1256.8 312.81 1236.1 312.81 1236.1 368.88 1292.06 368.88 1292.06 348.18 1256.8 348.18"/><rect class="cls-2" x="930.59" y="264" width="195.09" height="195.09"/><polygon class="cls-5" points="1000.15 389.58 1000.15 312.81 979.46 312.81 979.46 410.28 1076.81 410.28 1076.81 389.58 1000.15 389.58"/><polygon class="cls-5" points="1041.55 348.18 1041.55 312.81 1020.85 312.81 1020.85 368.88 1076.81 368.88 1076.81 348.18 1041.55 348.18"/><rect class="cls-5" x="278.97" y="264" width="195.09" height="195.09"/><polygon class="cls-6" points="348.54 389.58 348.54 312.81 327.84 312.81 327.84 410.28 425.2 410.28 425.2 389.58 348.54 389.58"/><polygon class="cls-6" points="389.93 348.18 389.93 312.81 369.23 312.81 369.23 368.88 425.2 368.88 425.2 348.18 389.93 348.18"/><rect class="cls-2" x="1369.8" y="267.04" width="195.09" height="195.09"/><polygon class="cls-4" points="1439.36 392.62 1439.36 315.85 1418.66 315.85 1418.66 413.32 1516.02 413.32 1516.02 392.62 1439.36 392.62"/><polygon class="cls-4" points="1480.76 351.22 1480.76 315.85 1460.06 315.85 1460.06 371.92 1516.02 371.92 1516.02 351.22 1480.76 351.22"/><rect class="cls-3" x="709.47" y="264" width="195.09" height="195.09"/><polygon class="cls-6" points="779.03 389.58 779.03 312.81 758.33 312.81 758.33 410.28 855.69 410.28 855.69 389.58 779.03 389.58"/><polygon class="cls-6" points="820.43 348.18 820.43 312.81 799.73 312.81 799.73 368.88 855.69 368.88 855.69 348.18 820.43 348.18"/><rect class="cls-3" x="494.22" y="264" width="195.09" height="195.09"/><polygon class="cls-4" points="563.78 389.58 563.78 312.81 543.09 312.81 543.09 410.28 640.44 410.28 640.44 389.58 563.78 389.58"/><polygon class="cls-4" points="605.18 348.18 605.18 312.81 584.48 312.81 584.48 368.88 640.44 368.88 640.44 348.18 605.18 348.18"/></svg>