<?xml version="1.0" encoding="UTF-8"?><svg id="Layer_1" xmlns="http://www.w3.org/2000/svg" viewBox="0 0 1920 593.48"><defs><style>.cls-1{fill:#80abbb;}.cls-1,.cls-2,.cls-3{stroke-width:0px;}.cls-2{fill:#e85800;}.cls-3{fill:#003041;}</style></defs><polygon class="cls-3" points="183.6 403.53 183.6 75.64 95.13 75.64 95.13 492 510.36 492 510.36 403.53 183.6 403.53"/><polygon class="cls-3" points="510.36 321.03 510.36 232.56 359.02 232.56 359.02 75.64 270.55 75.64 270.55 321.03 510.36 321.03"/><polygon class="cls-2" points="834.14 403.53 834.14 75.64 745.67 75.64 745.67 492 1160.9 492 1160.9 403.53 834.14 403.53"/><polygon class="cls-2" points="1160.9 321.03 1160.9 232.56 1009.56 232.56 1009.56 75.64 921.09 75.64 921.09 321.03 1160.9 321.03"/><polygon class="cls-1" points="1484.68 403.53 1484.68 75.64 1396.21 75.64 1396.21 492 1811.44 492 1811.44 403.53 1484.68 403.53"/><polygon class="cls-1" points="1811.44 321.03 1811.44 232.56 1660.1 232.56 1660.1 75.64 1571.63 75.64 1571.63 321.03 1811.44 321.03"/></svg>