<?xml version="1.0" encoding="UTF-8"?><svg id="Layer_1" xmlns="http://www.w3.org/2000/svg" viewBox="0 0 1920 430.85"><defs><style>.cls-1{letter-spacing:-.01em;}.cls-2{letter-spacing:-.02em;}.cls-3{letter-spacing:-.04em;}.cls-4{letter-spacing:-.02em;}.cls-5{letter-spacing:-.03em;}.cls-6{letter-spacing:-.03em;}.cls-7{letter-spacing:.01em;}.cls-8{letter-spacing:-.02em;}.cls-9{letter-spacing:-.05em;}.cls-10{fill:#002b3c;font-family:Halcom-Black, Halcom;font-size:31.13px;font-weight:800;}.cls-11{letter-spacing:0em;}.cls-12{letter-spacing:-.03em;}.cls-13{letter-spacing:-.02em;}.cls-14{letter-spacing:0em;}.cls-15{letter-spacing:-.03em;}.cls-16{letter-spacing:-.04em;}.cls-17{letter-spacing:0em;}.cls-18{fill:#0d0e0e;font-family:Halcom-Regular, Halcom;font-size:22.78px;}</style></defs><text class="cls-10" transform="translate(61.81 78.97)"><tspan x="0" y="0">THE </tspan><tspan class="cls-1" x="71.51" y="0">Q</tspan><tspan x="98.12" y="0">UICK B</tspan><tspan class="cls-14" x="207.95" y="0">R</tspan><tspan class="cls-16" x="229.93" y="0">O</tspan><tspan x="255.77" y="0">WN </tspan><tspan class="cls-14" x="320.14" y="0">F</tspan><tspan class="cls-9" x="339.2" y="0">O</tspan><tspan x="364.41" y="0">X JUMPS </tspan><tspan class="cls-3" x="0" y="36.32">O</tspan><tspan x="25.68" y="36.32">VER THE </tspan><tspan class="cls-7" x="170.44" y="36.32">L</tspan><tspan x="188.99" y="36.32">AZY DOG</tspan><tspan x="0" y="72.64">01234567890</tspan></text><text class="cls-18" transform="translate(61.81 208.9)"><tspan class="cls-13" x="0" y="0">L</tspan><tspan x="12.35" y="0">o</tspan><tspan class="cls-8" x="26.49" y="0">r</tspan><tspan x="34.9" y="0">em ipsum do</tspan><tspan class="cls-12" x="172.87" y="0">l</tspan><tspan x="180.11" y="0">or sit am</tspan><tspan class="cls-17" x="275.87" y="0">e</tspan><tspan x="289.15" y="0">t, </tspan><tspan class="cls-13" x="309.97" y="0">c</tspan><tspan x="322.38" y="0">onsec</tspan><tspan class="cls-5" x="387.1" y="0">t</tspan><tspan class="cls-17" x="396.53" y="0">e</tspan><tspan x="409.81" y="0">tur adipiscing elit, sed do eiusmod </tspan><tspan class="cls-5" x="0" y="29.61">t</tspan><tspan x="9.43" y="29.61">empor incididunt ut </tspan><tspan class="cls-15" x="228.78" y="29.61">l</tspan><tspan x="235.89" y="29.61">abo</tspan><tspan class="cls-8" x="277.92" y="29.61">r</tspan><tspan x="286.32" y="29.61">e </tspan><tspan class="cls-17" x="305.3" y="29.61">e</tspan><tspan x="318.58" y="29.61">t do</tspan><tspan class="cls-12" x="362.47" y="29.61">l</tspan><tspan x="369.71" y="29.61">o</tspan><tspan class="cls-8" x="383.86" y="29.61">r</tspan><tspan x="392.26" y="29.61">e magna aliqua. Ut enim ad minim </tspan><tspan class="cls-8" x="768.29" y="29.61">v</tspan><tspan x="779.88" y="29.61">eniam, </tspan><tspan x="0" y="59.22">quis nostrud </tspan><tspan class="cls-11" x="139.93" y="59.22">e</tspan><tspan class="cls-15" x="153.3" y="59.22">x</tspan><tspan x="164.89" y="59.22">e</tspan><tspan class="cls-4" x="178.29" y="59.22">r</tspan><tspan x="186.81" y="59.22">ci</tspan><tspan class="cls-5" x="205.37" y="59.22">t</tspan><tspan x="214.8" y="59.22">ation ul</tspan><tspan class="cls-15" x="298.74" y="59.22">l</tspan><tspan x="305.84" y="59.22">am</tspan><tspan class="cls-13" x="340.33" y="59.22">c</tspan><tspan x="352.74" y="59.22">o </tspan><tspan class="cls-15" x="372.47" y="59.22">l</tspan><tspan x="379.58" y="59.22">aboris nisi ut aliquip </tspan><tspan class="cls-11" x="603.17" y="59.22">e</tspan><tspan x="616.54" y="59.22">x ea </tspan><tspan class="cls-13" x="667.29" y="59.22">c</tspan><tspan x="679.71" y="59.22">ommodo </tspan><tspan class="cls-13" x="0" y="88.84">c</tspan><tspan x="12.41" y="88.84">onsequat. Duis au</tspan><tspan class="cls-5" x="205.73" y="88.84">t</tspan><tspan x="215.16" y="88.84">e iru</tspan><tspan class="cls-8" x="262.16" y="88.84">r</tspan><tspan x="270.56" y="88.84">e do</tspan><tspan class="cls-12" x="317.73" y="88.84">l</tspan><tspan x="324.98" y="88.84">or in </tspan><tspan class="cls-8" x="378.42" y="88.84">r</tspan><tspan x="386.82" y="88.84">ep</tspan><tspan class="cls-8" x="413.95" y="88.84">r</tspan><tspan x="422.36" y="88.84">ehenderit in </tspan><tspan class="cls-6" x="558.61" y="88.84">v</tspan><tspan x="570.1" y="88.84">o</tspan><tspan class="cls-2" x="584.24" y="88.84">l</tspan><tspan x="591.69" y="88.84">up</tspan><tspan class="cls-6" x="618.66" y="88.84">t</tspan><tspan x="628.09" y="88.84">a</tspan><tspan class="cls-5" x="641.89" y="88.84">t</tspan><tspan x="651.32" y="88.84">e </tspan><tspan class="cls-8" x="670.3" y="88.84">v</tspan><tspan x="681.89" y="88.84">elit esse cil</tspan><tspan class="cls-4" x="805.67" y="88.84">l</tspan><tspan x="813.12" y="88.84">um </tspan><tspan x="0" y="118.45">do</tspan><tspan class="cls-12" x="28.2" y="118.45">l</tspan><tspan x="35.44" y="118.45">o</tspan><tspan class="cls-8" x="49.59" y="118.45">r</tspan><tspan x="57.99" y="118.45">e eu fugiat nul</tspan><tspan class="cls-15" x="215.8" y="118.45">l</tspan><tspan x="222.91" y="118.45">a pariatur. Excep</tspan><tspan class="cls-5" x="407.43" y="118.45">t</tspan><tspan x="416.86" y="118.45">eur sint oc</tspan><tspan class="cls-4" x="530.87" y="118.45">c</tspan><tspan x="543.17" y="118.45">ae</tspan><tspan class="cls-4" x="570.37" y="118.45">c</tspan><tspan x="582.67" y="118.45">at cupida</tspan><tspan class="cls-5" x="685.56" y="118.45">t</tspan><tspan x="694.99" y="118.45">at non </tspan><tspan x="0" y="148.06">p</tspan><tspan class="cls-4" x="13.74" y="148.06">r</tspan><tspan x="22.25" y="148.06">oident, sunt in culpa qui </tspan><tspan class="cls-13" x="287.26" y="148.06">o</tspan><tspan x="301.06" y="148.06">fficia deserunt mollit anim id est </tspan><tspan class="cls-15" x="663.71" y="148.06">l</tspan><tspan x="670.82" y="148.06">aborum</tspan></text></svg>