<?xml version="1.0" encoding="UTF-8"?><svg id="Layer_1" xmlns="http://www.w3.org/2000/svg" viewBox="0 0 1920 430.85"><defs><style>.cls-1{letter-spacing:-.01em;}.cls-2{letter-spacing:-.03em;}.cls-3{letter-spacing:-.06em;}.cls-4{letter-spacing:-.06em;}.cls-5{letter-spacing:-.02em;}.cls-6{fill:#002b3c;font-family:Helvetica-Black, Helvetica-Black;font-size:30.93px;font-weight:800;}.cls-7{fill:#0d0e0e;font-family:Helvetica, Helvetica;font-size:22.63px;}.cls-8{letter-spacing:.02em;}.cls-9{letter-spacing:-.05em;}.cls-10{letter-spacing:-.03em;}</style></defs><text class="cls-6" transform="translate(61.81 80.32)"><tspan x="0" y="0">THE QUICK BROWN FOX </tspan><tspan x="0" y="36.09">JUMPS OVER THE LAZY DOG</tspan><tspan x="0" y="72.18">01234567890</tspan></text><text class="cls-7" transform="translate(61.81 209.21)"><tspan x="0" y="0">Lorem ipsum dolor sit amet, consectetur adipiscing elit, sed do eiusmod tempor </tspan><tspan x="0" y="29.43">incididunt ut labore et dolore magna aliqua</tspan><tspan class="cls-3" x="426.5" y="29.43">.</tspan><tspan x="431.43" y="29.43" xml:space="preserve"> Ut enim ad minim </tspan><tspan class="cls-5" x="620.09" y="29.43">v</tspan><tspan x="630.84" y="29.43">eniam, quis nost</tspan><tspan class="cls-8" x="795.64" y="29.43">r</tspan><tspan x="803.52" y="29.43">ud </tspan><tspan class="cls-2" x="0" y="58.85">ex</tspan><tspan x="22.54" y="58.85">ercitation ullamco labo</tspan><tspan class="cls-8" x="247.71" y="58.85">r</tspan><tspan x="255.59" y="58.85">is nisi ut aliquip </tspan><tspan class="cls-2" x="415.34" y="58.85">e</tspan><tspan x="427.24" y="58.85">x ea commodo consequat</tspan><tspan class="cls-3" x="686.41" y="58.85">.</tspan><tspan x="691.34" y="58.85" xml:space="preserve"> Duis aute i</tspan><tspan class="cls-8" x="804.56" y="58.85">r</tspan><tspan x="812.44" y="58.85">ure </tspan><tspan x="0" y="88.28">dolor in reprehende</tspan><tspan class="cls-8" x="196.26" y="88.28">r</tspan><tspan x="204.14" y="88.28">it in </tspan><tspan class="cls-10" x="245.65" y="88.28">v</tspan><tspan x="256.4" y="88.28">oluptate </tspan><tspan class="cls-5" x="343.23" y="88.28">v</tspan><tspan x="353.98" y="88.28">elit esse cillum dolore eu fugiat </tspan><tspan class="cls-1" x="669.73" y="88.28">n</tspan><tspan x="682.08" y="88.28">ulla pa</tspan><tspan class="cls-8" x="748.76" y="88.28">r</tspan><tspan x="756.64" y="88.28">iatu</tspan><tspan class="cls-9" x="793.13" y="88.28">r</tspan><tspan class="cls-4" x="799.53" y="88.28">.</tspan><tspan x="804.47" y="88.28"> </tspan><tspan x="0" y="117.7">Excepteur sint occaecat cupidatat non proident, sunt in culpa qui officia dese</tspan><tspan class="cls-8" x="767.46" y="117.7">r</tspan><tspan x="775.34" y="117.7">unt </tspan><tspan x="0" y="147.13">mollit anim id est labo</tspan><tspan class="cls-8" x="217.6" y="147.13">r</tspan><tspan x="225.48" y="147.13">um</tspan></text></svg>