<?xml version="1.0" encoding="UTF-8"?><svg id="Layer_1" xmlns="http://www.w3.org/2000/svg" viewBox="0 0 1920 430.85"><defs><style>.cls-1{fill:#0d0e0e;}.cls-1,.cls-2{stroke-width:0px;}.cls-2{fill:#002b3c;}</style></defs><path class="cls-2" d="m74.57,62.28v16.68h-6.23v-16.68h-5.91v-5.1h18.05v5.1h-5.91Z"/><path class="cls-2" d="m103.51,78.97h-6.23v-8.73h-7.92v8.73h-6.23v-21.79h6.23v7.95h7.92v-7.95h6.23v21.79Z"/><path class="cls-2" d="m124.44,78.97h-16.89v-21.79h16.58v5.1h-10.36v2.72h9.14v5.1h-9.14v3.75h10.67v5.1Z"/><path class="cls-2" d="m154.77,76.62l2.71,3.54-5.33,1.5-1.83-2.7c-1.09.29-2.27.45-3.52.45-7.08,0-11.75-5.06-11.75-11.33s4.67-11.33,11.75-11.33,11.75,5.06,11.75,11.33c0,3.41-1.37,6.47-3.78,8.55Zm-7.98-2.48c.09,0,.17,0,.26,0l-2.06-3.04,4.58-1.27,1.56,2.03c.68-1.02,1.07-2.32,1.07-3.79,0-3.54-2.19-6.07-5.39-6.07s-5.42,2.55-5.42,6.07,2.17,6.07,5.4,6.07h0Z"/><path class="cls-2" d="m181.58,70.68c0,5.81-4.88,8.71-9.81,8.71s-9.82-2.9-9.82-8.71v-13.51h6.22v13.51c0,2.31,1.79,3.46,3.59,3.46,1.79,0,3.59-1.16,3.59-3.46v-13.5h6.22s0,13.5,0,13.5Z"/><path class="cls-2" d="m185.46,78.97v-21.79h6.23v21.79h-6.23Z"/><path class="cls-2" d="m206.83,56.74c2.84,0,6.03,1.06,8.76,3.11l-1.54,4.24c-2.22-1.35-4.58-2.1-6.63-2.09-3.2,0-5.64,1.85-5.64,6.07s2.45,6.07,5.65,6.07c2.11,0,4.55-.79,6.81-2.22l1.54,4.23c-2.77,2.14-6.07,3.25-8.94,3.25-6.87,0-11.41-5.06-11.41-11.33s4.54-11.33,11.41-11.33h0Z"/><path class="cls-2" d="m225.43,73.19v5.78h-6.23v-21.79h6.23v7.83l5.81-7.83h7.44l-7.79,9.41,8.57,12.38h-7.5l-4.79-7.89-1.74,2.1Z"/><path class="cls-2" d="m268.66,72.61c0,3.85-3.01,6.36-6.74,6.36h-5.95s-6.23,0-6.23,0v-21.79h11.15c3.45,0,6.22,2.32,6.19,5.84,0,1.9-.89,3.39-2.27,4.28,2.27.74,3.86,2.68,3.84,5.31Zm-12.69-6.91h3.09c1.01,0,1.76-.67,1.76-1.85,0-1.17-.75-1.85-1.76-1.85h-3.09v3.69Zm4.54,4.55h-4.54v3.9h4.54c1.07,0,1.89-.72,1.89-1.96,0-1.22-.81-1.94-1.89-1.94Z"/><path class="cls-2" d="m278.01,71v7.97h-6.23v-21.79h12c3.62,0,6.66,2.75,6.63,6.91,0,3.1-1.66,5.4-3.98,6.38l4.98,8.5h-6.82l-3.8-7.97h-2.79Zm5.02-5.09c.78,0,1.63-.64,1.63-1.82,0-1.16-.85-1.81-1.63-1.81h-5.02v3.63h5.02Z"/><path class="cls-2" d="m316.96,68.07c0,6.27-4.63,11.33-11.75,11.33s-11.75-5.06-11.75-11.33,4.67-11.33,11.75-11.33,11.75,5.06,11.75,11.33Zm-11.74-6.07c-3.25,0-5.42,2.55-5.42,6.07s2.17,6.07,5.4,6.07,5.4-2.56,5.4-6.07-2.19-6.07-5.39-6.07h0Z"/><path class="cls-2" d="m336.91,78.97l-2.9-12.04-2.9,12.04h-7.07l-5.84-21.79h6.79l2.84,13.49,3.17-13.49h6.02l3.17,13.49,2.84-13.49h6.79l-5.84,21.79h-7.07Z"/><path class="cls-2" d="m372.46,78.97h-5.6l-8.59-12.17v12.17h-5.98v-21.79h5.6l8.59,12.38v-12.38h5.98v21.79Z"/><path class="cls-2" d="m390.21,65.63h8.64v5.1h-8.64v8.24h-6.23v-21.79h16.08v5.1h-9.86v3.34Z"/><path class="cls-2" d="m426.23,68.07c0,6.27-4.63,11.33-11.75,11.33s-11.75-5.06-11.75-11.33,4.67-11.33,11.75-11.33,11.75,5.06,11.75,11.33Zm-11.74-6.07c-3.25,0-5.42,2.55-5.42,6.07s2.17,6.07,5.4,6.07,5.4-2.56,5.4-6.07-2.19-6.07-5.39-6.07h0Z"/><path class="cls-2" d="m449.64,78.97h-7.35l-4.05-6.61-4.05,6.61h-7.35l7.29-11.04-6.92-10.75h7.35l3.67,6.19,3.67-6.19h7.35l-6.92,10.75,7.29,11.04Z"/><path class="cls-2" d="m470.76,70.79c0,4.76-3.29,8.61-8.37,8.61-1.42,0-2.72-.26-3.89-.72l1.69-4.72c.43.12.9.18,1.39.18,1.74,0,2.92-1.35,2.92-3.39v-13.57h6.25v13.61Z"/><path class="cls-2" d="m494.44,70.68c0,5.81-4.88,8.71-9.81,8.71s-9.82-2.9-9.82-8.71v-13.51h6.22v13.51c0,2.31,1.79,3.46,3.59,3.46,1.79,0,3.59-1.16,3.59-3.46v-13.5h6.22s0,13.5,0,13.5Z"/><path class="cls-2" d="m522.87,78.97h-5.98v-11.17l-3.97,6.35h-2.41s0,0,0,0h-2.4l-3.97-6.35v11.17h-5.98v-21.79h5.6l6.75,11.14,6.75-11.14h5.6v21.79Z"/><path class="cls-2" d="m539.12,57.18c3.62,0,6.66,2.92,6.63,7.34,0,4.45-3.04,7.34-6.63,7.34h-5.96v7.11h-6.23v-21.79h12.19Zm-1.12,5.1h-4.84v4.49h4.84c1.02,0,1.99-.76,1.99-2.25,0-1.46-.96-2.24-1.99-2.24Z"/><path class="cls-2" d="m565.57,59.46l-3.37,4.08c-1.09-.85-2.74-1.54-4.67-1.54-1.31,0-2.37.31-2.55,1.46-.12.81.34,1.09,3.46,1.93,3.21.87,7.56,2.02,7.56,6.97,0,5.29-5.01,7.03-8.87,7.03-3.39,0-7.19-1.34-9.03-3.8l3.56-3.75c1.11,1.35,3.25,2.29,5.47,2.29s2.48-.87,2.51-1.56c.06-.96-.5-1.25-3.36-2.05-4.79-1.37-7.66-2.21-7.66-6.57,0-5.17,4.02-7.22,8.93-7.22,3.46,0,6.16,1.03,8,2.72Z"/><path class="cls-2" d="m87.04,104.39c0,6.27-4.63,11.33-11.75,11.33s-11.75-5.06-11.75-11.33,4.67-11.33,11.75-11.33,11.75,5.06,11.75,11.33Zm-11.74-6.07c-3.25,0-5.42,2.55-5.42,6.07s2.17,6.07,5.4,6.07,5.4-2.56,5.4-6.07-2.19-6.07-5.39-6.07h0Z"/><path class="cls-2" d="m95.56,115.29l-7.44-21.79h6.79l4.17,14.66,4.17-14.66h6.79l-7.44,21.79h-7.03Z"/><path class="cls-2" d="m129.57,115.29h-16.89v-21.79h16.58v5.1h-10.36v2.72h9.14v5.1h-9.14v3.75h10.67v5.1Z"/><path class="cls-2" d="m139.08,107.32v7.97h-6.23v-21.79h12c3.62,0,6.66,2.75,6.63,6.91,0,3.1-1.66,5.4-3.98,6.38l4.98,8.5h-6.82l-3.8-7.97h-2.79Zm5.02-5.09c.78,0,1.63-.64,1.63-1.82,0-1.16-.85-1.81-1.63-1.81h-5.02v3.63h5.02Z"/><path class="cls-2" d="m173.51,98.6v16.68h-6.23v-16.68h-5.91v-5.1h18.05v5.1h-5.91Z"/><path class="cls-2" d="m202.44,115.29h-6.23v-8.73h-7.92v8.73h-6.23v-21.79h6.23v7.95h7.92v-7.95h6.23v21.79Z"/><path class="cls-2" d="m223.37,115.29h-16.89v-21.79h16.58v5.1h-10.36v2.72h9.14v5.1h-9.14v3.75h10.67v5.1Z"/><path class="cls-2" d="m249.86,115.29h-15.58v-21.79h6.23v16.68h9.36v5.1Z"/><path class="cls-2" d="m267.86,115.29l-1.2-3.62h-7.24l-1.2,3.62h-6.79l8.5-21.79h6.22l8.5,21.79h-6.79Zm-2.9-8.72l-1.92-5.76-1.92,5.76h3.84Z"/><path class="cls-2" d="m293.62,115.29h-17.24v-4.15s9.09-12.53,9.09-12.53h-8.31v-5.1h16.13v4.18l-9.08,12.51h9.41v5.1Z"/><path class="cls-2" d="m309.38,115.29h-6.23v-8.15l-7.83-13.64h6.79l4.18,7.72,4.19-7.72h6.79l-7.89,13.62v8.17Z"/><path class="cls-2" d="m337.46,93.5c6.48,0,10.75,4.63,10.75,10.89s-4.27,10.9-10.75,10.9h-9.92v-21.79h9.92Zm-.76,16.68c3.21,0,5.25-2.27,5.25-5.79s-2.04-5.79-5.25-5.79h-2.93v11.57h2.93Z"/><path class="cls-2" d="m375.15,104.39c0,6.27-4.63,11.33-11.75,11.33s-11.75-5.06-11.75-11.33,4.67-11.33,11.75-11.33,11.75,5.06,11.75,11.33Zm-11.74-6.07c-3.25,0-5.42,2.55-5.42,6.07s2.17,6.07,5.4,6.07,5.4-2.56,5.4-6.07-2.19-6.07-5.39-6.07h0Z"/><path class="cls-2" d="m399.85,115.29h-4.77l-.3-1.68c-1.91,1.44-3.88,2.11-6.02,2.11-5.86,0-10.19-5.04-10.2-11.22.01-6.4,4.71-11.44,11.56-11.44,3.23,0,6.25,1.12,8.96,3.19l-1.53,4.2c-2.3-1.38-4.76-2.13-6.87-2.13-3.24,0-5.76,1.77-5.76,6.17,0,4.25,2.34,6.03,5.05,5.97,1.2-.02,2.63-.4,4.09-1.12v-2.04h-3.12v-4.92h8.91v12.91Z"/><path class="cls-2" d="m83.06,140.72c0,6.27-3.9,11.33-9.91,11.33s-9.93-5.06-9.93-11.33,3.94-11.34,9.92-11.34,9.92,5.07,9.92,11.34Zm-13.48,0c0,3.93,1.51,6.06,3.57,6.06s3.55-2.14,3.55-6.06-1.5-6.02-3.58-6.04c-2.05-.03-3.54,2.08-3.54,6.04Z"/><path class="cls-2" d="m99.41,146.5v5.11h-13.43v-5.11h3.86v-9.71l-2.58,1.31-2.2-4.61,7.48-3.66h3.52v16.67h3.34Z"/><path class="cls-2" d="m118.69,151.61h-16.94v-5.18c0-4.14,3.44-5.5,6.97-6.9,3.14-1.25,3.77-1.59,3.77-2.77,0-1.61-1.18-2.1-3.61-2.1-1.53,0-3.33.2-4.87.62l-2.13-4.5c2.14-.86,4.85-1.4,7.93-1.4,4.89,0,8.87,1.38,8.87,6.72,0,6.13-5.47,7.43-7.97,8.51-1.69.73-2.33,1.13-2.53,1.9h10.5v5.11Z"/><path class="cls-2" d="m134.37,140.02c2.39.99,3.86,2.85,3.86,5.23,0,4.12-3.93,6.8-9.43,6.8-2.81,0-5.61-.47-7.93-1.39l2.49-4.9c1.7.67,3.76,1.02,5.82,1.02,1.68,0,2.68-.76,2.68-1.88s-.99-1.86-2.68-1.86h-3.54v-5.23h2.96c1.51,0,2.34-.64,2.34-1.57s-.83-1.58-2.34-1.58c-1.59,0-3.18.27-4.5.79l-2.27-4.85c2.04-.81,4.5-1.22,6.97-1.22,5.01,0,8.49,2.45,8.49,6.16,0,1.98-1.09,3.55-2.92,4.49h0Z"/><path class="cls-2" d="m159.44,142.45v5.11h-2.38v4.05h-6.2v-4.05h-10.6v-3.91l9.29-13.83h7.51v12.62h2.38Zm-8.57,0v-6.45l-3.3,6.45h3.3Z"/><path class="cls-2" d="m168.9,134.93v2.72c.58-.07,1.16-.1,1.74-.1,5.01,0,8.52,2.73,8.5,6.86-.03,4.64-3.82,7.64-9.67,7.64-2.24,0-5.26-.45-7.7-1.51l2.47-4.83c1.63.7,3.62,1.06,5.6,1.06,1.84,0,2.93-.9,2.93-2.21,0-1.63-1.29-2.27-2.96-2.27-1.28,0-2.79.41-4.05.98l-3.03-2.76-.04-10.7h14.91v5.11h-8.68Z"/><path class="cls-2" d="m191.99,129.38c2.51,0,4.48.69,5.97,1.58l-2.23,4.78c-1.23-.71-2.53-1.1-3.73-1.1-2.12,0-3.89,1.3-4.07,4.08,1.19-.68,2.63-1.03,4.1-1.03,3.77,0,7.7,2.24,7.71,6.84,0,4.55-3.81,7.51-8.77,7.51-6.66,0-9.34-5.18-9.34-10.86,0-7.04,4.13-11.8,10.36-11.8h0Zm-.75,13.03c-1.17,0-2.33.28-3.31.83.17,2.35,1.1,3.74,2.98,3.74,1.53,0,2.61-.88,2.61-2.48,0-1.38-.82-2.08-2.28-2.08h0Z"/><path class="cls-2" d="m217.75,133.83l-7.32,17.77h-6.79l7.56-16.67h-9.74v-5.11h16.29v4.01Z"/><path class="cls-2" d="m238.67,145.25c0,4.12-3.94,6.8-9.45,6.8s-9.45-2.68-9.45-6.8c0-2.54,1.31-4.29,3.84-5.22-1.93-.9-2.89-2.42-2.89-4.5,0-3.71,3.52-6.16,8.51-6.16s8.54,2.45,8.51,6.16c0,2.1-.98,3.6-2.89,4.49,2.55.93,3.86,2.68,3.83,5.23Zm-9.45,1.55c1.93,0,3.08-.93,3.08-2.28s-1.14-2.25-3.08-2.25-3.08.94-3.08,2.27,1.15,2.27,3.08,2.27h0Zm0-12.26c-1.38,0-2.16.67-2.16,1.6s.78,1.59,2.16,1.59,2.16-.65,2.16-1.59-.77-1.6-2.16-1.6h0Z"/><path class="cls-2" d="m249.93,129.38c6.63,0,9.34,5.18,9.34,10.86,0,7.03-4.14,11.81-10.37,11.81-2.51,0-4.48-.69-5.97-1.58l2.23-4.78c1.22.71,2.54,1.09,3.74,1.09,2.15,0,3.88-1.29,4.06-4.07-1.19.68-2.62,1.02-4.09,1.02-3.8,0-7.71-2.23-7.72-6.83,0-4.55,3.82-7.52,8.78-7.52h0Zm-2.56,7.57c0,1.38.82,2.08,2.28,2.08,1.17,0,2.33-.28,3.31-.83-.17-2.35-1.12-3.75-3-3.75-1.49,0-2.59.89-2.59,2.49Z"/><path class="cls-2" d="m281.92,140.72c0,6.27-3.9,11.33-9.91,11.33s-9.93-5.06-9.93-11.33,3.94-11.34,9.92-11.34,9.92,5.07,9.92,11.34Zm-13.48,0c0,3.93,1.51,6.06,3.57,6.06s3.55-2.14,3.55-6.06-1.5-6.02-3.58-6.04c-2.05-.03-3.54,2.08-3.54,6.04Z"/><path class="cls-1" d="m73.78,208.9h-9.66v-15.95h2.16v14.13h7.5v1.82Z"/><path class="cls-1" d="m86.91,203.2c0,3.33-2.23,6.01-5.67,6.01s-5.67-2.69-5.67-6.01,2.26-6.04,5.67-6.01c3.44,0,5.67,2.69,5.67,6.01Zm-9.31,0c0,2.44,1.41,4.17,3.64,4.17s3.64-1.71,3.64-4.17-1.39-4.17-3.64-4.17c-2.27,0-3.66,1.73-3.64,4.17Z"/><path class="cls-1" d="m96.5,197.17c.1,0,.2,0,.3,0l-.35,1.98c-.11-.01-.23-.01-.36-.01-1.33,0-2.83.56-4.09,1.69v8.06h-1.95v-11.39h1.95v1.61c1.36-1.29,3.02-1.95,4.49-1.95h0Z"/><path class="cls-1" d="m103.62,197.19c3.56,0,5.29,2.68,5.3,5.99,0,.17,0,.33-.02.49h-8.73c0,.07.01.15.02.22.23,2.06,1.54,3.48,3.49,3.48,1.22,0,2.46-.35,3.74-1.05l.5,1.34c-1.33,1.03-2.91,1.56-4.29,1.56-3.32,0-5.51-2.69-5.51-6.01s2.19-6.04,5.51-6.01h0Zm-3.37,4.88h6.63c-.27-1.83-1.27-3.04-3.2-3.04-1.84,0-3.09,1.22-3.43,3.04Z"/><path class="cls-1" d="m129.14,201.47v7.43h-1.95v-7.43c.01-1.72-1-2.47-2.32-2.47-1.07,0-2.35.48-3.47,1.35.06.34.09.72.09,1.12v7.43h-1.95v-7.43c0-1.7-.98-2.46-2.26-2.46-1.09,0-2.39.54-3.47,1.52v8.37h-1.95v-11.39h1.95v1.42c1.18-1.16,2.59-1.74,3.92-1.74s2.6.6,3.25,1.9c1.27-1.21,2.89-1.9,4.37-1.9,2.07,0,3.8,1.33,3.79,4.28Z"/><path class="cls-1" d="m140.53,194.39c0,.66-.54,1.2-1.2,1.2s-1.2-.54-1.2-1.2.54-1.2,1.2-1.2,1.2.54,1.2,1.2Zm-2.18,14.51v-11.39h1.95v11.39h-1.95Z"/><path class="cls-1" d="m154.55,203.2c-.01,3.83-2.38,6-4.99,6.02-1.31,0-2.69-.53-3.86-1.67v5.91h-1.95v-15.95h1.95v1.48c1.14-1.19,2.52-1.8,3.92-1.8,2.9,0,4.92,2.63,4.93,6.01Zm-5.09,4.23c1.71-.02,3.07-1.38,3.07-4.23,0-2.47-1.14-4.17-3.06-4.17-1.13,0-2.6.57-3.77,1.8v4.63c1.2,1.24,2.57,1.98,3.76,1.96h0Z"/><path class="cls-1" d="m165.67,198.7l-.91,1.37c-.7-.76-1.99-1.17-3.27-1.17-1.44,0-2.43.51-2.43,1.6,0,.84.59,1.14,2.69,1.69,1.79.48,4.26,1.02,4.28,3.53.02,2.5-2.46,3.49-4.7,3.49-1.82,0-3.61-.66-4.5-1.85l.91-1.38c.68.99,2.12,1.54,3.55,1.54,1.51,0,2.79-.64,2.79-1.8s-1.24-1.36-2.87-1.8c-2.88-.76-4.09-1.47-4.08-3.33,0-2.5,2.16-3.41,4.3-3.41,1.48,0,3.19.43,4.23,1.51Z"/><path class="cls-1" d="m178.57,208.9h-1.95v-1.44c-1.22,1.16-2.74,1.76-4.07,1.76-2.16,0-3.94-1.33-3.94-4.28v-7.43h1.95v7.43c0,1.59.8,2.46,2.18,2.46,1.26,0,2.69-.54,3.87-1.59v-8.3h1.95v11.39Z"/><path class="cls-1" d="m199.25,201.47v7.43h-1.95v-7.43c0-1.72-1-2.47-2.33-2.47-1.07,0-2.35.48-3.47,1.35.06.34.09.72.09,1.12v7.43h-1.95v-7.43c0-1.7-.98-2.46-2.26-2.46-1.09,0-2.39.54-3.47,1.52v8.37h-1.95v-11.39h1.95v1.42c1.18-1.16,2.59-1.74,3.92-1.74s2.6.6,3.25,1.9c1.27-1.21,2.89-1.9,4.37-1.9,2.07,0,3.8,1.33,3.79,4.28Z"/><path class="cls-1" d="m218.68,208.9h-1.95v-1.48c-1.2,1.25-2.62,1.8-3.93,1.8-2.88,0-4.92-2.63-4.92-6.01,0-3.38,2.02-6.04,5.02-6.01,1.26,0,2.7.61,3.83,1.8v-6.04h1.95v15.95Zm-1.95-3.32v-4.74c-1.13-1.19-2.57-1.8-3.83-1.8-1.85,0-3.01,1.71-3,4.17-.02,2.48,1.12,4.17,3.06,4.17,1.15,0,2.64-.61,3.76-1.8Z"/><path class="cls-1" d="m233.29,203.2c0,3.33-2.23,6.01-5.67,6.01s-5.67-2.69-5.67-6.01,2.26-6.04,5.67-6.01c3.44,0,5.67,2.69,5.67,6.01Zm-9.31,0c0,2.44,1.41,4.17,3.64,4.17s3.64-1.71,3.64-4.17-1.39-4.17-3.64-4.17c-2.27,0-3.66,1.73-3.64,4.17Z"/><path class="cls-1" d="m238.5,205.84c0,1.25.82,1.63,1.75,1.62.21,0,.43-.02.64-.06l.57,1.52c-.53.19-1.09.29-1.64.29-1.7,0-3.27-.94-3.27-3.38v-12.89h1.95v12.89Z"/><path class="cls-1" d="m254.67,203.2c0,3.33-2.23,6.01-5.67,6.01s-5.67-2.69-5.67-6.01,2.26-6.04,5.67-6.01c3.44,0,5.67,2.69,5.67,6.01Zm-9.31,0c0,2.44,1.41,4.17,3.64,4.17s3.64-1.71,3.64-4.17-1.39-4.17-3.64-4.17c-2.27,0-3.66,1.73-3.64,4.17Z"/><path class="cls-1" d="m264.26,197.17c.1,0,.2,0,.3,0l-.35,1.98c-.11-.01-.23-.01-.36-.01-1.33,0-2.83.56-4.09,1.69v8.06h-1.95v-11.39h1.95v1.61c1.36-1.29,3.03-1.95,4.49-1.95h0Z"/><path class="cls-1" d="m280.39,198.7l-.91,1.37c-.7-.76-1.99-1.17-3.27-1.17-1.44,0-2.43.51-2.43,1.6,0,.84.59,1.14,2.69,1.69,1.79.48,4.26,1.02,4.28,3.53.02,2.5-2.46,3.49-4.7,3.49-1.82,0-3.61-.66-4.5-1.85l.91-1.38c.68.99,2.12,1.54,3.55,1.54,1.51,0,2.79-.64,2.79-1.8s-1.24-1.36-2.87-1.8c-2.88-.76-4.09-1.47-4.08-3.33,0-2.5,2.16-3.41,4.3-3.41,1.48,0,3.19.43,4.23,1.51Z"/><path class="cls-1" d="m285.86,194.39c0,.66-.54,1.2-1.2,1.2s-1.2-.54-1.2-1.2.54-1.2,1.2-1.2,1.2.54,1.2,1.2Zm-2.18,14.51v-11.39h1.95v11.39h-1.95Z"/><path class="cls-1" d="m296.36,208.44c-.77.49-1.73.77-2.65.78-1.7,0-3.27-.94-3.27-3.38v-6.69h-2.25v-1.25l2.12-.35h.14v-3.28h1.95v3.28h3.45v1.6h-3.45v6.69c0,1.25.82,1.63,1.75,1.62.59,0,1.23-.16,1.73-.36l.5,1.33Z"/><path class="cls-1" d="m315.26,208.9h-1.95v-1.45c-1.19,1.23-2.6,1.77-3.9,1.77-2.87,0-4.92-2.63-4.92-6.01s2.04-6.02,4.92-6.02c1.31,0,2.71.54,3.9,1.77v-1.45h1.95v11.39Zm-1.95-3.29v-4.81c-1.12-1.17-2.59-1.77-3.75-1.77-1.91,0-3.04,1.64-3.04,4.17s1.14,4.17,3.04,4.17c1.16,0,2.63-.6,3.75-1.77Z"/><path class="cls-1" d="m336.04,201.47v7.43h-1.95v-7.43c.01-1.72-1-2.47-2.32-2.47-1.07,0-2.35.48-3.47,1.35.06.34.09.72.09,1.12v7.43h-1.95v-7.43c0-1.7-.98-2.46-2.26-2.46-1.09,0-2.39.54-3.47,1.52v8.37h-1.95v-11.39h1.95v1.42c1.18-1.16,2.59-1.74,3.92-1.74s2.6.6,3.25,1.9c1.27-1.21,2.89-1.9,4.37-1.9,2.07,0,3.8,1.33,3.79,4.28Z"/><path class="cls-1" d="m344.59,197.19c3.56,0,5.29,2.68,5.3,5.99,0,.17,0,.33-.02.49h-8.73c0,.07.01.15.02.22.23,2.06,1.54,3.48,3.49,3.48,1.22,0,2.46-.35,3.74-1.05l.5,1.34c-1.33,1.03-2.91,1.56-4.29,1.56-3.32,0-5.51-2.69-5.51-6.01s2.19-6.04,5.51-6.01h0Zm-3.37,4.88h6.63c-.27-1.83-1.27-3.04-3.2-3.04-1.84,0-3.09,1.22-3.43,3.04Z"/><path class="cls-1" d="m359.82,208.44c-.77.49-1.73.77-2.65.78-1.7,0-3.27-.94-3.27-3.38v-6.69h-2.25v-1.25l2.12-.35h.14v-3.28h1.95v3.28h3.45v1.6h-3.45v6.69c0,1.25.82,1.63,1.75,1.62.59,0,1.23-.16,1.73-.36l.5,1.33Z"/><path class="cls-1" d="m365,207.7c.22,1.33-.8,3.26-2.11,4.24l-.86-.55c.66-.65,1.12-1.4,1.31-2.47-.49-.14-.92-.59-.92-1.22,0-.7.57-1.27,1.27-1.26.65,0,1.17.47,1.31,1.26Z"/><path class="cls-1" d="m383.15,198.75l-.49,1.34c-1.28-.71-2.58-1.06-3.8-1.06-2.26,0-3.66,1.68-3.64,4.17,0,2.44,1.37,4.17,3.72,4.17,1.07,0,2.44-.35,3.71-1.05l.49,1.34c-1.28.99-2.81,1.55-4.33,1.55-3.35,0-5.63-2.69-5.63-6.01s2.3-6.04,5.66-6.01c1.39,0,2.96.53,4.29,1.56Z"/><path class="cls-1" d="m396.95,203.2c0,3.33-2.23,6.01-5.67,6.01s-5.67-2.69-5.67-6.01,2.26-6.04,5.67-6.01c3.44,0,5.67,2.69,5.67,6.01Zm-9.31,0c0,2.44,1.41,4.17,3.64,4.17s3.64-1.71,3.64-4.17-1.39-4.17-3.64-4.17c-2.27,0-3.66,1.73-3.64,4.17Z"/><path class="cls-1" d="m410.05,201.47v7.43h-1.95v-7.43c0-1.68-1.01-2.46-2.33-2.46-1.1,0-2.54.54-3.72,1.59v8.3h-1.95v-11.39h1.95v1.44c1.26-1.2,2.8-1.76,4.11-1.76,2.08,0,3.89,1.37,3.89,4.28Z"/><path class="cls-1" d="m421.45,198.7l-.91,1.37c-.7-.76-1.99-1.17-3.27-1.17-1.44,0-2.43.51-2.43,1.6,0,.84.59,1.14,2.69,1.69,1.79.48,4.26,1.02,4.28,3.53.02,2.5-2.46,3.49-4.7,3.49-1.82,0-3.61-.66-4.5-1.85l.91-1.38c.68.99,2.12,1.54,3.55,1.54,1.51,0,2.79-.64,2.79-1.8s-1.24-1.36-2.87-1.8c-2.88-.76-4.09-1.47-4.08-3.33,0-2.5,2.16-3.41,4.3-3.41,1.48,0,3.19.43,4.23,1.51Z"/><path class="cls-1" d="m429.67,197.19c3.56,0,5.29,2.68,5.3,5.99,0,.17,0,.33-.02.49h-8.73c0,.07.01.15.02.22.23,2.06,1.54,3.48,3.49,3.48,1.22,0,2.46-.35,3.74-1.05l.5,1.34c-1.33,1.03-2.91,1.56-4.29,1.56-3.32,0-5.51-2.69-5.51-6.01s2.19-6.04,5.51-6.01h0Zm-3.37,4.88h6.63c-.27-1.83-1.27-3.04-3.2-3.04-1.84,0-3.09,1.22-3.43,3.04Z"/><path class="cls-1" d="m447.52,198.75l-.49,1.34c-1.28-.71-2.58-1.06-3.8-1.06-2.26,0-3.66,1.68-3.64,4.17,0,2.44,1.37,4.17,3.72,4.17,1.07,0,2.44-.35,3.71-1.05l.49,1.34c-1.28.99-2.81,1.55-4.33,1.55-3.35,0-5.63-2.69-5.63-6.01s2.3-6.04,5.66-6.01c1.39,0,2.96.53,4.29,1.56Z"/><path class="cls-1" d="m457.77,208.44c-.77.49-1.73.77-2.65.78-1.7,0-3.27-.94-3.27-3.38v-6.69h-2.25v-1.25l2.12-.35h.14v-3.28h1.95v3.28h3.45v1.6h-3.45v6.69c0,1.25.82,1.63,1.75,1.62.59,0,1.23-.16,1.73-.36l.5,1.33Z"/><path class="cls-1" d="m465.25,197.19c3.56,0,5.29,2.68,5.3,5.99,0,.17,0,.33-.02.49h-8.73c0,.07.01.15.02.22.23,2.06,1.54,3.48,3.49,3.48,1.22,0,2.46-.35,3.74-1.05l.5,1.34c-1.33,1.03-2.91,1.56-4.29,1.56-3.32,0-5.51-2.69-5.51-6.01s2.19-6.04,5.51-6.01h0Zm-3.37,4.88h6.63c-.27-1.83-1.27-3.04-3.2-3.04-1.84,0-3.09,1.22-3.43,3.04Z"/><path class="cls-1" d="m480.48,208.44c-.77.49-1.73.77-2.65.78-1.7,0-3.27-.94-3.27-3.38v-6.69h-2.25v-1.25l2.12-.35h.14v-3.28h1.95v3.28h3.45v1.6h-3.45v6.69c0,1.25.82,1.63,1.75,1.62.59,0,1.23-.16,1.73-.36l.5,1.33Z"/><path class="cls-1" d="m493.32,208.9h-1.95v-1.44c-1.22,1.16-2.74,1.76-4.07,1.76-2.16,0-3.94-1.33-3.94-4.28v-7.43h1.95v7.43c0,1.59.8,2.46,2.18,2.46,1.26,0,2.69-.54,3.87-1.59v-8.3h1.95v11.39Z"/><path class="cls-1" d="m503.16,197.17c.1,0,.2,0,.3,0l-.35,1.98c-.11-.01-.23-.01-.36-.01-1.33,0-2.83.56-4.09,1.69v8.06h-1.95v-11.39h1.95v1.61c1.36-1.29,3.02-1.95,4.49-1.95h0Z"/><path class="cls-1" d="m521.58,208.9h-1.95v-1.45c-1.19,1.23-2.6,1.77-3.9,1.77-2.87,0-4.92-2.63-4.92-6.01s2.04-6.02,4.92-6.02c1.31,0,2.71.54,3.9,1.77v-1.45h1.95v11.39Zm-1.95-3.29v-4.81c-1.12-1.17-2.59-1.77-3.75-1.77-1.91,0-3.04,1.64-3.04,4.17s1.14,4.17,3.04,4.17c1.16,0,2.63-.6,3.75-1.77Z"/><path class="cls-1" d="m535.52,208.9h-1.95v-1.48c-1.2,1.25-2.62,1.8-3.93,1.8-2.88,0-4.92-2.63-4.92-6.01,0-3.38,2.02-6.04,5.02-6.01,1.26,0,2.7.61,3.83,1.8v-6.04h1.95v15.95Zm-1.95-3.32v-4.74c-1.13-1.19-2.57-1.8-3.83-1.8-1.85,0-3.01,1.71-3,4.17-.02,2.48,1.12,4.17,3.06,4.17,1.15,0,2.64-.61,3.76-1.8Z"/><path class="cls-1" d="m541.55,194.39c0,.66-.54,1.2-1.2,1.2s-1.2-.54-1.2-1.2.54-1.2,1.2-1.2,1.2.54,1.2,1.2Zm-2.18,14.51v-11.39h1.95v11.39h-1.95Z"/><path class="cls-1" d="m555.56,203.2c-.01,3.83-2.38,6-4.99,6.02-1.31,0-2.69-.53-3.86-1.67v5.91h-1.95v-15.95h1.95v1.48c1.14-1.19,2.52-1.8,3.92-1.8,2.9,0,4.92,2.63,4.93,6.01Zm-5.09,4.23c1.71-.02,3.07-1.38,3.07-4.23,0-2.47-1.14-4.17-3.06-4.17-1.13,0-2.6.57-3.77,1.8v4.63c1.2,1.24,2.57,1.98,3.76,1.96h0Z"/><path class="cls-1" d="m561.09,194.39c0,.66-.54,1.2-1.2,1.2s-1.2-.54-1.2-1.2.54-1.2,1.2-1.2,1.2.54,1.2,1.2Zm-2.18,14.51v-11.39h1.95v11.39h-1.95Z"/><path class="cls-1" d="m572.49,198.7l-.91,1.37c-.7-.76-1.99-1.17-3.27-1.17-1.44,0-2.43.51-2.43,1.6,0,.84.59,1.14,2.69,1.69,1.79.48,4.26,1.02,4.28,3.53.02,2.5-2.46,3.49-4.7,3.49-1.82,0-3.61-.66-4.5-1.85l.91-1.38c.68.99,2.12,1.54,3.55,1.54,1.51,0,2.79-.64,2.79-1.8s-1.24-1.36-2.87-1.8c-2.88-.76-4.09-1.47-4.08-3.33,0-2.5,2.16-3.41,4.3-3.41,1.48,0,3.19.43,4.23,1.51Z"/><path class="cls-1" d="m585.17,198.75l-.49,1.34c-1.28-.71-2.58-1.06-3.8-1.06-2.26,0-3.66,1.68-3.64,4.17,0,2.44,1.37,4.17,3.72,4.17,1.07,0,2.44-.35,3.71-1.05l.49,1.34c-1.28.99-2.81,1.55-4.33,1.55-3.35,0-5.63-2.69-5.63-6.01s2.3-6.04,5.66-6.01c1.39,0,2.96.53,4.29,1.56Z"/><path class="cls-1" d="m590.72,194.39c0,.66-.54,1.2-1.2,1.2s-1.2-.54-1.2-1.2.54-1.2,1.2-1.2,1.2.54,1.2,1.2Zm-2.18,14.51v-11.39h1.95v11.39h-1.95Z"/><path class="cls-1" d="m604.07,201.47v7.43h-1.95v-7.43c0-1.68-1.01-2.46-2.33-2.46-1.1,0-2.54.54-3.72,1.59v8.3h-1.95v-11.39h1.95v1.44c1.26-1.2,2.8-1.76,4.11-1.76,2.08,0,3.89,1.37,3.89,4.28Z"/><path class="cls-1" d="m617.93,208.56c0,3.59-2.14,5.21-4.85,5.21-1.65,0-3.38-.6-4.92-1.89l.13-1.6c1.51,1.19,3.26,1.75,4.65,1.75,2.06,0,3.01-1.23,3.02-3.5v-1.44c-1.18,1.19-2.5,1.75-3.92,1.76-2.92-.02-4.94-2.56-4.94-5.85s2.05-5.83,4.94-5.83c1.35,0,2.72.55,3.91,1.75v-1.43h1.95v11.05Zm-1.96-3.2v-4.59c-1.05-1.09-2.52-1.75-3.77-1.75-1.91,0-3.05,1.57-3.05,4.03s1.11,4.06,3.05,4.07c1.2,0,2.65-.6,3.77-1.76Z"/><path class="cls-1" d="m632.17,197.19c3.56,0,5.29,2.68,5.3,5.99,0,.17,0,.33-.02.49h-8.73c0,.07.01.15.02.22.23,2.06,1.54,3.48,3.49,3.48,1.22,0,2.46-.35,3.74-1.05l.5,1.34c-1.33,1.03-2.91,1.56-4.29,1.56-3.32,0-5.51-2.69-5.51-6.01s2.19-6.04,5.51-6.01h0Zm-3.37,4.88h6.63c-.27-1.83-1.27-3.04-3.2-3.04-1.84,0-3.09,1.22-3.43,3.04Z"/><path class="cls-1" d="m642.47,205.84c0,1.25.82,1.63,1.75,1.62.21,0,.43-.02.64-.06l.57,1.52c-.53.19-1.09.29-1.64.29-1.7,0-3.27-.94-3.27-3.38v-12.89h1.95v12.89Z"/><path class="cls-1" d="m650.72,194.39c0,.66-.54,1.2-1.2,1.2s-1.2-.54-1.2-1.2.54-1.2,1.2-1.2,1.2.54,1.2,1.2Zm-2.18,14.51v-11.39h1.95v11.39h-1.95Z"/><path class="cls-1" d="m661.22,208.44c-.77.49-1.73.77-2.65.78-1.7,0-3.27-.94-3.27-3.38v-6.69h-2.25v-1.25l2.12-.35h.14v-3.28h1.95v3.28h3.45v1.6h-3.45v6.69c0,1.25.82,1.63,1.75,1.62.59,0,1.23-.16,1.73-.36l.5,1.33Z"/><path class="cls-1" d="m666.4,207.7c.22,1.33-.8,3.26-2.11,4.24l-.86-.55c.66-.65,1.12-1.4,1.31-2.47-.49-.14-.92-.59-.92-1.22,0-.7.57-1.27,1.27-1.26.65,0,1.17.47,1.31,1.26Z"/><path class="cls-1" d="m682.95,198.7l-.91,1.37c-.7-.76-1.99-1.17-3.27-1.17-1.44,0-2.43.51-2.43,1.6,0,.84.59,1.14,2.69,1.69,1.79.48,4.26,1.02,4.28,3.53.02,2.5-2.46,3.49-4.7,3.49-1.82,0-3.61-.66-4.5-1.85l.91-1.38c.68.99,2.12,1.54,3.55,1.54,1.51,0,2.79-.64,2.79-1.8s-1.24-1.36-2.87-1.8c-2.88-.76-4.09-1.47-4.08-3.33,0-2.5,2.16-3.41,4.3-3.41,1.48,0,3.19.43,4.23,1.51Z"/><path class="cls-1" d="m691.17,197.19c3.56,0,5.29,2.68,5.3,5.99,0,.17,0,.33-.02.49h-8.73c0,.07.01.15.02.22.23,2.06,1.54,3.48,3.49,3.48,1.22,0,2.46-.35,3.74-1.05l.5,1.34c-1.33,1.03-2.91,1.56-4.29,1.56-3.32,0-5.51-2.69-5.51-6.01s2.19-6.04,5.51-6.01h0Zm-3.37,4.88h6.63c-.27-1.83-1.27-3.04-3.2-3.04-1.84,0-3.09,1.22-3.43,3.04Z"/><path class="cls-1" d="m709.84,208.9h-1.95v-1.48c-1.2,1.25-2.62,1.8-3.93,1.8-2.88,0-4.92-2.63-4.92-6.01,0-3.38,2.02-6.04,5.02-6.01,1.26,0,2.7.61,3.83,1.8v-6.04h1.95v15.95Zm-1.95-3.32v-4.74c-1.13-1.19-2.57-1.8-3.83-1.8-1.85,0-3.01,1.71-3,4.17-.02,2.48,1.12,4.17,3.06,4.17,1.15,0,2.64-.61,3.76-1.8Z"/><path class="cls-1" d="m729.48,208.9h-1.95v-1.48c-1.2,1.25-2.62,1.8-3.93,1.8-2.88,0-4.92-2.63-4.92-6.01,0-3.38,2.02-6.04,5.02-6.01,1.26,0,2.7.61,3.83,1.8v-6.04h1.95v15.95Zm-1.95-3.32v-4.74c-1.13-1.19-2.57-1.8-3.83-1.8-1.85,0-3.01,1.71-3,4.17-.02,2.48,1.12,4.17,3.06,4.17,1.15,0,2.64-.61,3.76-1.8Z"/><path class="cls-1" d="m744.09,203.2c0,3.33-2.23,6.01-5.67,6.01s-5.67-2.69-5.67-6.01,2.26-6.04,5.67-6.01c3.44,0,5.67,2.69,5.67,6.01Zm-9.31,0c0,2.44,1.41,4.17,3.64,4.17s3.64-1.71,3.64-4.17-1.39-4.17-3.64-4.17c-2.27,0-3.66,1.73-3.64,4.17Z"/><path class="cls-1" d="m757.97,197.19c3.56,0,5.29,2.68,5.3,5.99,0,.17,0,.33-.02.49h-8.73c0,.07.01.15.02.22.23,2.06,1.54,3.48,3.49,3.48,1.22,0,2.46-.35,3.74-1.05l.5,1.34c-1.33,1.03-2.91,1.56-4.29,1.56-3.32,0-5.51-2.69-5.51-6.01s2.19-6.04,5.51-6.01h0Zm-3.37,4.88h6.63c-.27-1.83-1.27-3.04-3.2-3.04-1.84,0-3.09,1.22-3.43,3.04Z"/><path class="cls-1" d="m768.62,194.39c0,.66-.54,1.2-1.2,1.2s-1.2-.54-1.2-1.2.54-1.2,1.2-1.2,1.2.54,1.2,1.2Zm-2.18,14.51v-11.39h1.95v11.39h-1.95Z"/><path class="cls-1" d="m781.86,208.9h-1.95v-1.44c-1.22,1.16-2.74,1.76-4.07,1.76-2.16,0-3.94-1.33-3.94-4.28v-7.43h1.95v7.43c0,1.59.8,2.46,2.18,2.46,1.26,0,2.69-.54,3.87-1.59v-8.3h1.95v11.39Z"/><path class="cls-1" d="m793.26,198.7l-.91,1.37c-.7-.76-1.99-1.17-3.27-1.17-1.44,0-2.43.51-2.43,1.6,0,.84.59,1.14,2.69,1.69,1.79.48,4.26,1.02,4.28,3.53.02,2.5-2.46,3.49-4.7,3.49-1.82,0-3.61-.66-4.5-1.85l.91-1.38c.68.99,2.12,1.54,3.55,1.54,1.51,0,2.79-.64,2.79-1.8s-1.24-1.36-2.87-1.8c-2.88-.76-4.09-1.47-4.08-3.33,0-2.5,2.16-3.41,4.3-3.41,1.48,0,3.19.43,4.23,1.51Z"/><path class="cls-1" d="m813.61,201.47v7.43h-1.95v-7.43c0-1.72-1-2.47-2.33-2.47-1.07,0-2.35.48-3.47,1.35.06.34.09.72.09,1.12v7.43h-1.95v-7.43c0-1.7-.98-2.46-2.26-2.46-1.09,0-2.39.54-3.47,1.52v8.37h-1.95v-11.39h1.95v1.42c1.18-1.16,2.59-1.74,3.92-1.74s2.6.6,3.25,1.9c1.27-1.21,2.89-1.9,4.37-1.9,2.07,0,3.8,1.33,3.79,4.28Z"/><path class="cls-1" d="m828,203.2c0,3.33-2.23,6.01-5.67,6.01s-5.67-2.69-5.67-6.01,2.26-6.04,5.67-6.01c3.44,0,5.67,2.69,5.67,6.01Zm-9.31,0c0,2.44,1.41,4.17,3.64,4.17s3.64-1.71,3.64-4.17-1.39-4.17-3.64-4.17c-2.27,0-3.66,1.73-3.64,4.17Z"/><path class="cls-1" d="m841.59,208.9h-1.95v-1.48c-1.2,1.25-2.62,1.8-3.93,1.8-2.88,0-4.92-2.63-4.92-6.01,0-3.38,2.02-6.04,5.02-6.01,1.26,0,2.7.61,3.83,1.8v-6.04h1.95v15.95Zm-1.95-3.32v-4.74c-1.13-1.19-2.57-1.8-3.83-1.8-1.85,0-3.01,1.71-3,4.17-.02,2.48,1.12,4.17,3.06,4.17,1.15,0,2.64-.61,3.76-1.8Z"/><path class="cls-1" d="m70.67,238.05c-.77.49-1.73.77-2.65.78-1.7,0-3.27-.94-3.27-3.38v-6.69h-2.25v-1.25l2.12-.35h.14v-3.28h1.95v3.28h3.45v1.6h-3.45v6.69c0,1.25.82,1.63,1.75,1.62.59,0,1.23-.16,1.73-.36l.5,1.33Z"/><path class="cls-1" d="m78.16,226.8c3.56,0,5.29,2.68,5.3,5.99,0,.17,0,.33-.02.49h-8.73c0,.07.01.15.02.22.23,2.06,1.54,3.48,3.49,3.48,1.22,0,2.46-.35,3.74-1.05l.5,1.34c-1.33,1.03-2.91,1.56-4.29,1.56-3.32,0-5.51-2.69-5.51-6.01s2.19-6.04,5.51-6.01h0Zm-3.37,4.88h6.63c-.27-1.83-1.27-3.04-3.2-3.04-1.84,0-3.09,1.22-3.43,3.04Z"/><path class="cls-1" d="m103.67,231.08v7.43h-1.95v-7.43c.01-1.72-1-2.47-2.32-2.47-1.07,0-2.35.48-3.47,1.35.06.34.09.72.09,1.12v7.43h-1.95v-7.43c0-1.7-.98-2.46-2.26-2.46-1.09,0-2.39.54-3.47,1.52v8.37h-1.95v-11.39h1.95v1.42c1.18-1.16,2.59-1.74,3.92-1.74s2.6.6,3.25,1.9c1.27-1.21,2.89-1.9,4.37-1.9,2.07,0,3.8,1.33,3.79,4.28Z"/><path class="cls-1" d="m117.69,232.81c-.01,3.83-2.38,6-4.99,6.02-1.31,0-2.69-.53-3.86-1.67v5.91h-1.95v-15.95h1.95v1.48c1.14-1.19,2.52-1.8,3.92-1.8,2.9,0,4.92,2.63,4.93,6.01Zm-5.09,4.23c1.71-.02,3.07-1.38,3.07-4.23,0-2.47-1.14-4.17-3.06-4.17-1.13,0-2.6.57-3.77,1.8v4.63c1.2,1.24,2.57,1.98,3.76,1.96h0Z"/><path class="cls-1" d="m131.81,232.81c0,3.33-2.23,6.01-5.67,6.01s-5.67-2.69-5.67-6.01,2.26-6.04,5.67-6.01c3.44,0,5.67,2.69,5.67,6.01Zm-9.31,0c0,2.44,1.41,4.17,3.64,4.17s3.64-1.71,3.64-4.17-1.39-4.17-3.64-4.17c-2.27,0-3.66,1.73-3.64,4.17Z"/><path class="cls-1" d="m141.39,226.78c.1,0,.2,0,.3,0l-.35,1.98c-.11-.01-.23-.01-.36-.01-1.33,0-2.83.56-4.09,1.69v8.06h-1.95v-11.39h1.95v1.61c1.36-1.29,3.03-1.95,4.49-1.95h0Z"/><path class="cls-1" d="m151.92,224c0,.66-.54,1.2-1.2,1.2s-1.2-.54-1.2-1.2.54-1.2,1.2-1.2,1.2.54,1.2,1.2Zm-2.18,14.51v-11.39h1.95v11.39h-1.95Z"/><path class="cls-1" d="m165.27,231.08v7.43h-1.95v-7.43c0-1.68-1.01-2.46-2.33-2.46-1.1,0-2.54.54-3.72,1.59v8.3h-1.95v-11.39h1.95v1.44c1.26-1.2,2.8-1.76,4.11-1.76,2.08,0,3.89,1.37,3.89,4.28Z"/><path class="cls-1" d="m178.28,228.36l-.49,1.34c-1.28-.71-2.58-1.06-3.8-1.06-2.26,0-3.66,1.68-3.64,4.17,0,2.44,1.37,4.17,3.72,4.17,1.07,0,2.44-.35,3.71-1.05l.49,1.34c-1.28.99-2.81,1.55-4.33,1.55-3.35,0-5.63-2.69-5.63-6.01s2.3-6.04,5.66-6.01c1.39,0,2.96.53,4.29,1.56Z"/><path class="cls-1" d="m183.83,224c0,.66-.54,1.2-1.2,1.2s-1.2-.54-1.2-1.2.54-1.2,1.2-1.2,1.2.54,1.2,1.2Zm-2.18,14.51v-11.39h1.95v11.39h-1.95Z"/><path class="cls-1" d="m197.67,238.51h-1.95v-1.48c-1.2,1.25-2.62,1.8-3.93,1.8-2.88,0-4.92-2.63-4.92-6.01,0-3.38,2.02-6.04,5.02-6.01,1.26,0,2.7.61,3.83,1.8v-6.04h1.95v15.95Zm-1.95-3.32v-4.74c-1.13-1.19-2.57-1.8-3.83-1.8-1.85,0-3.01,1.71-3,4.17-.02,2.48,1.12,4.17,3.06,4.17,1.15,0,2.64-.61,3.76-1.8Z"/><path class="cls-1" d="m203.7,224c0,.66-.54,1.2-1.2,1.2s-1.2-.54-1.2-1.2.54-1.2,1.2-1.2,1.2.54,1.2,1.2Zm-2.18,14.51v-11.39h1.95v11.39h-1.95Z"/><path class="cls-1" d="m217.54,238.51h-1.95v-1.48c-1.2,1.25-2.62,1.8-3.93,1.8-2.88,0-4.92-2.63-4.92-6.01,0-3.38,2.02-6.04,5.02-6.01,1.26,0,2.7.61,3.83,1.8v-6.04h1.95v15.95Zm-1.95-3.32v-4.74c-1.13-1.19-2.57-1.8-3.83-1.8-1.85,0-3.01,1.71-3,4.17-.02,2.48,1.12,4.17,3.06,4.17,1.15,0,2.64-.61,3.76-1.8Z"/><path class="cls-1" d="m230.98,238.51h-1.95v-1.44c-1.22,1.16-2.74,1.76-4.07,1.76-2.16,0-3.94-1.33-3.94-4.28v-7.43h1.95v7.43c0,1.59.8,2.46,2.18,2.46,1.26,0,2.69-.54,3.87-1.59v-8.3h1.95v11.39Z"/><path class="cls-1" d="m244.33,231.08v7.43h-1.95v-7.43c0-1.68-1.01-2.46-2.33-2.46-1.1,0-2.54.54-3.72,1.59v8.3h-1.95v-11.39h1.95v1.44c1.26-1.2,2.8-1.76,4.11-1.76,2.08,0,3.89,1.37,3.89,4.28Z"/><path class="cls-1" d="m254.83,238.05c-.77.49-1.73.77-2.65.78-1.7,0-3.27-.94-3.27-3.38v-6.69h-2.25v-1.25l2.12-.35h.14v-3.28h1.95v3.28h3.45v1.6h-3.45v6.69c0,1.25.82,1.63,1.75,1.62.59,0,1.23-.16,1.73-.36l.5,1.33Z"/><path class="cls-1" d="m273.26,238.51h-1.95v-1.44c-1.22,1.16-2.74,1.76-4.07,1.76-2.16,0-3.94-1.33-3.94-4.28v-7.43h1.95v7.43c0,1.59.8,2.46,2.18,2.46,1.26,0,2.69-.54,3.87-1.59v-8.3h1.95v11.39Z"/><path class="cls-1" d="m283.76,238.05c-.77.49-1.73.77-2.65.78-1.7,0-3.27-.94-3.27-3.38v-6.69h-2.25v-1.25l2.12-.35h.14v-3.28h1.95v3.28h3.45v1.6h-3.45v6.69c0,1.25.82,1.63,1.75,1.62.59,0,1.23-.16,1.73-.36l.5,1.33Z"/><path class="cls-1" d="m294.42,235.45c0,1.25.82,1.63,1.75,1.62.21,0,.43-.02.64-.06l.57,1.52c-.53.19-1.09.29-1.64.29-1.7,0-3.27-.94-3.27-3.38v-12.89h1.95v12.89Z"/><path class="cls-1" d="m309.76,238.51h-1.95v-1.45c-1.19,1.23-2.6,1.77-3.9,1.77-2.87,0-4.92-2.63-4.92-6.01s2.04-6.02,4.92-6.02c1.31,0,2.71.54,3.9,1.77v-1.45h1.95v11.39Zm-1.95-3.29v-4.81c-1.12-1.17-2.59-1.77-3.75-1.77-1.91,0-3.04,1.64-3.04,4.17s1.14,4.17,3.04,4.17c1.16,0,2.63-.6,3.75-1.77Z"/><path class="cls-1" d="m319.24,226.8c2.9,0,4.92,2.64,4.93,6.01,0,3.38-2.03,6.01-4.93,6.01-1.41,0-2.78-.61-3.92-1.8v1.48h-1.95v-15.95h1.95v6.04c1.14-1.19,2.51-1.8,3.92-1.8h0Zm2.91,6.01c0-2.47-1.13-4.17-3.06-4.17-1.13,0-2.59.57-3.77,1.8v4.74c1.18,1.23,2.64,1.8,3.77,1.8,1.92,0,3.06-1.7,3.06-4.17Z"/><path class="cls-1" d="m338.34,232.81c0,3.33-2.23,6.01-5.67,6.01s-5.67-2.69-5.67-6.01,2.26-6.04,5.67-6.01c3.44,0,5.67,2.69,5.67,6.01Zm-9.31,0c0,2.44,1.41,4.17,3.64,4.17s3.64-1.71,3.64-4.17-1.39-4.17-3.64-4.17c-2.27,0-3.66,1.73-3.64,4.17Z"/><path class="cls-1" d="m347.92,226.78c.1,0,.2,0,.3,0l-.35,1.98c-.11-.01-.23-.01-.36-.01-1.33,0-2.83.56-4.09,1.69v8.06h-1.95v-11.39h1.95v1.61c1.36-1.29,3.02-1.95,4.49-1.95h0Z"/><path class="cls-1" d="m355.05,226.8c3.56,0,5.29,2.68,5.3,5.99,0,.17,0,.33-.02.49h-8.73c0,.07.01.15.02.22.23,2.06,1.54,3.48,3.49,3.48,1.22,0,2.46-.35,3.74-1.05l.5,1.34c-1.33,1.03-2.91,1.56-4.29,1.56-3.32,0-5.51-2.69-5.51-6.01s2.19-6.04,5.51-6.01h0Zm-3.37,4.88h6.63c-.27-1.83-1.27-3.04-3.2-3.04-1.84,0-3.09,1.22-3.43,3.04Z"/><path class="cls-1" d="m374.02,226.8c3.56,0,5.29,2.68,5.3,5.99,0,.17,0,.33-.02.49h-8.73c0,.07.01.15.02.22.23,2.06,1.54,3.48,3.49,3.48,1.22,0,2.46-.35,3.74-1.05l.5,1.34c-1.33,1.03-2.91,1.56-4.29,1.56-3.32,0-5.51-2.69-5.51-6.01s2.19-6.04,5.51-6.01h0Zm-3.37,4.88h6.63c-.27-1.83-1.27-3.04-3.2-3.04-1.84,0-3.09,1.22-3.43,3.04Z"/><path class="cls-1" d="m389.25,238.05c-.77.49-1.73.77-2.65.78-1.7,0-3.27-.94-3.27-3.38v-6.69h-2.25v-1.25l2.12-.35h.14v-3.28h1.95v3.28h3.45v1.6h-3.45v6.69c0,1.25.82,1.63,1.75,1.62.59,0,1.23-.16,1.73-.36l.5,1.33Z"/><path class="cls-1" d="m408.28,238.51h-1.95v-1.48c-1.2,1.25-2.62,1.8-3.93,1.8-2.88,0-4.92-2.63-4.92-6.01,0-3.38,2.02-6.04,5.02-6.01,1.26,0,2.7.61,3.83,1.8v-6.04h1.95v15.95Zm-1.95-3.32v-4.74c-1.13-1.19-2.57-1.8-3.83-1.8-1.85,0-3.01,1.71-3,4.17-.02,2.48,1.12,4.17,3.06,4.17,1.15,0,2.64-.61,3.76-1.8Z"/><path class="cls-1" d="m422.89,232.81c0,3.33-2.23,6.01-5.67,6.01s-5.67-2.69-5.67-6.01,2.26-6.04,5.67-6.01c3.44,0,5.67,2.69,5.67,6.01Zm-9.31,0c0,2.44,1.41,4.17,3.64,4.17s3.64-1.71,3.64-4.17-1.39-4.17-3.64-4.17c-2.27,0-3.66,1.73-3.64,4.17Z"/><path class="cls-1" d="m428.1,235.45c0,1.25.82,1.63,1.75,1.62.21,0,.43-.02.64-.06l.57,1.52c-.53.19-1.09.29-1.64.29-1.7,0-3.27-.94-3.27-3.38v-12.89h1.95v12.89Z"/><path class="cls-1" d="m444.28,232.81c0,3.33-2.23,6.01-5.67,6.01s-5.67-2.69-5.67-6.01,2.26-6.04,5.67-6.01c3.44,0,5.67,2.69,5.67,6.01Zm-9.31,0c0,2.44,1.41,4.17,3.64,4.17s3.64-1.71,3.64-4.17-1.39-4.17-3.64-4.17c-2.27,0-3.66,1.73-3.64,4.17Z"/><path class="cls-1" d="m453.87,226.78c.1,0,.2,0,.3,0l-.35,1.98c-.11-.01-.23-.01-.36-.01-1.33,0-2.83.56-4.09,1.69v8.06h-1.95v-11.39h1.95v1.61c1.36-1.29,3.03-1.95,4.49-1.95h0Z"/><path class="cls-1" d="m460.99,226.8c3.56,0,5.29,2.68,5.3,5.99,0,.17,0,.33-.02.49h-8.73c0,.07.01.15.02.22.23,2.06,1.54,3.48,3.49,3.48,1.22,0,2.46-.35,3.74-1.05l.5,1.34c-1.33,1.03-2.91,1.56-4.29,1.56-3.32,0-5.51-2.69-5.51-6.01s2.19-6.04,5.51-6.01h0Zm-3.37,4.88h6.63c-.27-1.83-1.27-3.04-3.2-3.04-1.84,0-3.09,1.22-3.43,3.04Z"/><path class="cls-1" d="m492.09,231.08v7.43h-1.95v-7.43c.01-1.72-1-2.47-2.32-2.47-1.07,0-2.35.48-3.47,1.35.06.34.09.72.09,1.12v7.43h-1.95v-7.43c0-1.7-.98-2.46-2.26-2.46-1.09,0-2.39.54-3.47,1.52v8.37h-1.95v-11.39h1.95v1.42c1.18-1.16,2.59-1.74,3.92-1.74s2.6.6,3.25,1.9c1.27-1.21,2.89-1.9,4.37-1.9,2.07,0,3.8,1.33,3.79,4.28Z"/><path class="cls-1" d="m505.79,238.51h-1.95v-1.45c-1.19,1.23-2.6,1.77-3.9,1.77-2.87,0-4.92-2.63-4.92-6.01s2.04-6.02,4.92-6.02c1.31,0,2.71.54,3.9,1.77v-1.45h1.95v11.39Zm-1.95-3.29v-4.81c-1.12-1.17-2.59-1.77-3.75-1.77-1.91,0-3.04,1.64-3.04,4.17s1.14,4.17,3.04,4.17c1.16,0,2.63-.6,3.75-1.77Z"/><path class="cls-1" d="m519.75,238.17c0,3.6-2.14,5.21-4.85,5.21-1.65,0-3.38-.6-4.92-1.89l.13-1.6c1.51,1.19,3.26,1.75,4.65,1.75,2.06,0,3.01-1.23,3.02-3.5v-1.44c-1.18,1.19-2.5,1.75-3.92,1.76-2.92-.02-4.94-2.56-4.94-5.85s2.05-5.83,4.94-5.83c1.35,0,2.72.55,3.91,1.75v-1.43h1.95v11.05Zm-1.96-3.2v-4.59c-1.05-1.09-2.52-1.75-3.77-1.75-1.91,0-3.05,1.57-3.05,4.03s1.11,4.06,3.05,4.07c1.2,0,2.65-.6,3.77-1.76Z"/><path class="cls-1" d="m533.21,231.08v7.43h-1.95v-7.43c0-1.68-1.01-2.46-2.33-2.46-1.1,0-2.54.54-3.72,1.59v8.3h-1.95v-11.39h1.95v1.44c1.26-1.2,2.8-1.76,4.11-1.76,2.08,0,3.89,1.37,3.89,4.28Z"/><path class="cls-1" d="m546.91,238.51h-1.95v-1.45c-1.19,1.23-2.6,1.77-3.9,1.77-2.87,0-4.92-2.63-4.92-6.01s2.04-6.02,4.92-6.02c1.31,0,2.71.54,3.9,1.77v-1.45h1.95v11.39Zm-1.95-3.29v-4.81c-1.12-1.17-2.59-1.77-3.75-1.77-1.91,0-3.04,1.64-3.04,4.17s1.14,4.17,3.04,4.17c1.16,0,2.63-.6,3.75-1.77Z"/><path class="cls-1" d="m566.29,238.51h-1.95v-1.45c-1.19,1.23-2.6,1.77-3.9,1.77-2.87,0-4.92-2.63-4.92-6.01s2.04-6.02,4.92-6.02c1.31,0,2.71.54,3.9,1.77v-1.45h1.95v11.39Zm-1.95-3.29v-4.81c-1.12-1.17-2.59-1.77-3.75-1.77-1.91,0-3.04,1.64-3.04,4.17s1.14,4.17,3.04,4.17c1.16,0,2.63-.6,3.75-1.77Z"/><path class="cls-1" d="m571.86,235.45c0,1.25.82,1.63,1.75,1.62.21,0,.43-.02.64-.06l.57,1.52c-.53.19-1.09.29-1.64.29-1.7,0-3.27-.94-3.27-3.38v-12.89h1.95v12.89Z"/><path class="cls-1" d="m580.11,224c0,.66-.54,1.2-1.2,1.2s-1.2-.54-1.2-1.2.54-1.2,1.2-1.2,1.2.54,1.2,1.2Zm-2.18,14.51v-11.39h1.95v11.39h-1.95Z"/><path class="cls-1" d="m593.54,243.07h-1.95v-5.91c-1.17,1.14-2.55,1.68-3.86,1.67-2.62-.01-4.98-2.19-4.99-6.02,0-3.38,2.03-6.01,4.93-6.01,1.41,0,2.78.61,3.92,1.8v-1.48h1.95v15.95Zm-1.95-7.99v-4.63c-1.18-1.23-2.64-1.8-3.77-1.8-1.92,0-3.06,1.7-3.06,4.17,0,2.85,1.36,4.2,3.07,4.23,1.19.02,2.56-.72,3.76-1.96Z"/><path class="cls-1" d="m607.05,238.51h-1.95v-1.44c-1.22,1.16-2.74,1.76-4.07,1.76-2.16,0-3.94-1.33-3.94-4.28v-7.43h1.95v7.43c0,1.59.8,2.46,2.18,2.46,1.26,0,2.69-.54,3.87-1.59v-8.3h1.95v11.39Z"/><path class="cls-1" d="m620.76,238.51h-1.95v-1.45c-1.19,1.23-2.6,1.77-3.9,1.77-2.87,0-4.92-2.63-4.92-6.01s2.04-6.02,4.92-6.02c1.31,0,2.71.54,3.9,1.77v-1.45h1.95v11.39Zm-1.95-3.29v-4.81c-1.12-1.17-2.59-1.77-3.75-1.77-1.91,0-3.04,1.64-3.04,4.17s1.14,4.17,3.04,4.17c1.16,0,2.63-.6,3.75-1.77Z"/><path class="cls-1" d="m626.11,237.32c0,.7-.57,1.27-1.27,1.27-.7,0-1.27-.57-1.27-1.27s.57-1.27,1.27-1.27c.7,0,1.27.57,1.27,1.27Z"/><path class="cls-1" d="m648.05,233.11c0,3.16-2.56,5.72-6.5,5.72s-6.5-2.55-6.5-5.72v-10.55h2.16v10.55c0,2.25,1.66,3.81,4.33,3.81s4.33-1.55,4.33-3.81v-10.55h2.16v10.55Z"/><path class="cls-1" d="m659.1,238.05c-.77.49-1.73.77-2.65.78-1.7,0-3.27-.94-3.27-3.38v-6.69h-2.25v-1.25l2.12-.35h.14v-3.28h1.95v3.28h3.45v1.6h-3.45v6.69c0,1.25.82,1.63,1.75,1.62.59,0,1.23-.16,1.73-.36l.5,1.33Z"/><path class="cls-1" d="m672.85,226.8c3.56,0,5.29,2.68,5.3,5.99,0,.17,0,.33-.02.49h-8.73c0,.07.01.15.02.22.23,2.06,1.54,3.48,3.49,3.48,1.22,0,2.46-.35,3.74-1.05l.5,1.34c-1.33,1.03-2.91,1.56-4.29,1.56-3.32,0-5.51-2.69-5.51-6.01s2.19-6.04,5.51-6.01h0Zm-3.37,4.88h6.63c-.27-1.83-1.27-3.04-3.2-3.04-1.84,0-3.09,1.22-3.43,3.04Z"/><path class="cls-1" d="m691.04,231.08v7.43h-1.95v-7.43c0-1.68-1.01-2.46-2.33-2.46-1.1,0-2.54.54-3.72,1.59v8.3h-1.95v-11.39h1.95v1.44c1.26-1.2,2.8-1.76,4.11-1.76,2.08,0,3.89,1.37,3.89,4.28Z"/><path class="cls-1" d="m696.84,224c0,.66-.54,1.2-1.2,1.2s-1.2-.54-1.2-1.2.54-1.2,1.2-1.2,1.2.54,1.2,1.2Zm-2.18,14.51v-11.39h1.95v11.39h-1.95Z"/><path class="cls-1" d="m717.52,231.08v7.43h-1.95v-7.43c0-1.72-1-2.47-2.33-2.47-1.07,0-2.35.48-3.47,1.35.06.34.09.72.09,1.12v7.43h-1.95v-7.43c0-1.7-.98-2.46-2.26-2.46-1.09,0-2.39.54-3.47,1.52v8.37h-1.95v-11.39h1.95v1.42c1.18-1.16,2.59-1.74,3.92-1.74s2.6.6,3.25,1.9c1.27-1.21,2.89-1.9,4.37-1.9,2.07,0,3.8,1.33,3.79,4.28Z"/><path class="cls-1" d="m736.81,238.51h-1.95v-1.45c-1.19,1.23-2.6,1.77-3.9,1.77-2.87,0-4.92-2.63-4.92-6.01s2.04-6.02,4.92-6.02c1.31,0,2.71.54,3.9,1.77v-1.45h1.95v11.39Zm-1.95-3.29v-4.81c-1.12-1.17-2.59-1.77-3.75-1.77-1.91,0-3.04,1.64-3.04,4.17s1.14,4.17,3.04,4.17c1.16,0,2.63-.6,3.75-1.77Z"/><path class="cls-1" d="m750.75,238.51h-1.95v-1.48c-1.2,1.25-2.62,1.8-3.93,1.8-2.88,0-4.92-2.63-4.92-6.01,0-3.38,2.02-6.04,5.02-6.01,1.26,0,2.7.61,3.83,1.8v-6.04h1.95v15.95Zm-1.95-3.32v-4.74c-1.13-1.19-2.57-1.8-3.83-1.8-1.85,0-3.01,1.71-3,4.17-.02,2.48,1.12,4.17,3.06,4.17,1.15,0,2.64-.61,3.76-1.8Z"/><path class="cls-1" d="m777.23,231.08v7.43h-1.95v-7.43c.01-1.72-1-2.47-2.32-2.47-1.07,0-2.35.48-3.47,1.35.06.34.09.72.09,1.12v7.43h-1.95v-7.43c0-1.7-.98-2.46-2.26-2.46-1.09,0-2.39.54-3.47,1.52v8.37h-1.95v-11.39h1.95v1.42c1.18-1.16,2.59-1.74,3.92-1.74s2.6.6,3.25,1.9c1.27-1.21,2.89-1.9,4.37-1.9,2.07,0,3.8,1.33,3.79,4.28Z"/><path class="cls-1" d="m783.04,224c0,.66-.54,1.2-1.2,1.2s-1.2-.54-1.2-1.2.54-1.2,1.2-1.2,1.2.54,1.2,1.2Zm-2.18,14.51v-11.39h1.95v11.39h-1.95Z"/><path class="cls-1" d="m796.39,231.08v7.43h-1.95v-7.43c0-1.68-1.01-2.46-2.33-2.46-1.1,0-2.54.54-3.72,1.59v8.3h-1.95v-11.39h1.95v1.44c1.26-1.2,2.8-1.76,4.11-1.76,2.08,0,3.89,1.37,3.89,4.28Z"/><path class="cls-1" d="m802.19,224c0,.66-.54,1.2-1.2,1.2s-1.2-.54-1.2-1.2.54-1.2,1.2-1.2,1.2.54,1.2,1.2Zm-2.18,14.51v-11.39h1.95v11.39h-1.95Z"/><path class="cls-1" d="m822.87,231.08v7.43h-1.95v-7.43c0-1.72-1-2.47-2.33-2.47-1.07,0-2.35.48-3.47,1.35.06.34.09.72.09,1.12v7.43h-1.95v-7.43c0-1.7-.98-2.46-2.26-2.46-1.09,0-2.39.54-3.47,1.52v8.37h-1.95v-11.39h1.95v1.42c1.18-1.16,2.59-1.74,3.92-1.74s2.6.6,3.25,1.9c1.27-1.21,2.89-1.9,4.37-1.9,2.07,0,3.8,1.33,3.79,4.28Z"/><path class="cls-1" d="m837.21,238.51h-2.05l-4.57-11.39h2.1l3.51,9.12,3.49-9.12h2.1l-4.58,11.39Z"/><path class="cls-1" d="m848.61,226.8c3.56,0,5.29,2.68,5.3,5.99,0,.17,0,.33-.02.49h-8.73c0,.07.01.15.02.22.23,2.06,1.54,3.48,3.49,3.48,1.22,0,2.46-.35,3.74-1.05l.5,1.34c-1.33,1.03-2.91,1.56-4.29,1.56-3.32,0-5.51-2.69-5.51-6.01s2.19-6.04,5.51-6.01h0Zm-3.37,4.88h6.63c-.27-1.83-1.27-3.04-3.2-3.04-1.84,0-3.09,1.22-3.43,3.04Z"/><path class="cls-1" d="m866.79,231.08v7.43h-1.95v-7.43c0-1.68-1.01-2.46-2.33-2.46-1.1,0-2.54.54-3.72,1.59v8.3h-1.95v-11.39h1.95v1.44c1.26-1.2,2.8-1.76,4.11-1.76,2.08,0,3.89,1.37,3.89,4.28Z"/><path class="cls-1" d="m872.6,224c0,.66-.54,1.2-1.2,1.2s-1.2-.54-1.2-1.2.54-1.2,1.2-1.2,1.2.54,1.2,1.2Zm-2.18,14.51v-11.39h1.95v11.39h-1.95Z"/><path class="cls-1" d="m886.3,238.51h-1.95v-1.45c-1.19,1.23-2.6,1.77-3.9,1.77-2.87,0-4.92-2.63-4.92-6.01s2.04-6.02,4.92-6.02c1.31,0,2.71.54,3.9,1.77v-1.45h1.95v11.39Zm-1.95-3.29v-4.81c-1.12-1.17-2.59-1.77-3.75-1.77-1.91,0-3.04,1.64-3.04,4.17s1.14,4.17,3.04,4.17c1.16,0,2.63-.6,3.75-1.77Z"/><path class="cls-1" d="m907.09,231.08v7.43h-1.95v-7.43c.01-1.72-1-2.47-2.32-2.47-1.07,0-2.35.48-3.47,1.35.06.34.09.72.09,1.12v7.43h-1.95v-7.43c0-1.7-.98-2.46-2.26-2.46-1.09,0-2.39.54-3.47,1.52v8.37h-1.95v-11.39h1.95v1.42c1.18-1.16,2.59-1.74,3.92-1.74s2.6.6,3.25,1.9c1.27-1.21,2.89-1.9,4.37-1.9,2.07,0,3.8,1.33,3.79,4.28Z"/><path class="cls-1" d="m912.65,237.31c.22,1.33-.8,3.26-2.11,4.24l-.86-.55c.66-.65,1.12-1.4,1.31-2.47-.49-.14-.92-.59-.92-1.22,0-.7.57-1.27,1.27-1.26.65,0,1.17.47,1.31,1.26Z"/><path class="cls-1" d="m73.61,272.68h-1.95v-5.91c-1.17,1.14-2.55,1.68-3.86,1.67-2.62-.01-4.98-2.19-4.99-6.02,0-3.38,2.03-6.01,4.93-6.01,1.41,0,2.78.61,3.92,1.8v-1.48h1.95v15.95Zm-1.95-7.99v-4.63c-1.18-1.23-2.64-1.8-3.77-1.8-1.92,0-3.06,1.7-3.06,4.17,0,2.85,1.36,4.2,3.07,4.23,1.19.02,2.56-.72,3.76-1.96Z"/><path class="cls-1" d="m87.12,268.12h-1.95v-1.44c-1.22,1.16-2.74,1.76-4.07,1.76-2.16,0-3.94-1.33-3.94-4.28v-7.43h1.95v7.43c0,1.59.8,2.46,2.18,2.46,1.26,0,2.69-.54,3.87-1.59v-8.3h1.95v11.39Z"/><path class="cls-1" d="m92.93,253.61c0,.66-.54,1.2-1.2,1.2s-1.2-.54-1.2-1.2.54-1.2,1.2-1.2,1.2.54,1.2,1.2Zm-2.18,14.51v-11.39h1.95v11.39h-1.95Z"/><path class="cls-1" d="m104.33,257.92l-.91,1.37c-.7-.76-1.99-1.17-3.27-1.17-1.44,0-2.43.51-2.43,1.6,0,.84.59,1.14,2.69,1.69,1.79.48,4.26,1.02,4.28,3.53.02,2.5-2.46,3.49-4.7,3.49-1.82,0-3.61-.66-4.5-1.85l.91-1.38c.68.99,2.12,1.54,3.55,1.54,1.51,0,2.79-.64,2.79-1.8s-1.24-1.36-2.87-1.8c-2.88-.76-4.09-1.47-4.08-3.33,0-2.5,2.16-3.41,4.3-3.41,1.48,0,3.19.43,4.23,1.51Z"/><path class="cls-1" d="m122.93,260.69v7.43h-1.95v-7.43c0-1.68-1.01-2.46-2.33-2.46-1.1,0-2.54.54-3.72,1.59v8.3h-1.95v-11.39h1.95v1.44c1.26-1.2,2.8-1.76,4.11-1.76,2.08,0,3.89,1.37,3.89,4.28Z"/><path class="cls-1" d="m137.32,262.43c0,3.33-2.23,6.01-5.67,6.01s-5.67-2.69-5.67-6.01,2.26-6.04,5.67-6.01c3.44,0,5.67,2.69,5.67,6.01Zm-9.31,0c0,2.44,1.41,4.17,3.64,4.17s3.64-1.71,3.64-4.17-1.39-4.17-3.64-4.17c-2.27,0-3.66,1.73-3.64,4.17Z"/><path class="cls-1" d="m148.47,257.92l-.91,1.37c-.7-.76-1.99-1.17-3.27-1.17-1.44,0-2.43.51-2.43,1.6,0,.84.59,1.14,2.69,1.69,1.79.48,4.26,1.02,4.28,3.53.02,2.5-2.46,3.49-4.7,3.49-1.82,0-3.61-.66-4.5-1.85l.91-1.38c.68.99,2.12,1.54,3.55,1.54,1.51,0,2.79-.64,2.79-1.8s-1.24-1.36-2.87-1.8c-2.88-.76-4.09-1.47-4.08-3.33,0-2.5,2.16-3.41,4.3-3.41,1.48,0,3.19.43,4.23,1.51Z"/><path class="cls-1" d="m158.64,267.66c-.77.49-1.73.77-2.65.78-1.7,0-3.27-.94-3.27-3.38v-6.69h-2.25v-1.25l2.12-.35h.14v-3.28h1.95v3.28h3.45v1.6h-3.45v6.69c0,1.25.82,1.63,1.75,1.62.59,0,1.23-.16,1.73-.36l.5,1.33Z"/><path class="cls-1" d="m168.09,256.4c.1,0,.2,0,.3,0l-.35,1.98c-.11-.01-.23-.01-.36-.01-1.33,0-2.83.56-4.09,1.69v8.06h-1.95v-11.39h1.95v1.61c1.36-1.29,3.02-1.95,4.49-1.95h0Z"/><path class="cls-1" d="m180.46,268.12h-1.95v-1.44c-1.22,1.16-2.74,1.76-4.07,1.76-2.16,0-3.94-1.33-3.94-4.28v-7.43h1.95v7.43c0,1.59.8,2.46,2.18,2.46,1.26,0,2.69-.54,3.87-1.59v-8.3h1.95v11.39Z"/><path class="cls-1" d="m194.3,268.12h-1.95v-1.48c-1.2,1.25-2.62,1.8-3.93,1.8-2.88,0-4.92-2.63-4.92-6.01,0-3.38,2.02-6.04,5.02-6.01,1.26,0,2.7.61,3.83,1.8v-6.04h1.95v15.95Zm-1.95-3.32v-4.74c-1.13-1.19-2.57-1.8-3.83-1.8-1.85,0-3.01,1.71-3,4.17-.02,2.48,1.12,4.17,3.06,4.17,1.15,0,2.64-.61,3.76-1.8Z"/><path class="cls-1" d="m208.65,256.41c3.56,0,5.29,2.68,5.3,5.99,0,.17,0,.33-.02.49h-8.73c0,.07.01.15.02.22.23,2.06,1.54,3.48,3.49,3.48,1.22,0,2.46-.35,3.74-1.05l.5,1.34c-1.33,1.03-2.91,1.56-4.29,1.56-3.32,0-5.51-2.69-5.51-6.01s2.19-6.04,5.51-6.01h0Zm-3.37,4.88h6.63c-.27-1.83-1.27-3.04-3.2-3.04-1.84,0-3.09,1.22-3.43,3.04Z"/><path class="cls-1" d="m226.76,268.12h-2.25l-3.44-4.51-3.29,4.51h-2.23l4.43-5.94-4.15-5.45h2.25l3.17,4.15,3.02-4.15h2.22l-4.16,5.58,4.43,5.81Z"/><path class="cls-1" d="m233.62,256.41c3.56,0,5.29,2.68,5.3,5.99,0,.17,0,.33-.02.49h-8.73c0,.07.01.15.02.22.23,2.06,1.54,3.48,3.49,3.48,1.22,0,2.46-.35,3.74-1.05l.5,1.34c-1.33,1.03-2.91,1.56-4.29,1.56-3.32,0-5.51-2.69-5.51-6.01s2.19-6.04,5.51-6.01h0Zm-3.37,4.88h6.63c-.27-1.83-1.27-3.04-3.2-3.04-1.84,0-3.09,1.22-3.43,3.04Z"/><path class="cls-1" d="m248.29,256.4c.1,0,.2,0,.3,0l-.35,1.98c-.11-.01-.23-.01-.36-.01-1.33,0-2.83.56-4.09,1.69v8.06h-1.95v-11.39h1.95v1.61c1.36-1.29,3.02-1.95,4.49-1.95h0Z"/><path class="cls-1" d="m259.98,257.97l-.49,1.34c-1.28-.71-2.58-1.06-3.8-1.06-2.26,0-3.66,1.68-3.64,4.17,0,2.44,1.37,4.17,3.72,4.17,1.07,0,2.44-.35,3.71-1.05l.49,1.34c-1.28.99-2.81,1.55-4.33,1.55-3.35,0-5.63-2.69-5.63-6.01s2.3-6.04,5.66-6.01c1.39,0,2.96.53,4.29,1.56Z"/><path class="cls-1" d="m265.54,253.61c0,.66-.54,1.2-1.2,1.2s-1.2-.54-1.2-1.2.54-1.2,1.2-1.2,1.2.54,1.2,1.2Zm-2.18,14.51v-11.39h1.95v11.39h-1.95Z"/><path class="cls-1" d="m276.04,267.66c-.77.49-1.73.77-2.65.78-1.7,0-3.27-.94-3.27-3.38v-6.69h-2.25v-1.25l2.12-.35h.14v-3.28h1.95v3.28h3.45v1.6h-3.45v6.69c0,1.25.82,1.63,1.75,1.62.59,0,1.23-.16,1.73-.36l.5,1.33Z"/><path class="cls-1" d="m288.67,268.12h-1.95v-1.45c-1.19,1.23-2.6,1.77-3.9,1.77-2.87,0-4.92-2.63-4.92-6.01s2.04-6.02,4.92-6.02c1.31,0,2.71.54,3.9,1.77v-1.45h1.95v11.39Zm-1.95-3.29v-4.81c-1.12-1.17-2.59-1.77-3.75-1.77-1.91,0-3.04,1.64-3.04,4.17s1.14,4.17,3.04,4.17c1.16,0,2.63-.6,3.75-1.77Z"/><path class="cls-1" d="m299.28,267.66c-.77.49-1.73.77-2.65.78-1.7,0-3.27-.94-3.27-3.38v-6.69h-2.25v-1.25l2.12-.35h.14v-3.28h1.95v3.28h3.45v1.6h-3.45v6.69c0,1.25.82,1.63,1.75,1.62.59,0,1.23-.16,1.73-.36l.5,1.33Z"/><path class="cls-1" d="m304.7,253.61c0,.66-.54,1.2-1.2,1.2s-1.2-.54-1.2-1.2.54-1.2,1.2-1.2,1.2.54,1.2,1.2Zm-2.18,14.51v-11.39h1.95v11.39h-1.95Z"/><path class="cls-1" d="m319.09,262.43c0,3.33-2.23,6.01-5.67,6.01s-5.67-2.69-5.67-6.01,2.26-6.04,5.67-6.01c3.44,0,5.67,2.69,5.67,6.01Zm-9.31,0c0,2.44,1.41,4.17,3.64,4.17s3.64-1.71,3.64-4.17-1.39-4.17-3.64-4.17c-2.27,0-3.66,1.73-3.64,4.17Z"/><path class="cls-1" d="m332.19,260.69v7.43h-1.95v-7.43c0-1.68-1.01-2.46-2.33-2.46-1.1,0-2.54.54-3.72,1.59v8.3h-1.95v-11.39h1.95v1.44c1.26-1.2,2.8-1.76,4.11-1.76,2.08,0,3.89,1.37,3.89,4.28Z"/><path class="cls-1" d="m351,268.12h-1.95v-1.44c-1.22,1.16-2.74,1.76-4.07,1.76-2.16,0-3.94-1.33-3.94-4.28v-7.43h1.95v7.43c0,1.59.8,2.46,2.18,2.46,1.26,0,2.69-.54,3.87-1.59v-8.3h1.95v11.39Z"/><path class="cls-1" d="m356.47,265.06c0,1.25.82,1.63,1.75,1.62.21,0,.43-.02.64-.06l.57,1.52c-.53.19-1.09.29-1.64.29-1.7,0-3.27-.94-3.27-3.38v-12.89h1.95v12.89Z"/><path class="cls-1" d="m364.37,265.06c0,1.25.82,1.63,1.75,1.62.21,0,.43-.02.64-.06l.57,1.52c-.53.19-1.09.29-1.64.29-1.7,0-3.27-.94-3.27-3.38v-12.89h1.95v12.89Z"/><path class="cls-1" d="m379.72,268.12h-1.95v-1.45c-1.19,1.23-2.6,1.77-3.9,1.77-2.87,0-4.92-2.63-4.92-6.01s2.04-6.02,4.92-6.02c1.31,0,2.71.54,3.9,1.77v-1.45h1.95v11.39Zm-1.95-3.29v-4.81c-1.12-1.17-2.59-1.77-3.75-1.77-1.91,0-3.04,1.64-3.04,4.17s1.14,4.17,3.04,4.17c1.16,0,2.63-.6,3.75-1.77Z"/><path class="cls-1" d="m400.5,260.7v7.43h-1.95v-7.43c.01-1.72-1-2.47-2.32-2.47-1.07,0-2.35.48-3.47,1.35.06.34.09.72.09,1.12v7.43h-1.95v-7.43c0-1.7-.98-2.46-2.26-2.46-1.09,0-2.39.54-3.47,1.52v8.37h-1.95v-11.39h1.95v1.42c1.18-1.16,2.59-1.74,3.92-1.74s2.6.6,3.25,1.9c1.27-1.21,2.89-1.9,4.37-1.9,2.07,0,3.8,1.33,3.79,4.28Z"/><path class="cls-1" d="m413.51,257.97l-.49,1.34c-1.28-.71-2.58-1.06-3.8-1.06-2.26,0-3.66,1.68-3.64,4.17,0,2.44,1.37,4.17,3.72,4.17,1.07,0,2.44-.35,3.71-1.05l.49,1.34c-1.28.99-2.81,1.55-4.33,1.55-3.35,0-5.63-2.69-5.63-6.01s2.3-6.04,5.66-6.01c1.39,0,2.96.53,4.29,1.56Z"/><path class="cls-1" d="m427.31,262.43c0,3.33-2.23,6.01-5.67,6.01s-5.67-2.69-5.67-6.01,2.26-6.04,5.67-6.01c3.44,0,5.67,2.69,5.67,6.01Zm-9.31,0c0,2.44,1.41,4.17,3.64,4.17s3.64-1.71,3.64-4.17-1.39-4.17-3.64-4.17c-2.27,0-3.66,1.73-3.64,4.17Z"/><path class="cls-1" d="m438.1,265.06c0,1.25.82,1.63,1.75,1.62.21,0,.43-.02.64-.06l.57,1.52c-.53.19-1.09.29-1.64.29-1.7,0-3.27-.94-3.27-3.38v-12.89h1.95v12.89Z"/><path class="cls-1" d="m453.45,268.12h-1.95v-1.45c-1.19,1.23-2.6,1.77-3.9,1.77-2.87,0-4.92-2.63-4.92-6.01s2.04-6.02,4.92-6.02c1.31,0,2.71.54,3.9,1.77v-1.45h1.95v11.39Zm-1.95-3.29v-4.81c-1.12-1.17-2.59-1.77-3.75-1.77-1.91,0-3.04,1.64-3.04,4.17s1.14,4.17,3.04,4.17c1.16,0,2.63-.6,3.75-1.77Z"/><path class="cls-1" d="m462.93,256.41c2.9,0,4.92,2.64,4.93,6.01,0,3.38-2.03,6.01-4.93,6.01-1.41,0-2.78-.61-3.92-1.8v1.48h-1.95v-15.95h1.95v6.04c1.14-1.19,2.51-1.8,3.92-1.8h0Zm2.91,6.01c0-2.47-1.13-4.17-3.06-4.17-1.13,0-2.59.57-3.77,1.8v4.74c1.18,1.23,2.64,1.8,3.77,1.8,1.92,0,3.06-1.7,3.06-4.17Z"/><path class="cls-1" d="m482.02,262.43c0,3.33-2.23,6.01-5.67,6.01s-5.67-2.69-5.67-6.01,2.26-6.04,5.67-6.01c3.44,0,5.67,2.69,5.67,6.01Zm-9.31,0c0,2.44,1.41,4.17,3.64,4.17s3.64-1.71,3.64-4.17-1.39-4.17-3.64-4.17c-2.27,0-3.66,1.73-3.64,4.17Z"/><path class="cls-1" d="m491.61,256.4c.1,0,.2,0,.3,0l-.35,1.98c-.11-.01-.23-.01-.36-.01-1.33,0-2.83.56-4.09,1.69v8.06h-1.95v-11.39h1.95v1.61c1.36-1.29,3.03-1.95,4.49-1.95h0Z"/><path class="cls-1" d="m496.56,253.61c0,.66-.54,1.2-1.2,1.2s-1.2-.54-1.2-1.2.54-1.2,1.2-1.2,1.2.54,1.2,1.2Zm-2.18,14.51v-11.39h1.95v11.39h-1.95Z"/><path class="cls-1" d="m507.96,257.92l-.91,1.37c-.7-.76-1.99-1.17-3.27-1.17-1.44,0-2.43.51-2.43,1.6,0,.84.59,1.14,2.69,1.69,1.79.48,4.26,1.02,4.28,3.53.02,2.5-2.46,3.49-4.7,3.49-1.82,0-3.61-.66-4.5-1.85l.91-1.38c.68.99,2.12,1.54,3.55,1.54,1.51,0,2.79-.64,2.79-1.8s-1.24-1.36-2.87-1.8c-2.88-.76-4.09-1.47-4.08-3.33,0-2.5,2.16-3.41,4.3-3.41,1.48,0,3.19.43,4.23,1.51Z"/><path class="cls-1" d="m526.56,260.69v7.43h-1.95v-7.43c0-1.68-1.01-2.46-2.33-2.46-1.1,0-2.54.54-3.72,1.59v8.3h-1.95v-11.39h1.95v1.44c1.26-1.2,2.8-1.76,4.11-1.76,2.08,0,3.89,1.37,3.89,4.28Z"/><path class="cls-1" d="m532.36,253.61c0,.66-.54,1.2-1.2,1.2s-1.2-.54-1.2-1.2.54-1.2,1.2-1.2,1.2.54,1.2,1.2Zm-2.18,14.51v-11.39h1.95v11.39h-1.95Z"/><path class="cls-1" d="m543.77,257.92l-.91,1.37c-.7-.76-1.99-1.17-3.27-1.17-1.44,0-2.43.51-2.43,1.6,0,.84.59,1.14,2.69,1.69,1.79.48,4.26,1.02,4.28,3.53.02,2.5-2.46,3.49-4.7,3.49-1.82,0-3.61-.66-4.5-1.85l.91-1.38c.68.99,2.12,1.54,3.55,1.54,1.51,0,2.79-.64,2.79-1.8s-1.24-1.36-2.87-1.8c-2.88-.76-4.09-1.47-4.08-3.33,0-2.5,2.16-3.41,4.3-3.41,1.48,0,3.19.43,4.23,1.51Z"/><path class="cls-1" d="m549.24,253.61c0,.66-.54,1.2-1.2,1.2s-1.2-.54-1.2-1.2.54-1.2,1.2-1.2,1.2.54,1.2,1.2Zm-2.18,14.51v-11.39h1.95v11.39h-1.95Z"/><path class="cls-1" d="m568.06,268.12h-1.95v-1.44c-1.22,1.16-2.74,1.76-4.07,1.76-2.16,0-3.94-1.33-3.94-4.28v-7.43h1.95v7.43c0,1.59.8,2.46,2.18,2.46,1.26,0,2.69-.54,3.87-1.59v-8.3h1.95v11.39Z"/><path class="cls-1" d="m578.56,267.66c-.77.49-1.73.77-2.65.78-1.7,0-3.27-.94-3.27-3.38v-6.69h-2.25v-1.25l2.12-.35h.14v-3.28h1.95v3.28h3.45v1.6h-3.45v6.69c0,1.25.82,1.63,1.75,1.62.59,0,1.23-.16,1.73-.36l.5,1.33Z"/><path class="cls-1" d="m597.46,268.12h-1.95v-1.45c-1.19,1.23-2.6,1.77-3.9,1.77-2.87,0-4.92-2.63-4.92-6.01s2.04-6.02,4.92-6.02c1.31,0,2.71.54,3.9,1.77v-1.45h1.95v11.39Zm-1.95-3.29v-4.81c-1.12-1.17-2.59-1.77-3.75-1.77-1.91,0-3.04,1.64-3.04,4.17s1.14,4.17,3.04,4.17c1.16,0,2.63-.6,3.75-1.77Z"/><path class="cls-1" d="m603.02,265.06c0,1.25.82,1.63,1.75,1.62.21,0,.43-.02.64-.06l.57,1.52c-.53.19-1.09.29-1.64.29-1.7,0-3.27-.94-3.27-3.38v-12.89h1.95v12.89Z"/><path class="cls-1" d="m611.27,253.61c0,.66-.54,1.2-1.2,1.2s-1.2-.54-1.2-1.2.54-1.2,1.2-1.2,1.2.54,1.2,1.2Zm-2.18,14.51v-11.39h1.95v11.39h-1.95Z"/><path class="cls-1" d="m624.71,272.68h-1.95v-5.91c-1.17,1.14-2.55,1.68-3.86,1.67-2.62-.01-4.98-2.19-4.99-6.02,0-3.38,2.03-6.01,4.93-6.01,1.41,0,2.78.61,3.92,1.8v-1.48h1.95v15.95Zm-1.95-7.99v-4.63c-1.18-1.23-2.64-1.8-3.77-1.8-1.92,0-3.06,1.7-3.06,4.17,0,2.85,1.36,4.2,3.07,4.23,1.19.02,2.56-.72,3.76-1.96Z"/><path class="cls-1" d="m638.22,268.12h-1.95v-1.44c-1.22,1.16-2.74,1.76-4.07,1.76-2.16,0-3.94-1.33-3.94-4.28v-7.43h1.95v7.43c0,1.59.8,2.46,2.18,2.46,1.26,0,2.69-.54,3.87-1.59v-8.3h1.95v11.39Z"/><path class="cls-1" d="m644.02,253.61c0,.66-.54,1.2-1.2,1.2s-1.2-.54-1.2-1.2.54-1.2,1.2-1.2,1.2.54,1.2,1.2Zm-2.18,14.51v-11.39h1.95v11.39h-1.95Z"/><path class="cls-1" d="m658.04,262.43c-.01,3.83-2.38,6-4.99,6.02-1.31,0-2.69-.53-3.86-1.67v5.91h-1.95v-15.95h1.95v1.48c1.14-1.19,2.52-1.8,3.92-1.8,2.9,0,4.92,2.63,4.93,6.01Zm-5.09,4.23c1.71-.02,3.07-1.38,3.07-4.23,0-2.47-1.14-4.17-3.06-4.17-1.13,0-2.6.57-3.77,1.8v4.63c1.2,1.24,2.57,1.98,3.76,1.96h0Z"/><path class="cls-1" d="m671.9,256.41c3.56,0,5.29,2.68,5.3,5.99,0,.17,0,.33-.02.49h-8.73c0,.07.01.15.02.22.23,2.06,1.54,3.48,3.49,3.48,1.22,0,2.46-.35,3.74-1.05l.5,1.34c-1.33,1.03-2.91,1.56-4.29,1.56-3.32,0-5.51-2.69-5.51-6.01s2.19-6.04,5.51-6.01h0Zm-3.37,4.88h6.63c-.27-1.83-1.27-3.04-3.2-3.04-1.84,0-3.09,1.22-3.43,3.04Z"/><path class="cls-1" d="m690,268.12h-2.25l-3.44-4.51-3.29,4.51h-2.23l4.43-5.94-4.15-5.45h2.25l3.17,4.15,3.02-4.15h2.22l-4.16,5.58,4.43,5.81Z"/><path class="cls-1" d="m703.24,256.41c3.56,0,5.29,2.68,5.3,5.99,0,.17,0,.33-.02.49h-8.73c0,.07.01.15.02.22.23,2.06,1.54,3.48,3.49,3.48,1.22,0,2.46-.35,3.74-1.05l.5,1.34c-1.33,1.03-2.91,1.56-4.29,1.56-3.32,0-5.51-2.69-5.51-6.01s2.19-6.04,5.51-6.01h0Zm-3.37,4.88h6.63c-.27-1.83-1.27-3.04-3.2-3.04-1.84,0-3.09,1.22-3.43,3.04Z"/><path class="cls-1" d="m721.78,268.12h-1.95v-1.45c-1.19,1.23-2.6,1.77-3.9,1.77-2.87,0-4.92-2.63-4.92-6.01s2.04-6.02,4.92-6.02c1.31,0,2.71.54,3.9,1.77v-1.45h1.95v11.39Zm-1.95-3.29v-4.81c-1.12-1.17-2.59-1.77-3.75-1.77-1.91,0-3.04,1.64-3.04,4.17s1.14,4.17,3.04,4.17c1.16,0,2.63-.6,3.75-1.77Z"/><path class="cls-1" d="m740.47,257.97l-.49,1.34c-1.28-.71-2.58-1.06-3.8-1.06-2.26,0-3.66,1.68-3.64,4.17,0,2.44,1.37,4.17,3.72,4.17,1.07,0,2.44-.35,3.71-1.05l.49,1.34c-1.28.99-2.81,1.55-4.33,1.55-3.35,0-5.63-2.69-5.63-6.01s2.3-6.04,5.66-6.01c1.39,0,2.96.53,4.29,1.56Z"/><path class="cls-1" d="m754.27,262.43c0,3.33-2.23,6.01-5.67,6.01s-5.67-2.69-5.67-6.01,2.26-6.04,5.67-6.01c3.44,0,5.67,2.69,5.67,6.01Zm-9.31,0c0,2.44,1.41,4.17,3.64,4.17s3.64-1.71,3.64-4.17-1.39-4.17-3.64-4.17c-2.27,0-3.66,1.73-3.64,4.17Z"/><path class="cls-1" d="m774.7,260.7v7.43h-1.95v-7.43c0-1.72-1-2.47-2.33-2.47-1.07,0-2.35.48-3.47,1.35.06.34.09.72.09,1.12v7.43h-1.95v-7.43c0-1.7-.98-2.46-2.26-2.46-1.09,0-2.39.54-3.47,1.52v8.37h-1.95v-11.39h1.95v1.42c1.18-1.16,2.59-1.74,3.92-1.74s2.6.6,3.25,1.9c1.27-1.21,2.89-1.9,4.37-1.9,2.07,0,3.8,1.33,3.79,4.28Z"/><path class="cls-1" d="m795.38,260.7v7.43h-1.95v-7.43c.01-1.72-1-2.47-2.32-2.47-1.07,0-2.35.48-3.47,1.35.06.34.09.72.09,1.12v7.43h-1.95v-7.43c0-1.7-.98-2.46-2.26-2.46-1.09,0-2.39.54-3.47,1.52v8.37h-1.95v-11.39h1.95v1.42c1.18-1.16,2.59-1.74,3.92-1.74s2.6.6,3.25,1.9c1.27-1.21,2.89-1.9,4.37-1.9,2.07,0,3.8,1.33,3.79,4.28Z"/><path class="cls-1" d="m809.78,262.43c0,3.33-2.23,6.01-5.67,6.01s-5.67-2.69-5.67-6.01,2.26-6.04,5.67-6.01c3.44,0,5.67,2.69,5.67,6.01Zm-9.31,0c0,2.44,1.41,4.17,3.64,4.17s3.64-1.71,3.64-4.17-1.39-4.17-3.64-4.17c-2.27,0-3.66,1.73-3.64,4.17Z"/><path class="cls-1" d="m823.37,268.12h-1.95v-1.48c-1.2,1.25-2.62,1.8-3.93,1.8-2.88,0-4.92-2.63-4.92-6.01,0-3.38,2.02-6.04,5.02-6.01,1.26,0,2.7.61,3.83,1.8v-6.04h1.95v15.95Zm-1.95-3.32v-4.74c-1.13-1.19-2.57-1.8-3.83-1.8-1.85,0-3.01,1.71-3,4.17-.02,2.48,1.12,4.17,3.06,4.17,1.15,0,2.64-.61,3.76-1.8Z"/><path class="cls-1" d="m837.98,262.43c0,3.33-2.23,6.01-5.67,6.01s-5.67-2.69-5.67-6.01,2.26-6.04,5.67-6.01c3.44,0,5.67,2.69,5.67,6.01Zm-9.31,0c0,2.44,1.41,4.17,3.64,4.17s3.64-1.71,3.64-4.17-1.39-4.17-3.64-4.17c-2.27,0-3.66,1.73-3.64,4.17Z"/><path class="cls-1" d="m73.18,287.58l-.49,1.34c-1.28-.71-2.58-1.06-3.8-1.06-2.26,0-3.66,1.68-3.64,4.17,0,2.44,1.37,4.17,3.72,4.17,1.07,0,2.44-.35,3.71-1.05l.49,1.34c-1.28.99-2.81,1.55-4.33,1.55-3.35,0-5.63-2.69-5.63-6.01s2.3-6.04,5.66-6.01c1.39,0,2.96.53,4.29,1.56Z"/><path class="cls-1" d="m86.98,292.04c0,3.33-2.23,6.01-5.67,6.01s-5.67-2.69-5.67-6.01,2.26-6.04,5.67-6.01c3.44,0,5.67,2.69,5.67,6.01Zm-9.31,0c0,2.44,1.41,4.17,3.64,4.17s3.64-1.71,3.64-4.17-1.39-4.17-3.64-4.17c-2.27,0-3.66,1.73-3.64,4.17Z"/><path class="cls-1" d="m100.08,290.31v7.43h-1.95v-7.43c0-1.68-1.01-2.46-2.33-2.46-1.1,0-2.54.54-3.72,1.59v8.3h-1.95v-11.39h1.95v1.44c1.26-1.2,2.8-1.76,4.11-1.76,2.08,0,3.89,1.37,3.89,4.28Z"/><path class="cls-1" d="m111.48,287.53l-.91,1.37c-.7-.76-1.99-1.17-3.27-1.17-1.44,0-2.43.51-2.43,1.6,0,.84.59,1.14,2.69,1.69,1.79.48,4.26,1.02,4.28,3.53.02,2.5-2.46,3.49-4.7,3.49-1.82,0-3.61-.66-4.5-1.85l.91-1.38c.68.99,2.12,1.54,3.55,1.54,1.51,0,2.79-.64,2.79-1.8s-1.24-1.36-2.87-1.8c-2.88-.76-4.09-1.47-4.08-3.33,0-2.5,2.16-3.41,4.3-3.41,1.48,0,3.19.43,4.23,1.51Z"/><path class="cls-1" d="m119.7,286.02c3.56,0,5.29,2.68,5.3,5.99,0,.17,0,.33-.02.49h-8.73c0,.07.01.15.02.22.23,2.06,1.54,3.48,3.49,3.48,1.22,0,2.46-.35,3.74-1.05l.5,1.34c-1.33,1.03-2.91,1.56-4.29,1.56-3.32,0-5.51-2.69-5.51-6.01s2.19-6.04,5.51-6.01h0Zm-3.37,4.88h6.63c-.27-1.83-1.27-3.04-3.2-3.04-1.84,0-3.09,1.22-3.43,3.04Z"/><path class="cls-1" d="m137.98,302.29h-1.95v-5.91c-1.17,1.14-2.55,1.68-3.86,1.67-2.62-.01-4.98-2.19-4.99-6.02,0-3.38,2.03-6.01,4.93-6.01,1.41,0,2.78.61,3.92,1.8v-1.48h1.95v15.95Zm-1.95-7.99v-4.63c-1.18-1.23-2.64-1.8-3.77-1.8-1.92,0-3.06,1.7-3.06,4.17,0,2.85,1.36,4.2,3.07,4.23,1.19.02,2.56-.72,3.76-1.96Z"/><path class="cls-1" d="m151.49,297.73h-1.95v-1.44c-1.22,1.16-2.74,1.76-4.07,1.76-2.16,0-3.94-1.33-3.94-4.28v-7.43h1.95v7.43c0,1.59.8,2.46,2.18,2.46,1.26,0,2.69-.54,3.87-1.59v-8.3h1.95v11.39Z"/><path class="cls-1" d="m165.19,297.73h-1.95v-1.45c-1.19,1.23-2.6,1.77-3.9,1.77-2.87,0-4.92-2.63-4.92-6.01s2.04-6.02,4.92-6.02c1.31,0,2.71.54,3.9,1.77v-1.45h1.95v11.39Zm-1.95-3.29v-4.81c-1.12-1.17-2.59-1.77-3.75-1.77-1.91,0-3.04,1.64-3.04,4.17s1.14,4.17,3.04,4.17c1.16,0,2.63-.6,3.75-1.77Z"/><path class="cls-1" d="m175.79,297.27c-.77.49-1.73.77-2.65.78-1.7,0-3.27-.94-3.27-3.38v-6.69h-2.25v-1.25l2.12-.35h.14v-3.28h1.95v3.28h3.45v1.6h-3.45v6.69c0,1.25.82,1.63,1.75,1.62.59,0,1.23-.16,1.73-.36l.5,1.33Z"/><path class="cls-1" d="m180.65,296.54c0,.7-.57,1.27-1.27,1.27-.7,0-1.27-.57-1.27-1.27s.57-1.27,1.27-1.27c.7,0,1.27.57,1.27,1.27Z"/><path class="cls-1" d="m195.09,281.79c4.74,0,7.87,3.39,7.87,7.97s-3.12,7.97-7.87,7.97h-5.49v-15.95h5.49Zm0,14.13c3.43,0,5.62-2.43,5.62-6.15s-2.19-6.15-5.62-6.15h-3.33v12.31h3.33Z"/><path class="cls-1" d="m216.41,297.73h-1.95v-1.44c-1.22,1.16-2.74,1.76-4.07,1.76-2.16,0-3.94-1.33-3.94-4.28v-7.43h1.95v7.43c0,1.59.8,2.46,2.18,2.46,1.26,0,2.69-.54,3.87-1.59v-8.3h1.95v11.39Z"/><path class="cls-1" d="m222.21,283.22c0,.66-.54,1.2-1.2,1.2s-1.2-.54-1.2-1.2.54-1.2,1.2-1.2,1.2.54,1.2,1.2Zm-2.18,14.51v-11.39h1.95v11.39h-1.95Z"/><path class="cls-1" d="m233.62,287.53l-.91,1.37c-.7-.76-1.99-1.17-3.27-1.17-1.44,0-2.43.51-2.43,1.6,0,.84.59,1.14,2.69,1.69,1.79.48,4.26,1.02,4.28,3.53.02,2.5-2.46,3.49-4.7,3.49-1.82,0-3.61-.66-4.5-1.85l.91-1.38c.68.99,2.12,1.54,3.55,1.54,1.51,0,2.79-.64,2.79-1.8s-1.24-1.36-2.87-1.8c-2.88-.76-4.09-1.47-4.08-3.33,0-2.5,2.16-3.41,4.3-3.41,1.48,0,3.19.43,4.23,1.51Z"/><path class="cls-1" d="m252.57,297.73h-1.95v-1.45c-1.19,1.23-2.6,1.77-3.9,1.77-2.87,0-4.92-2.63-4.92-6.01s2.04-6.02,4.92-6.02c1.31,0,2.71.54,3.9,1.77v-1.45h1.95v11.39Zm-1.95-3.29v-4.81c-1.12-1.17-2.59-1.77-3.75-1.77-1.91,0-3.04,1.64-3.04,4.17s1.14,4.17,3.04,4.17c1.16,0,2.63-.6,3.75-1.77Z"/><path class="cls-1" d="m265.9,297.73h-1.95v-1.44c-1.22,1.16-2.74,1.76-4.07,1.76-2.16,0-3.94-1.33-3.94-4.28v-7.43h1.95v7.43c0,1.59.8,2.46,2.18,2.46,1.26,0,2.69-.54,3.87-1.59v-8.3h1.95v11.39Z"/><path class="cls-1" d="m276.41,297.27c-.77.49-1.73.77-2.65.78-1.7,0-3.27-.94-3.27-3.38v-6.69h-2.25v-1.25l2.12-.35h.14v-3.28h1.95v3.28h3.45v1.6h-3.45v6.69c0,1.25.82,1.63,1.75,1.62.59,0,1.23-.16,1.73-.36l.5,1.33Z"/><path class="cls-1" d="m283.89,286.02c3.56,0,5.29,2.68,5.3,5.99,0,.17,0,.33-.02.49h-8.73c0,.07.01.15.02.22.23,2.06,1.54,3.48,3.49,3.48,1.22,0,2.46-.35,3.74-1.05l.5,1.34c-1.33,1.03-2.91,1.56-4.29,1.56-3.32,0-5.51-2.69-5.51-6.01s2.19-6.04,5.51-6.01h0Zm-3.37,4.88h6.63c-.27-1.83-1.27-3.04-3.2-3.04-1.84,0-3.09,1.22-3.43,3.04Z"/><path class="cls-1" d="m300.12,283.22c0,.66-.54,1.2-1.2,1.2s-1.2-.54-1.2-1.2.54-1.2,1.2-1.2,1.2.54,1.2,1.2Zm-2.18,14.51v-11.39h1.95v11.39h-1.95Z"/><path class="cls-1" d="m309.95,286.01c.1,0,.2,0,.3,0l-.35,1.98c-.11-.01-.23-.01-.36-.01-1.33,0-2.83.56-4.09,1.69v8.06h-1.95v-11.39h1.95v1.61c1.36-1.29,3.02-1.95,4.49-1.95h0Z"/><path class="cls-1" d="m322.33,297.73h-1.95v-1.44c-1.22,1.16-2.74,1.76-4.07,1.76-2.16,0-3.94-1.33-3.94-4.28v-7.43h1.95v7.43c0,1.59.8,2.46,2.18,2.46,1.26,0,2.69-.54,3.87-1.59v-8.3h1.95v11.39Z"/><path class="cls-1" d="m332.16,286.01c.1,0,.2,0,.3,0l-.35,1.98c-.11-.01-.23-.01-.36-.01-1.33,0-2.83.56-4.09,1.69v8.06h-1.95v-11.39h1.95v1.61c1.36-1.29,3.02-1.95,4.49-1.95h0Z"/><path class="cls-1" d="m339.29,286.02c3.56,0,5.29,2.68,5.3,5.99,0,.17,0,.33-.02.49h-8.73c0,.07.01.15.02.22.23,2.06,1.54,3.48,3.49,3.48,1.22,0,2.46-.35,3.74-1.05l.5,1.34c-1.33,1.03-2.91,1.56-4.29,1.56-3.32,0-5.51-2.69-5.51-6.01s2.19-6.04,5.51-6.01h0Zm-3.37,4.88h6.63c-.27-1.83-1.27-3.04-3.2-3.04-1.84,0-3.09,1.22-3.43,3.04Z"/><path class="cls-1" d="m363.55,297.73h-1.95v-1.48c-1.2,1.25-2.62,1.8-3.93,1.8-2.88,0-4.92-2.63-4.92-6.01,0-3.38,2.02-6.04,5.02-6.01,1.26,0,2.7.61,3.83,1.8v-6.04h1.95v15.95Zm-1.95-3.32v-4.74c-1.13-1.19-2.57-1.8-3.83-1.8-1.85,0-3.01,1.71-3,4.17-.02,2.48,1.12,4.17,3.06,4.17,1.15,0,2.64-.61,3.76-1.8Z"/><path class="cls-1" d="m378.15,292.04c0,3.33-2.23,6.01-5.67,6.01s-5.67-2.69-5.67-6.01,2.26-6.04,5.67-6.01c3.44,0,5.67,2.69,5.67,6.01Zm-9.31,0c0,2.44,1.41,4.17,3.64,4.17s3.64-1.71,3.64-4.17-1.39-4.17-3.64-4.17c-2.27,0-3.66,1.73-3.64,4.17Z"/><path class="cls-1" d="m383.37,294.67c0,1.25.82,1.63,1.75,1.62.21,0,.43-.02.64-.06l.57,1.52c-.53.19-1.09.29-1.64.29-1.7,0-3.27-.94-3.27-3.38v-12.89h1.95v12.89Z"/><path class="cls-1" d="m399.54,292.04c0,3.33-2.23,6.01-5.67,6.01s-5.67-2.69-5.67-6.01,2.26-6.04,5.67-6.01c3.44,0,5.67,2.69,5.67,6.01Zm-9.31,0c0,2.44,1.41,4.17,3.64,4.17s3.64-1.71,3.64-4.17-1.39-4.17-3.64-4.17c-2.27,0-3.66,1.73-3.64,4.17Z"/><path class="cls-1" d="m409.13,286.01c.1,0,.2,0,.3,0l-.35,1.98c-.11-.01-.23-.01-.36-.01-1.33,0-2.83.56-4.09,1.69v8.06h-1.95v-11.39h1.95v1.61c1.36-1.29,3.03-1.95,4.49-1.95h0Z"/><path class="cls-1" d="m419.66,283.22c0,.66-.54,1.2-1.2,1.2s-1.2-.54-1.2-1.2.54-1.2,1.2-1.2,1.2.54,1.2,1.2Zm-2.18,14.51v-11.39h1.95v11.39h-1.95Z"/><path class="cls-1" d="m433.01,290.31v7.43h-1.95v-7.43c0-1.68-1.01-2.46-2.33-2.46-1.1,0-2.54.54-3.72,1.59v8.3h-1.95v-11.39h1.95v1.44c1.26-1.2,2.8-1.76,4.11-1.76,2.08,0,3.89,1.37,3.89,4.28Z"/><path class="cls-1" d="m448.42,286.01c.1,0,.2,0,.3,0l-.35,1.98c-.11-.01-.23-.01-.36-.01-1.33,0-2.83.56-4.09,1.69v8.06h-1.95v-11.39h1.95v1.61c1.36-1.29,3.03-1.95,4.49-1.95h0Z"/><path class="cls-1" d="m455.55,286.02c3.56,0,5.29,2.68,5.3,5.99,0,.17,0,.33-.02.49h-8.73c0,.07.01.15.02.22.23,2.06,1.54,3.48,3.49,3.48,1.22,0,2.46-.35,3.74-1.05l.5,1.34c-1.33,1.03-2.91,1.56-4.29,1.56-3.32,0-5.51-2.69-5.51-6.01s2.19-6.04,5.51-6.01h0Zm-3.37,4.88h6.63c-.27-1.83-1.27-3.04-3.2-3.04-1.84,0-3.09,1.22-3.43,3.04Z"/><path class="cls-1" d="m474.4,292.04c-.01,3.83-2.38,6-4.99,6.02-1.31,0-2.69-.53-3.86-1.67v5.91h-1.95v-15.95h1.95v1.48c1.14-1.19,2.52-1.8,3.92-1.8,2.9,0,4.92,2.63,4.93,6.01Zm-5.09,4.23c1.71-.02,3.07-1.38,3.07-4.23,0-2.47-1.14-4.17-3.06-4.17-1.13,0-2.6.57-3.77,1.8v4.63c1.2,1.24,2.57,1.98,3.76,1.96h0Z"/><path class="cls-1" d="m483.96,286.01c.1,0,.2,0,.3,0l-.35,1.98c-.11-.01-.23-.01-.36-.01-1.33,0-2.83.56-4.09,1.69v8.06h-1.95v-11.39h1.95v1.61c1.36-1.29,3.02-1.95,4.49-1.95h0Z"/><path class="cls-1" d="m491.08,286.02c3.56,0,5.29,2.68,5.3,5.99,0,.17,0,.33-.02.49h-8.73c0,.07.01.15.02.22.23,2.06,1.54,3.48,3.49,3.48,1.22,0,2.46-.35,3.74-1.05l.5,1.34c-1.33,1.03-2.91,1.56-4.29,1.56-3.32,0-5.51-2.69-5.51-6.01s2.19-6.04,5.51-6.01h0Zm-3.37,4.88h6.63c-.27-1.83-1.27-3.04-3.2-3.04-1.84,0-3.09,1.22-3.43,3.04Z"/><path class="cls-1" d="m509.38,290.31v7.43h-1.95v-7.43c0-1.7-1.04-2.47-2.39-2.46-1.15,0-2.53.57-3.67,1.59v8.3h-1.95v-15.95h1.95v6c1.21-1.16,2.73-1.76,4.11-1.76,2.09,0,3.89,1.37,3.89,4.28Z"/><path class="cls-1" d="m517.94,286.02c3.56,0,5.29,2.68,5.3,5.99,0,.17,0,.33-.02.49h-8.73c0,.07.01.15.02.22.23,2.06,1.54,3.48,3.49,3.48,1.22,0,2.46-.35,3.74-1.05l.5,1.34c-1.33,1.03-2.91,1.56-4.29,1.56-3.32,0-5.51-2.69-5.51-6.01s2.19-6.04,5.51-6.01h0Zm-3.37,4.88h6.63c-.27-1.83-1.27-3.04-3.2-3.04-1.84,0-3.09,1.22-3.43,3.04Z"/><path class="cls-1" d="m536.12,290.31v7.43h-1.95v-7.43c0-1.68-1.01-2.46-2.33-2.46-1.1,0-2.54.54-3.72,1.59v8.3h-1.95v-11.39h1.95v1.44c1.26-1.2,2.8-1.76,4.11-1.76,2.08,0,3.89,1.37,3.89,4.28Z"/><path class="cls-1" d="m549.96,297.73h-1.95v-1.48c-1.2,1.25-2.62,1.8-3.93,1.8-2.88,0-4.92-2.63-4.92-6.01,0-3.38,2.02-6.04,5.02-6.01,1.26,0,2.7.61,3.83,1.8v-6.04h1.95v15.95Zm-1.95-3.32v-4.74c-1.13-1.19-2.57-1.8-3.83-1.8-1.85,0-3.01,1.71-3,4.17-.02,2.48,1.12,4.17,3.06,4.17,1.15,0,2.64-.61,3.76-1.8Z"/><path class="cls-1" d="m558.73,286.02c3.56,0,5.29,2.68,5.3,5.99,0,.17,0,.33-.02.49h-8.73c0,.07.01.15.02.22.23,2.06,1.54,3.48,3.49,3.48,1.22,0,2.46-.35,3.74-1.05l.5,1.34c-1.33,1.03-2.91,1.56-4.29,1.56-3.32,0-5.51-2.69-5.51-6.01s2.19-6.04,5.51-6.01h0Zm-3.37,4.88h6.63c-.27-1.83-1.27-3.04-3.2-3.04-1.84,0-3.09,1.22-3.43,3.04Z"/><path class="cls-1" d="m573.41,286.01c.1,0,.2,0,.3,0l-.35,1.98c-.11-.01-.23-.01-.36-.01-1.33,0-2.83.56-4.09,1.69v8.06h-1.95v-11.39h1.95v1.61c1.36-1.29,3.02-1.95,4.49-1.95h0Z"/><path class="cls-1" d="m578.35,283.22c0,.66-.54,1.2-1.2,1.2s-1.2-.54-1.2-1.2.54-1.2,1.2-1.2,1.2.54,1.2,1.2Zm-2.18,14.51v-11.39h1.95v11.39h-1.95Z"/><path class="cls-1" d="m588.86,297.27c-.77.49-1.73.77-2.65.78-1.7,0-3.27-.94-3.27-3.38v-6.69h-2.25v-1.25l2.12-.35h.14v-3.28h1.95v3.28h3.45v1.6h-3.45v6.69c0,1.25.82,1.63,1.75,1.62.59,0,1.23-.16,1.73-.36l.5,1.33Z"/><path class="cls-1" d="m599.86,283.22c0,.66-.54,1.2-1.2,1.2s-1.2-.54-1.2-1.2.54-1.2,1.2-1.2,1.2.54,1.2,1.2Zm-2.18,14.51v-11.39h1.95v11.39h-1.95Z"/><path class="cls-1" d="m613.2,290.31v7.43h-1.95v-7.43c0-1.68-1.01-2.46-2.33-2.46-1.1,0-2.54.54-3.72,1.59v8.3h-1.95v-11.39h1.95v1.44c1.26-1.2,2.8-1.76,4.11-1.76,2.08,0,3.89,1.37,3.89,4.28Z"/><path class="cls-1" d="m627.54,297.73h-2.05l-4.57-11.39h2.1l3.51,9.12,3.49-9.12h2.1l-4.58,11.39Z"/><path class="cls-1" d="m644.66,292.04c0,3.33-2.23,6.01-5.67,6.01s-5.67-2.69-5.67-6.01,2.26-6.04,5.67-6.01c3.44,0,5.67,2.69,5.67,6.01Zm-9.31,0c0,2.44,1.41,4.17,3.64,4.17s3.64-1.71,3.64-4.17-1.39-4.17-3.64-4.17c-2.27,0-3.66,1.73-3.64,4.17Z"/><path class="cls-1" d="m649.87,294.67c0,1.25.82,1.63,1.75,1.62.21,0,.43-.02.64-.06l.57,1.52c-.53.19-1.09.29-1.64.29-1.7,0-3.27-.94-3.27-3.38v-12.89h1.95v12.89Z"/><path class="cls-1" d="m665.09,297.73h-1.95v-1.44c-1.22,1.16-2.74,1.76-4.07,1.76-2.16,0-3.94-1.33-3.94-4.28v-7.43h1.95v7.43c0,1.59.8,2.46,2.18,2.46,1.26,0,2.69-.54,3.87-1.59v-8.3h1.95v11.39Z"/><path class="cls-1" d="m679.11,292.04c-.01,3.83-2.38,6-4.99,6.02-1.31,0-2.69-.53-3.86-1.67v5.91h-1.95v-15.95h1.95v1.48c1.14-1.19,2.52-1.8,3.92-1.8,2.9,0,4.92,2.63,4.93,6.01Zm-5.09,4.23c1.71-.02,3.07-1.38,3.07-4.23,0-2.47-1.14-4.17-3.06-4.17-1.13,0-2.6.57-3.77,1.8v4.63c1.2,1.24,2.57,1.98,3.76,1.96h0Z"/><path class="cls-1" d="m689.33,297.27c-.77.49-1.73.77-2.65.78-1.7,0-3.27-.94-3.27-3.38v-6.69h-2.25v-1.25l2.12-.35h.14v-3.28h1.95v3.28h3.45v1.6h-3.45v6.69c0,1.25.82,1.63,1.75,1.62.59,0,1.23-.16,1.73-.36l.5,1.33Z"/><path class="cls-1" d="m701.96,297.73h-1.95v-1.45c-1.19,1.23-2.6,1.77-3.9,1.77-2.87,0-4.92-2.63-4.92-6.01s2.04-6.02,4.92-6.02c1.31,0,2.71.54,3.9,1.77v-1.45h1.95v11.39Zm-1.95-3.29v-4.81c-1.12-1.17-2.59-1.77-3.75-1.77-1.91,0-3.04,1.64-3.04,4.17s1.14,4.17,3.04,4.17c1.16,0,2.63-.6,3.75-1.77Z"/><path class="cls-1" d="m712.57,297.27c-.77.49-1.73.77-2.65.78-1.7,0-3.27-.94-3.27-3.38v-6.69h-2.25v-1.25l2.12-.35h.14v-3.28h1.95v3.28h3.45v1.6h-3.45v6.69c0,1.25.82,1.63,1.75,1.62.59,0,1.23-.16,1.73-.36l.5,1.33Z"/><path class="cls-1" d="m720.05,286.02c3.56,0,5.29,2.68,5.3,5.99,0,.17,0,.33-.02.49h-8.73c0,.07.01.15.02.22.23,2.06,1.54,3.48,3.49,3.48,1.22,0,2.46-.35,3.74-1.05l.5,1.34c-1.33,1.03-2.91,1.56-4.29,1.56-3.32,0-5.51-2.69-5.51-6.01s2.19-6.04,5.51-6.01h0Zm-3.37,4.88h6.63c-.27-1.83-1.27-3.04-3.2-3.04-1.84,0-3.09,1.22-3.43,3.04Z"/><path class="cls-1" d="m739.22,297.73h-2.05l-4.57-11.39h2.1l3.51,9.12,3.49-9.12h2.1l-4.58,11.39Z"/><path class="cls-1" d="m750.62,286.02c3.56,0,5.29,2.68,5.3,5.99,0,.17,0,.33-.02.49h-8.73c0,.07.01.15.02.22.23,2.06,1.54,3.48,3.49,3.48,1.22,0,2.46-.35,3.74-1.05l.5,1.34c-1.33,1.03-2.91,1.56-4.29,1.56-3.32,0-5.51-2.69-5.51-6.01s2.19-6.04,5.51-6.01h0Zm-3.37,4.88h6.63c-.27-1.83-1.27-3.04-3.2-3.04-1.84,0-3.09,1.22-3.43,3.04Z"/><path class="cls-1" d="m760.92,294.67c0,1.25.82,1.63,1.75,1.62.21,0,.43-.02.64-.06l.57,1.52c-.53.19-1.09.29-1.64.29-1.7,0-3.27-.94-3.27-3.38v-12.89h1.95v12.89Z"/><path class="cls-1" d="m769.17,283.22c0,.66-.54,1.2-1.2,1.2s-1.2-.54-1.2-1.2.54-1.2,1.2-1.2,1.2.54,1.2,1.2Zm-2.18,14.51v-11.39h1.95v11.39h-1.95Z"/><path class="cls-1" d="m779.67,297.27c-.77.49-1.73.77-2.65.78-1.7,0-3.27-.94-3.27-3.38v-6.69h-2.25v-1.25l2.12-.35h.14v-3.28h1.95v3.28h3.45v1.6h-3.45v6.69c0,1.25.82,1.63,1.75,1.62.59,0,1.23-.16,1.73-.36l.5,1.33Z"/><path class="cls-1" d="m793.42,286.02c3.56,0,5.29,2.68,5.3,5.99,0,.17,0,.33-.02.49h-8.73c0,.07.01.15.02.22.23,2.06,1.54,3.48,3.49,3.48,1.22,0,2.46-.35,3.74-1.05l.5,1.34c-1.33,1.03-2.91,1.56-4.29,1.56-3.32,0-5.51-2.69-5.51-6.01s2.19-6.04,5.51-6.01h0Zm-3.37,4.88h6.63c-.27-1.83-1.27-3.04-3.2-3.04-1.84,0-3.09,1.22-3.43,3.04Z"/><path class="cls-1" d="m809.66,287.53l-.91,1.37c-.7-.76-1.99-1.17-3.27-1.17-1.44,0-2.43.51-2.43,1.6,0,.84.59,1.14,2.69,1.69,1.79.48,4.26,1.02,4.28,3.53.02,2.5-2.46,3.49-4.7,3.49-1.82,0-3.61-.66-4.5-1.85l.91-1.38c.68.99,2.12,1.54,3.55,1.54,1.51,0,2.79-.64,2.79-1.8s-1.24-1.36-2.87-1.8c-2.88-.76-4.09-1.47-4.08-3.33,0-2.5,2.16-3.41,4.3-3.41,1.48,0,3.19.43,4.23,1.51Z"/><path class="cls-1" d="m820.73,287.53l-.91,1.37c-.7-.76-1.99-1.17-3.27-1.17-1.44,0-2.43.51-2.43,1.6,0,.84.59,1.14,2.69,1.69,1.79.48,4.26,1.02,4.28,3.53.02,2.5-2.46,3.49-4.7,3.49-1.82,0-3.61-.66-4.5-1.85l.91-1.38c.68.99,2.12,1.54,3.55,1.54,1.51,0,2.79-.64,2.79-1.8s-1.24-1.36-2.87-1.8c-2.88-.76-4.09-1.47-4.08-3.33,0-2.5,2.16-3.41,4.3-3.41,1.48,0,3.19.43,4.23,1.51Z"/><path class="cls-1" d="m828.95,286.02c3.56,0,5.29,2.68,5.3,5.99,0,.17,0,.33-.02.49h-8.73c0,.07.01.15.02.22.23,2.06,1.54,3.48,3.49,3.48,1.22,0,2.46-.35,3.74-1.05l.5,1.34c-1.33,1.03-2.91,1.56-4.29,1.56-3.32,0-5.51-2.69-5.51-6.01s2.19-6.04,5.51-6.01h0Zm-3.37,4.88h6.63c-.27-1.83-1.27-3.04-3.2-3.04-1.84,0-3.09,1.22-3.43,3.04Z"/><path class="cls-1" d="m852.38,287.58l-.49,1.34c-1.28-.71-2.58-1.06-3.8-1.06-2.26,0-3.66,1.68-3.64,4.17,0,2.44,1.37,4.17,3.72,4.17,1.07,0,2.44-.35,3.71-1.05l.49,1.34c-1.28.99-2.81,1.55-4.33,1.55-3.35,0-5.63-2.69-5.63-6.01s2.3-6.04,5.66-6.01c1.39,0,2.96.53,4.29,1.56Z"/><path class="cls-1" d="m857.93,283.22c0,.66-.54,1.2-1.2,1.2s-1.2-.54-1.2-1.2.54-1.2,1.2-1.2,1.2.54,1.2,1.2Zm-2.18,14.51v-11.39h1.95v11.39h-1.95Z"/><path class="cls-1" d="m863.4,294.67c0,1.25.82,1.63,1.75,1.62.21,0,.43-.02.64-.06l.57,1.52c-.53.19-1.09.29-1.64.29-1.7,0-3.27-.94-3.27-3.38v-12.89h1.95v12.89Z"/><path class="cls-1" d="m871.3,294.67c0,1.25.82,1.63,1.75,1.62.21,0,.43-.02.64-.06l.57,1.52c-.53.19-1.09.29-1.64.29-1.7,0-3.27-.94-3.27-3.38v-12.89h1.95v12.89Z"/><path class="cls-1" d="m886.52,297.73h-1.95v-1.44c-1.22,1.16-2.74,1.76-4.07,1.76-2.16,0-3.94-1.33-3.94-4.28v-7.43h1.95v7.43c0,1.59.8,2.46,2.18,2.46,1.26,0,2.69-.54,3.87-1.59v-8.3h1.95v11.39Z"/><path class="cls-1" d="m907.2,290.31v7.43h-1.95v-7.43c.01-1.72-1-2.47-2.32-2.47-1.07,0-2.35.48-3.47,1.35.06.34.09.72.09,1.12v7.43h-1.95v-7.43c0-1.7-.98-2.46-2.26-2.46-1.09,0-2.39.54-3.47,1.52v8.37h-1.95v-11.39h1.95v1.42c1.18-1.16,2.59-1.74,3.92-1.74s2.6.6,3.25,1.9c1.27-1.21,2.89-1.9,4.37-1.9,2.07,0,3.8,1.33,3.79,4.28Z"/><path class="cls-1" d="m74.01,327.34h-1.95v-1.48c-1.2,1.25-2.62,1.8-3.93,1.8-2.88,0-4.92-2.63-4.92-6.01,0-3.38,2.02-6.04,5.02-6.01,1.26,0,2.7.61,3.83,1.8v-6.04h1.95v15.95Zm-1.95-3.32v-4.74c-1.13-1.19-2.57-1.8-3.83-1.8-1.85,0-3.01,1.71-3,4.17-.02,2.48,1.12,4.17,3.06,4.17,1.15,0,2.64-.61,3.76-1.8Z"/><path class="cls-1" d="m88.62,321.65c0,3.33-2.23,6.01-5.67,6.01s-5.67-2.69-5.67-6.01,2.26-6.04,5.67-6.01c3.44,0,5.67,2.69,5.67,6.01Zm-9.31,0c0,2.44,1.41,4.17,3.64,4.17s3.64-1.71,3.64-4.17-1.39-4.17-3.64-4.17c-2.27,0-3.66,1.73-3.64,4.17Z"/><path class="cls-1" d="m93.83,324.28c0,1.25.82,1.63,1.75,1.62.21,0,.43-.02.64-.06l.57,1.52c-.53.19-1.09.29-1.64.29-1.7,0-3.27-.94-3.27-3.38v-12.89h1.95v12.89Z"/><path class="cls-1" d="m110.01,321.65c0,3.33-2.23,6.01-5.67,6.01s-5.67-2.69-5.67-6.01,2.26-6.04,5.67-6.01c3.44,0,5.67,2.69,5.67,6.01Zm-9.31,0c0,2.44,1.41,4.17,3.64,4.17s3.64-1.71,3.64-4.17-1.39-4.17-3.64-4.17c-2.27,0-3.66,1.73-3.64,4.17Z"/><path class="cls-1" d="m119.59,315.62c.1,0,.2,0,.3,0l-.35,1.98c-.11-.01-.23-.01-.36-.01-1.33,0-2.83.56-4.09,1.69v8.06h-1.95v-11.39h1.95v1.61c1.36-1.29,3.03-1.95,4.49-1.95h0Z"/><path class="cls-1" d="m126.72,315.64c3.56,0,5.29,2.68,5.3,5.99,0,.17,0,.33-.02.49h-8.73c0,.07.01.15.02.22.23,2.06,1.54,3.48,3.49,3.48,1.22,0,2.46-.35,3.74-1.05l.5,1.34c-1.33,1.03-2.91,1.56-4.29,1.56-3.32,0-5.51-2.69-5.51-6.01s2.19-6.04,5.51-6.01h0Zm-3.37,4.88h6.63c-.27-1.83-1.27-3.04-3.2-3.04-1.84,0-3.09,1.22-3.43,3.04Z"/><path class="cls-1" d="m145.69,315.64c3.56,0,5.29,2.68,5.3,5.99,0,.17,0,.33-.02.49h-8.73c0,.07.01.15.02.22.23,2.06,1.54,3.48,3.49,3.48,1.22,0,2.46-.35,3.74-1.05l.5,1.34c-1.33,1.03-2.91,1.56-4.29,1.56-3.32,0-5.51-2.69-5.51-6.01s2.19-6.04,5.51-6.01h0Zm-3.37,4.88h6.63c-.27-1.83-1.27-3.04-3.2-3.04-1.84,0-3.09,1.22-3.43,3.04Z"/><path class="cls-1" d="m163.77,327.34h-1.95v-1.44c-1.22,1.16-2.74,1.76-4.07,1.76-2.16,0-3.94-1.33-3.94-4.28v-7.43h1.95v7.43c0,1.59.8,2.46,2.18,2.46,1.26,0,2.69-.54,3.87-1.59v-8.3h1.95v11.39Z"/><path class="cls-1" d="m175.99,315.19v.81h3.45v1.6h-3.45v9.75h-1.95v-9.75h-2.26v-1.25l2.12-.35h.14v-.68c0-2.93,1.64-4.23,3.65-4.23,1.04,0,2.19.33,3.27.96l-.49,1.35c-.9-.38-1.79-.57-2.61-.57-1.18,0-1.88.86-1.88,2.36Z"/><path class="cls-1" d="m192.22,327.34h-1.95v-1.44c-1.22,1.16-2.74,1.76-4.07,1.76-2.16,0-3.94-1.33-3.94-4.28v-7.43h1.95v7.43c0,1.59.8,2.46,2.18,2.46,1.26,0,2.69-.54,3.87-1.59v-8.3h1.95v11.39Z"/><path class="cls-1" d="m206.07,327.01c0,3.6-2.14,5.21-4.85,5.21-1.65,0-3.38-.6-4.92-1.89l.13-1.6c1.51,1.19,3.26,1.75,4.65,1.75,2.06,0,3.01-1.23,3.02-3.5v-1.44c-1.18,1.19-2.5,1.75-3.92,1.76-2.92-.02-4.94-2.56-4.94-5.85s2.05-5.83,4.94-5.83c1.35,0,2.72.55,3.91,1.75v-1.43h1.95v11.05Zm-1.96-3.2v-4.59c-1.05-1.09-2.52-1.75-3.77-1.75-1.91,0-3.05,1.57-3.05,4.03s1.11,4.06,3.05,4.07c1.2,0,2.65-.6,3.77-1.76Z"/><path class="cls-1" d="m211.99,312.83c0,.66-.54,1.2-1.2,1.2s-1.2-.54-1.2-1.2.54-1.2,1.2-1.2,1.2.54,1.2,1.2Zm-2.18,14.51v-11.39h1.95v11.39h-1.95Z"/><path class="cls-1" d="m225.69,327.34h-1.95v-1.45c-1.19,1.23-2.6,1.77-3.9,1.77-2.87,0-4.92-2.63-4.92-6.01s2.04-6.02,4.92-6.02c1.31,0,2.71.54,3.9,1.77v-1.45h1.95v11.39Zm-1.95-3.29v-4.81c-1.12-1.17-2.59-1.77-3.75-1.77-1.91,0-3.04,1.64-3.04,4.17s1.14,4.17,3.04,4.17c1.16,0,2.63-.6,3.75-1.77Z"/><path class="cls-1" d="m236.29,326.88c-.77.49-1.73.77-2.65.78-1.7,0-3.27-.94-3.27-3.38v-6.69h-2.25v-1.25l2.12-.35h.14v-3.28h1.95v3.28h3.45v1.6h-3.45v6.69c0,1.25.82,1.63,1.75,1.62.59,0,1.23-.16,1.73-.36l.5,1.33Z"/><path class="cls-1" d="m254.83,319.92v7.43h-1.95v-7.43c0-1.68-1.01-2.46-2.33-2.46-1.1,0-2.54.54-3.72,1.59v8.3h-1.95v-11.39h1.95v1.44c1.26-1.2,2.8-1.76,4.11-1.76,2.08,0,3.89,1.37,3.89,4.28Z"/><path class="cls-1" d="m268.07,327.34h-1.95v-1.44c-1.22,1.16-2.74,1.76-4.07,1.76-2.16,0-3.94-1.33-3.94-4.28v-7.43h1.95v7.43c0,1.59.8,2.46,2.18,2.46,1.26,0,2.69-.54,3.87-1.59v-8.3h1.95v11.39Z"/><path class="cls-1" d="m273.53,324.28c0,1.25.82,1.63,1.75,1.62.21,0,.43-.02.64-.06l.57,1.52c-.53.19-1.09.29-1.64.29-1.7,0-3.27-.94-3.27-3.38v-12.89h1.95v12.89Z"/><path class="cls-1" d="m281.43,324.28c0,1.25.82,1.63,1.75,1.62.21,0,.43-.02.64-.06l.57,1.52c-.53.19-1.09.29-1.64.29-1.7,0-3.27-.94-3.27-3.38v-12.89h1.95v12.89Z"/><path class="cls-1" d="m296.78,327.34h-1.95v-1.45c-1.19,1.23-2.6,1.77-3.9,1.77-2.87,0-4.92-2.63-4.92-6.01s2.04-6.02,4.92-6.02c1.31,0,2.71.54,3.9,1.77v-1.45h1.95v11.39Zm-1.95-3.29v-4.81c-1.12-1.17-2.59-1.77-3.75-1.77-1.91,0-3.04,1.64-3.04,4.17s1.14,4.17,3.04,4.17c1.16,0,2.63-.6,3.75-1.77Z"/><path class="cls-1" d="m316.48,321.65c-.01,3.83-2.38,6-4.99,6.02-1.31,0-2.69-.53-3.86-1.67v5.91h-1.95v-15.95h1.95v1.48c1.14-1.19,2.52-1.8,3.92-1.8,2.9,0,4.92,2.63,4.93,6.01Zm-5.09,4.23c1.71-.02,3.07-1.38,3.07-4.23,0-2.47-1.14-4.17-3.06-4.17-1.13,0-2.6.57-3.77,1.8v4.63c1.2,1.24,2.57,1.98,3.76,1.96h0Z"/><path class="cls-1" d="m329.9,327.34h-1.95v-1.45c-1.19,1.23-2.6,1.77-3.9,1.77-2.87,0-4.92-2.63-4.92-6.01s2.04-6.02,4.92-6.02c1.31,0,2.71.54,3.9,1.77v-1.45h1.95v11.39Zm-1.95-3.29v-4.81c-1.12-1.17-2.59-1.77-3.75-1.77-1.91,0-3.04,1.64-3.04,4.17s1.14,4.17,3.04,4.17c1.16,0,2.63-.6,3.75-1.77Z"/><path class="cls-1" d="m339.84,315.62c.1,0,.2,0,.3,0l-.35,1.98c-.11-.01-.23-.01-.36-.01-1.33,0-2.83.56-4.09,1.69v8.06h-1.95v-11.39h1.95v1.61c1.36-1.29,3.02-1.95,4.49-1.95h0Z"/><path class="cls-1" d="m344.78,312.83c0,.66-.54,1.2-1.2,1.2s-1.2-.54-1.2-1.2.54-1.2,1.2-1.2,1.2.54,1.2,1.2Zm-2.18,14.51v-11.39h1.95v11.39h-1.95Z"/><path class="cls-1" d="m358.49,327.34h-1.95v-1.45c-1.19,1.23-2.6,1.77-3.9,1.77-2.87,0-4.92-2.63-4.92-6.01s2.04-6.02,4.92-6.02c1.31,0,2.71.54,3.9,1.77v-1.45h1.95v11.39Zm-1.95-3.29v-4.81c-1.12-1.17-2.59-1.77-3.75-1.77-1.91,0-3.04,1.64-3.04,4.17s1.14,4.17,3.04,4.17c1.16,0,2.63-.6,3.75-1.77Z"/><path class="cls-1" d="m369.09,326.88c-.77.49-1.73.77-2.65.78-1.7,0-3.27-.94-3.27-3.38v-6.69h-2.25v-1.25l2.12-.35h.14v-3.28h1.95v3.28h3.45v1.6h-3.45v6.69c0,1.25.82,1.63,1.75,1.62.59,0,1.23-.16,1.73-.36l.5,1.33Z"/><path class="cls-1" d="m381.94,327.34h-1.95v-1.44c-1.22,1.16-2.74,1.76-4.07,1.76-2.16,0-3.94-1.33-3.94-4.28v-7.43h1.95v7.43c0,1.59.8,2.46,2.18,2.46,1.26,0,2.69-.54,3.87-1.59v-8.3h1.95v11.39Z"/><path class="cls-1" d="m391.77,315.62c.1,0,.2,0,.3,0l-.35,1.98c-.11-.01-.23-.01-.36-.01-1.33,0-2.83.56-4.09,1.69v8.06h-1.95v-11.39h1.95v1.61c1.36-1.29,3.03-1.95,4.49-1.95h0Z"/><path class="cls-1" d="m396.16,326.15c0,.7-.57,1.27-1.27,1.27-.7,0-1.27-.57-1.27-1.27s.57-1.27,1.27-1.27c.7,0,1.27.57,1.27,1.27Z"/><path class="cls-1" d="m415.82,327.34h-10.71v-15.95h10.48v1.82h-8.32v4.87h7.43v1.82h-7.43v5.62h8.55v1.82Z"/><path class="cls-1" d="m428.62,327.34h-2.25l-3.44-4.51-3.29,4.51h-2.23l4.43-5.94-4.15-5.45h2.25l3.17,4.15,3.02-4.15h2.22l-4.16,5.58,4.43,5.81Z"/><path class="cls-1" d="m440.73,317.2l-.49,1.34c-1.28-.71-2.58-1.06-3.8-1.06-2.26,0-3.66,1.68-3.64,4.17,0,2.44,1.37,4.17,3.72,4.17,1.07,0,2.44-.35,3.71-1.05l.49,1.34c-1.28.99-2.81,1.55-4.33,1.55-3.35,0-5.63-2.69-5.63-6.01s2.3-6.04,5.66-6.01c1.39,0,2.96.53,4.29,1.56Z"/><path class="cls-1" d="m449.03,315.64c3.56,0,5.29,2.68,5.3,5.99,0,.17,0,.33-.02.49h-8.73c0,.07.01.15.02.22.23,2.06,1.54,3.48,3.49,3.48,1.22,0,2.46-.35,3.74-1.05l.5,1.34c-1.33,1.03-2.91,1.56-4.29,1.56-3.32,0-5.51-2.69-5.51-6.01s2.19-6.04,5.51-6.01h0Zm-3.37,4.88h6.63c-.27-1.83-1.27-3.04-3.2-3.04-1.84,0-3.09,1.22-3.43,3.04Z"/><path class="cls-1" d="m467.89,321.65c-.01,3.83-2.38,6-4.99,6.02-1.31,0-2.69-.53-3.86-1.67v5.91h-1.95v-15.95h1.95v1.48c1.14-1.19,2.52-1.8,3.92-1.8,2.9,0,4.92,2.63,4.93,6.01Zm-5.09,4.23c1.71-.02,3.07-1.38,3.07-4.23,0-2.47-1.14-4.17-3.06-4.17-1.13,0-2.6.57-3.77,1.8v4.63c1.2,1.24,2.57,1.98,3.76,1.96h0Z"/><path class="cls-1" d="m478.11,326.88c-.77.49-1.73.77-2.65.78-1.7,0-3.27-.94-3.27-3.38v-6.69h-2.25v-1.25l2.12-.35h.14v-3.28h1.95v3.28h3.45v1.6h-3.45v6.69c0,1.25.82,1.63,1.75,1.62.59,0,1.23-.16,1.73-.36l.5,1.33Z"/><path class="cls-1" d="m485.59,315.64c3.56,0,5.29,2.68,5.3,5.99,0,.17,0,.33-.02.49h-8.73c0,.07.01.15.02.22.23,2.06,1.54,3.48,3.49,3.48,1.22,0,2.46-.35,3.74-1.05l.5,1.34c-1.33,1.03-2.91,1.56-4.29,1.56-3.32,0-5.51-2.69-5.51-6.01s2.19-6.04,5.51-6.01h0Zm-3.37,4.88h6.63c-.27-1.83-1.27-3.04-3.2-3.04-1.84,0-3.09,1.22-3.43,3.04Z"/><path class="cls-1" d="m503.66,327.34h-1.95v-1.44c-1.22,1.16-2.74,1.76-4.07,1.76-2.16,0-3.94-1.33-3.94-4.28v-7.43h1.95v7.43c0,1.59.8,2.46,2.18,2.46,1.26,0,2.69-.54,3.87-1.59v-8.3h1.95v11.39Z"/><path class="cls-1" d="m513.5,315.62c.1,0,.2,0,.3,0l-.35,1.98c-.11-.01-.23-.01-.36-.01-1.33,0-2.83.56-4.09,1.69v8.06h-1.95v-11.39h1.95v1.61c1.36-1.29,3.03-1.95,4.49-1.95h0Z"/><path class="cls-1" d="m529.62,317.14l-.91,1.37c-.7-.76-1.99-1.17-3.27-1.17-1.44,0-2.43.51-2.43,1.6,0,.84.59,1.14,2.69,1.69,1.79.48,4.26,1.02,4.28,3.53.02,2.5-2.46,3.49-4.7,3.49-1.82,0-3.61-.66-4.5-1.85l.91-1.38c.68.99,2.12,1.54,3.55,1.54,1.51,0,2.79-.64,2.79-1.8s-1.24-1.36-2.87-1.8c-2.88-.76-4.09-1.47-4.08-3.33,0-2.5,2.16-3.41,4.3-3.41,1.48,0,3.19.43,4.23,1.51Z"/><path class="cls-1" d="m535.1,312.83c0,.66-.54,1.2-1.2,1.2s-1.2-.54-1.2-1.2.54-1.2,1.2-1.2,1.2.54,1.2,1.2Zm-2.18,14.51v-11.39h1.95v11.39h-1.95Z"/><path class="cls-1" d="m548.45,319.92v7.43h-1.95v-7.43c0-1.68-1.01-2.46-2.33-2.46-1.1,0-2.54.54-3.72,1.59v8.3h-1.95v-11.39h1.95v1.44c1.26-1.2,2.8-1.76,4.11-1.76,2.08,0,3.89,1.37,3.89,4.28Z"/><path class="cls-1" d="m558.95,326.88c-.77.49-1.73.77-2.65.78-1.7,0-3.27-.94-3.27-3.38v-6.69h-2.25v-1.25l2.12-.35h.14v-3.28h1.95v3.28h3.45v1.6h-3.45v6.69c0,1.25.82,1.63,1.75,1.62.59,0,1.23-.16,1.73-.36l.5,1.33Z"/><path class="cls-1" d="m578.53,321.65c0,3.33-2.23,6.01-5.67,6.01s-5.67-2.69-5.67-6.01,2.26-6.04,5.67-6.01c3.44,0,5.67,2.69,5.67,6.01Zm-9.31,0c0,2.44,1.41,4.17,3.64,4.17s3.64-1.71,3.64-4.17-1.39-4.17-3.64-4.17c-2.27,0-3.66,1.73-3.64,4.17Z"/><path class="cls-1" d="m591.29,317.2l-.49,1.34c-1.28-.71-2.58-1.06-3.8-1.06-2.26,0-3.66,1.68-3.64,4.17,0,2.44,1.37,4.17,3.72,4.17,1.07,0,2.44-.35,3.71-1.05l.49,1.34c-1.28.99-2.81,1.55-4.33,1.55-3.35,0-5.63-2.69-5.63-6.01s2.3-6.04,5.66-6.01c1.39,0,2.96.53,4.29,1.56Z"/><path class="cls-1" d="m604.05,317.2l-.49,1.34c-1.28-.71-2.58-1.06-3.8-1.06-2.26,0-3.66,1.68-3.64,4.17,0,2.44,1.37,4.17,3.72,4.17,1.07,0,2.44-.35,3.71-1.05l.49,1.34c-1.28.99-2.81,1.55-4.33,1.55-3.35,0-5.63-2.69-5.63-6.01s2.3-6.04,5.66-6.01c1.39,0,2.96.53,4.29,1.56Z"/><path class="cls-1" d="m617.04,327.34h-1.95v-1.45c-1.19,1.23-2.6,1.77-3.9,1.77-2.87,0-4.92-2.63-4.92-6.01s2.04-6.02,4.92-6.02c1.31,0,2.71.54,3.9,1.77v-1.45h1.95v11.39Zm-1.95-3.29v-4.81c-1.12-1.17-2.59-1.77-3.75-1.77-1.91,0-3.04,1.64-3.04,4.17s1.14,4.17,3.04,4.17c1.16,0,2.63-.6,3.75-1.77Z"/><path class="cls-1" d="m625.7,315.64c3.56,0,5.29,2.68,5.3,5.99,0,.17,0,.33-.02.49h-8.73c0,.07.01.15.02.22.23,2.06,1.54,3.48,3.49,3.48,1.22,0,2.46-.35,3.74-1.05l.5,1.34c-1.33,1.03-2.91,1.56-4.29,1.56-3.32,0-5.51-2.69-5.51-6.01s2.19-6.04,5.51-6.01h0Zm-3.37,4.88h6.63c-.27-1.83-1.27-3.04-3.2-3.04-1.84,0-3.09,1.22-3.43,3.04Z"/><path class="cls-1" d="m643.55,317.2l-.49,1.34c-1.28-.71-2.58-1.06-3.8-1.06-2.26,0-3.66,1.68-3.64,4.17,0,2.44,1.37,4.17,3.72,4.17,1.07,0,2.44-.35,3.71-1.05l.49,1.34c-1.28.99-2.81,1.55-4.33,1.55-3.35,0-5.63-2.69-5.63-6.01s2.3-6.04,5.66-6.01c1.39,0,2.96.53,4.29,1.56Z"/><path class="cls-1" d="m656.54,327.34h-1.95v-1.45c-1.19,1.23-2.6,1.77-3.9,1.77-2.87,0-4.92-2.63-4.92-6.01s2.04-6.02,4.92-6.02c1.31,0,2.71.54,3.9,1.77v-1.45h1.95v11.39Zm-1.95-3.29v-4.81c-1.12-1.17-2.59-1.77-3.75-1.77-1.91,0-3.04,1.64-3.04,4.17s1.14,4.17,3.04,4.17c1.16,0,2.63-.6,3.75-1.77Z"/><path class="cls-1" d="m667.15,326.88c-.77.49-1.73.77-2.65.78-1.7,0-3.27-.94-3.27-3.38v-6.69h-2.25v-1.25l2.12-.35h.14v-3.28h1.95v3.28h3.45v1.6h-3.45v6.69c0,1.25.82,1.63,1.75,1.62.59,0,1.23-.16,1.73-.36l.5,1.33Z"/><path class="cls-1" d="m685.35,317.2l-.49,1.34c-1.28-.71-2.58-1.06-3.8-1.06-2.26,0-3.66,1.68-3.64,4.17,0,2.44,1.37,4.17,3.72,4.17,1.07,0,2.44-.35,3.71-1.05l.49,1.34c-1.28.99-2.81,1.55-4.33,1.55-3.35,0-5.63-2.69-5.63-6.01s2.3-6.04,5.66-6.01c1.39,0,2.96.53,4.29,1.56Z"/><path class="cls-1" d="m698.33,327.34h-1.95v-1.44c-1.22,1.16-2.74,1.76-4.07,1.76-2.16,0-3.94-1.33-3.94-4.28v-7.43h1.95v7.43c0,1.59.8,2.46,2.18,2.46,1.26,0,2.69-.54,3.87-1.59v-8.3h1.95v11.39Z"/><path class="cls-1" d="m712.34,321.65c-.01,3.83-2.38,6-4.99,6.02-1.31,0-2.69-.53-3.86-1.67v5.91h-1.95v-15.95h1.95v1.48c1.14-1.19,2.52-1.8,3.92-1.8,2.9,0,4.92,2.63,4.93,6.01Zm-5.09,4.23c1.71-.02,3.07-1.38,3.07-4.23,0-2.47-1.14-4.17-3.06-4.17-1.13,0-2.6.57-3.77,1.8v4.63c1.2,1.24,2.57,1.98,3.76,1.96h0Z"/><path class="cls-1" d="m717.87,312.83c0,.66-.54,1.2-1.2,1.2s-1.2-.54-1.2-1.2.54-1.2,1.2-1.2,1.2.54,1.2,1.2Zm-2.18,14.51v-11.39h1.95v11.39h-1.95Z"/><path class="cls-1" d="m731.71,327.34h-1.95v-1.48c-1.2,1.25-2.62,1.8-3.93,1.8-2.88,0-4.92-2.63-4.92-6.01,0-3.38,2.02-6.04,5.02-6.01,1.26,0,2.7.61,3.83,1.8v-6.04h1.95v15.95Zm-1.95-3.32v-4.74c-1.13-1.19-2.57-1.8-3.83-1.8-1.85,0-3.01,1.71-3,4.17-.02,2.48,1.12,4.17,3.06,4.17,1.15,0,2.64-.61,3.76-1.8Z"/><path class="cls-1" d="m745.63,327.34h-1.95v-1.45c-1.19,1.23-2.6,1.77-3.9,1.77-2.87,0-4.92-2.63-4.92-6.01s2.04-6.02,4.92-6.02c1.31,0,2.71.54,3.9,1.77v-1.45h1.95v11.39Zm-1.95-3.29v-4.81c-1.12-1.17-2.59-1.77-3.75-1.77-1.91,0-3.04,1.64-3.04,4.17s1.14,4.17,3.04,4.17c1.16,0,2.63-.6,3.75-1.77Z"/><path class="cls-1" d="m756.23,326.88c-.77.49-1.73.77-2.65.78-1.7,0-3.27-.94-3.27-3.38v-6.69h-2.25v-1.25l2.12-.35h.14v-3.28h1.95v3.28h3.45v1.6h-3.45v6.69c0,1.25.82,1.63,1.75,1.62.59,0,1.23-.16,1.73-.36l.5,1.33Z"/><path class="cls-1" d="m768.86,327.34h-1.95v-1.45c-1.19,1.23-2.6,1.77-3.9,1.77-2.87,0-4.92-2.63-4.92-6.01s2.04-6.02,4.92-6.02c1.31,0,2.71.54,3.9,1.77v-1.45h1.95v11.39Zm-1.95-3.29v-4.81c-1.12-1.17-2.59-1.77-3.75-1.77-1.91,0-3.04,1.64-3.04,4.17s1.14,4.17,3.04,4.17c1.16,0,2.63-.6,3.75-1.77Z"/><path class="cls-1" d="m779.47,326.88c-.77.49-1.73.77-2.65.78-1.7,0-3.27-.94-3.27-3.38v-6.69h-2.25v-1.25l2.12-.35h.14v-3.28h1.95v3.28h3.45v1.6h-3.45v6.69c0,1.25.82,1.63,1.75,1.62.59,0,1.23-.16,1.73-.36l.5,1.33Z"/><path class="cls-1" d="m798.01,319.92v7.43h-1.95v-7.43c0-1.68-1.01-2.46-2.33-2.46-1.1,0-2.54.54-3.72,1.59v8.3h-1.95v-11.39h1.95v1.44c1.26-1.2,2.8-1.76,4.11-1.76,2.08,0,3.89,1.37,3.89,4.28Z"/><path class="cls-1" d="m812.4,321.65c0,3.33-2.23,6.01-5.67,6.01s-5.67-2.69-5.67-6.01,2.26-6.04,5.67-6.01c3.44,0,5.67,2.69,5.67,6.01Zm-9.31,0c0,2.44,1.41,4.17,3.64,4.17s3.64-1.71,3.64-4.17-1.39-4.17-3.64-4.17c-2.27,0-3.66,1.73-3.64,4.17Z"/><path class="cls-1" d="m825.5,319.92v7.43h-1.95v-7.43c0-1.68-1.01-2.46-2.33-2.46-1.1,0-2.54.54-3.72,1.59v8.3h-1.95v-11.39h1.95v1.44c1.26-1.2,2.8-1.76,4.11-1.76,2.08,0,3.89,1.37,3.89,4.28Z"/><path class="cls-1" d="m74.19,351.26c-.01,3.83-2.38,6-4.99,6.02-1.31,0-2.69-.53-3.86-1.67v5.91h-1.95v-15.95h1.95v1.48c1.14-1.19,2.52-1.8,3.92-1.8,2.9,0,4.92,2.63,4.93,6.01Zm-5.09,4.23c1.71-.02,3.07-1.38,3.07-4.23,0-2.47-1.14-4.17-3.06-4.17-1.13,0-2.6.57-3.77,1.8v4.63c1.2,1.24,2.57,1.98,3.76,1.96h0Z"/><path class="cls-1" d="m83.74,345.23c.1,0,.2,0,.3,0l-.35,1.98c-.11-.01-.23-.01-.36-.01-1.33,0-2.83.56-4.09,1.69v8.06h-1.95v-11.39h1.95v1.61c1.36-1.29,3.02-1.95,4.49-1.95h0Z"/><path class="cls-1" d="m96.82,351.26c0,3.33-2.23,6.01-5.67,6.01s-5.67-2.69-5.67-6.01,2.26-6.04,5.67-6.01c3.44,0,5.67,2.69,5.67,6.01Zm-9.31,0c0,2.44,1.41,4.17,3.64,4.17s3.64-1.71,3.64-4.17-1.39-4.17-3.64-4.17c-2.27,0-3.66,1.73-3.64,4.17Z"/><path class="cls-1" d="m102.38,342.45c0,.66-.54,1.2-1.2,1.2s-1.2-.54-1.2-1.2.54-1.2,1.2-1.2,1.2.54,1.2,1.2Zm-2.18,14.51v-11.39h1.95v11.39h-1.95Z"/><path class="cls-1" d="m116.22,356.96h-1.95v-1.48c-1.2,1.25-2.62,1.8-3.93,1.8-2.88,0-4.92-2.63-4.92-6.01,0-3.38,2.02-6.04,5.02-6.01,1.26,0,2.7.61,3.83,1.8v-6.04h1.95v15.95Zm-1.95-3.32v-4.74c-1.13-1.19-2.57-1.8-3.83-1.8-1.85,0-3.01,1.71-3,4.17-.02,2.48,1.12,4.17,3.06,4.17,1.15,0,2.64-.61,3.76-1.8Z"/><path class="cls-1" d="m124.99,345.25c3.56,0,5.29,2.68,5.3,5.99,0,.17,0,.33-.02.49h-8.73c0,.07.01.15.02.22.23,2.06,1.54,3.48,3.49,3.48,1.22,0,2.46-.35,3.74-1.05l.5,1.34c-1.33,1.03-2.91,1.56-4.29,1.56-3.32,0-5.51-2.69-5.51-6.01s2.19-6.04,5.51-6.01h0Zm-3.37,4.88h6.63c-.27-1.83-1.27-3.04-3.2-3.04-1.84,0-3.09,1.22-3.43,3.04Z"/><path class="cls-1" d="m143.18,349.53v7.43h-1.95v-7.43c0-1.68-1.01-2.46-2.33-2.46-1.1,0-2.54.54-3.72,1.59v8.3h-1.95v-11.39h1.95v1.44c1.26-1.2,2.8-1.76,4.11-1.76,2.08,0,3.89,1.37,3.89,4.28Z"/><path class="cls-1" d="m153.68,356.49c-.77.49-1.73.77-2.65.78-1.7,0-3.27-.94-3.27-3.38v-6.69h-2.25v-1.25l2.12-.35h.14v-3.28h1.95v3.28h3.45v1.6h-3.45v6.69c0,1.25.82,1.63,1.75,1.62.59,0,1.23-.16,1.73-.36l.5,1.33Z"/><path class="cls-1" d="m158.85,355.76c.22,1.33-.8,3.26-2.11,4.24l-.86-.55c.66-.65,1.12-1.4,1.31-2.47-.49-.14-.92-.59-.92-1.22,0-.7.57-1.27,1.27-1.26.65,0,1.17.47,1.31,1.26Z"/><path class="cls-1" d="m175.4,346.75l-.91,1.37c-.7-.76-1.99-1.17-3.27-1.17-1.44,0-2.43.51-2.43,1.6,0,.84.59,1.14,2.69,1.69,1.79.48,4.26,1.02,4.28,3.53.02,2.5-2.46,3.49-4.7,3.49-1.82,0-3.61-.66-4.5-1.85l.91-1.38c.68.99,2.12,1.54,3.55,1.54,1.51,0,2.79-.64,2.79-1.8s-1.24-1.36-2.87-1.8c-2.88-.76-4.09-1.47-4.08-3.33,0-2.5,2.16-3.41,4.3-3.41,1.48,0,3.19.43,4.23,1.51Z"/><path class="cls-1" d="m188.3,356.96h-1.95v-1.44c-1.22,1.16-2.74,1.76-4.07,1.76-2.16,0-3.94-1.33-3.94-4.28v-7.43h1.95v7.43c0,1.59.8,2.46,2.18,2.46,1.26,0,2.69-.54,3.87-1.59v-8.3h1.95v11.39Z"/><path class="cls-1" d="m201.65,349.53v7.43h-1.95v-7.43c0-1.68-1.01-2.46-2.33-2.46-1.1,0-2.54.54-3.72,1.59v8.3h-1.95v-11.39h1.95v1.44c1.26-1.2,2.8-1.76,4.11-1.76,2.08,0,3.89,1.37,3.89,4.28Z"/><path class="cls-1" d="m212.15,356.49c-.77.49-1.73.77-2.65.78-1.7,0-3.27-.94-3.27-3.38v-6.69h-2.25v-1.25l2.12-.35h.14v-3.28h1.95v3.28h3.45v1.6h-3.45v6.69c0,1.25.82,1.63,1.75,1.62.59,0,1.23-.16,1.73-.36l.5,1.33Z"/><path class="cls-1" d="m223.15,342.45c0,.66-.54,1.2-1.2,1.2s-1.2-.54-1.2-1.2.54-1.2,1.2-1.2,1.2.54,1.2,1.2Zm-2.18,14.51v-11.39h1.95v11.39h-1.95Z"/><path class="cls-1" d="m236.5,349.53v7.43h-1.95v-7.43c0-1.68-1.01-2.46-2.33-2.46-1.1,0-2.54.54-3.72,1.59v8.3h-1.95v-11.39h1.95v1.44c1.26-1.2,2.8-1.76,4.11-1.76,2.08,0,3.89,1.37,3.89,4.28Z"/><path class="cls-1" d="m255.09,346.81l-.49,1.34c-1.28-.71-2.58-1.06-3.8-1.06-2.26,0-3.66,1.68-3.64,4.17,0,2.44,1.37,4.17,3.72,4.17,1.07,0,2.44-.35,3.71-1.05l.49,1.34c-1.28.99-2.81,1.55-4.33,1.55-3.35,0-5.63-2.69-5.63-6.01s2.3-6.04,5.66-6.01c1.39,0,2.96.53,4.29,1.56Z"/><path class="cls-1" d="m268.07,356.96h-1.95v-1.44c-1.22,1.16-2.74,1.76-4.07,1.76-2.16,0-3.94-1.33-3.94-4.28v-7.43h1.95v7.43c0,1.59.8,2.46,2.18,2.46,1.26,0,2.69-.54,3.87-1.59v-8.3h1.95v11.39Z"/><path class="cls-1" d="m273.53,353.9c0,1.25.82,1.63,1.75,1.62.21,0,.43-.02.64-.06l.57,1.52c-.53.19-1.09.29-1.64.29-1.7,0-3.27-.94-3.27-3.38v-12.89h1.95v12.89Z"/><path class="cls-1" d="m289.99,351.26c-.01,3.83-2.38,6-4.99,6.02-1.31,0-2.69-.53-3.86-1.67v5.91h-1.95v-15.95h1.95v1.48c1.14-1.19,2.52-1.8,3.92-1.8,2.9,0,4.92,2.63,4.93,6.01Zm-5.09,4.23c1.71-.02,3.07-1.38,3.07-4.23,0-2.47-1.14-4.17-3.06-4.17-1.13,0-2.6.57-3.77,1.8v4.63c1.2,1.24,2.57,1.98,3.76,1.96h0Z"/><path class="cls-1" d="m303.41,356.96h-1.95v-1.45c-1.19,1.23-2.6,1.77-3.9,1.77-2.87,0-4.92-2.63-4.92-6.01s2.04-6.02,4.92-6.02c1.31,0,2.71.54,3.9,1.77v-1.45h1.95v11.39Zm-1.95-3.29v-4.81c-1.12-1.17-2.59-1.77-3.75-1.77-1.91,0-3.04,1.64-3.04,4.17s1.14,4.17,3.04,4.17c1.16,0,2.63-.6,3.75-1.77Z"/><path class="cls-1" d="m322.53,361.51h-1.95v-5.91c-1.17,1.14-2.55,1.68-3.86,1.67-2.62-.01-4.98-2.19-4.99-6.02,0-3.38,2.03-6.01,4.93-6.01,1.41,0,2.78.61,3.92,1.8v-1.48h1.95v15.95Zm-1.95-7.99v-4.63c-1.18-1.23-2.64-1.8-3.77-1.8-1.92,0-3.06,1.7-3.06,4.17,0,2.85,1.36,4.2,3.07,4.23,1.19.02,2.56-.72,3.76-1.96Z"/><path class="cls-1" d="m336.04,356.96h-1.95v-1.44c-1.22,1.16-2.74,1.76-4.07,1.76-2.16,0-3.94-1.33-3.94-4.28v-7.43h1.95v7.43c0,1.59.8,2.46,2.18,2.46,1.26,0,2.69-.54,3.87-1.59v-8.3h1.95v11.39Z"/><path class="cls-1" d="m341.85,342.45c0,.66-.54,1.2-1.2,1.2s-1.2-.54-1.2-1.2.54-1.2,1.2-1.2,1.2.54,1.2,1.2Zm-2.18,14.51v-11.39h1.95v11.39h-1.95Z"/><path class="cls-1" d="m361.82,351.26c0,3.33-2.23,6.01-5.67,6.01s-5.67-2.69-5.67-6.01,2.26-6.04,5.67-6.01c3.44,0,5.67,2.69,5.67,6.01Zm-9.31,0c0,2.44,1.41,4.17,3.64,4.17s3.64-1.71,3.64-4.17-1.39-4.17-3.64-4.17c-2.27,0-3.66,1.73-3.64,4.17Z"/><path class="cls-1" d="m367.88,344.8v.81h3.45v1.6h-3.45v9.75h-1.95v-9.75h-2.26v-1.25l2.12-.35h.14v-.68c0-2.93,1.64-4.23,3.65-4.23,1.04,0,2.19.33,3.27.96l-.49,1.35c-.9-.38-1.79-.57-2.61-.57-1.18,0-1.88.86-1.88,2.36Z"/><path class="cls-1" d="m385.68,356.96h-1.95v-9.75h-6.22v9.75h-1.95v-9.75h-2.26v-1.25l2.12-.35h.14v-.68c0-2.93,1.64-4.23,3.65-4.23,1.04,0,2.19.33,3.27.96l-.49,1.35c-.9-.38-1.79-.57-2.61-.57-1.18,0-1.88.86-1.88,2.36v.81h8.17v11.35Z"/><path class="cls-1" d="m398.82,346.81l-.49,1.34c-1.28-.71-2.58-1.06-3.8-1.06-2.26,0-3.66,1.68-3.64,4.17,0,2.44,1.37,4.17,3.72,4.17,1.07,0,2.44-.35,3.71-1.05l.49,1.34c-1.28.99-2.81,1.55-4.33,1.55-3.35,0-5.63-2.69-5.63-6.01s2.3-6.04,5.66-6.01c1.39,0,2.96.53,4.29,1.56Z"/><path class="cls-1" d="m404.37,342.45c0,.66-.54,1.2-1.2,1.2s-1.2-.54-1.2-1.2.54-1.2,1.2-1.2,1.2.54,1.2,1.2Zm-2.18,14.51v-11.39h1.95v11.39h-1.95Z"/><path class="cls-1" d="m418.07,356.96h-1.95v-1.45c-1.19,1.23-2.6,1.77-3.9,1.77-2.87,0-4.92-2.63-4.92-6.01s2.04-6.02,4.92-6.02c1.31,0,2.71.54,3.9,1.77v-1.45h1.95v11.39Zm-1.95-3.29v-4.81c-1.12-1.17-2.59-1.77-3.75-1.77-1.91,0-3.04,1.64-3.04,4.17s1.14,4.17,3.04,4.17c1.16,0,2.63-.6,3.75-1.77Z"/><path class="cls-1" d="m437.6,356.96h-1.95v-1.48c-1.2,1.25-2.62,1.8-3.93,1.8-2.88,0-4.92-2.63-4.92-6.01,0-3.38,2.02-6.04,5.02-6.01,1.26,0,2.7.61,3.83,1.8v-6.04h1.95v15.95Zm-1.95-3.32v-4.74c-1.13-1.19-2.57-1.8-3.83-1.8-1.85,0-3.01,1.71-3,4.17-.02,2.48,1.12,4.17,3.06,4.17,1.15,0,2.64-.61,3.76-1.8Z"/><path class="cls-1" d="m446.37,345.25c3.56,0,5.29,2.68,5.3,5.99,0,.17,0,.33-.02.49h-8.73c0,.07.01.15.02.22.23,2.06,1.54,3.48,3.49,3.48,1.22,0,2.46-.35,3.74-1.05l.5,1.34c-1.33,1.03-2.91,1.56-4.29,1.56-3.32,0-5.51-2.69-5.51-6.01s2.19-6.04,5.51-6.01h0Zm-3.37,4.88h6.63c-.27-1.83-1.27-3.04-3.2-3.04-1.84,0-3.09,1.22-3.43,3.04Z"/><path class="cls-1" d="m462.61,346.75l-.91,1.37c-.7-.76-1.99-1.17-3.27-1.17-1.44,0-2.43.51-2.43,1.6,0,.84.59,1.14,2.69,1.69,1.79.48,4.26,1.02,4.28,3.53.02,2.5-2.46,3.49-4.7,3.49-1.82,0-3.61-.66-4.5-1.85l.91-1.38c.68.99,2.12,1.54,3.55,1.54,1.51,0,2.79-.64,2.79-1.8s-1.24-1.36-2.87-1.8c-2.88-.76-4.09-1.47-4.08-3.33,0-2.5,2.16-3.41,4.3-3.41,1.48,0,3.19.43,4.23,1.51Z"/><path class="cls-1" d="m470.83,345.25c3.56,0,5.29,2.68,5.3,5.99,0,.17,0,.33-.02.49h-8.73c0,.07.01.15.02.22.23,2.06,1.54,3.48,3.49,3.48,1.22,0,2.46-.35,3.74-1.05l.5,1.34c-1.33,1.03-2.91,1.56-4.29,1.56-3.32,0-5.51-2.69-5.51-6.01s2.19-6.04,5.51-6.01h0Zm-3.37,4.88h6.63c-.27-1.83-1.27-3.04-3.2-3.04-1.84,0-3.09,1.22-3.43,3.04Z"/><path class="cls-1" d="m485.51,345.23c.1,0,.2,0,.3,0l-.35,1.98c-.11-.01-.23-.01-.36-.01-1.33,0-2.83.56-4.09,1.69v8.06h-1.95v-11.39h1.95v1.61c1.36-1.29,3.03-1.95,4.49-1.95h0Z"/><path class="cls-1" d="m497.88,356.96h-1.95v-1.44c-1.22,1.16-2.74,1.76-4.07,1.76-2.16,0-3.94-1.33-3.94-4.28v-7.43h1.95v7.43c0,1.59.8,2.46,2.18,2.46,1.26,0,2.69-.54,3.87-1.59v-8.3h1.95v11.39Z"/><path class="cls-1" d="m511.23,349.53v7.43h-1.95v-7.43c0-1.68-1.01-2.46-2.33-2.46-1.1,0-2.54.54-3.72,1.59v8.3h-1.95v-11.39h1.95v1.44c1.26-1.2,2.8-1.76,4.11-1.76,2.08,0,3.89,1.37,3.89,4.28Z"/><path class="cls-1" d="m521.73,356.49c-.77.49-1.73.77-2.65.78-1.7,0-3.27-.94-3.27-3.38v-6.69h-2.25v-1.25l2.12-.35h.14v-3.28h1.95v3.28h3.45v1.6h-3.45v6.69c0,1.25.82,1.63,1.75,1.62.59,0,1.23-.16,1.73-.36l.5,1.33Z"/><path class="cls-1" d="m547.6,349.53v7.43h-1.95v-7.43c.01-1.72-1-2.47-2.32-2.47-1.07,0-2.35.48-3.47,1.35.06.34.09.72.09,1.12v7.43h-1.95v-7.43c0-1.7-.98-2.46-2.26-2.46-1.09,0-2.39.54-3.47,1.52v8.37h-1.95v-11.39h1.95v1.42c1.18-1.16,2.59-1.74,3.92-1.74s2.6.6,3.25,1.9c1.27-1.21,2.89-1.9,4.37-1.9,2.07,0,3.8,1.33,3.79,4.28Z"/><path class="cls-1" d="m562,351.26c0,3.33-2.23,6.01-5.67,6.01s-5.67-2.69-5.67-6.01,2.26-6.04,5.67-6.01c3.44,0,5.67,2.69,5.67,6.01Zm-9.31,0c0,2.44,1.41,4.17,3.64,4.17s3.64-1.71,3.64-4.17-1.39-4.17-3.64-4.17c-2.27,0-3.66,1.73-3.64,4.17Z"/><path class="cls-1" d="m567.21,353.9c0,1.25.82,1.63,1.75,1.62.21,0,.43-.02.64-.06l.57,1.52c-.53.19-1.09.29-1.64.29-1.7,0-3.27-.94-3.27-3.38v-12.89h1.95v12.89Z"/><path class="cls-1" d="m575.11,353.9c0,1.25.82,1.63,1.75,1.62.21,0,.43-.02.64-.06l.57,1.52c-.53.19-1.09.29-1.64.29-1.7,0-3.27-.94-3.27-3.38v-12.89h1.95v12.89Z"/><path class="cls-1" d="m583.36,342.45c0,.66-.54,1.2-1.2,1.2s-1.2-.54-1.2-1.2.54-1.2,1.2-1.2,1.2.54,1.2,1.2Zm-2.18,14.51v-11.39h1.95v11.39h-1.95Z"/><path class="cls-1" d="m593.87,356.49c-.77.49-1.73.77-2.65.78-1.7,0-3.27-.94-3.27-3.38v-6.69h-2.25v-1.25l2.12-.35h.14v-3.28h1.95v3.28h3.45v1.6h-3.45v6.69c0,1.25.82,1.63,1.75,1.62.59,0,1.23-.16,1.73-.36l.5,1.33Z"/><path class="cls-1" d="m612.76,356.96h-1.95v-1.45c-1.19,1.23-2.6,1.77-3.9,1.77-2.87,0-4.92-2.63-4.92-6.01s2.04-6.02,4.92-6.02c1.31,0,2.71.54,3.9,1.77v-1.45h1.95v11.39Zm-1.95-3.29v-4.81c-1.12-1.17-2.59-1.77-3.75-1.77-1.91,0-3.04,1.64-3.04,4.17s1.14,4.17,3.04,4.17c1.16,0,2.63-.6,3.75-1.77Z"/><path class="cls-1" d="m626.21,349.53v7.43h-1.95v-7.43c0-1.68-1.01-2.46-2.33-2.46-1.1,0-2.54.54-3.72,1.59v8.3h-1.95v-11.39h1.95v1.44c1.26-1.2,2.8-1.76,4.11-1.76,2.08,0,3.89,1.37,3.89,4.28Z"/><path class="cls-1" d="m632.02,342.45c0,.66-.54,1.2-1.2,1.2s-1.2-.54-1.2-1.2.54-1.2,1.2-1.2,1.2.54,1.2,1.2Zm-2.18,14.51v-11.39h1.95v11.39h-1.95Z"/><path class="cls-1" d="m652.7,349.53v7.43h-1.95v-7.43c.01-1.72-1-2.47-2.32-2.47-1.07,0-2.35.48-3.47,1.35.06.34.09.72.09,1.12v7.43h-1.95v-7.43c0-1.7-.98-2.46-2.26-2.46-1.09,0-2.39.54-3.47,1.52v8.37h-1.95v-11.39h1.95v1.42c1.18-1.16,2.59-1.74,3.92-1.74s2.6.6,3.25,1.9c1.27-1.21,2.89-1.9,4.37-1.9,2.07,0,3.8,1.33,3.79,4.28Z"/><path class="cls-1" d="m664.09,342.45c0,.66-.54,1.2-1.2,1.2s-1.2-.54-1.2-1.2.54-1.2,1.2-1.2,1.2.54,1.2,1.2Zm-2.18,14.51v-11.39h1.95v11.39h-1.95Z"/><path class="cls-1" d="m677.93,356.96h-1.95v-1.48c-1.2,1.25-2.62,1.8-3.93,1.8-2.88,0-4.92-2.63-4.92-6.01,0-3.38,2.02-6.04,5.02-6.01,1.26,0,2.7.61,3.83,1.8v-6.04h1.95v15.95Zm-1.95-3.32v-4.74c-1.13-1.19-2.57-1.8-3.83-1.8-1.85,0-3.01,1.71-3,4.17-.02,2.48,1.12,4.17,3.06,4.17,1.15,0,2.64-.61,3.76-1.8Z"/><path class="cls-1" d="m692.28,345.25c3.56,0,5.29,2.68,5.3,5.99,0,.17,0,.33-.02.49h-8.73c0,.07.01.15.02.22.23,2.06,1.54,3.48,3.49,3.48,1.22,0,2.46-.35,3.74-1.05l.5,1.34c-1.33,1.03-2.91,1.56-4.29,1.56-3.32,0-5.51-2.69-5.51-6.01s2.19-6.04,5.51-6.01h0Zm-3.37,4.88h6.63c-.27-1.83-1.27-3.04-3.2-3.04-1.84,0-3.09,1.22-3.43,3.04Z"/><path class="cls-1" d="m708.52,346.75l-.91,1.37c-.7-.76-1.99-1.17-3.27-1.17-1.44,0-2.43.51-2.43,1.6,0,.84.59,1.14,2.69,1.69,1.79.48,4.26,1.02,4.28,3.53.02,2.5-2.46,3.49-4.7,3.49-1.82,0-3.61-.66-4.5-1.85l.91-1.38c.68.99,2.12,1.54,3.55,1.54,1.51,0,2.79-.64,2.79-1.8s-1.24-1.36-2.87-1.8c-2.88-.76-4.09-1.47-4.08-3.33,0-2.5,2.16-3.41,4.3-3.41,1.48,0,3.19.43,4.23,1.51Z"/><path class="cls-1" d="m718.69,356.49c-.77.49-1.73.77-2.65.78-1.7,0-3.27-.94-3.27-3.38v-6.69h-2.25v-1.25l2.12-.35h.14v-3.28h1.95v3.28h3.45v1.6h-3.45v6.69c0,1.25.82,1.63,1.75,1.62.59,0,1.23-.16,1.73-.36l.5,1.33Z"/><path class="cls-1" d="m729.34,353.9c0,1.25.82,1.63,1.75,1.62.21,0,.43-.02.64-.06l.57,1.52c-.53.19-1.09.29-1.64.29-1.7,0-3.27-.94-3.27-3.38v-12.89h1.95v12.89Z"/><path class="cls-1" d="m744.69,356.96h-1.95v-1.45c-1.19,1.23-2.6,1.77-3.9,1.77-2.87,0-4.92-2.63-4.92-6.01s2.04-6.02,4.92-6.02c1.31,0,2.71.54,3.9,1.77v-1.45h1.95v11.39Zm-1.95-3.29v-4.81c-1.12-1.17-2.59-1.77-3.75-1.77-1.91,0-3.04,1.64-3.04,4.17s1.14,4.17,3.04,4.17c1.16,0,2.63-.6,3.75-1.77Z"/><path class="cls-1" d="m754.17,345.25c2.9,0,4.92,2.64,4.93,6.01,0,3.38-2.03,6.01-4.93,6.01-1.41,0-2.78-.61-3.92-1.8v1.48h-1.95v-15.95h1.95v6.04c1.14-1.19,2.51-1.8,3.92-1.8h0Zm2.91,6.01c0-2.47-1.13-4.17-3.06-4.17-1.13,0-2.59.57-3.77,1.8v4.74c1.18,1.23,2.64,1.8,3.77,1.8,1.92,0,3.06-1.7,3.06-4.17Z"/><path class="cls-1" d="m773.26,351.26c0,3.33-2.23,6.01-5.67,6.01s-5.67-2.69-5.67-6.01,2.26-6.04,5.67-6.01c3.44,0,5.67,2.69,5.67,6.01Zm-9.31,0c0,2.44,1.41,4.17,3.64,4.17s3.64-1.71,3.64-4.17-1.39-4.17-3.64-4.17c-2.27,0-3.66,1.73-3.64,4.17Z"/><path class="cls-1" d="m782.85,345.23c.1,0,.2,0,.3,0l-.35,1.98c-.11-.01-.23-.01-.36-.01-1.33,0-2.83.56-4.09,1.69v8.06h-1.95v-11.39h1.95v1.61c1.36-1.29,3.02-1.95,4.49-1.95h0Z"/><path class="cls-1" d="m795.22,356.96h-1.95v-1.44c-1.22,1.16-2.74,1.76-4.07,1.76-2.16,0-3.94-1.33-3.94-4.28v-7.43h1.95v7.43c0,1.59.8,2.46,2.18,2.46,1.26,0,2.69-.54,3.87-1.59v-8.3h1.95v11.39Z"/><path class="cls-1" d="m815.9,349.53v7.43h-1.95v-7.43c.01-1.72-1-2.47-2.32-2.47-1.07,0-2.35.48-3.47,1.35.06.34.09.72.09,1.12v7.43h-1.95v-7.43c0-1.7-.98-2.46-2.26-2.46-1.09,0-2.39.54-3.47,1.52v8.37h-1.95v-11.39h1.95v1.42c1.18-1.16,2.59-1.74,3.92-1.74s2.6.6,3.25,1.9c1.27-1.21,2.89-1.9,4.37-1.9,2.07,0,3.8,1.33,3.79,4.28Z"/></svg>