<?xml version="1.0" encoding="UTF-8"?><svg id="Layer_1" xmlns="http://www.w3.org/2000/svg" viewBox="0 0 1920 430.85"><defs><style>.cls-1{fill:#002b3c;stroke-width:0px;}</style></defs><path class="cls-1" d="m64.38,107.01v-16.51h51.7v16.51h-15.29v48.23h-21.2v-48.23h-15.2Z"/><path class="cls-1" d="m130.15,90.5h21.21v23.46h17.64v-23.46h21.21v64.74h-21.21v-23.93h-17.64v23.93h-21.21v-64.74Z"/><path class="cls-1" d="m254.93,90.5v16.7h-24.86v7.04h23.46v16.61h-23.46v7.51h25.8v16.89h-46.91v-64.74h45.97Z"/><path class="cls-1" d="m297.62,122.96c0-21.11,15.01-33.5,35.18-33.5s35.18,12.39,35.18,33.5c0,8.06-2.25,14.84-6.14,20.14l7.08,7.92-12.67,11.26-7.88-8.83c-4.67,1.92-9.95,2.92-15.57,2.92-20.17,0-35.18-12.29-35.18-33.4Zm35.18,14.63c5.27,0,13.79-1.03,13.79-15.1,0-8.91-5.35-15.11-13.79-15.11s-13.89,6.19-13.89,15.11,5.44,15.12,13.89,15.11h0Z"/><path class="cls-1" d="m406.93,135.53c1.41,1.41,3.28,2.35,6.1,2.35s4.69-.94,6.1-2.35c1.41-1.41,2.06-3.28,2.06-7.04v-38h21.39v37.06c0,10.32-2.35,16.42-7.04,21.11s-12.2,7.6-22.52,7.6-17.83-2.91-22.52-7.6-7.04-10.79-7.04-21.11v-37.06h21.3v38c0,3.85.75,5.63,2.16,7.04Z"/><path class="cls-1" d="m482.08,90.5v64.74h-21.21v-64.74h21.21Z"/><path class="cls-1" d="m532.75,156.36c-19.23,0-34.71-11.82-34.71-33.4s15.48-33.4,34.71-33.4c14.54,0,21.58,6.1,21.58,6.1l-5.63,17.83s-6.57-5.63-14.54-5.63-14.83,4.69-14.83,14.82,7.32,14.54,14.83,14.54,12.67-3.1,15.48-5.91l6.1,16.89c-2.35,2.35-8.91,8.16-22.99,8.16Z"/><path class="cls-1" d="m590.92,90.5v19.7l13.61-19.7h24.86l-20.92,26.08,22.33,38.66h-25.33l-10.79-21.58-3.75,4.69v16.89h-21.11v-64.74h21.11Z"/><path class="cls-1" d="m713.82,92.84c4.69,1.88,9.57,6.57,9.57,14.07s-4.82,12.6-9.12,14.23l.02.12c7.51,2.06,12.39,7.69,12.39,16.11,0,6.6-3,10.82-7.22,13.64-4.22,2.81-10.79,4.22-16.89,4.22h-31.9v-64.74h26.74c5.63,0,11.73.47,16.42,2.35Zm-13.29,21.4c1.56-1.04,2.03-2.16,2.03-3.76,0-1.69-.47-2.81-1.88-3.75-1.41-.94-2.35-.94-4.69-.94h-4.22v9.38h4.22c2.35,0,3.28-.09,4.54-.93Zm2.57,24.37c1.8-1.2,2.27-2.61,2.27-4.2,0-1.69-.47-3.1-2.19-4.25-1.09-.73-2.03-.91-4.37-.91h-7.04v10.32h7.04c2.35,0,3.28-.28,4.3-.96Z"/><path class="cls-1" d="m788.88,95.19c4.69,3.28,7.98,8.91,7.98,15.95s-2.08,11.21-4.49,14.24c-2.31,2.9-4.92,4.45-6.3,5.27l14.54,24.58h-24.4l-10.32-21.58h-2.72v21.58h-21.21v-64.74h28.15c7.98,0,14.07,1.41,18.77,4.69Zm-15.76,21.39c1.03-.75,2.35-1.69,2.35-4.5s-1.43-3.72-2.35-4.41c-.96-.72-2.35-1.22-4.69-1.22h-5.35v11.26h5.35c2.35,0,3.85-.47,4.69-1.13Z"/><path class="cls-1" d="m810.93,122.96c0-21.11,15.01-33.5,35.18-33.5s35.18,12.39,35.18,33.5-15.01,33.4-35.18,33.4-35.18-12.29-35.18-33.4Zm48.98-.47c0-8.91-5.35-15.11-13.79-15.11s-13.89,6.19-13.89,15.11,5.44,15.11,13.89,15.11,13.79-6.19,13.79-15.11Z"/><path class="cls-1" d="m911.32,90.5l7.97,36.12,7.98-36.12h21.11l7.98,36.12,7.98-36.12h22.05l-18.3,64.74h-21.58l-8.73-36.59-8.63,36.59h-21.58l-18.3-64.74h22.05Z"/><path class="cls-1" d="m1022.5,90.5l18.77,36.12s-.47-7.04-.47-11.73v-24.4h20.64v64.74h-22.05l-19.7-36.12s.47,7.04.47,11.73v24.4h-20.64v-64.74h22.99Z"/><path class="cls-1" d="m1152.92,90.5v16.7h-23.93v10.04h22.52v16.7h-22.52v21.3h-21.11v-64.74h45.04Z"/><path class="cls-1" d="m1165.12,122.96c0-21.11,15.01-33.5,35.18-33.5s35.18,12.39,35.18,33.5-15.01,33.4-35.18,33.4-35.18-12.29-35.18-33.4Zm48.98-.47c0-8.91-5.35-15.11-13.79-15.11s-13.89,6.19-13.89,15.11,5.44,15.11,13.89,15.11,13.79-6.19,13.79-15.11Z"/><path class="cls-1" d="m1242.24,90.5h25.33l9.2,17.36,9.1-17.36h25.33l-20.36,30.96,21.58,33.78h-25.33l-10.32-20.64-10.32,20.64h-25.33l21.58-33.78-20.45-30.96Z"/><path class="cls-1" d="m65.78,250.47c1.88,0,3.28-.47,3.28-3.75v-62.39h21.11v62.39c0,7.03-1.64,11.95-4.74,15.11-3.11,3.18-7.69,4.59-13.56,4.59-5.16,0-10.79-.94-12.2-1.6l.94-15.29c1.41.47,3.28.94,5.16.94Z"/><path class="cls-1" d="m131.93,229.36c1.41,1.41,3.28,2.35,6.1,2.35s4.69-.94,6.1-2.35c1.41-1.41,2.06-3.28,2.06-7.04v-38h21.39v37.06c0,10.32-2.35,16.42-7.04,21.11s-12.2,7.6-22.52,7.6-17.83-2.91-22.52-7.6-7.04-10.79-7.04-21.11v-37.06h21.3v38c0,3.85.75,5.63,2.16,7.04Z"/><path class="cls-1" d="m214.97,184.32l8.16,35.19,8.26-35.19h27.21l3.75,64.74h-20.83l-.75-37.06-8.44,37.06h-18.3l-8.44-37.06-.75,37.06h-20.83l3.75-64.74h27.21Z"/><path class="cls-1" d="m325.4,189.48c4.69,3.75,7.32,9.38,7.32,17.17s-2.63,13.32-7.32,17.08-10.98,5.16-18.01,5.16h-6.94v20.17h-21.21v-64.74h28.15c7.04,0,13.32,1.41,18.01,5.16Zm-16.42,22.33c1.5-1.03,2.35-2.63,2.35-5.16s-.94-4.22-2.35-5.16c-1.41-1.03-2.82-1.22-5.16-1.22h-3.47v12.67h3.47c2.35,0,3.75-.19,5.16-1.13Z"/><path class="cls-1" d="m351.95,225.6c6,5.07,14.45,7.04,17.26,7.04s4.79-.84,4.79-2.72-2.35-2.63-4.69-3.38l-9.38-3c-9-2.88-14.82-8.59-14.82-18.58,0-14.92,13.46-21.3,26.55-21.3,8.63,0,17.45,3.1,23.08,7.79l-8.07,15.01c-4.88-4.32-12.01-6.19-16.25-6.19-2.51,0-4.39.84-4.39,2.4,0,2.63,4.82,3.2,9.66,4.8l4.32,1.43c9.65,3.2,15.11,9.06,15.11,18.86,0,15.45-13.95,22.42-27.58,22.42-7.51,0-16.14-2.06-24.96-8.63l9.38-15.95h0Z"/><path class="cls-1" d="m434.98,216.78c0-21.11,15.01-33.5,35.18-33.5s35.18,12.39,35.18,33.5-15.01,33.4-35.18,33.4-35.18-12.29-35.18-33.4Zm48.98-.47c0-8.91-5.35-15.11-13.79-15.11s-13.89,6.19-13.89,15.11,5.44,15.11,13.89,15.11,13.79-6.19,13.79-15.11Z"/><path class="cls-1" d="m533.5,184.32l12.2,37.53,12.2-37.53h22.52l-24.39,64.74h-20.64l-24.4-64.74h22.52Z"/><path class="cls-1" d="m639.52,184.32v16.7h-24.86v7.04h23.46v16.61h-23.46v7.51h25.8v16.89h-46.91v-64.74h45.97Z"/><path class="cls-1" d="m704.26,189.01c4.69,3.28,7.98,8.91,7.98,15.95s-2.08,11.21-4.49,14.24c-2.31,2.9-4.92,4.45-6.3,5.27l14.54,24.58h-24.4l-10.32-21.58h-2.72v21.58h-21.21v-64.74h28.15c7.98,0,14.07,1.41,18.77,4.69Zm-15.76,21.39c1.03-.75,2.35-1.69,2.35-4.5s-1.43-3.72-2.35-4.41c-.96-.72-2.35-1.22-4.69-1.22h-5.35v11.26h5.35c2.35,0,3.85-.47,4.69-1.13Z"/><path class="cls-1" d="m751.64,200.83v-16.51h51.7v16.51h-15.29v48.23h-21.2v-48.23h-15.2Z"/><path class="cls-1" d="m817.41,184.32h21.21v23.46h17.64v-23.46h21.21v64.74h-21.21v-23.93h-17.64v23.93h-21.21v-64.74Z"/><path class="cls-1" d="m942.19,184.32v16.7h-24.86v7.04h23.46v16.61h-23.46v7.51h25.8v16.89h-46.91v-64.74h45.97Z"/><path class="cls-1" d="m1008.81,184.32v47.38h22.05v17.36h-43.16v-64.74h21.11Z"/><path class="cls-1" d="m1086.21,184.32l22.52,64.74h-22.99l-2.53-9.1h-18.48l-2.44,9.1h-22.05l22.52-64.74h23.46Zm-12.2,22.05l-4.79,17.36h9.57l-4.79-17.36Z"/><path class="cls-1" d="m1148.13,201.21h-27.21v-16.89h54.42v14.54l-28.15,32.84h29.56v17.36h-56.77v-15.01l28.15-32.84Z"/><path class="cls-1" d="m1186.6,184.32h23.46l9.57,21.86,9.66-21.86h23.46l-22.52,39.41v25.33h-21.21v-25.33l-22.42-39.41Z"/><path class="cls-1" d="m1342.82,191.36c6.1,4.69,10.79,12.2,10.79,25.33s-4.69,20.64-10.79,25.33-14.54,7.04-25.8,7.04h-24.39v-64.74h24.39c11.26,0,19.7,2.35,25.8,7.04Zm-14.36,36.59c1.88-1.88,3.75-4.69,3.75-11.26s-1.78-9.85-3.75-11.73c-1.88-1.88-5.16-3.28-9.85-3.28h-4.88v29.56h4.88c4.69,0,7.97-1.41,9.85-3.28Z"/><path class="cls-1" d="m1366.74,216.78c0-21.11,15.01-33.5,35.18-33.5s35.18,12.39,35.18,33.5-15.01,33.4-35.18,33.4-35.18-12.29-35.18-33.4Zm48.98-.47c0-8.91-5.35-15.11-13.79-15.11s-13.89,6.19-13.89,15.11,5.44,15.11,13.89,15.11,13.79-6.19,13.79-15.11Z"/><path class="cls-1" d="m1514.51,209.93v28.34c-5.16,4.69-12.67,11.82-30.02,11.82s-34.25-10.42-34.25-33.4,16.89-33.31,34.71-33.31,25.33,9.38,27.21,11.26l-14.07,11.73c-1.41-1.41-5.63-5.63-13.14-5.63s-13.42,5.63-13.42,15.95,5.91,15.95,13.42,15.95,8.91-2.35,8.91-2.35v-4.69h-9.85v-15.67h30.49Z"/><path class="cls-1" d="m66.72,310.61c0-17.36,8.44-33.4,28.8-33.4s28.9,16.04,28.9,33.4-8.44,33.4-28.9,33.4-28.8-16.04-28.8-33.4Zm37.06-.28c0-8.44-1.88-15.48-8.26-15.48s-8.16,7.04-8.16,15.48,1.88,15.67,8.16,15.67,8.26-7.22,8.26-15.67Z"/><path class="cls-1" d="m142.44,292.22v-14.07h31.24v64.74h-20.45v-50.67h-10.79Z"/><path class="cls-1" d="m227.63,299.26c0-3.75-2.81-5.63-7.51-5.63s-10.79,2.35-15.48,7.04l-7.97-14.54s9.38-8.91,25.8-8.91,25.33,7.98,25.33,19.23-7.22,16.79-13.6,22.05l-10.32,8.44h27.21v15.95h-51.14l-2.35-13.14,21.11-17.83c7.32-6.19,8.91-8.91,8.91-12.67Z"/><path class="cls-1" d="m293.31,327.87c4.22,0,8.16-2.35,8.16-6.1s-3-5.63-7.22-5.63h-6.57v-14.07h6.57c3.28,0,5.63-1.41,5.63-4.69s-2.82-4.69-6.57-4.69-9.38.94-15.48,5.16l-7.04-13.6c4.69-3.28,11.26-7.04,24.11-7.04s24.86,6.57,24.86,17.83c0,7.51-3.47,11.26-8.16,13.6,6.1,1.88,10.32,7.51,10.32,14.54,0,14.07-13.6,20.74-27.21,20.74s-22.61-5.25-26.27-10.42l8.91-12.67c4.22,5.16,11.73,7.04,15.95,7.04Z"/><path class="cls-1" d="m364.61,278.14h24.11v37.06h7.79v15.95h-7.79v11.73h-20.36v-11.73h-30.49v-15.48l26.74-37.53Zm4.22,20.17l-12.2,17.36h12.2v-17.36Z"/><path class="cls-1" d="m436.39,327.87c3.75,0,9.38-1.88,9.38-7.51s-5.16-7.51-9.38-7.51-8.91,1.41-12.2,3.28l-8.44-5.16,4.22-32.84h43.16v15.95h-27.21l-.94,6.1c1.41-.47,3.28-1.13,7.97-1.13,9.38,0,23.18,5.35,23.18,21.3s-14.26,23.55-27.87,23.55-22.52-5.25-26.27-10.42l8.91-12.67c4.22,5.16,11.73,7.04,15.48,7.04Z"/><path class="cls-1" d="m529.27,297s-6.57-3.94-13.6-3.94c-3.5,0-6.42.97-8.47,2.93-2.07,1.98-3.26,4.97-3.26,8.98.94-.94,5.16-4.69,15.01-4.69s19.89,6.57,19.89,19.7-9.57,23.93-26.27,23.93c-8.81,0-16.38-3.43-21.55-9.74-4.57-5.58-7.26-13.41-7.26-23.1,0-11.91,3.59-21.35,10.5-27.2,5.07-4.3,11.93-6.67,20.46-6.67,9.85,0,17.83,3.38,21.58,6.19l-7.04,13.6h0Zm-10.32,24.21c0-4.03-3.1-7.32-7.32-7.32s-7.22,3.28-7.22,7.32,3,7.22,7.22,7.22,7.32-3.28,7.32-7.22Z"/><path class="cls-1" d="m554.61,278.14h48.32l5.63,12.67-26.27,52.07h-22.52l26.27-48.79h-31.43v-15.95Z"/><path class="cls-1" d="m635.01,309.39c-5.16-1.69-9.57-5.91-9.57-13.42,0-12.67,11.73-18.77,25.52-18.77s25.61,6.1,25.61,18.77c0,7.51-4.5,11.73-9.66,13.42,7.04,2.06,11.26,7.22,11.26,14.73,0,13.6-12.85,19.8-27.21,19.8s-27.21-6.19-27.21-19.8c0-7.51,4.22-12.67,11.26-14.73Zm15.95,18.77c3.75,0,6.85-2.16,6.85-6.1s-3.1-6.1-6.85-6.1-6.76,2.06-6.76,6.1,3,6.1,6.76,6.1Zm0-25.61c3.57,0,5.63-1.88,5.63-5.16s-2.06-5.16-5.63-5.16-5.63,1.88-5.63,5.16,2.16,5.16,5.63,5.16Z"/><path class="cls-1" d="m717.86,328.15c7.04,0,11.73-4.03,11.73-12.01-.94.94-5.16,4.69-15.01,4.69s-19.98-6.57-19.98-19.7,9.66-23.93,26.27-23.93,28.9,12.2,28.9,32.84-10.79,33.87-30.96,33.87c-9.85,0-17.83-3.38-21.58-6.19l7.04-13.6s6.57,4.03,13.6,4.03Zm11.26-28.62c0-4.03-3.1-7.32-7.32-7.32s-7.22,3.28-7.22,7.32,3,7.22,7.22,7.22,7.32-3.28,7.32-7.22Z"/><path class="cls-1" d="m765.71,310.61c0-17.36,8.44-33.4,28.8-33.4s28.9,16.04,28.9,33.4-8.44,33.4-28.9,33.4-28.8-16.04-28.8-33.4Zm37.06-.28c0-8.44-1.88-15.48-8.26-15.48s-8.16,7.04-8.16,15.48,1.88,15.67,8.16,15.67,8.26-7.22,8.26-15.67Z"/></svg>