<?xml version="1.0" encoding="UTF-8"?><svg id="Layer_1" xmlns="http://www.w3.org/2000/svg" viewBox="0 0 1920 430.85"><defs><style>.cls-1{fill:#0d0e0e;}.cls-1,.cls-2{stroke-width:0px;}.cls-2{fill:#002b3c;}</style></defs><path class="cls-2" d="m91.2,69.87v39.54h-14.75v-39.54h-14.01v-12.1h42.77v12.1h-14.01Z"/><path class="cls-2" d="m159.78,109.42h-14.75v-20.7h-18.77v20.7h-14.75v-51.64h14.75v18.84h18.77v-18.84h14.75v51.64Z"/><path class="cls-2" d="m209.38,109.42h-40.04v-51.64h39.3v12.1h-24.54v6.45h21.67v12.1h-21.67v8.89h25.28v12.1Z"/><path class="cls-2" d="m281.26,103.85l6.42,8.38-12.64,3.54-4.34-6.39c-2.58.7-5.37,1.07-8.35,1.07-16.78,0-27.86-12-27.86-26.85s11.08-26.85,27.86-26.85,27.86,12,27.86,26.85c0,8.09-3.25,15.34-8.95,20.26Zm-18.91-5.87c.21,0,.41,0,.62-.01l-4.88-7.21,10.85-3.01,3.69,4.82c1.62-2.41,2.53-5.5,2.53-8.98,0-8.4-5.18-14.39-12.76-14.39s-12.84,6.05-12.84,14.39,5.14,14.39,12.8,14.39h0Z"/><path class="cls-2" d="m344.82,89.78c0,13.77-11.56,20.65-23.24,20.65s-23.27-6.88-23.27-20.65v-32.02l14.75.02v32.01c0,5.46,4.25,8.2,8.51,8.2,4.25,0,8.5-2.74,8.5-8.2v-32.01l14.75-.02v32.02Z"/><path class="cls-2" d="m354.02,109.42v-51.64h14.75v51.64h-14.75Z"/><path class="cls-2" d="m404.67,56.74c6.73,0,14.28,2.51,20.75,7.38l-3.65,10.05c-5.26-3.21-10.85-4.98-15.71-4.96-7.58.02-13.38,4.39-13.38,14.39s5.81,14.38,13.38,14.38c5,0,10.78-1.88,16.15-5.26l3.64,10.03c-6.56,5.06-14.38,7.7-21.2,7.7-16.29,0-27.04-12-27.04-26.85s10.75-26.85,27.04-26.85h0Z"/><path class="cls-2" d="m448.75,95.71v13.7h-14.75v-51.64h14.75v18.55l13.77-18.55h17.63l-18.46,22.3,20.32,29.35h-17.78l-11.36-18.69-4.13,4.99Z"/><path class="cls-2" d="m551.21,94.35c0,9.13-7.14,15.06-15.97,15.06h-14.11s-14.75.01-14.75.01v-51.64h26.43c8.17,0,14.73,5.5,14.68,13.85,0,4.5-2.12,8.04-5.38,10.14,5.37,1.76,9.15,6.35,9.11,12.58Zm-30.08-16.38h7.33c2.39,0,4.18-1.58,4.18-4.38.02-2.78-1.77-4.38-4.18-4.38h-7.33v8.76Zm10.76,10.78h-10.76v9.24h10.76c2.54,0,4.48-1.7,4.48-4.64.02-2.89-1.91-4.6-4.48-4.6Z"/><path class="cls-2" d="m573.36,90.54v18.88h-14.75v-51.64h28.45c8.58,0,15.78,6.51,15.72,16.38,0,7.35-3.94,12.79-9.44,15.12l11.81,20.14h-16.16l-9.01-18.88h-6.62Zm11.9-12.05c1.84,0,3.86-1.53,3.86-4.32.02-2.75-2.01-4.29-3.86-4.29h-11.9v8.61h11.9Z"/><path class="cls-2" d="m665.68,83.59c0,14.85-10.96,26.85-27.86,26.85s-27.86-12-27.86-26.85,11.08-26.85,27.86-26.85,27.86,12,27.86,26.85Zm-27.82-14.39c-7.7,0-12.84,6.05-12.84,14.39s5.14,14.39,12.8,14.39,12.8-6.06,12.8-14.39-5.18-14.39-12.76-14.39h0Z"/><path class="cls-2" d="m712.94,109.42l-6.87-28.54-6.87,28.54h-16.75l-13.83-51.64h16.08l6.74,31.96,7.51-31.96h14.26l7.51,31.96,6.74-31.96h16.08l-13.83,51.64h-16.76Z"/><path class="cls-2" d="m797.21,109.42h-13.28l-20.36-28.83v28.83h-14.16v-51.64h13.28l20.36,29.35v-29.35h14.16v51.64Z"/><path class="cls-2" d="m839.27,77.8h20.49v12.1h-20.49v19.52h-14.75v-51.64h38.12v12.1h-23.36v7.93Z"/><path class="cls-2" d="m924.65,83.59c0,14.85-10.96,26.85-27.86,26.85s-27.86-12-27.86-26.85,11.08-26.85,27.86-26.85,27.86,12,27.86,26.85Zm-27.82-14.39c-7.7,0-12.84,6.05-12.84,14.39s5.14,14.39,12.8,14.39,12.8-6.06,12.8-14.39-5.18-14.39-12.76-14.39h0Z"/><path class="cls-2" d="m980.12,109.42h-17.41l-9.59-15.67-9.59,15.67h-17.41l17.28-26.17-16.39-25.47h17.41l8.7,14.67,8.71-14.67h17.41l-16.39,25.47,17.28,26.17Z"/><path class="cls-2" d="m1030.2,90.03c0,11.29-7.81,20.42-19.84,20.42-3.36,0-6.45-.61-9.21-1.72l4-11.18c1.03.28,2.13.43,3.3.43,4.12,0,6.93-3.19,6.93-8.03v-32.17h14.82v32.26Z"/><path class="cls-2" d="m1086.32,89.78c0,13.77-11.56,20.65-23.24,20.65s-23.27-6.88-23.27-20.65v-32.02l14.75.02v32.01c0,5.46,4.25,8.2,8.51,8.2,4.25,0,8.5-2.74,8.5-8.2v-32.01l14.75-.02v32.02Z"/><path class="cls-2" d="m1153.7,109.42h-14.16v-26.47l-9.41,15.04h-5.68l-.02-.03-.02.03h-5.68l-9.41-15.04v26.47h-14.16v-51.64h13.28l16,26.41,16-26.41h13.28v51.64Z"/><path class="cls-2" d="m1192.2,57.78c8.58,0,15.78,6.91,15.72,17.39,0,10.55-7.2,17.39-15.72,17.39h-14.13v16.86h-14.75v-51.64h28.89Zm-2.65,12.1h-11.48v10.63h11.48c2.43,0,4.72-1.81,4.72-5.33.02-3.47-2.27-5.3-4.72-5.3Z"/><path class="cls-2" d="m1254.88,63.19l-7.98,9.67c-2.58-2.03-6.49-3.65-11.06-3.65-3.1,0-5.61.74-6.05,3.47-.3,1.92.81,2.58,8.19,4.57,7.6,2.07,17.93,4.8,17.93,16.53,0,12.54-11.88,16.67-21.02,16.67-8.04,0-17.04-3.17-21.4-9l8.45-8.9c2.62,3.21,7.71,5.43,12.97,5.43s5.88-2.07,5.95-3.69c.15-2.29-1.18-2.95-7.97-4.87-11.36-3.25-18.15-5.24-18.15-15.57,0-12.25,9.52-17.12,21.17-17.12,8.19,0,14.61,2.43,18.97,6.45Z"/><path class="cls-2" d="m120.74,169.67c0,14.85-10.96,26.85-27.86,26.85s-27.86-12-27.86-26.85,11.08-26.85,27.86-26.85,27.86,12,27.86,26.85Zm-27.82-14.39c-7.7,0-12.84,6.05-12.84,14.39s5.14,14.39,12.8,14.39,12.8-6.06,12.8-14.39-5.18-14.39-12.76-14.39h0Z"/><path class="cls-2" d="m140.94,195.5l-17.63-51.64h16.08l9.88,34.75,9.88-34.75h16.08l-17.63,51.64h-16.66Z"/><path class="cls-2" d="m221.55,195.5h-40.04v-51.64h39.3v12.1h-24.54v6.45h21.67v12.1h-21.67v8.89h25.28v12.1Z"/><path class="cls-2" d="m244.08,176.62v18.88h-14.75v-51.64h28.45c8.58,0,15.78,6.51,15.72,16.38,0,7.35-3.94,12.79-9.44,15.12l11.81,20.14h-16.16l-9.01-18.88h-6.62Zm11.9-12.05c1.84,0,3.86-1.53,3.86-4.32.02-2.75-2.01-4.29-3.86-4.29h-11.9v8.61h11.9Z"/><path class="cls-2" d="m325.67,155.95v39.54h-14.75v-39.54h-14.01v-12.1h42.77v12.1h-14.01Z"/><path class="cls-2" d="m394.26,195.5h-14.75v-20.7h-18.77v20.7h-14.75v-51.64h14.75v18.84h18.77v-18.84h14.75v51.64Z"/><path class="cls-2" d="m443.86,195.5h-40.04v-51.64h39.3v12.1h-24.54v6.45h21.67v12.1h-21.67v8.89h25.28v12.1Z"/><path class="cls-2" d="m506.64,195.5h-36.94v-51.64h14.75v39.54h22.18v12.1Z"/><path class="cls-2" d="m549.3,195.5l-2.85-8.57h-17.15l-2.85,8.57h-16.08l20.14-51.64h14.74l20.14,51.64h-16.08Zm-6.88-20.67l-4.55-13.66-4.55,13.66h9.09Z"/><path class="cls-2" d="m610.34,195.5h-40.86l-.02-9.84,21.57-29.7h-19.69v-12.1h38.23v9.9l-21.52,29.64h22.29v12.1Z"/><path class="cls-2" d="m647.7,195.5h-14.75v-19.31l-18.55-32.33h16.08l9.9,18.3,9.94-18.3h16.08l-18.69,32.28v19.37Z"/><path class="cls-2" d="m714.26,143.85c15.36,0,25.48,10.97,25.48,25.82s-10.12,25.82-25.48,25.82h-23.5v-51.64h23.5Zm-1.81,39.54c7.61,0,12.44-5.38,12.44-13.72s-4.84-13.71-12.44-13.71h-6.94v27.43h6.94Z"/><path class="cls-2" d="m803.58,169.67c0,14.85-10.96,26.85-27.86,26.85s-27.86-12-27.86-26.85,11.08-26.85,27.86-26.85,27.86,12,27.86,26.85Zm-27.82-14.39c-7.7,0-12.84,6.05-12.84,14.39s5.14,14.39,12.8,14.39,12.8-6.06,12.8-14.39-5.18-14.39-12.76-14.39h0Z"/><path class="cls-2" d="m862.13,195.5h-11.31l-.7-3.98c-4.52,3.41-9.19,5.01-14.27,5.01-13.89,0-24.14-11.95-24.17-26.58.03-15.17,11.17-27.12,27.4-27.12,7.67,0,14.82,2.66,21.24,7.56l-3.62,9.96c-5.45-3.28-11.27-5.05-16.29-5.05-7.67,0-13.65,4.21-13.66,14.63.01,10.08,5.55,14.29,11.97,14.14,2.85-.05,6.24-.94,9.7-2.66v-4.84h-7.39v-11.66h21.11v30.59Z"/><path class="cls-2" d="m111.31,255.77c0,14.86-9.23,26.84-23.49,26.84s-23.53-11.98-23.53-26.84,9.35-26.87,23.51-26.87,23.51,12.01,23.51,26.87Zm-31.95,0c0,9.31,3.59,14.37,8.46,14.37s8.42-5.07,8.42-14.37-3.54-14.27-8.49-14.32c-4.87-.07-8.39,4.94-8.39,14.32Z"/><path class="cls-2" d="m150.07,269.47v12.11h-31.82v-12.11h9.14v-23.02l-6.11,3.11-5.21-10.93,17.73-8.67h8.34v39.51h7.93Z"/><path class="cls-2" d="m195.76,281.57h-40.14v-12.28c0-9.82,8.14-13.04,16.53-16.35,7.45-2.95,8.93-3.76,8.93-6.56,0-3.81-2.8-4.99-8.56-4.99-3.62,0-7.89.46-11.54,1.47l-5.04-10.67c5.07-2.04,11.48-3.31,18.79-3.31,11.58,0,21.02,3.27,21.02,15.92,0,14.52-12.97,17.61-18.89,20.16-4,1.73-5.52,2.67-6,4.49h24.89v12.11Z"/><path class="cls-2" d="m232.91,254.11c5.68,2.35,9.14,6.75,9.14,12.4,0,9.78-9.32,16.12-22.35,16.12-6.65,0-13.3-1.12-18.79-3.3l5.9-11.62c4.03,1.59,8.92,2.42,13.8,2.42,3.98,0,6.36-1.81,6.36-4.45s-2.35-4.41-6.36-4.41h-8.39v-12.39h7.01c3.57,0,5.55-1.52,5.55-3.72s-1.97-3.74-5.55-3.74c-3.77,0-7.54.64-10.66,1.87l-5.38-11.5c4.82-1.92,10.67-2.9,16.51-2.9,11.88,0,20.12,5.8,20.12,14.59,0,4.7-2.59,8.41-6.91,10.63h0Z"/><path class="cls-2" d="m292.33,259.87v12.11h-5.64v9.59h-14.68v-9.59h-25.13v-9.26l22.02-32.77h17.8v29.92h5.64Zm-20.32,0v-15.29l-7.82,15.29h7.82Z"/><path class="cls-2" d="m314.76,242.06v6.44c1.37-.16,2.75-.23,4.13-.23,11.88,0,20.2,6.48,20.15,16.27-.07,10.99-9.05,18.11-22.92,18.11-5.31,0-12.47-1.07-18.25-3.58l5.85-11.46c3.87,1.67,8.57,2.52,13.26,2.52,4.35,0,6.95-2.13,6.95-5.24,0-3.87-3.05-5.38-7.03-5.37-3.03,0-6.61.97-9.6,2.33l-7.19-6.54-.11-25.35h35.33v12.11h-20.58Z"/><path class="cls-2" d="m369.49,228.89c5.95,0,10.61,1.63,14.15,3.75l-5.29,11.34c-2.9-1.67-6.01-2.6-8.84-2.61-5.02,0-9.21,3.08-9.64,9.68,2.82-1.62,6.24-2.44,9.71-2.45,8.92,0,18.25,5.3,18.27,16.22-.02,10.79-9.02,17.79-20.78,17.79-15.79,0-22.13-12.27-22.13-25.75,0-16.67,9.78-27.97,24.55-27.97h0Zm-1.78,30.87c-2.76,0-5.53.67-7.85,1.97.41,5.57,2.61,8.85,7.07,8.85,3.62,0,6.19-2.08,6.19-5.88,0-3.28-1.95-4.93-5.4-4.93h0Z"/><path class="cls-2" d="m430.55,239.46l-17.36,42.12h-16.08l17.91-39.51h-23.08v-12.11h38.61v9.5Z"/><path class="cls-2" d="m480.12,266.52c0,9.78-9.34,16.12-22.4,16.12s-22.4-6.35-22.4-16.12c0-6.03,3.09-10.16,9.1-12.38-4.58-2.13-6.86-5.72-6.86-10.65,0-8.79,8.34-14.59,20.16-14.59s20.24,5.8,20.16,14.59c0,4.97-2.33,8.52-6.85,10.64,6.05,2.21,9.14,6.35,9.09,12.4Zm-22.4,3.68c4.58,0,7.31-2.2,7.31-5.4s-2.7-5.34-7.31-5.34-7.31,2.23-7.31,5.37,2.74,5.37,7.31,5.37h0Zm0-29.06c-3.28,0-5.13,1.58-5.13,3.79s1.84,3.77,5.13,3.77,5.13-1.54,5.13-3.77-1.82-3.79-5.13-3.79h0Z"/><path class="cls-2" d="m506.81,228.9c15.72,0,22.13,12.27,22.13,25.75,0,16.67-9.81,27.99-24.58,27.99-5.94,0-10.61-1.62-14.15-3.75l5.29-11.34c2.9,1.67,6.03,2.58,8.86,2.59,5.09,0,9.19-3.06,9.61-9.66-2.82,1.62-6.22,2.42-9.69,2.43-9,0-18.28-5.28-18.3-16.2.02-10.79,9.05-17.81,20.8-17.81h0Zm-6.06,17.93c0,3.27,1.95,4.93,5.4,4.93,2.76,0,5.53-.67,7.85-1.97-.4-5.57-2.66-8.88-7.12-8.88-3.54,0-6.14,2.11-6.14,5.91Z"/><path class="cls-2" d="m582.61,255.77c0,14.86-9.23,26.84-23.49,26.84s-23.53-11.98-23.53-26.84,9.35-26.87,23.51-26.87,23.51,12.01,23.51,26.87Zm-31.95,0c0,9.31,3.59,14.37,8.46,14.37s8.42-5.07,8.42-14.37-3.54-14.27-8.49-14.32c-4.87-.07-8.39,4.94-8.39,14.32Z"/><path class="cls-1" d="m80.75,340.77h-15.58v-25.71h3.49v22.78h12.09v2.93Z"/><path class="cls-1" d="m101.92,331.58c0,5.36-3.6,9.7-9.15,9.7s-9.15-4.33-9.15-9.7,3.64-9.73,9.15-9.7c5.55,0,9.15,4.33,9.15,9.7Zm-15.01,0c0,3.93,2.28,6.73,5.86,6.73s5.86-2.76,5.86-6.73-2.24-6.73-5.86-6.73c-3.66,0-5.9,2.8-5.86,6.73Z"/><path class="cls-1" d="m117.37,321.86c.17,0,.33,0,.49.01l-.56,3.19c-.18-.02-.38-.02-.58-.02-2.14,0-4.56.91-6.59,2.72v13h-3.14v-18.37h3.14v2.6c2.19-2.09,4.88-3.14,7.24-3.14h0Z"/><path class="cls-1" d="m128.86,321.89c5.74,0,8.53,4.32,8.55,9.66,0,.27,0,.53-.03.8h-14.08c0,.12.02.24.03.35.37,3.33,2.48,5.61,5.62,5.61,1.96,0,3.97-.57,6.02-1.7l.8,2.16c-2.14,1.65-4.69,2.51-6.92,2.51-5.35,0-8.88-4.33-8.88-9.7s3.53-9.73,8.88-9.7h0Zm-5.43,7.87h10.69c-.43-2.96-2.05-4.9-5.16-4.9-2.97,0-4.98,1.96-5.53,4.9Z"/><path class="cls-1" d="m170.01,328.79v11.97h-3.14v-11.97c.02-2.77-1.61-3.98-3.75-3.98-1.72,0-3.79.78-5.6,2.18.1.55.15,1.15.15,1.8v11.97h-3.14v-11.97c0-2.74-1.58-3.97-3.65-3.97-1.75,0-3.85.87-5.59,2.45v13.5h-3.14v-18.37h3.14v2.29c1.9-1.87,4.18-2.81,6.33-2.81s4.19.97,5.24,3.06c2.05-1.95,4.66-3.06,7.04-3.06,3.34,0,6.12,2.14,6.11,6.91Z"/><path class="cls-1" d="m188.37,317.37c0,1.07-.87,1.94-1.94,1.94s-1.94-.87-1.94-1.94.87-1.94,1.94-1.94,1.94.87,1.94,1.94Zm-3.51,23.4v-18.37h3.14v18.37h-3.14Z"/><path class="cls-1" d="m210.97,331.58c-.02,6.18-3.83,9.68-8.05,9.7-2.12.01-4.34-.86-6.23-2.7v9.53h-3.14v-25.71h3.14v2.39c1.84-1.91,4.06-2.9,6.33-2.9,4.67,0,7.94,4.25,7.95,9.7Zm-8.21,6.82c2.76-.04,4.95-2.23,4.95-6.82,0-3.99-1.83-6.73-4.93-6.73-1.82,0-4.19.92-6.08,2.91v7.47c1.94,2.01,4.14,3.19,6.07,3.17h0Z"/><path class="cls-1" d="m228.91,324.32l-1.46,2.21c-1.13-1.23-3.21-1.88-5.27-1.88-2.33,0-3.92.83-3.91,2.58,0,1.36.95,1.84,4.34,2.72,2.89.77,6.87,1.65,6.9,5.7.03,4.03-3.97,5.63-7.58,5.63-2.93,0-5.82-1.06-7.25-2.98l1.47-2.22c1.09,1.6,3.42,2.48,5.73,2.49,2.44,0,4.49-1.03,4.49-2.91s-2-2.2-4.63-2.9c-4.64-1.23-6.59-2.38-6.58-5.37,0-4.04,3.48-5.49,6.94-5.49,2.39,0,5.14.69,6.82,2.43Z"/><path class="cls-1" d="m249.71,340.77h-3.14v-2.32c-1.96,1.88-4.42,2.84-6.55,2.84-3.49,0-6.35-2.14-6.35-6.91v-11.97h3.14v11.97c0,2.57,1.29,3.97,3.52,3.97,2.03,0,4.34-.87,6.24-2.56v-13.39h3.14v18.37Z"/><path class="cls-1" d="m283.05,328.79v11.97h-3.14v-11.97c.02-2.77-1.61-3.98-3.75-3.98-1.72,0-3.79.78-5.6,2.18.1.55.15,1.15.15,1.8v11.97h-3.14v-11.97c0-2.74-1.58-3.97-3.65-3.97-1.75,0-3.85.87-5.59,2.45v13.5h-3.14v-18.37h3.14v2.29c1.9-1.87,4.18-2.81,6.33-2.81s4.19.97,5.24,3.06c2.05-1.95,4.66-3.06,7.04-3.06,3.34,0,6.12,2.14,6.11,6.91Z"/><path class="cls-1" d="m314.37,340.77h-3.14v-2.39c-1.94,2.02-4.22,2.9-6.34,2.9-4.64,0-7.93-4.24-7.94-9.7,0-5.45,3.25-9.73,8.1-9.7,2.03,0,4.35.99,6.18,2.9v-9.73h3.14v25.71Zm-3.14-5.36v-7.65c-1.82-1.92-4.14-2.9-6.17-2.91-2.99,0-4.86,2.75-4.83,6.73-.03,3.99,1.8,6.73,4.93,6.73,1.86,0,4.26-.99,6.06-2.9Z"/><path class="cls-1" d="m337.93,331.58c0,5.36-3.6,9.7-9.15,9.7s-9.15-4.33-9.15-9.7,3.64-9.73,9.15-9.7c5.55,0,9.15,4.33,9.15,9.7Zm-15.01,0c0,3.93,2.28,6.73,5.86,6.73s5.86-2.76,5.86-6.73-2.24-6.73-5.86-6.73c-3.66,0-5.9,2.8-5.86,6.73Z"/><path class="cls-1" d="m346.33,335.83c0,2.01,1.32,2.63,2.82,2.62.34,0,.69-.04,1.03-.1l.92,2.45c-.85.3-1.76.47-2.64.47-2.74.01-5.28-1.52-5.28-5.45v-20.78h3.14v20.78Z"/><path class="cls-1" d="m372.41,331.58c0,5.36-3.6,9.7-9.15,9.7s-9.15-4.33-9.15-9.7,3.64-9.73,9.15-9.7c5.55,0,9.15,4.33,9.15,9.7Zm-15.01,0c0,3.93,2.28,6.73,5.86,6.73s5.86-2.76,5.86-6.73-2.24-6.73-5.86-6.73c-3.66,0-5.9,2.8-5.86,6.73Z"/><path class="cls-1" d="m387.87,321.86c.16,0,.33,0,.49.01l-.56,3.19c-.18-.02-.38-.02-.58-.02-2.14,0-4.56.91-6.59,2.72v13h-3.14v-18.37h3.14v2.6c2.19-2.09,4.88-3.14,7.24-3.14h0Z"/><path class="cls-1" d="m413.87,324.32l-1.46,2.21c-1.13-1.23-3.21-1.88-5.27-1.88-2.33,0-3.92.83-3.91,2.58,0,1.36.95,1.84,4.34,2.72,2.89.77,6.87,1.65,6.9,5.7.03,4.03-3.97,5.63-7.58,5.63-2.93,0-5.82-1.06-7.25-2.98l1.47-2.22c1.09,1.6,3.41,2.48,5.73,2.49,2.44,0,4.49-1.03,4.49-2.91s-2-2.2-4.63-2.9c-4.64-1.23-6.59-2.38-6.58-5.37,0-4.04,3.48-5.49,6.94-5.49,2.39,0,5.14.69,6.82,2.43Z"/><path class="cls-1" d="m422.69,317.37c0,1.07-.87,1.94-1.94,1.94s-1.94-.87-1.94-1.94.87-1.94,1.94-1.94,1.94.87,1.94,1.94Zm-3.51,23.4v-18.37h3.14v18.37h-3.14Z"/><path class="cls-1" d="m439.63,340.02c-1.24.79-2.78,1.25-4.27,1.26-2.74.01-5.28-1.52-5.28-5.45v-10.78h-3.64v-2.02l3.42-.57h.22v-5.28h3.14v5.28h5.56v2.59h-5.56v10.78c0,2.01,1.32,2.63,2.82,2.62.96,0,1.99-.26,2.79-.57l.8,2.15Z"/><path class="cls-1" d="m470.09,340.77h-3.14v-2.33c-1.93,1.98-4.19,2.85-6.29,2.85-4.63,0-7.94-4.24-7.94-9.69s3.29-9.7,7.94-9.7c2.11,0,4.37.87,6.29,2.85v-2.33h3.14v18.37Zm-3.14-5.31v-7.76c-1.81-1.89-4.18-2.85-6.05-2.85-3.08,0-4.9,2.65-4.9,6.73s1.83,6.73,4.9,6.73c1.87,0,4.25-.97,6.05-2.85Z"/><path class="cls-1" d="m503.6,328.79v11.97h-3.14v-11.97c.02-2.77-1.61-3.98-3.75-3.98-1.72,0-3.79.78-5.6,2.18.1.55.15,1.15.15,1.8v11.97h-3.14v-11.97c0-2.74-1.58-3.97-3.65-3.97-1.75,0-3.85.87-5.59,2.45v13.5h-3.14v-18.37h3.14v2.29c1.9-1.87,4.18-2.81,6.33-2.81s4.19.97,5.24,3.06c2.05-1.95,4.66-3.06,7.04-3.06,3.34,0,6.12,2.14,6.11,6.91Z"/><path class="cls-1" d="m517.4,321.89c5.74,0,8.53,4.32,8.55,9.66,0,.27,0,.53-.03.8h-14.08c0,.12.02.24.03.35.37,3.33,2.48,5.61,5.62,5.61,1.96,0,3.97-.57,6.02-1.7l.8,2.16c-2.14,1.65-4.69,2.51-6.92,2.51-5.35,0-8.88-4.33-8.88-9.7s3.53-9.73,8.88-9.7h0Zm-5.43,7.87h10.69c-.43-2.96-2.05-4.9-5.16-4.9-2.97,0-4.98,1.96-5.53,4.9Z"/><path class="cls-1" d="m541.95,340.02c-1.24.79-2.78,1.25-4.27,1.26-2.74.01-5.28-1.52-5.28-5.45v-10.78h-3.64v-2.02l3.42-.57h.22v-5.28h3.14v5.28h5.56v2.59h-5.56v10.78c0,2.01,1.32,2.63,2.82,2.62.96,0,1.99-.26,2.79-.57l.8,2.15Z"/><path class="cls-1" d="m550.3,338.83c.36,2.14-1.28,5.25-3.4,6.84l-1.39-.89c1.07-1.04,1.81-2.25,2.12-3.98-.78-.22-1.49-.96-1.48-1.97,0-1.13.91-2.05,2.05-2.03,1.05-.01,1.89.76,2.11,2.03Z"/><path class="cls-1" d="m579.56,324.4l-.79,2.16c-2.07-1.14-4.16-1.71-6.13-1.71-3.65,0-5.9,2.7-5.86,6.73,0,3.93,2.21,6.73,6,6.73,1.73,0,3.94-.57,5.98-1.7l.8,2.16c-2.07,1.59-4.53,2.5-6.98,2.5-5.4,0-9.07-4.33-9.07-9.7s3.71-9.73,9.13-9.7c2.25,0,4.78.86,6.92,2.52Z"/><path class="cls-1" d="m601.81,331.58c0,5.36-3.6,9.7-9.15,9.7s-9.15-4.33-9.15-9.7,3.64-9.73,9.15-9.7c5.55,0,9.15,4.33,9.15,9.7Zm-15.01,0c0,3.93,2.28,6.73,5.86,6.73s5.86-2.76,5.86-6.73-2.24-6.73-5.86-6.73c-3.66,0-5.9,2.8-5.86,6.73Z"/><path class="cls-1" d="m622.93,328.79v11.97h-3.14v-11.97c0-2.7-1.64-3.97-3.76-3.97-1.77,0-4.1.87-6,2.56v13.38h-3.14v-18.37h3.14v2.32c2.03-1.94,4.52-2.84,6.62-2.84,3.35,0,6.28,2.21,6.28,6.91Z"/><path class="cls-1" d="m641.32,324.32l-1.46,2.21c-1.13-1.23-3.21-1.88-5.27-1.88-2.33,0-3.92.83-3.91,2.58,0,1.36.95,1.84,4.34,2.72,2.89.77,6.87,1.65,6.9,5.7.03,4.03-3.97,5.63-7.58,5.63-2.93,0-5.82-1.06-7.25-2.98l1.47-2.22c1.09,1.6,3.41,2.48,5.73,2.49,2.44,0,4.49-1.03,4.49-2.91s-2-2.2-4.63-2.9c-4.64-1.23-6.59-2.38-6.58-5.37,0-4.04,3.48-5.49,6.94-5.49,2.39,0,5.14.69,6.82,2.43Z"/><path class="cls-1" d="m654.57,321.89c5.74,0,8.53,4.32,8.55,9.66,0,.27,0,.53-.03.8h-14.08c0,.12.02.24.03.35.37,3.33,2.48,5.61,5.62,5.61,1.96,0,3.97-.57,6.02-1.7l.8,2.16c-2.14,1.65-4.69,2.51-6.92,2.51-5.35,0-8.88-4.33-8.88-9.7s3.53-9.73,8.88-9.7h0Zm-5.43,7.87h10.69c-.43-2.96-2.05-4.9-5.16-4.9-2.97,0-4.98,1.96-5.53,4.9Z"/><path class="cls-1" d="m683.35,324.4l-.79,2.16c-2.07-1.14-4.16-1.71-6.13-1.71-3.65,0-5.9,2.7-5.86,6.73,0,3.93,2.21,6.73,6,6.73,1.73,0,3.94-.57,5.98-1.7l.8,2.16c-2.07,1.59-4.53,2.5-6.98,2.5-5.4,0-9.07-4.33-9.07-9.7s3.71-9.73,9.13-9.7c2.25,0,4.78.86,6.92,2.52Z"/><path class="cls-1" d="m699.88,340.02c-1.24.79-2.78,1.25-4.27,1.26-2.74.01-5.28-1.52-5.28-5.45v-10.78h-3.64v-2.02l3.42-.57h.22v-5.28h3.14v5.28h5.56v2.59h-5.56v10.78c0,2.01,1.32,2.63,2.82,2.62.96,0,1.99-.26,2.79-.57l.8,2.15Z"/><path class="cls-1" d="m711.94,321.89c5.74,0,8.53,4.32,8.55,9.66,0,.27,0,.53-.03.8h-14.08c0,.12.02.24.03.35.37,3.33,2.48,5.61,5.62,5.61,1.96,0,3.97-.57,6.02-1.7l.8,2.16c-2.14,1.65-4.69,2.51-6.92,2.51-5.35,0-8.88-4.33-8.88-9.7s3.53-9.73,8.88-9.7h0Zm-5.43,7.87h10.69c-.43-2.96-2.05-4.9-5.16-4.9-2.97,0-4.98,1.96-5.53,4.9Z"/><path class="cls-1" d="m736.49,340.02c-1.24.79-2.78,1.25-4.27,1.26-2.74.01-5.28-1.52-5.28-5.45v-10.78h-3.64v-2.02l3.42-.57h.22v-5.28h3.14v5.28h5.56v2.59h-5.56v10.78c0,2.01,1.32,2.63,2.82,2.62.96,0,1.99-.26,2.79-.57l.8,2.15Z"/><path class="cls-1" d="m757.2,340.77h-3.14v-2.32c-1.96,1.88-4.42,2.84-6.55,2.84-3.49,0-6.35-2.14-6.35-6.91v-11.97h3.14v11.97c0,2.57,1.29,3.97,3.52,3.97,2.03,0,4.34-.87,6.24-2.56v-13.39h3.14v18.37Z"/><path class="cls-1" d="m773.06,321.86c.17,0,.33,0,.49.01l-.56,3.19c-.18-.02-.38-.02-.58-.02-2.14,0-4.56.91-6.59,2.72v13h-3.14v-18.37h3.14v2.6c2.19-2.09,4.88-3.14,7.24-3.14h0Z"/><path class="cls-1" d="m802.77,340.77h-3.14v-2.33c-1.93,1.98-4.19,2.85-6.29,2.85-4.63,0-7.94-4.24-7.94-9.69s3.29-9.7,7.94-9.7c2.11,0,4.37.87,6.29,2.85v-2.33h3.14v18.37Zm-3.14-5.31v-7.76c-1.81-1.89-4.18-2.85-6.05-2.85-3.08,0-4.9,2.65-4.9,6.73s1.83,6.73,4.9,6.73c1.87,0,4.25-.97,6.05-2.85Z"/><path class="cls-1" d="m825.25,340.77h-3.14v-2.39c-1.94,2.02-4.22,2.9-6.34,2.9-4.64,0-7.93-4.24-7.94-9.7,0-5.45,3.25-9.73,8.1-9.7,2.03,0,4.35.99,6.18,2.9v-9.73h3.14v25.71Zm-3.14-5.36v-7.65c-1.82-1.92-4.14-2.9-6.17-2.91-2.99,0-4.86,2.75-4.83,6.73-.03,3.99,1.8,6.73,4.93,6.73,1.86,0,4.26-.99,6.06-2.9Z"/><path class="cls-1" d="m834.95,317.37c0,1.07-.87,1.94-1.94,1.94s-1.94-.87-1.94-1.94.87-1.94,1.94-1.94,1.94.87,1.94,1.94Zm-3.51,23.4v-18.37h3.14v18.37h-3.14Z"/><path class="cls-1" d="m857.55,331.58c-.02,6.18-3.83,9.68-8.05,9.7-2.12.01-4.34-.86-6.23-2.7v9.53h-3.14v-25.71h3.14v2.39c1.84-1.91,4.06-2.9,6.33-2.9,4.67,0,7.94,4.25,7.95,9.7Zm-8.21,6.82c2.76-.04,4.95-2.23,4.95-6.82,0-3.99-1.83-6.73-4.93-6.73-1.82,0-4.19.92-6.08,2.91v7.47c1.94,2.01,4.14,3.19,6.07,3.17h0Z"/><path class="cls-1" d="m866.47,317.37c0,1.07-.87,1.94-1.94,1.94s-1.94-.87-1.94-1.94.87-1.94,1.94-1.94,1.94.87,1.94,1.94Zm-3.51,23.4v-18.37h3.14v18.37h-3.14Z"/><path class="cls-1" d="m884.86,324.32l-1.46,2.21c-1.13-1.23-3.21-1.88-5.27-1.88-2.33,0-3.92.83-3.91,2.58,0,1.36.95,1.84,4.34,2.72,2.89.77,6.87,1.65,6.9,5.7.03,4.03-3.97,5.63-7.58,5.63-2.93,0-5.82-1.06-7.25-2.98l1.47-2.22c1.09,1.6,3.41,2.48,5.73,2.49,2.44,0,4.49-1.03,4.49-2.91s-2-2.2-4.63-2.9c-4.64-1.23-6.59-2.38-6.58-5.37,0-4.04,3.48-5.49,6.94-5.49,2.39,0,5.14.69,6.82,2.43Z"/><path class="cls-1" d="m905.29,324.4l-.79,2.16c-2.07-1.14-4.16-1.71-6.13-1.71-3.65,0-5.9,2.7-5.86,6.73,0,3.93,2.21,6.73,6,6.73,1.73,0,3.94-.57,5.98-1.7l.8,2.16c-2.07,1.59-4.53,2.5-6.98,2.5-5.4,0-9.07-4.33-9.07-9.7s3.71-9.73,9.13-9.7c2.25,0,4.78.86,6.92,2.52Z"/><path class="cls-1" d="m914.25,317.37c0,1.07-.87,1.94-1.94,1.94s-1.94-.87-1.94-1.94.87-1.94,1.94-1.94,1.94.87,1.94,1.94Zm-3.51,23.4v-18.37h3.14v18.37h-3.14Z"/><path class="cls-1" d="m935.77,328.79v11.97h-3.14v-11.97c0-2.7-1.64-3.97-3.76-3.97-1.77,0-4.1.87-6,2.56v13.38h-3.14v-18.37h3.14v2.32c2.03-1.94,4.52-2.84,6.62-2.84,3.35,0,6.28,2.21,6.28,6.91Z"/><path class="cls-1" d="m958.12,340.22c0,5.8-3.45,8.4-7.82,8.4-2.65,0-5.45-.97-7.92-3.05l.21-2.58c2.43,1.92,5.26,2.83,7.5,2.83,3.32,0,4.85-1.98,4.87-5.64v-2.32c-1.91,1.91-4.03,2.82-6.31,2.83-4.72-.03-7.97-4.13-7.97-9.43s3.3-9.39,7.97-9.39c2.17,0,4.39.89,6.31,2.82v-2.31h3.14l.02,17.82Zm-3.16-5.15v-7.4c-1.7-1.76-4.07-2.81-6.08-2.82-3.08,0-4.91,2.53-4.91,6.5s1.79,6.55,4.92,6.56c1.93-.01,4.27-.97,6.07-2.84Z"/><path class="cls-1" d="m981.08,321.89c5.74,0,8.53,4.32,8.55,9.66,0,.27,0,.53-.03.8h-14.08c0,.12.02.24.03.35.37,3.33,2.48,5.61,5.62,5.61,1.96,0,3.97-.57,6.02-1.7l.8,2.16c-2.14,1.65-4.69,2.51-6.92,2.51-5.35,0-8.88-4.33-8.88-9.7s3.53-9.73,8.88-9.7h0Zm-5.43,7.87h10.69c-.43-2.96-2.05-4.9-5.16-4.9-2.97,0-4.98,1.96-5.53,4.9Z"/><path class="cls-1" d="m997.68,335.83c0,2.01,1.32,2.63,2.82,2.62.34,0,.69-.04,1.03-.1l.92,2.45c-.85.3-1.76.47-2.64.47-2.74.01-5.28-1.52-5.28-5.45v-20.78h3.14v20.78Z"/><path class="cls-1" d="m1010.99,317.37c0,1.07-.87,1.94-1.94,1.94s-1.94-.87-1.94-1.94.87-1.94,1.94-1.94,1.94.87,1.94,1.94Zm-3.51,23.4v-18.37h3.14v18.37h-3.14Z"/><path class="cls-1" d="m1027.92,340.02c-1.24.79-2.78,1.25-4.27,1.26-2.74.01-5.28-1.52-5.28-5.45v-10.78h-3.64v-2.02l3.42-.57h.22v-5.28h3.14v5.28h5.56v2.59h-5.56v10.78c0,2.01,1.32,2.63,2.82,2.62.96,0,1.99-.26,2.79-.57l.8,2.15Z"/><path class="cls-1" d="m1036.27,338.83c.36,2.14-1.28,5.25-3.4,6.84l-1.39-.89c1.07-1.04,1.81-2.25,2.12-3.98-.78-.22-1.49-.96-1.48-1.97,0-1.13.91-2.05,2.05-2.03,1.05-.01,1.89.76,2.11,2.03Z"/><path class="cls-1" d="m1062.94,324.32l-1.46,2.21c-1.13-1.23-3.21-1.88-5.27-1.88-2.33,0-3.92.83-3.91,2.58,0,1.36.95,1.84,4.34,2.72,2.89.77,6.87,1.65,6.9,5.7.03,4.03-3.97,5.63-7.58,5.63-2.93,0-5.82-1.06-7.25-2.98l1.47-2.22c1.09,1.6,3.41,2.48,5.73,2.49,2.44,0,4.49-1.03,4.49-2.91s-2-2.2-4.63-2.9c-4.64-1.23-6.59-2.38-6.58-5.37,0-4.04,3.48-5.49,6.94-5.49,2.39,0,5.14.69,6.82,2.43Z"/><path class="cls-1" d="m1076.2,321.89c5.74,0,8.53,4.32,8.55,9.66,0,.27,0,.53-.03.8h-14.08c0,.12.02.24.03.35.37,3.33,2.48,5.61,5.62,5.61,1.96,0,3.97-.57,6.02-1.7l.8,2.16c-2.14,1.65-4.69,2.51-6.92,2.51-5.35,0-8.88-4.33-8.88-9.7s3.53-9.73,8.88-9.7h0Zm-5.43,7.87h10.69c-.43-2.96-2.05-4.9-5.16-4.9-2.97,0-4.98,1.96-5.53,4.9Z"/><path class="cls-1" d="m1106.32,340.77h-3.14v-2.39c-1.94,2.02-4.22,2.9-6.34,2.9-4.64,0-7.93-4.24-7.94-9.7,0-5.45,3.25-9.73,8.1-9.7,2.03,0,4.35.99,6.18,2.9v-9.73h3.14v25.71Zm-3.14-5.36v-7.65c-1.82-1.92-4.14-2.9-6.17-2.91-2.99,0-4.86,2.75-4.83,6.73-.03,3.99,1.8,6.73,4.93,6.73,1.86,0,4.26-.99,6.06-2.9Z"/><path class="cls-1" d="m1137.97,340.77h-3.14v-2.39c-1.94,2.02-4.22,2.9-6.34,2.9-4.64,0-7.93-4.24-7.94-9.7,0-5.45,3.25-9.73,8.1-9.7,2.03,0,4.35.99,6.18,2.9v-9.73h3.14v25.71Zm-3.14-5.36v-7.65c-1.82-1.92-4.14-2.9-6.17-2.91-2.99,0-4.86,2.75-4.83,6.73-.03,3.99,1.8,6.73,4.93,6.73,1.86,0,4.26-.99,6.06-2.9Z"/><path class="cls-1" d="m1161.53,331.58c0,5.36-3.6,9.7-9.15,9.7s-9.15-4.33-9.15-9.7,3.64-9.73,9.15-9.7c5.55,0,9.15,4.33,9.15,9.7Zm-15.01,0c0,3.93,2.28,6.73,5.86,6.73s5.86-2.76,5.86-6.73-2.24-6.73-5.86-6.73c-3.66,0-5.9,2.8-5.86,6.73Z"/><path class="cls-1" d="m1183.92,321.89c5.74,0,8.53,4.32,8.55,9.66,0,.27,0,.53-.03.8h-14.08c0,.12.02.24.03.35.37,3.33,2.48,5.61,5.62,5.61,1.96,0,3.97-.57,6.02-1.7l.8,2.16c-2.14,1.65-4.69,2.51-6.92,2.51-5.35,0-8.88-4.33-8.88-9.7s3.53-9.73,8.88-9.7h0Zm-5.43,7.87h10.69c-.43-2.96-2.05-4.9-5.16-4.9-2.97,0-4.98,1.96-5.53,4.9Z"/><path class="cls-1" d="m1201.08,317.37c0,1.07-.87,1.94-1.94,1.94s-1.94-.87-1.94-1.94.87-1.94,1.94-1.94,1.94.87,1.94,1.94Zm-3.51,23.4v-18.37h3.14v18.37h-3.14Z"/><path class="cls-1" d="m1222.42,340.77h-3.14v-2.32c-1.96,1.88-4.42,2.84-6.55,2.84-3.49,0-6.35-2.14-6.35-6.91v-11.97h3.14v11.97c0,2.57,1.29,3.97,3.52,3.97,2.03,0,4.34-.87,6.24-2.56v-13.39h3.14v18.37Z"/><path class="cls-1" d="m1240.81,324.32l-1.46,2.21c-1.13-1.23-3.21-1.88-5.27-1.88-2.33,0-3.92.83-3.91,2.58,0,1.36.95,1.84,4.34,2.72,2.89.77,6.87,1.65,6.9,5.7.03,4.03-3.97,5.63-7.58,5.63-2.93,0-5.82-1.06-7.25-2.98l1.47-2.22c1.09,1.6,3.42,2.48,5.73,2.49,2.44,0,4.49-1.03,4.49-2.91s-2-2.2-4.63-2.9c-4.64-1.23-6.59-2.38-6.58-5.37,0-4.04,3.48-5.49,6.94-5.49,2.39,0,5.14.69,6.82,2.43Z"/><path class="cls-1" d="m1273.62,328.79v11.97h-3.14v-11.97c.02-2.77-1.61-3.98-3.75-3.98-1.72,0-3.79.78-5.6,2.18.1.55.15,1.15.15,1.8v11.97h-3.14v-11.97c0-2.74-1.58-3.97-3.65-3.97-1.75,0-3.85.87-5.59,2.45v13.5h-3.14v-18.37h3.14v2.29c1.9-1.87,4.18-2.81,6.33-2.81s4.19.97,5.24,3.06c2.05-1.95,4.66-3.06,7.04-3.06,3.34,0,6.12,2.14,6.11,6.91Z"/><path class="cls-1" d="m1296.83,331.58c0,5.36-3.6,9.7-9.15,9.7s-9.15-4.33-9.15-9.7,3.64-9.73,9.15-9.7c5.55,0,9.15,4.33,9.15,9.7Zm-15.01,0c0,3.93,2.28,6.73,5.86,6.73s5.86-2.76,5.86-6.73-2.24-6.73-5.86-6.73c-3.66,0-5.9,2.8-5.86,6.73Z"/><path class="cls-1" d="m1318.75,340.77h-3.14v-2.39c-1.94,2.02-4.22,2.9-6.34,2.9-4.64,0-7.93-4.24-7.94-9.7,0-5.45,3.25-9.73,8.1-9.7,2.03,0,4.35.99,6.18,2.9v-9.73h3.14v25.71Zm-3.14-5.36v-7.65c-1.82-1.92-4.14-2.9-6.17-2.91-2.99,0-4.86,2.75-4.83,6.73-.03,3.99,1.8,6.73,4.93,6.73,1.86,0,4.26-.99,6.06-2.9Z"/><path class="cls-1" d="m75.74,387.77c-1.24.79-2.78,1.25-4.27,1.26-2.74.01-5.28-1.52-5.28-5.45v-10.78h-3.64v-2.02l3.42-.57h.22v-5.28h3.14v5.28h5.56v2.59h-5.56v10.78c0,2.01,1.32,2.63,2.82,2.62.96,0,1.99-.26,2.79-.57l.8,2.15Z"/><path class="cls-1" d="m87.8,369.63c5.74,0,8.53,4.32,8.55,9.66,0,.27,0,.53-.03.8h-14.08c0,.12.02.24.03.35.37,3.33,2.48,5.61,5.62,5.61,1.96,0,3.97-.57,6.02-1.7l.8,2.16c-2.14,1.65-4.69,2.51-6.92,2.51-5.35,0-8.88-4.33-8.88-9.7s3.53-9.73,8.88-9.7h0Zm-5.43,7.87h10.69c-.43-2.96-2.05-4.9-5.16-4.9-2.97,0-4.98,1.96-5.53,4.9Z"/><path class="cls-1" d="m128.94,376.54v11.97h-3.14v-11.97c.02-2.77-1.61-3.98-3.75-3.98-1.72,0-3.79.78-5.6,2.18.1.55.15,1.15.15,1.8v11.97h-3.14v-11.97c0-2.74-1.58-3.97-3.65-3.97-1.75,0-3.85.87-5.59,2.45v13.5h-3.14v-18.37h3.14v2.29c1.9-1.87,4.18-2.81,6.33-2.81s4.19.97,5.24,3.06c2.05-1.95,4.66-3.06,7.04-3.06,3.34,0,6.12,2.14,6.11,6.91Z"/><path class="cls-1" d="m151.55,379.33c-.02,6.18-3.83,9.68-8.05,9.7-2.12.01-4.34-.86-6.23-2.7v9.53h-3.14v-25.71h3.14v2.39c1.84-1.91,4.06-2.9,6.33-2.9,4.67,0,7.94,4.25,7.95,9.7Zm-8.21,6.82c2.76-.04,4.95-2.23,4.95-6.82,0-3.99-1.83-6.73-4.93-6.73-1.82,0-4.19.92-6.08,2.91v7.47c1.94,2.01,4.14,3.19,6.07,3.17h0Z"/><path class="cls-1" d="m174.31,379.33c0,5.36-3.6,9.7-9.15,9.7s-9.15-4.33-9.15-9.7,3.64-9.73,9.15-9.7c5.55,0,9.15,4.33,9.15,9.7Zm-15.01,0c0,3.93,2.28,6.73,5.86,6.73s5.86-2.76,5.86-6.73-2.24-6.73-5.86-6.73c-3.66,0-5.9,2.8-5.86,6.73Z"/><path class="cls-1" d="m189.76,369.61c.16,0,.33,0,.49.01l-.56,3.19c-.18-.02-.38-.02-.58-.02-2.14,0-4.56.91-6.59,2.72v13h-3.14v-18.37h3.14v2.6c2.19-2.09,4.88-3.14,7.24-3.14h0Z"/><path class="cls-1" d="m206.74,365.11c0,1.07-.87,1.94-1.94,1.94s-1.94-.87-1.94-1.94.87-1.94,1.94-1.94,1.94.87,1.94,1.94Zm-3.51,23.4v-18.37h3.14v18.37h-3.14Z"/><path class="cls-1" d="m228.26,376.54v11.97h-3.14v-11.97c0-2.7-1.64-3.97-3.76-3.97-1.77,0-4.1.87-6,2.56v13.38h-3.14v-18.37h3.14v2.32c2.03-1.94,4.52-2.84,6.62-2.84,3.35,0,6.28,2.21,6.28,6.91Z"/><path class="cls-1" d="m249.23,372.15l-.79,2.16c-2.07-1.14-4.16-1.71-6.13-1.71-3.65,0-5.9,2.7-5.86,6.73,0,3.93,2.21,6.73,6,6.73,1.73,0,3.94-.57,5.98-1.7l.8,2.16c-2.07,1.59-4.53,2.5-6.98,2.5-5.4,0-9.07-4.33-9.07-9.7s3.71-9.73,9.13-9.7c2.25,0,4.78.86,6.92,2.52Z"/><path class="cls-1" d="m258.19,365.11c0,1.07-.87,1.94-1.94,1.94s-1.94-.87-1.94-1.94.87-1.94,1.94-1.94,1.94.87,1.94,1.94Zm-3.51,23.4v-18.37h3.14v18.37h-3.14Z"/><path class="cls-1" d="m280.51,388.51h-3.14v-2.39c-1.94,2.02-4.22,2.9-6.34,2.9-4.64,0-7.93-4.24-7.94-9.7,0-5.45,3.25-9.73,8.1-9.7,2.03,0,4.35.99,6.18,2.9v-9.73h3.14v25.71Zm-3.14-5.36v-7.65c-1.82-1.92-4.14-2.9-6.17-2.91-2.99,0-4.86,2.75-4.83,6.73-.03,3.99,1.8,6.73,4.93,6.73,1.86,0,4.26-.99,6.06-2.9Z"/><path class="cls-1" d="m290.22,365.11c0,1.07-.87,1.94-1.94,1.94s-1.94-.87-1.94-1.94.87-1.94,1.94-1.94,1.94.87,1.94,1.94Zm-3.51,23.4v-18.37h3.14v18.37h-3.14Z"/><path class="cls-1" d="m312.53,388.51h-3.14v-2.39c-1.94,2.02-4.22,2.9-6.34,2.9-4.64,0-7.93-4.24-7.94-9.7,0-5.45,3.25-9.73,8.1-9.7,2.03,0,4.35.99,6.18,2.9v-9.73h3.14v25.71Zm-3.14-5.36v-7.65c-1.82-1.92-4.14-2.9-6.17-2.91-2.99,0-4.86,2.75-4.83,6.73-.03,3.99,1.8,6.73,4.93,6.73,1.86,0,4.26-.99,6.06-2.9Z"/><path class="cls-1" d="m334.22,388.51h-3.14v-2.32c-1.96,1.88-4.42,2.84-6.55,2.84-3.49,0-6.35-2.14-6.35-6.91v-11.97h3.14v11.97c0,2.57,1.29,3.97,3.52,3.97,2.03,0,4.34-.87,6.24-2.56v-13.39h3.14v18.37Z"/><path class="cls-1" d="m355.74,376.54v11.97h-3.14v-11.97c0-2.7-1.64-3.97-3.76-3.97-1.77,0-4.1.87-6,2.56v13.38h-3.14v-18.37h3.14v2.32c2.03-1.94,4.52-2.84,6.62-2.84,3.35,0,6.28,2.21,6.28,6.91Z"/><path class="cls-1" d="m372.67,387.77c-1.24.79-2.78,1.25-4.27,1.26-2.74.01-5.28-1.52-5.28-5.45v-10.78h-3.64v-2.02l3.42-.57h.22v-5.28h3.14v5.28h5.56v2.59h-5.56v10.78c0,2.01,1.32,2.63,2.82,2.62.96,0,1.99-.26,2.79-.57l.8,2.15Z"/><path class="cls-1" d="m402.38,388.51h-3.14v-2.32c-1.96,1.88-4.42,2.84-6.55,2.84-3.49,0-6.35-2.14-6.35-6.91v-11.97h3.14v11.97c0,2.57,1.29,3.97,3.52,3.97,2.03,0,4.34-.87,6.24-2.56v-13.39h3.14v18.37Z"/><path class="cls-1" d="m419.32,387.77c-1.24.79-2.78,1.25-4.27,1.26-2.74.01-5.28-1.52-5.28-5.45v-10.78h-3.64v-2.02l3.42-.57h.22v-5.28h3.14v5.28h5.56v2.59h-5.56v10.78c0,2.01,1.32,2.63,2.82,2.62.96,0,1.99-.26,2.79-.57l.8,2.15Z"/><path class="cls-1" d="m436.49,383.58c0,2.01,1.32,2.63,2.82,2.62.34,0,.69-.04,1.03-.1l.92,2.45c-.85.3-1.76.47-2.64.47-2.74.01-5.28-1.52-5.28-5.45v-20.78h3.14v20.78Z"/><path class="cls-1" d="m461.24,388.51h-3.14v-2.33c-1.93,1.98-4.19,2.85-6.29,2.85-4.63,0-7.94-4.24-7.94-9.69s3.29-9.7,7.94-9.7c2.11,0,4.37.87,6.29,2.85v-2.33h3.14v18.37Zm-3.14-5.31v-7.76c-1.81-1.89-4.18-2.85-6.05-2.85-3.08,0-4.9,2.65-4.9,6.73s1.83,6.73,4.9,6.73c1.87,0,4.25-.97,6.05-2.85Z"/><path class="cls-1" d="m476.52,369.63c4.68,0,7.94,4.25,7.95,9.7-.02,5.45-3.28,9.7-7.95,9.7-2.27,0-4.48-.99-6.33-2.9v2.39h-3.14v-25.71h3.14v9.73c1.84-1.91,4.05-2.9,6.33-2.9h0Zm4.69,9.7c0-3.98-1.82-6.73-4.93-6.73-1.82,0-4.18.91-6.08,2.9v7.65c1.9,1.99,4.26,2.91,6.08,2.91,3.1,0,4.93-2.74,4.93-6.73Z"/><path class="cls-1" d="m507.31,379.33c0,5.36-3.6,9.7-9.15,9.7s-9.15-4.33-9.15-9.7,3.64-9.73,9.15-9.7c5.55,0,9.15,4.33,9.15,9.7Zm-15.01,0c0,3.93,2.28,6.73,5.86,6.73s5.86-2.76,5.86-6.73-2.24-6.73-5.86-6.73c-3.66,0-5.9,2.8-5.86,6.73Z"/><path class="cls-1" d="m522.76,369.61c.17,0,.33,0,.49.01l-.56,3.19c-.18-.02-.38-.02-.58-.02-2.14,0-4.56.91-6.59,2.72v13h-3.14v-18.37h3.14v2.6c2.19-2.09,4.88-3.14,7.24-3.14h0Z"/><path class="cls-1" d="m534.25,369.63c5.74,0,8.53,4.32,8.55,9.66,0,.27,0,.53-.03.8h-14.08c0,.12.02.24.03.35.37,3.33,2.48,5.61,5.62,5.61,1.96,0,3.97-.57,6.02-1.7l.8,2.16c-2.14,1.65-4.69,2.51-6.92,2.51-5.35,0-8.88-4.33-8.88-9.7s3.53-9.73,8.88-9.7h0Zm-5.43,7.87h10.69c-.43-2.96-2.05-4.9-5.16-4.9-2.97,0-4.98,1.96-5.53,4.9Z"/><path class="cls-1" d="m564.85,369.63c5.74,0,8.53,4.32,8.55,9.66,0,.27,0,.53-.03.8h-14.08c0,.12.02.24.03.35.37,3.33,2.48,5.61,5.62,5.61,1.96,0,3.97-.57,6.02-1.7l.8,2.16c-2.14,1.65-4.69,2.51-6.92,2.51-5.35,0-8.88-4.33-8.88-9.7s3.53-9.73,8.88-9.7h0Zm-5.43,7.87h10.69c-.43-2.96-2.05-4.9-5.16-4.9-2.97,0-4.98,1.96-5.53,4.9Z"/><path class="cls-1" d="m589.4,387.77c-1.24.79-2.78,1.25-4.27,1.26-2.74.01-5.28-1.52-5.28-5.45v-10.78h-3.64v-2.02l3.42-.57h.22v-5.28h3.14v5.28h5.56v2.59h-5.56v10.78c0,2.01,1.32,2.63,2.82,2.62.96,0,1.99-.26,2.79-.57l.8,2.15Z"/><path class="cls-1" d="m620.09,388.51h-3.14v-2.39c-1.94,2.02-4.22,2.9-6.34,2.9-4.64,0-7.93-4.24-7.94-9.7,0-5.45,3.25-9.73,8.1-9.7,2.03,0,4.35.99,6.18,2.9v-9.73h3.14v25.71Zm-3.14-5.36v-7.65c-1.82-1.92-4.14-2.9-6.17-2.91-2.99,0-4.86,2.75-4.83,6.73-.03,3.99,1.8,6.73,4.93,6.73,1.86,0,4.26-.99,6.06-2.9Z"/><path class="cls-1" d="m643.64,379.33c0,5.36-3.6,9.7-9.15,9.7s-9.15-4.33-9.15-9.7,3.64-9.73,9.15-9.7c5.55,0,9.15,4.33,9.15,9.7Zm-15.01,0c0,3.93,2.28,6.73,5.86,6.73s5.86-2.76,5.86-6.73-2.24-6.73-5.86-6.73c-3.66,0-5.9,2.8-5.86,6.73Z"/><path class="cls-1" d="m652.04,383.58c0,2.01,1.32,2.63,2.82,2.62.34,0,.69-.04,1.03-.1l.92,2.45c-.85.3-1.76.47-2.64.47-2.74.01-5.28-1.52-5.28-5.45v-20.78h3.14v20.78Z"/><path class="cls-1" d="m678.13,379.33c0,5.36-3.6,9.7-9.15,9.7s-9.15-4.33-9.15-9.7,3.64-9.73,9.15-9.7c5.55,0,9.15,4.33,9.15,9.7Zm-15.01,0c0,3.93,2.28,6.73,5.86,6.73s5.86-2.76,5.86-6.73-2.24-6.73-5.86-6.73c-3.66,0-5.9,2.8-5.86,6.73Z"/><path class="cls-1" d="m693.58,369.61c.16,0,.33,0,.49.01l-.56,3.19c-.18-.02-.38-.02-.58-.02-2.14,0-4.56.91-6.59,2.72v13h-3.14v-18.37h3.14v2.6c2.19-2.09,4.88-3.14,7.24-3.14h0Z"/><path class="cls-1" d="m705.07,369.63c5.74,0,8.53,4.32,8.55,9.66,0,.27,0,.53-.03.8h-14.08c0,.12.02.24.03.35.37,3.33,2.48,5.61,5.62,5.61,1.96,0,3.97-.57,6.02-1.7l.8,2.16c-2.14,1.65-4.69,2.51-6.92,2.51-5.35,0-8.88-4.33-8.88-9.7s3.53-9.73,8.88-9.7h0Zm-5.43,7.87h10.69c-.43-2.96-2.05-4.9-5.16-4.9-2.97,0-4.98,1.96-5.53,4.9Z"/><path class="cls-1" d="m755.21,376.54v11.97h-3.14v-11.97c.02-2.77-1.61-3.98-3.75-3.98-1.72,0-3.79.78-5.6,2.18.1.55.15,1.15.15,1.8v11.97h-3.14v-11.97c0-2.74-1.58-3.97-3.65-3.97-1.75,0-3.85.87-5.59,2.45v13.5h-3.14v-18.37h3.14v2.29c1.9-1.87,4.18-2.81,6.33-2.81s4.19.97,5.24,3.06c2.05-1.95,4.66-3.06,7.04-3.06,3.34,0,6.12,2.14,6.11,6.91Z"/><path class="cls-1" d="m777.31,388.51h-3.14v-2.33c-1.93,1.98-4.19,2.85-6.29,2.85-4.63,0-7.94-4.24-7.94-9.69s3.29-9.7,7.94-9.7c2.11,0,4.37.87,6.29,2.85v-2.33h3.14v18.37Zm-3.14-5.31v-7.76c-1.81-1.89-4.18-2.85-6.05-2.85-3.08,0-4.9,2.65-4.9,6.73s1.83,6.73,4.9,6.73c1.87,0,4.25-.97,6.05-2.85Z"/><path class="cls-1" d="m799.82,387.97c0,5.8-3.45,8.4-7.82,8.4-2.65,0-5.45-.97-7.92-3.05l.21-2.58c2.43,1.92,5.26,2.83,7.5,2.83,3.32,0,4.85-1.98,4.87-5.64v-2.32c-1.91,1.91-4.03,2.82-6.31,2.83-4.72-.03-7.97-4.13-7.97-9.43s3.3-9.39,7.97-9.39c2.17,0,4.39.89,6.31,2.82v-2.31h3.14l.02,17.82Zm-3.16-5.15v-7.4c-1.7-1.76-4.07-2.81-6.08-2.82-3.08,0-4.91,2.53-4.91,6.5s1.79,6.55,4.92,6.56c1.93-.01,4.27-.97,6.07-2.84Z"/><path class="cls-1" d="m821.51,376.54v11.97h-3.14v-11.97c0-2.7-1.64-3.97-3.76-3.97-1.77,0-4.1.87-6,2.56v13.38h-3.14v-18.37h3.14v2.32c2.03-1.94,4.52-2.84,6.62-2.84,3.35,0,6.28,2.21,6.28,6.91Z"/><path class="cls-1" d="m843.6,388.51h-3.14v-2.33c-1.93,1.98-4.19,2.85-6.29,2.85-4.63,0-7.94-4.24-7.94-9.69s3.29-9.7,7.94-9.7c2.11,0,4.37.87,6.29,2.85v-2.33h3.14v18.37Zm-3.14-5.31v-7.76c-1.81-1.89-4.18-2.85-6.05-2.85-3.08,0-4.9,2.65-4.9,6.73s1.83,6.73,4.9,6.73c1.87,0,4.25-.97,6.05-2.85Z"/><path class="cls-1" d="m874.86,388.51h-3.14v-2.33c-1.93,1.98-4.19,2.85-6.29,2.85-4.63,0-7.94-4.24-7.94-9.69s3.29-9.7,7.94-9.7c2.11,0,4.37.87,6.29,2.85v-2.33h3.14v18.37Zm-3.14-5.31v-7.76c-1.81-1.89-4.18-2.85-6.05-2.85-3.08,0-4.9,2.65-4.9,6.73s1.83,6.73,4.9,6.73c1.87,0,4.25-.97,6.05-2.85Z"/><path class="cls-1" d="m883.83,383.58c0,2.01,1.32,2.63,2.82,2.62.34,0,.69-.04,1.03-.1l.92,2.45c-.85.3-1.76.47-2.64.47-2.74.01-5.28-1.52-5.28-5.45v-20.78h3.14v20.78Z"/><path class="cls-1" d="m897.13,365.11c0,1.07-.87,1.94-1.94,1.94s-1.94-.87-1.94-1.94.87-1.94,1.94-1.94,1.94.87,1.94,1.94Zm-3.51,23.4v-18.37h3.14v18.37h-3.14Z"/><path class="cls-1" d="m918.8,395.86h-3.14v-9.53c-1.89,1.84-4.11,2.71-6.23,2.7-4.22-.02-8.03-3.52-8.05-9.7.02-5.45,3.28-9.7,7.95-9.7,2.27,0,4.48.99,6.33,2.9v-2.39h3.14v25.71Zm-3.14-12.88v-7.47c-1.9-1.99-4.26-2.91-6.08-2.91-3.1,0-4.93,2.74-4.93,6.73,0,4.59,2.19,6.78,4.95,6.82,1.93.03,4.13-1.16,6.07-3.17Z"/><path class="cls-1" d="m940.58,388.51h-3.14v-2.32c-1.96,1.88-4.42,2.84-6.55,2.84-3.49,0-6.35-2.14-6.35-6.91v-11.97h3.14v11.97c0,2.57,1.29,3.97,3.52,3.97,2.03,0,4.34-.87,6.24-2.56v-13.39h3.14v18.37Z"/><path class="cls-1" d="m962.67,388.51h-3.14v-2.33c-1.93,1.98-4.19,2.85-6.29,2.85-4.63,0-7.94-4.24-7.94-9.69s3.29-9.7,7.94-9.7c2.11,0,4.37.87,6.29,2.85v-2.33h3.14v18.37Zm-3.14-5.31v-7.76c-1.81-1.89-4.18-2.85-6.05-2.85-3.08,0-4.9,2.65-4.9,6.73s1.83,6.73,4.9,6.73c1.87,0,4.25-.97,6.05-2.85Z"/><path class="cls-1" d="m971.3,386.59c0,1.13-.92,2.04-2.04,2.04-1.13,0-2.04-.92-2.04-2.04s.91-2.04,2.04-2.04c1.13,0,2.04.91,2.04,2.04Z"/><path class="cls-1" d="m1006.67,379.81c0,5.1-4.12,9.22-10.47,9.22s-10.47-4.12-10.47-9.22v-17.01h3.49v17.01c0,3.63,2.67,6.14,6.98,6.14s6.98-2.5,6.98-6.14v-17.01h3.49v17.01Z"/><path class="cls-1" d="m1024.5,387.77c-1.24.79-2.78,1.25-4.27,1.26-2.74.01-5.28-1.52-5.28-5.45v-10.78h-3.64v-2.02l3.42-.57h.22v-5.28h3.14v5.28h5.56v2.59h-5.56v10.78c0,2.01,1.32,2.63,2.82,2.62.96,0,1.99-.26,2.79-.57l.8,2.15Z"/><path class="cls-1" d="m1046.67,369.63c5.74,0,8.53,4.32,8.55,9.66,0,.27,0,.53-.03.8h-14.08c0,.12.02.24.03.35.37,3.33,2.48,5.61,5.62,5.61,1.96,0,3.97-.57,6.02-1.7l.8,2.16c-2.14,1.65-4.69,2.51-6.92,2.51-5.35,0-8.88-4.33-8.88-9.7s3.53-9.73,8.88-9.7h0Zm-5.43,7.87h10.69c-.43-2.96-2.05-4.9-5.16-4.9-2.97,0-4.98,1.96-5.53,4.9Z"/><path class="cls-1" d="m1075.99,376.54v11.97h-3.14v-11.97c0-2.7-1.64-3.97-3.76-3.97-1.77,0-4.1.87-6,2.56v13.38h-3.14v-18.37h3.14v2.32c2.03-1.94,4.52-2.84,6.62-2.84,3.35,0,6.28,2.21,6.28,6.91Z"/><path class="cls-1" d="m1085.35,365.11c0,1.07-.87,1.94-1.94,1.94s-1.94-.87-1.94-1.94.87-1.94,1.94-1.94,1.94.87,1.94,1.94Zm-3.51,23.4v-18.37h3.14v18.37h-3.14Z"/><path class="cls-1" d="m1118.7,376.54v11.97h-3.14v-11.97c.02-2.77-1.61-3.98-3.75-3.98-1.72,0-3.79.78-5.6,2.18.1.55.15,1.15.15,1.8v11.97h-3.14v-11.97c0-2.74-1.58-3.97-3.65-3.97-1.75,0-3.85.87-5.59,2.45v13.5h-3.14v-18.37h3.14v2.29c1.9-1.87,4.18-2.81,6.33-2.81s4.19.97,5.24,3.06c2.05-1.95,4.66-3.06,7.04-3.06,3.34,0,6.12,2.14,6.11,6.91Z"/><path class="cls-1" d="m1149.79,388.51h-3.14v-2.33c-1.93,1.98-4.19,2.85-6.29,2.85-4.63,0-7.94-4.24-7.94-9.69s3.29-9.7,7.94-9.7c2.11,0,4.37.87,6.29,2.85v-2.33h3.14v18.37Zm-3.14-5.31v-7.76c-1.81-1.89-4.18-2.85-6.05-2.85-3.08,0-4.9,2.65-4.9,6.73s1.83,6.73,4.9,6.73c1.87,0,4.25-.97,6.05-2.85Z"/><path class="cls-1" d="m1172.27,388.51h-3.14v-2.39c-1.94,2.02-4.22,2.9-6.34,2.9-4.64,0-7.93-4.24-7.94-9.7,0-5.45,3.25-9.73,8.1-9.7,2.03,0,4.35.99,6.18,2.9v-9.73h3.14v25.71Zm-3.14-5.36v-7.65c-1.82-1.92-4.14-2.9-6.17-2.91-2.99,0-4.86,2.75-4.83,6.73-.03,3.99,1.8,6.73,4.93,6.73,1.86,0,4.26-.99,6.06-2.9Z"/><path class="cls-1" d="m1214.96,376.54v11.97h-3.14v-11.97c.02-2.77-1.61-3.98-3.75-3.98-1.72,0-3.79.78-5.6,2.18.1.55.15,1.15.15,1.8v11.97h-3.14v-11.97c0-2.74-1.58-3.97-3.65-3.97-1.75,0-3.85.87-5.59,2.45v13.5h-3.14v-18.37h3.14v2.29c1.9-1.87,4.18-2.81,6.33-2.81s4.19.97,5.24,3.06c2.05-1.95,4.66-3.06,7.04-3.06,3.34,0,6.12,2.14,6.11,6.91Z"/><path class="cls-1" d="m1224.33,365.11c0,1.07-.87,1.94-1.94,1.94s-1.94-.87-1.94-1.94.87-1.94,1.94-1.94,1.94.87,1.94,1.94Zm-3.51,23.4v-18.37h3.14v18.37h-3.14Z"/><path class="cls-1" d="m1245.85,376.54v11.97h-3.14v-11.97c0-2.7-1.64-3.97-3.76-3.97-1.77,0-4.1.87-6,2.56v13.38h-3.14v-18.37h3.14v2.32c2.03-1.94,4.52-2.84,6.62-2.84,3.35,0,6.28,2.21,6.28,6.91Z"/><path class="cls-1" d="m1255.22,365.11c0,1.07-.87,1.94-1.94,1.94s-1.94-.87-1.94-1.94.87-1.94,1.94-1.94,1.94.87,1.94,1.94Zm-3.51,23.4v-18.37h3.14v18.37h-3.14Z"/><path class="cls-1" d="m1288.56,376.54v11.97h-3.14v-11.97c.02-2.77-1.61-3.98-3.75-3.98-1.72,0-3.79.78-5.6,2.18.1.55.15,1.15.15,1.8v11.97h-3.14v-11.97c0-2.74-1.58-3.97-3.65-3.97-1.75,0-3.85.87-5.59,2.45v13.5h-3.14v-18.37h3.14v2.29c1.9-1.87,4.18-2.81,6.33-2.81s4.19.97,5.24,3.06c2.05-1.95,4.66-3.06,7.04-3.06,3.34,0,6.12,2.14,6.11,6.91Z"/><path class="cls-1" d="m1311.68,388.51h-3.31l-7.38-18.37h3.39l5.66,14.71,5.63-14.71h3.39l-7.38,18.37Z"/><path class="cls-1" d="m1330.05,369.63c5.74,0,8.53,4.32,8.55,9.66,0,.27,0,.53-.03.8h-14.08c0,.12.02.24.03.35.37,3.33,2.48,5.61,5.62,5.61,1.96,0,3.97-.57,6.02-1.7l.8,2.16c-2.14,1.65-4.69,2.51-6.92,2.51-5.35,0-8.88-4.33-8.88-9.7s3.53-9.73,8.88-9.7h0Zm-5.43,7.87h10.69c-.43-2.96-2.05-4.9-5.16-4.9-2.97,0-4.98,1.96-5.53,4.9Z"/><path class="cls-1" d="m1359.38,376.54v11.97h-3.14v-11.97c0-2.7-1.64-3.97-3.76-3.97-1.77,0-4.1.87-6,2.56v13.38h-3.14v-18.37h3.14v2.32c2.03-1.94,4.52-2.84,6.62-2.84,3.35,0,6.28,2.21,6.28,6.91Z"/><path class="cls-1" d="m1368.74,365.11c0,1.07-.87,1.94-1.94,1.94s-1.94-.87-1.94-1.94.87-1.94,1.94-1.94,1.94.87,1.94,1.94Zm-3.51,23.4v-18.37h3.14v18.37h-3.14Z"/><path class="cls-1" d="m1390.83,388.51h-3.14v-2.33c-1.93,1.98-4.19,2.85-6.29,2.85-4.63,0-7.94-4.24-7.94-9.69s3.29-9.7,7.94-9.7c2.11,0,4.37.87,6.29,2.85v-2.33h3.14v18.37Zm-3.14-5.31v-7.76c-1.81-1.89-4.18-2.85-6.05-2.85-3.08,0-4.9,2.65-4.9,6.73s1.83,6.73,4.9,6.73c1.87,0,4.25-.97,6.05-2.85Z"/><path class="cls-1" d="m1424.34,376.54v11.97h-3.14v-11.97c.02-2.77-1.61-3.98-3.75-3.98-1.72,0-3.79.78-5.6,2.18.1.55.15,1.15.15,1.8v11.97h-3.14v-11.97c0-2.74-1.58-3.97-3.65-3.97-1.75,0-3.85.87-5.59,2.45v13.5h-3.14v-18.37h3.14v2.29c1.9-1.87,4.18-2.81,6.33-2.81s4.19.97,5.24,3.06c2.05-1.95,4.66-3.06,7.04-3.06,3.34,0,6.12,2.14,6.11,6.91Z"/></svg>