<?xml version="1.0" encoding="UTF-8"?><svg id="Layer_1" xmlns="http://www.w3.org/2000/svg" viewBox="0 0 1920 430.85"><defs><style>.cls-1{fill:#0d0e0e;}.cls-1,.cls-2{stroke-width:0px;}.cls-2{fill:#002b3c;}</style></defs><path class="cls-1" d="m67.6,345.45h13.17v3.11h-16.67v-25.97h3.51v22.86Z"/><path class="cls-1" d="m91.51,329.1c6.04,0,8.79,5.1,8.79,9.98s-2.75,9.98-8.79,9.98-8.79-5.1-8.79-9.98,2.75-9.98,8.79-9.98Zm0,17.22c4.56,0,5.5-4.7,5.5-7.23s-.94-7.23-5.5-7.23-5.5,4.7-5.5,7.23.94,7.23,5.5,7.23Z"/><path class="cls-1" d="m107.54,348.56h-3.18v-18.92h3v3.15h.07c1.27-2.21,2.93-3.69,5.32-3.69.4,0,.58.04.83.11v3.29h-1.19c-2.97,0-4.85,2.32-4.85,5.06v11Z"/><path class="cls-1" d="m132.03,342.63c-.11.9-.98,3.58-3.36,5.17-.87.58-2.1,1.3-5.14,1.3-5.32,0-8.46-4.01-8.46-9.48,0-5.86,2.82-10.53,9.08-10.53,5.46,0,8.14,4.34,8.14,11.03h-13.82c0,3.94,1.85,6.22,5.5,6.22,3,0,4.78-2.32,4.88-3.73h3.18Zm-3.04-5.03c-.18-2.93-1.41-5.64-5.28-5.64-2.93,0-5.25,2.71-5.25,5.64h10.53Z"/><path class="cls-1" d="m136.09,329.65h3v2.68h.07c.69-1.01,2.32-3.22,5.71-3.22s4.48,2.06,5.03,3.07c1.59-1.77,2.86-3.07,5.79-3.07,2.03,0,5.86,1.05,5.86,6.37v13.09h-3.18v-12.23c0-2.6-.8-4.38-3.51-4.38s-4.45,2.53-4.45,5.06v11.54h-3.18v-13.09c0-1.59-.62-3.51-2.97-3.51-1.81,0-4.99,1.16-4.99,6.29v10.31h-3.18v-18.92Z"/><path class="cls-1" d="m176.36,326.21v-3.62h3.18v3.62h-3.18Zm3.18,22.35h-3.18v-18.92h3.18v18.92Z"/><path class="cls-1" d="m184.07,329.65h3v2.68h.07c.76-1.09,2.21-3.22,5.64-3.22,5.03,0,7.89,4.12,7.89,9.44,0,4.52-1.88,10.56-8.32,10.56-2.53,0-4.2-1.19-5.03-2.53h-.07v9.48h-3.18v-26.41Zm8.21,16.71c3.47,0,5.1-3.15,5.1-7.31,0-2.42-.25-7.09-5.17-7.09-4.59,0-5.1,4.96-5.1,8.03,0,5.03,3.15,6.37,5.17,6.37Z"/><path class="cls-1" d="m215.18,335.04c-.04-1.19-.47-3.18-4.48-3.18-.98,0-3.76.33-3.76,2.68,0,1.55.98,1.92,3.44,2.53l3.18.8c3.94.98,5.32,2.42,5.32,4.99,0,3.91-3.22,6.26-7.49,6.26-7.49,0-8.03-4.34-8.14-6.62h3.08c.11,1.48.54,3.87,5.03,3.87,2.28,0,4.34-.9,4.34-3,0-1.52-1.05-2.03-3.76-2.71l-3.69-.9c-2.64-.65-4.38-1.99-4.38-4.59,0-4.16,3.44-6.04,7.16-6.04,6.77,0,7.24,4.99,7.24,5.93h-3.08Z"/><path class="cls-1" d="m234.86,348.56v-2.75l-.07-.07c-1.34,2.21-2.97,3.36-6,3.36-2.78,0-6.15-1.34-6.15-5.86v-13.6h3.18v12.55c0,3.11,1.59,4.16,3.65,4.16,4.01,0,5.21-3.55,5.21-6.29v-10.42h3.18v18.92h-3Z"/><path class="cls-1" d="m242.64,329.65h3v2.68h.07c.69-1.01,2.32-3.22,5.71-3.22s4.48,2.06,5.03,3.07c1.59-1.77,2.86-3.07,5.79-3.07,2.03,0,5.86,1.05,5.86,6.37v13.09h-3.18v-12.23c0-2.6-.8-4.38-3.51-4.38s-4.45,2.53-4.45,5.06v11.54h-3.18v-13.09c0-1.59-.62-3.51-2.97-3.51-1.81,0-4.99,1.16-4.99,6.29v10.31h-3.18v-18.92Z"/><path class="cls-1" d="m298.54,348.56h-3v-2.6h-.07c-1.37,2.57-3.55,3.15-5.39,3.15-6.44,0-8.32-6.04-8.32-10.56,0-5.32,2.86-9.44,7.88-9.44,3.44,0,4.88,2.13,5.64,3.22l.07-.25v-9.48h3.18v25.97Zm-8.39-2.21c2.03,0,5.17-1.34,5.17-6.37,0-3.08-.51-8.03-5.1-8.03-4.92,0-5.17,4.67-5.17,7.09,0,4.16,1.63,7.31,5.1,7.31Z"/><path class="cls-1" d="m310.66,329.1c6.04,0,8.79,5.1,8.79,9.98s-2.75,9.98-8.79,9.98-8.79-5.1-8.79-9.98,2.75-9.98,8.79-9.98Zm0,17.22c4.56,0,5.5-4.7,5.5-7.23s-.94-7.23-5.5-7.23-5.5,4.7-5.5,7.23.94,7.23,5.5,7.23Z"/><path class="cls-1" d="m326.33,348.56h-3.18v-25.97h3.18v25.97Z"/><path class="cls-1" d="m338.81,329.1c6.04,0,8.79,5.1,8.79,9.98s-2.75,9.98-8.79,9.98-8.79-5.1-8.79-9.98,2.75-9.98,8.79-9.98Zm0,17.22c4.56,0,5.5-4.7,5.5-7.23s-.94-7.23-5.5-7.23-5.5,4.7-5.5,7.23.94,7.23,5.5,7.23Z"/><path class="cls-1" d="m354.84,348.56h-3.18v-18.92h3v3.15h.07c1.27-2.21,2.93-3.69,5.32-3.69.4,0,.58.04.83.11v3.29h-1.19c-2.97,0-4.85,2.32-4.85,5.06v11Z"/><path class="cls-1" d="m384.07,335.04c-.04-1.19-.47-3.18-4.48-3.18-.98,0-3.76.33-3.76,2.68,0,1.55.98,1.92,3.44,2.53l3.18.8c3.94.98,5.32,2.42,5.32,4.99,0,3.91-3.22,6.26-7.49,6.26-7.49,0-8.03-4.34-8.14-6.62h3.07c.11,1.48.54,3.87,5.03,3.87,2.28,0,4.34-.9,4.34-3,0-1.52-1.05-2.03-3.76-2.71l-3.69-.9c-2.64-.65-4.38-1.99-4.38-4.59,0-4.16,3.44-6.04,7.16-6.04,6.77,0,7.24,4.99,7.24,5.93h-3.08Z"/><path class="cls-1" d="m391.49,326.21v-3.62h3.18v3.62h-3.18Zm3.18,22.35h-3.18v-18.92h3.18v18.92Z"/><path class="cls-1" d="m403.36,332.29v12.3c0,1.48,1.27,1.48,1.92,1.48h1.12v2.5c-1.16.11-2.06.25-2.39.25-3.15,0-3.83-1.77-3.83-4.05v-12.48h-2.57v-2.64h2.57v-5.28h3.18v5.28h3.04v2.64h-3.04Z"/><path class="cls-1" d="m419.46,335.4c.14-4.52,3.15-6.29,7.81-6.29,1.52,0,7.02.43,7.02,5.28v10.89c0,.8.4,1.12,1.05,1.12.29,0,.69-.07,1.05-.14v2.32c-.54.14-1.01.36-1.74.36-2.82,0-3.26-1.45-3.36-2.89-1.23,1.34-3.15,3.07-6.84,3.07-3.47,0-5.93-2.21-5.93-5.46,0-1.59.47-5.28,5.75-5.93l5.24-.65c.76-.07,1.66-.36,1.66-2.24,0-1.99-1.45-3.07-4.45-3.07-3.62,0-4.12,2.21-4.34,3.65h-2.93Zm11.65,3.51c-.51.4-1.3.69-5.25,1.19-1.55.22-4.05.69-4.05,3.07,0,2.06,1.05,3.29,3.44,3.29,2.97,0,5.86-1.92,5.86-4.45v-3.11Z"/><path class="cls-1" d="m439.68,329.65h3v2.68h.07c.69-1.01,2.32-3.22,5.71-3.22s4.48,2.06,5.03,3.07c1.59-1.77,2.86-3.07,5.79-3.07,2.03,0,5.86,1.05,5.86,6.37v13.09h-3.18v-12.23c0-2.6-.8-4.38-3.51-4.38s-4.45,2.53-4.45,5.06v11.54h-3.18v-13.09c0-1.59-.62-3.51-2.97-3.51-1.81,0-4.99,1.16-4.99,6.29v10.31h-3.18v-18.92Z"/><path class="cls-1" d="m485.88,342.63c-.11.9-.98,3.58-3.36,5.17-.87.58-2.1,1.3-5.14,1.3-5.32,0-8.46-4.01-8.46-9.48,0-5.86,2.82-10.53,9.08-10.53,5.46,0,8.14,4.34,8.14,11.03h-13.82c0,3.94,1.85,6.22,5.5,6.22,3,0,4.78-2.32,4.88-3.73h3.18Zm-3.04-5.03c-.18-2.93-1.41-5.64-5.28-5.64-2.93,0-5.25,2.71-5.25,5.64h10.53Z"/><path class="cls-1" d="m493.85,332.29v12.3c0,1.48,1.27,1.48,1.92,1.48h1.12v2.5c-1.16.11-2.06.25-2.39.25-3.15,0-3.83-1.77-3.83-4.05v-12.48h-2.57v-2.64h2.57v-5.28h3.18v5.28h3.04v2.64h-3.04Z"/><path class="cls-1" d="m500.79,344.73h3.76v3.54c0,4.92-3.04,5.5-3.76,5.61v-1.66c1.52-.15,1.92-1.95,1.92-3.65h-1.92v-3.83Z"/><path class="cls-1" d="m531.94,336.01c-.4-2.53-1.81-4.05-4.48-4.05-3.94,0-5.21,3.76-5.21,7.13s.8,7.27,5.17,7.27c2.13,0,3.98-1.59,4.52-4.49h3.08c-.33,3-2.17,7.23-7.71,7.23s-8.46-4.01-8.46-9.48c0-5.86,2.82-10.53,9.08-10.53,4.96,0,6.84,3.62,7.09,6.91h-3.08Z"/><path class="cls-1" d="m545.91,329.1c6.04,0,8.79,5.1,8.79,9.98s-2.75,9.98-8.79,9.98-8.79-5.1-8.79-9.98,2.75-9.98,8.79-9.98Zm0,17.22c4.56,0,5.5-4.7,5.5-7.23s-.94-7.23-5.5-7.23-5.5,4.7-5.5,7.23.94,7.23,5.5,7.23Z"/><path class="cls-1" d="m573.73,348.56h-3.18v-11.65c0-3.29-.94-4.96-4.05-4.96-1.81,0-4.99,1.16-4.99,6.29v10.31h-3.18v-18.92h3v2.68h.07c.69-1.01,2.46-3.22,5.71-3.22,2.93,0,6.62,1.19,6.62,6.58v12.88Z"/><path class="cls-1" d="m589.18,335.04c-.04-1.19-.47-3.18-4.48-3.18-.98,0-3.76.33-3.76,2.68,0,1.55.98,1.92,3.44,2.53l3.18.8c3.94.98,5.32,2.42,5.32,4.99,0,3.91-3.22,6.26-7.49,6.26-7.49,0-8.03-4.34-8.14-6.62h3.08c.11,1.48.54,3.87,5.03,3.87,2.28,0,4.34-.9,4.34-3,0-1.52-1.05-2.03-3.76-2.71l-3.69-.9c-2.64-.65-4.38-1.99-4.38-4.59,0-4.16,3.44-6.04,7.16-6.04,6.77,0,7.24,4.99,7.24,5.93h-3.08Z"/><path class="cls-1" d="m612.59,342.63c-.11.9-.98,3.58-3.36,5.17-.87.58-2.1,1.3-5.14,1.3-5.32,0-8.46-4.01-8.46-9.48,0-5.86,2.82-10.53,9.08-10.53,5.46,0,8.14,4.34,8.14,11.03h-13.82c0,3.94,1.85,6.22,5.5,6.22,3,0,4.78-2.32,4.88-3.73h3.18Zm-3.04-5.03c-.18-2.93-1.41-5.64-5.28-5.64-2.93,0-5.25,2.71-5.25,5.64h10.53Z"/><path class="cls-1" d="m628.47,336.01c-.4-2.53-1.81-4.05-4.48-4.05-3.94,0-5.21,3.76-5.21,7.13s.8,7.27,5.17,7.27c2.13,0,3.98-1.59,4.52-4.49h3.08c-.33,3-2.17,7.23-7.71,7.23s-8.46-4.01-8.46-9.48c0-5.86,2.82-10.53,9.08-10.53,4.96,0,6.84,3.62,7.09,6.91h-3.08Z"/><path class="cls-1" d="m638.64,332.29v12.3c0,1.48,1.27,1.48,1.92,1.48h1.12v2.5c-1.16.11-2.06.25-2.39.25-3.15,0-3.83-1.77-3.83-4.05v-12.48h-2.57v-2.64h2.57v-5.28h3.18v5.28h3.04v2.64h-3.04Z"/><path class="cls-1" d="m660.85,342.63c-.11.9-.98,3.58-3.36,5.17-.87.58-2.1,1.3-5.14,1.3-5.32,0-8.46-4.01-8.46-9.48,0-5.86,2.82-10.53,9.08-10.53,5.46,0,8.14,4.34,8.14,11.03h-13.82c0,3.94,1.85,6.22,5.5,6.22,3,0,4.78-2.32,4.88-3.73h3.18Zm-3.04-5.03c-.18-2.93-1.41-5.64-5.28-5.64-2.93,0-5.25,2.71-5.25,5.64h10.53Z"/><path class="cls-1" d="m668.82,332.29v12.3c0,1.48,1.27,1.48,1.92,1.48h1.12v2.5c-1.16.11-2.06.25-2.39.25-3.15,0-3.83-1.77-3.83-4.05v-12.48h-2.57v-2.64h2.57v-5.28h3.18v5.28h3.04v2.64h-3.04Z"/><path class="cls-1" d="m687.3,348.56v-2.75l-.07-.07c-1.34,2.21-2.97,3.36-6,3.36-2.78,0-6.15-1.34-6.15-5.86v-13.6h3.18v12.55c0,3.11,1.59,4.16,3.65,4.16,4.01,0,5.21-3.55,5.21-6.29v-10.42h3.18v18.92h-3Z"/><path class="cls-1" d="m698.7,348.56h-3.18v-18.92h3v3.15h.07c1.27-2.21,2.93-3.69,5.32-3.69.4,0,.58.04.83.11v3.29h-1.19c-2.97,0-4.85,2.32-4.85,5.06v11Z"/><path class="cls-1" d="m717.08,335.4c.14-4.52,3.15-6.29,7.81-6.29,1.52,0,7.02.43,7.02,5.28v10.89c0,.8.4,1.12,1.05,1.12.29,0,.69-.07,1.05-.14v2.32c-.54.14-1.01.36-1.74.36-2.82,0-3.26-1.45-3.36-2.89-1.23,1.34-3.15,3.07-6.84,3.07-3.47,0-5.93-2.21-5.93-5.46,0-1.59.47-5.28,5.75-5.93l5.24-.65c.76-.07,1.66-.36,1.66-2.24,0-1.99-1.45-3.07-4.45-3.07-3.62,0-4.12,2.21-4.34,3.65h-2.93Zm11.65,3.51c-.51.4-1.3.69-5.25,1.19-1.55.22-4.05.69-4.05,3.07,0,2.06,1.05,3.29,3.44,3.29,2.97,0,5.86-1.92,5.86-4.45v-3.11Z"/><path class="cls-1" d="m753.01,348.56h-3v-2.6h-.07c-1.37,2.57-3.55,3.15-5.39,3.15-6.44,0-8.32-6.04-8.32-10.56,0-5.32,2.86-9.44,7.88-9.44,3.44,0,4.88,2.13,5.64,3.22l.07-.25v-9.48h3.18v25.97Zm-8.39-2.21c2.03,0,5.17-1.34,5.17-6.37,0-3.08-.51-8.03-5.1-8.03-4.92,0-5.17,4.67-5.17,7.09,0,4.16,1.63,7.31,5.1,7.31Z"/><path class="cls-1" d="m757.5,326.21v-3.62h3.18v3.62h-3.18Zm3.18,22.35h-3.18v-18.92h3.18v18.92Z"/><path class="cls-1" d="m765.2,329.65h3v2.68h.07c.76-1.09,2.21-3.22,5.64-3.22,5.03,0,7.89,4.12,7.89,9.44,0,4.52-1.88,10.56-8.32,10.56-2.53,0-4.2-1.19-5.03-2.53h-.07v9.48h-3.18v-26.41Zm8.21,16.71c3.47,0,5.1-3.15,5.1-7.31,0-2.42-.25-7.09-5.17-7.09-4.59,0-5.1,4.96-5.1,8.03,0,5.03,3.15,6.37,5.17,6.37Z"/><path class="cls-1" d="m785.65,326.21v-3.62h3.18v3.62h-3.18Zm3.18,22.35h-3.18v-18.92h3.18v18.92Z"/><path class="cls-1" d="m804.35,335.04c-.04-1.19-.47-3.18-4.48-3.18-.98,0-3.76.33-3.76,2.68,0,1.55.98,1.92,3.44,2.53l3.18.8c3.94.98,5.32,2.42,5.32,4.99,0,3.91-3.22,6.26-7.49,6.26-7.49,0-8.03-4.34-8.14-6.62h3.07c.11,1.48.54,3.87,5.03,3.87,2.28,0,4.34-.9,4.34-3,0-1.52-1.05-2.03-3.76-2.71l-3.69-.9c-2.64-.65-4.38-1.99-4.38-4.59,0-4.16,3.44-6.04,7.16-6.04,6.77,0,7.24,4.99,7.24,5.93h-3.08Z"/><path class="cls-1" d="m823.52,336.01c-.4-2.53-1.81-4.05-4.48-4.05-3.94,0-5.21,3.76-5.21,7.13s.8,7.27,5.17,7.27c2.13,0,3.98-1.59,4.52-4.49h3.08c-.33,3-2.17,7.23-7.71,7.23s-8.46-4.01-8.46-9.48c0-5.86,2.82-10.53,9.08-10.53,4.96,0,6.84,3.62,7.09,6.91h-3.08Z"/><path class="cls-1" d="m829.86,326.21v-3.62h3.18v3.62h-3.18Zm3.18,22.35h-3.18v-18.92h3.18v18.92Z"/><path class="cls-1" d="m853.23,348.56h-3.18v-11.65c0-3.29-.94-4.96-4.05-4.96-1.81,0-4.99,1.16-4.99,6.29v10.31h-3.18v-18.92h3v2.68h.07c.69-1.01,2.46-3.22,5.71-3.22,2.93,0,6.62,1.19,6.62,6.58v12.88Z"/><path class="cls-1" d="m873.63,347.01c0,2.71-.04,9.51-8.79,9.51-2.24,0-6.62-.62-7.23-5.64h3.18c.58,3,3.51,3,4.27,3,5.5,0,5.39-4.41,5.39-6.66v-.8h-.07v.14c-.83,1.34-2.5,2.53-5.03,2.53-6.44,0-8.32-6.04-8.32-10.56,0-5.32,2.86-9.44,7.88-9.44,3.44,0,4.88,2.13,5.64,3.22h.07v-2.68h3v17.36Zm-8.21-.65c2.02,0,5.17-1.34,5.17-6.37,0-3.08-.51-8.03-5.1-8.03-4.92,0-5.17,4.67-5.17,7.09,0,4.16,1.63,7.31,5.1,7.31Z"/><path class="cls-1" d="m904.17,342.63c-.11.9-.98,3.58-3.36,5.17-.87.58-2.1,1.3-5.14,1.3-5.32,0-8.46-4.01-8.46-9.48,0-5.86,2.82-10.53,9.08-10.53,5.46,0,8.14,4.34,8.14,11.03h-13.82c0,3.94,1.85,6.22,5.5,6.22,3,0,4.78-2.32,4.88-3.73h3.18Zm-3.04-5.03c-.18-2.93-1.41-5.64-5.28-5.64-2.93,0-5.25,2.71-5.25,5.64h10.53Z"/><path class="cls-1" d="m911.48,348.56h-3.18v-25.97h3.18v25.97Z"/><path class="cls-1" d="m916.33,326.21v-3.62h3.18v3.62h-3.18Zm3.18,22.35h-3.18v-18.92h3.18v18.92Z"/><path class="cls-1" d="m928.2,332.29v12.3c0,1.48,1.27,1.48,1.92,1.48h1.12v2.5c-1.16.11-2.06.25-2.39.25-3.15,0-3.83-1.77-3.83-4.05v-12.48h-2.57v-2.64h2.57v-5.28h3.18v5.28h3.04v2.64h-3.04Z"/><path class="cls-1" d="m935.14,344.73h3.76v3.54c0,4.92-3.04,5.5-3.76,5.61v-1.66c1.52-.15,1.92-1.95,1.92-3.65h-1.92v-3.83Z"/><path class="cls-1" d="m965.21,335.04c-.04-1.19-.47-3.18-4.48-3.18-.98,0-3.76.33-3.76,2.68,0,1.55.98,1.92,3.44,2.53l3.18.8c3.94.98,5.32,2.42,5.32,4.99,0,3.91-3.22,6.26-7.49,6.26-7.49,0-8.03-4.34-8.14-6.62h3.07c.11,1.48.54,3.87,5.03,3.87,2.28,0,4.34-.9,4.34-3,0-1.52-1.05-2.03-3.76-2.71l-3.69-.9c-2.64-.65-4.38-1.99-4.38-4.59,0-4.16,3.44-6.04,7.16-6.04,6.77,0,7.24,4.99,7.24,5.93h-3.08Z"/><path class="cls-1" d="m988.61,342.63c-.11.9-.98,3.58-3.36,5.17-.87.58-2.1,1.3-5.14,1.3-5.32,0-8.46-4.01-8.46-9.48,0-5.86,2.82-10.53,9.08-10.53,5.46,0,8.14,4.34,8.14,11.03h-13.82c0,3.94,1.85,6.22,5.5,6.22,3,0,4.78-2.32,4.88-3.73h3.18Zm-3.04-5.03c-.18-2.93-1.41-5.64-5.28-5.64-2.93,0-5.25,2.71-5.25,5.64h10.53Z"/><path class="cls-1" d="m1008.37,348.56h-3v-2.6h-.07c-1.37,2.57-3.55,3.15-5.39,3.15-6.44,0-8.32-6.04-8.32-10.56,0-5.32,2.86-9.44,7.88-9.44,3.44,0,4.88,2.13,5.64,3.22l.07-.25v-9.48h3.18v25.97Zm-8.39-2.21c2.03,0,5.17-1.34,5.17-6.37,0-3.08-.51-8.03-5.1-8.03-4.92,0-5.17,4.67-5.17,7.09,0,4.16,1.63,7.31,5.1,7.31Z"/><path class="cls-1" d="m1038.55,348.56h-3v-2.6h-.07c-1.37,2.57-3.55,3.15-5.39,3.15-6.44,0-8.32-6.04-8.32-10.56,0-5.32,2.86-9.44,7.88-9.44,3.44,0,4.88,2.13,5.64,3.22l.07-.25v-9.48h3.18v25.97Zm-8.39-2.21c2.03,0,5.17-1.34,5.17-6.37,0-3.08-.51-8.03-5.1-8.03-4.92,0-5.17,4.67-5.17,7.09,0,4.16,1.63,7.31,5.1,7.31Z"/><path class="cls-1" d="m1050.67,329.1c6.04,0,8.79,5.1,8.79,9.98s-2.75,9.98-8.79,9.98-8.79-5.1-8.79-9.98,2.75-9.98,8.79-9.98Zm0,17.22c4.56,0,5.5-4.7,5.5-7.23s-.94-7.23-5.5-7.23-5.5,4.7-5.5,7.23.94,7.23,5.5,7.23Z"/><path class="cls-1" d="m1089.2,342.63c-.11.9-.98,3.58-3.36,5.17-.87.58-2.1,1.3-5.14,1.3-5.32,0-8.46-4.01-8.46-9.48,0-5.86,2.82-10.53,9.08-10.53,5.46,0,8.14,4.34,8.14,11.03h-13.82c0,3.94,1.85,6.22,5.5,6.22,3,0,4.78-2.32,4.88-3.73h3.18Zm-3.04-5.03c-.18-2.93-1.41-5.64-5.28-5.64-2.93,0-5.25,2.71-5.25,5.64h10.53Z"/><path class="cls-1" d="m1093.33,326.21v-3.62h3.18v3.62h-3.18Zm3.18,22.35h-3.18v-18.92h3.18v18.92Z"/><path class="cls-1" d="m1113.62,348.56v-2.75l-.07-.07c-1.34,2.21-2.97,3.36-6,3.36-2.78,0-6.15-1.34-6.15-5.86v-13.6h3.18v12.55c0,3.11,1.59,4.16,3.65,4.16,4.01,0,5.21-3.55,5.21-6.29v-10.42h3.18v18.92h-3Z"/><path class="cls-1" d="m1132.15,335.04c-.04-1.19-.47-3.18-4.48-3.18-.98,0-3.76.33-3.76,2.68,0,1.55.98,1.92,3.44,2.53l3.18.8c3.94.98,5.32,2.42,5.32,4.99,0,3.91-3.22,6.26-7.49,6.26-7.49,0-8.03-4.34-8.14-6.62h3.07c.11,1.48.54,3.87,5.03,3.87,2.28,0,4.34-.9,4.34-3,0-1.52-1.05-2.03-3.76-2.71l-3.69-.9c-2.64-.65-4.38-1.99-4.38-4.59,0-4.16,3.44-6.04,7.16-6.04,6.77,0,7.24,4.99,7.24,5.93h-3.08Z"/><path class="cls-1" d="m1139.49,329.65h3v2.68h.07c.69-1.01,2.32-3.22,5.71-3.22s4.48,2.06,5.03,3.07c1.59-1.77,2.86-3.07,5.79-3.07,2.03,0,5.86,1.05,5.86,6.37v13.09h-3.18v-12.23c0-2.6-.8-4.38-3.51-4.38s-4.45,2.53-4.45,5.06v11.54h-3.18v-13.09c0-1.59-.62-3.51-2.97-3.51-1.81,0-4.99,1.16-4.99,6.29v10.31h-3.18v-18.92Z"/><path class="cls-1" d="m1177.34,329.1c6.04,0,8.79,5.1,8.79,9.98s-2.75,9.98-8.79,9.98-8.79-5.1-8.79-9.98,2.75-9.98,8.79-9.98Zm0,17.22c4.56,0,5.5-4.7,5.5-7.23s-.94-7.23-5.5-7.23-5.5,4.7-5.5,7.23.94,7.23,5.5,7.23Z"/><path class="cls-1" d="m1205.45,348.56h-3v-2.6h-.07c-1.37,2.57-3.55,3.15-5.39,3.15-6.44,0-8.32-6.04-8.32-10.56,0-5.32,2.86-9.44,7.88-9.44,3.44,0,4.88,2.13,5.64,3.22l.07-.25v-9.48h3.18v25.97Zm-8.39-2.21c2.03,0,5.17-1.34,5.17-6.37,0-3.08-.51-8.03-5.1-8.03-4.92,0-5.17,4.67-5.17,7.09,0,4.16,1.63,7.31,5.1,7.31Z"/><path class="cls-1" d="m1223.83,332.29v12.3c0,1.48,1.27,1.48,1.92,1.48h1.12v2.5c-1.16.11-2.06.25-2.39.25-3.15,0-3.83-1.77-3.83-4.05v-12.48h-2.57v-2.64h2.57v-5.28h3.18v5.28h3.04v2.64h-3.04Z"/><path class="cls-1" d="m1246.04,342.63c-.11.9-.98,3.58-3.36,5.17-.87.58-2.1,1.3-5.14,1.3-5.32,0-8.46-4.01-8.46-9.48,0-5.86,2.82-10.53,9.08-10.53,5.46,0,8.14,4.34,8.14,11.03h-13.82c0,3.94,1.85,6.22,5.5,6.22,3,0,4.78-2.32,4.88-3.73h3.18Zm-3.04-5.03c-.18-2.93-1.41-5.64-5.28-5.64-2.93,0-5.25,2.71-5.25,5.64h10.53Z"/><path class="cls-1" d="m1250.1,329.65h3v2.68h.07c.69-1.01,2.32-3.22,5.71-3.22s4.48,2.06,5.03,3.07c1.59-1.77,2.86-3.07,5.79-3.07,2.03,0,5.86,1.05,5.86,6.37v13.09h-3.18v-12.23c0-2.6-.8-4.38-3.51-4.38s-4.45,2.53-4.45,5.06v11.54h-3.18v-13.09c0-1.59-.62-3.51-2.97-3.51-1.81,0-4.99,1.16-4.99,6.29v10.31h-3.18v-18.92Z"/><path class="cls-1" d="m1279.99,329.65h3v2.68h.07c.76-1.09,2.21-3.22,5.64-3.22,5.03,0,7.89,4.12,7.89,9.44,0,4.52-1.88,10.56-8.32,10.56-2.53,0-4.2-1.19-5.03-2.53h-.07v9.48h-3.18v-26.41Zm8.21,16.71c3.47,0,5.1-3.15,5.1-7.31,0-2.42-.25-7.09-5.17-7.09-4.59,0-5.1,4.96-5.1,8.03,0,5.03,3.15,6.37,5.17,6.37Z"/><path class="cls-1" d="m1308.06,329.1c6.04,0,8.79,5.1,8.79,9.98s-2.75,9.98-8.79,9.98-8.79-5.1-8.79-9.98,2.75-9.98,8.79-9.98Zm0,17.22c4.56,0,5.5-4.7,5.5-7.23s-.94-7.23-5.5-7.23-5.5,4.7-5.5,7.23.94,7.23,5.5,7.23Z"/><path class="cls-1" d="m1324.09,348.56h-3.18v-18.92h3v3.15h.07c1.27-2.21,2.93-3.69,5.32-3.69.4,0,.58.04.83.11v3.29h-1.19c-2.97,0-4.85,2.32-4.85,5.06v11Z"/><path class="cls-1" d="m63.76,373.25v-3.62h3.18v3.62h-3.18Zm3.18,22.35h-3.18v-18.92h3.18v18.92Z"/><path class="cls-1" d="m87.13,395.6h-3.18v-11.65c0-3.29-.94-4.96-4.05-4.96-1.81,0-4.99,1.16-4.99,6.29v10.31h-3.18v-18.92h3v2.68h.07c.69-1.01,2.46-3.22,5.71-3.22,2.93,0,6.62,1.19,6.62,6.58v12.88Z"/><path class="cls-1" d="m103.67,383.05c-.4-2.53-1.81-4.05-4.48-4.05-3.94,0-5.21,3.76-5.21,7.13s.8,7.27,5.17,7.27c2.13,0,3.98-1.59,4.52-4.49h3.08c-.33,3-2.17,7.23-7.71,7.23s-8.46-4.01-8.46-9.48c0-5.86,2.82-10.53,9.08-10.53,4.96,0,6.84,3.62,7.09,6.91h-3.08Z"/><path class="cls-1" d="m110,373.25v-3.62h3.18v3.62h-3.18Zm3.18,22.35h-3.18v-18.92h3.18v18.92Z"/><path class="cls-1" d="m133.66,395.6h-3v-2.6h-.07c-1.37,2.57-3.55,3.15-5.39,3.15-6.44,0-8.32-6.04-8.32-10.56,0-5.32,2.86-9.44,7.88-9.44,3.44,0,4.88,2.13,5.64,3.22l.07-.25v-9.48h3.18v25.97Zm-8.39-2.21c2.03,0,5.17-1.34,5.17-6.37,0-3.08-.51-8.03-5.1-8.03-4.92,0-5.17,4.67-5.17,7.09,0,4.16,1.63,7.31,5.1,7.31Z"/><path class="cls-1" d="m138.15,373.25v-3.62h3.18v3.62h-3.18Zm3.18,22.35h-3.18v-18.92h3.18v18.92Z"/><path class="cls-1" d="m161.81,395.6h-3v-2.6h-.07c-1.37,2.57-3.55,3.15-5.39,3.15-6.44,0-8.32-6.04-8.32-10.56,0-5.32,2.86-9.44,7.88-9.44,3.44,0,4.88,2.13,5.64,3.22l.07-.25v-9.48h3.18v25.97Zm-8.39-2.21c2.03,0,5.17-1.34,5.17-6.37,0-3.08-.51-8.03-5.1-8.03-4.92,0-5.17,4.67-5.17,7.09,0,4.16,1.63,7.31,5.1,7.31Z"/><path class="cls-1" d="m178.56,395.6v-2.75l-.07-.07c-1.34,2.21-2.97,3.36-6,3.36-2.78,0-6.15-1.34-6.15-5.86v-13.6h3.18v12.55c0,3.11,1.59,4.16,3.65,4.16,4.01,0,5.21-3.55,5.21-6.29v-10.42h3.18v18.92h-3Z"/><path class="cls-1" d="m201.75,395.6h-3.18v-11.65c0-3.29-.94-4.96-4.05-4.96-1.81,0-4.99,1.16-4.99,6.29v10.31h-3.18v-18.92h3v2.68h.07c.69-1.01,2.46-3.22,5.71-3.22,2.93,0,6.62,1.19,6.62,6.58v12.88Z"/><path class="cls-1" d="m210.37,379.32v12.3c0,1.48,1.27,1.48,1.92,1.48h1.12v2.5c-1.16.11-2.06.25-2.39.25-3.15,0-3.83-1.77-3.83-4.05v-12.48h-2.57v-2.64h2.57v-5.28h3.18v5.28h3.04v2.64h-3.04Z"/><path class="cls-1" d="m238.91,395.6v-2.75l-.07-.07c-1.34,2.21-2.97,3.36-6,3.36-2.78,0-6.15-1.34-6.15-5.86v-13.6h3.18v12.55c0,3.11,1.59,4.16,3.65,4.16,4.01,0,5.21-3.55,5.21-6.29v-10.42h3.18v18.92h-3Z"/><path class="cls-1" d="m250.6,379.32v12.3c0,1.48,1.27,1.48,1.92,1.48h1.12v2.5c-1.16.11-2.06.25-2.39.25-3.15,0-3.83-1.77-3.83-4.05v-12.48h-2.57v-2.64h2.57v-5.28h3.18v5.28h3.04v2.64h-3.04Z"/><path class="cls-1" d="m270.07,395.6h-3.18v-25.97h3.18v25.97Z"/><path class="cls-1" d="m274.73,382.43c.14-4.52,3.15-6.29,7.81-6.29,1.52,0,7.02.43,7.02,5.28v10.89c0,.8.4,1.12,1.05,1.12.29,0,.69-.07,1.05-.14v2.32c-.54.14-1.01.36-1.74.36-2.82,0-3.26-1.45-3.36-2.89-1.23,1.34-3.15,3.07-6.84,3.07-3.47,0-5.93-2.21-5.93-5.46,0-1.59.47-5.28,5.75-5.93l5.24-.65c.76-.07,1.66-.36,1.66-2.24,0-1.99-1.45-3.07-4.45-3.07-3.62,0-4.12,2.21-4.34,3.65h-2.93Zm11.65,3.51c-.51.4-1.3.69-5.25,1.19-1.55.22-4.05.69-4.05,3.07,0,2.06,1.05,3.29,3.44,3.29,2.97,0,5.86-1.92,5.86-4.45v-3.11Z"/><path class="cls-1" d="m294.71,395.6v-25.97h3.18v9.44h.07c1.38-1.99,3.26-2.89,5.46-2.93,5.03,0,7.89,4.12,7.89,9.44,0,4.52-1.88,10.56-8.32,10.56-3.22,0-4.56-1.84-5.21-2.89h-.07v2.35h-3Zm8.14-16.6c-4.59,0-5.1,4.96-5.1,8.03,0,5.03,3.15,6.37,5.17,6.37,3.47,0,5.1-3.15,5.1-7.31,0-2.42-.25-7.09-5.17-7.09Z"/><path class="cls-1" d="m322.78,376.14c6.04,0,8.79,5.1,8.79,9.98s-2.75,9.98-8.79,9.98-8.79-5.1-8.79-9.98,2.75-9.98,8.79-9.98Zm0,17.22c4.56,0,5.5-4.7,5.5-7.23s-.94-7.23-5.5-7.23-5.5,4.7-5.5,7.23.94,7.23,5.5,7.23Z"/><path class="cls-1" d="m338.81,395.6h-3.18v-18.92h3v3.15h.07c1.27-2.21,2.93-3.69,5.32-3.69.4,0,.58.04.83.11v3.29h-1.19c-2.97,0-4.85,2.32-4.85,5.06v11Z"/><path class="cls-1" d="m363.3,389.67c-.11.9-.98,3.58-3.36,5.17-.87.58-2.1,1.3-5.14,1.3-5.32,0-8.46-4.01-8.46-9.48,0-5.86,2.82-10.53,9.08-10.53,5.46,0,8.14,4.34,8.14,11.03h-13.82c0,3.94,1.85,6.22,5.5,6.22,3,0,4.78-2.32,4.88-3.73h3.18Zm-3.04-5.03c-.18-2.93-1.41-5.64-5.28-5.64-2.93,0-5.25,2.71-5.25,5.64h10.53Z"/><path class="cls-1" d="m393.48,389.67c-.11.9-.98,3.58-3.36,5.17-.87.58-2.1,1.3-5.14,1.3-5.32,0-8.46-4.01-8.46-9.48,0-5.86,2.82-10.53,9.08-10.53,5.46,0,8.14,4.34,8.14,11.03h-13.82c0,3.94,1.85,6.22,5.5,6.22,3,0,4.78-2.32,4.88-3.73h3.18Zm-3.04-5.03c-.18-2.93-1.41-5.64-5.28-5.64-2.93,0-5.25,2.71-5.25,5.64h10.53Z"/><path class="cls-1" d="m401.44,379.32v12.3c0,1.48,1.27,1.48,1.92,1.48h1.12v2.5c-1.16.11-2.06.25-2.39.25-3.15,0-3.83-1.77-3.83-4.05v-12.48h-2.57v-2.64h2.57v-5.28h3.18v5.28h3.04v2.64h-3.04Z"/><path class="cls-1" d="m433.35,395.6h-3v-2.6h-.07c-1.37,2.57-3.55,3.15-5.39,3.15-6.44,0-8.32-6.04-8.32-10.56,0-5.32,2.86-9.44,7.88-9.44,3.44,0,4.88,2.13,5.64,3.22l.07-.25v-9.48h3.18v25.97Zm-8.39-2.21c2.03,0,5.17-1.34,5.17-6.37,0-3.08-.51-8.03-5.1-8.03-4.92,0-5.17,4.67-5.17,7.09,0,4.16,1.63,7.31,5.1,7.31Z"/><path class="cls-1" d="m445.47,376.14c6.04,0,8.79,5.1,8.79,9.98s-2.75,9.98-8.79,9.98-8.79-5.1-8.79-9.98,2.75-9.98,8.79-9.98Zm0,17.22c4.56,0,5.5-4.7,5.5-7.23s-.94-7.23-5.5-7.23-5.5,4.7-5.5,7.23.94,7.23,5.5,7.23Z"/><path class="cls-1" d="m461.14,395.6h-3.18v-25.97h3.18v25.97Z"/><path class="cls-1" d="m473.62,376.14c6.04,0,8.79,5.1,8.79,9.98s-2.75,9.98-8.79,9.98-8.79-5.1-8.79-9.98,2.75-9.98,8.79-9.98Zm0,17.22c4.56,0,5.5-4.7,5.5-7.23s-.94-7.23-5.5-7.23-5.5,4.7-5.5,7.23.94,7.23,5.5,7.23Z"/><path class="cls-1" d="m489.65,395.6h-3.18v-18.92h3v3.15h.07c1.27-2.21,2.93-3.69,5.32-3.69.4,0,.58.04.83.11v3.29h-1.19c-2.97,0-4.85,2.32-4.85,5.06v11Z"/><path class="cls-1" d="m514.14,389.67c-.11.9-.98,3.58-3.36,5.17-.87.58-2.1,1.3-5.14,1.3-5.32,0-8.46-4.01-8.46-9.48,0-5.86,2.82-10.53,9.08-10.53,5.46,0,8.14,4.34,8.14,11.03h-13.82c0,3.94,1.85,6.22,5.5,6.22,3,0,4.78-2.32,4.88-3.73h3.18Zm-3.04-5.03c-.18-2.93-1.41-5.64-5.28-5.64-2.93,0-5.25,2.71-5.25,5.64h10.53Z"/><path class="cls-1" d="m528.25,376.68h3v2.68h.07c.69-1.01,2.32-3.22,5.71-3.22s4.48,2.06,5.03,3.07c1.59-1.77,2.86-3.07,5.79-3.07,2.03,0,5.86,1.05,5.86,6.37v13.09h-3.18v-12.23c0-2.6-.8-4.38-3.51-4.38s-4.45,2.53-4.45,5.06v11.54h-3.18v-13.09c0-1.59-.62-3.51-2.97-3.51-1.81,0-4.99,1.16-4.99,6.29v10.31h-3.18v-18.92Z"/><path class="cls-1" d="m558.28,382.43c.14-4.52,3.15-6.29,7.81-6.29,1.52,0,7.02.43,7.02,5.28v10.89c0,.8.4,1.12,1.05,1.12.29,0,.69-.07,1.05-.14v2.32c-.54.14-1.01.36-1.74.36-2.82,0-3.26-1.45-3.36-2.89-1.23,1.34-3.15,3.07-6.84,3.07-3.47,0-5.93-2.21-5.93-5.46,0-1.59.47-5.28,5.75-5.93l5.24-.65c.76-.07,1.66-.36,1.66-2.24,0-1.99-1.45-3.07-4.45-3.07-3.62,0-4.12,2.21-4.34,3.65h-2.93Zm11.65,3.51c-.51.4-1.3.69-5.25,1.19-1.55.22-4.05.69-4.05,3.07,0,2.06,1.05,3.29,3.44,3.29,2.97,0,5.86-1.92,5.86-4.45v-3.11Z"/><path class="cls-1" d="m594.21,394.04c0,2.71-.04,9.51-8.79,9.51-2.24,0-6.62-.62-7.23-5.64h3.18c.58,3,3.51,3,4.27,3,5.5,0,5.39-4.41,5.39-6.66v-.8h-.07v.14c-.83,1.34-2.5,2.53-5.03,2.53-6.44,0-8.32-6.04-8.32-10.56,0-5.32,2.86-9.44,7.88-9.44,3.44,0,4.88,2.13,5.64,3.22h.07v-2.68h3v17.36Zm-8.21-.65c2.02,0,5.17-1.34,5.17-6.37,0-3.08-.51-8.03-5.1-8.03-4.92,0-5.17,4.67-5.17,7.09,0,4.16,1.63,7.31,5.1,7.31Z"/><path class="cls-1" d="m614.04,395.6h-3.18v-11.65c0-3.29-.94-4.96-4.05-4.96-1.81,0-4.99,1.16-4.99,6.29v10.31h-3.18v-18.92h3v2.68h.07c.69-1.01,2.46-3.22,5.71-3.22,2.93,0,6.62,1.19,6.62,6.58v12.88Z"/><path class="cls-1" d="m618.64,382.43c.14-4.52,3.15-6.29,7.81-6.29,1.52,0,7.02.43,7.02,5.28v10.89c0,.8.4,1.12,1.05,1.12.29,0,.69-.07,1.05-.14v2.32c-.54.14-1.01.36-1.74.36-2.82,0-3.26-1.45-3.36-2.89-1.23,1.34-3.15,3.07-6.84,3.07-3.47,0-5.93-2.21-5.93-5.46,0-1.59.47-5.28,5.75-5.93l5.24-.65c.76-.07,1.66-.36,1.66-2.24,0-1.99-1.45-3.07-4.45-3.07-3.62,0-4.12,2.21-4.34,3.65h-2.93Zm11.65,3.51c-.51.4-1.3.69-5.25,1.19-1.55.22-4.05.69-4.05,3.07,0,2.06,1.05,3.29,3.44,3.29,2.97,0,5.86-1.92,5.86-4.45v-3.11Z"/><path class="cls-1" d="m648.81,382.43c.14-4.52,3.15-6.29,7.81-6.29,1.52,0,7.02.43,7.02,5.28v10.89c0,.8.4,1.12,1.05,1.12.29,0,.69-.07,1.05-.14v2.32c-.54.14-1.01.36-1.74.36-2.82,0-3.26-1.45-3.36-2.89-1.23,1.34-3.15,3.07-6.84,3.07-3.47,0-5.93-2.21-5.93-5.46,0-1.59.47-5.28,5.75-5.93l5.24-.65c.76-.07,1.66-.36,1.66-2.24,0-1.99-1.45-3.07-4.45-3.07-3.62,0-4.12,2.21-4.34,3.65h-2.93Zm11.65,3.51c-.51.4-1.3.69-5.25,1.19-1.55.22-4.05.69-4.05,3.07,0,2.06,1.05,3.29,3.44,3.29,2.97,0,5.86-1.92,5.86-4.45v-3.11Z"/><path class="cls-1" d="m672.29,395.6h-3.18v-25.97h3.18v25.97Z"/><path class="cls-1" d="m677.14,373.25v-3.62h3.18v3.62h-3.18Zm3.18,22.35h-3.18v-18.92h3.18v18.92Z"/><path class="cls-1" d="m700.62,403.09h-3.18v-9.48h-.07c-.83,1.34-2.49,2.53-5.03,2.53-6.44,0-8.32-6.04-8.32-10.56,0-5.32,2.86-9.44,7.88-9.44,3.44,0,4.88,2.13,5.64,3.22h.07v-2.68h3v26.41Zm-8.14-24.09c-4.92,0-5.17,4.67-5.17,7.09,0,4.16,1.63,7.31,5.1,7.31,2.03,0,5.17-1.34,5.17-6.37,0-3.08-.51-8.03-5.1-8.03Z"/><path class="cls-1" d="m717.55,395.6v-2.75l-.07-.07c-1.34,2.21-2.97,3.36-6,3.36-2.78,0-6.15-1.34-6.15-5.86v-13.6h3.18v12.55c0,3.11,1.59,4.16,3.65,4.16,4.01,0,5.21-3.55,5.21-6.29v-10.42h3.18v18.92h-3Z"/><path class="cls-1" d="m725.22,382.43c.14-4.52,3.15-6.29,7.81-6.29,1.52,0,7.02.43,7.02,5.28v10.89c0,.8.4,1.12,1.05,1.12.29,0,.69-.07,1.05-.14v2.32c-.54.14-1.01.36-1.74.36-2.82,0-3.26-1.45-3.36-2.89-1.23,1.34-3.15,3.07-6.84,3.07-3.47,0-5.93-2.21-5.93-5.46,0-1.59.47-5.28,5.75-5.93l5.24-.65c.76-.07,1.66-.36,1.66-2.24,0-1.99-1.45-3.07-4.45-3.07-3.62,0-4.12,2.21-4.34,3.65h-2.93Zm11.65,3.51c-.51.4-1.3.69-5.25,1.19-1.55.22-4.05.69-4.05,3.07,0,2.06,1.05,3.29,3.44,3.29,2.97,0,5.86-1.92,5.86-4.45v-3.11Z"/><path class="cls-1" d="m750.01,395.6h-3.76v-3.83h3.76v3.83Z"/><path class="cls-1" d="m784.34,369.63v16.86c0,5.32-3.33,9.8-10.45,9.8s-9.98-4.49-9.98-9.33v-17.33h3.51v16.35c0,5.64,3.44,7.2,6.58,7.2s6.84-1.48,6.84-7.13v-16.42h3.51Z"/><path class="cls-1" d="m793.42,379.32v12.3c0,1.48,1.27,1.48,1.92,1.48h1.12v2.5c-1.16.11-2.06.25-2.39.25-3.15,0-3.83-1.77-3.83-4.05v-12.48h-2.57v-2.64h2.57v-5.28h3.18v5.28h3.04v2.64h-3.04Z"/><path class="cls-1" d="m825.69,389.67c-.11.9-.98,3.58-3.36,5.17-.87.58-2.1,1.3-5.14,1.3-5.32,0-8.46-4.01-8.46-9.48,0-5.86,2.82-10.53,9.08-10.53,5.46,0,8.14,4.34,8.14,11.03h-13.82c0,3.94,1.85,6.22,5.5,6.22,3,0,4.78-2.32,4.88-3.73h3.18Zm-3.04-5.03c-.18-2.93-1.41-5.64-5.28-5.64-2.93,0-5.25,2.71-5.25,5.64h10.53Z"/><path class="cls-1" d="m845.16,395.6h-3.18v-11.65c0-3.29-.94-4.96-4.05-4.96-1.81,0-4.99,1.16-4.99,6.29v10.31h-3.18v-18.92h3v2.68h.07c.69-1.01,2.46-3.22,5.71-3.22,2.93,0,6.62,1.19,6.62,6.58v12.88Z"/><path class="cls-1" d="m849.94,373.25v-3.62h3.18v3.62h-3.18Zm3.18,22.35h-3.18v-18.92h3.18v18.92Z"/><path class="cls-1" d="m857.9,376.68h3v2.68h.07c.69-1.01,2.32-3.22,5.71-3.22s4.48,2.06,5.03,3.07c1.59-1.77,2.86-3.07,5.79-3.07,2.03,0,5.86,1.05,5.86,6.37v13.09h-3.18v-12.23c0-2.6-.8-4.38-3.51-4.38s-4.45,2.53-4.45,5.06v11.54h-3.18v-13.09c0-1.59-.62-3.51-2.97-3.51-1.81,0-4.99,1.16-4.99,6.29v10.31h-3.18v-18.92Z"/><path class="cls-1" d="m897.99,382.43c.14-4.52,3.15-6.29,7.81-6.29,1.52,0,7.02.43,7.02,5.28v10.89c0,.8.4,1.12,1.05,1.12.29,0,.69-.07,1.05-.14v2.32c-.54.14-1.01.36-1.74.36-2.82,0-3.26-1.45-3.36-2.89-1.23,1.34-3.15,3.07-6.84,3.07-3.47,0-5.93-2.21-5.93-5.46,0-1.59.47-5.28,5.75-5.93l5.24-.65c.76-.07,1.66-.36,1.66-2.24,0-1.99-1.45-3.07-4.45-3.07-3.62,0-4.12,2.21-4.34,3.65h-2.93Zm11.65,3.51c-.51.4-1.3.69-5.25,1.19-1.55.22-4.05.69-4.05,3.07,0,2.06,1.05,3.29,3.44,3.29,2.97,0,5.86-1.92,5.86-4.45v-3.11Z"/><path class="cls-1" d="m933.91,395.6h-3v-2.6h-.07c-1.37,2.57-3.55,3.15-5.39,3.15-6.44,0-8.32-6.04-8.32-10.56,0-5.32,2.86-9.44,7.88-9.44,3.44,0,4.88,2.13,5.64,3.22l.07-.25v-9.48h3.18v25.97Zm-8.39-2.21c2.03,0,5.17-1.34,5.17-6.37,0-3.08-.51-8.03-5.1-8.03-4.92,0-5.17,4.67-5.17,7.09,0,4.16,1.63,7.31,5.1,7.31Z"/><path class="cls-1" d="m948.38,376.68h3v2.68h.07c.69-1.01,2.32-3.22,5.71-3.22s4.48,2.06,5.03,3.07c1.59-1.77,2.86-3.07,5.79-3.07,2.03,0,5.86,1.05,5.86,6.37v13.09h-3.18v-12.23c0-2.6-.8-4.38-3.51-4.38s-4.45,2.53-4.45,5.06v11.54h-3.18v-13.09c0-1.59-.62-3.51-2.97-3.51-1.81,0-4.99,1.16-4.99,6.29v10.31h-3.18v-18.92Z"/><path class="cls-1" d="m978.6,373.25v-3.62h3.18v3.62h-3.18Zm3.18,22.35h-3.18v-18.92h3.18v18.92Z"/><path class="cls-1" d="m1001.96,395.6h-3.18v-11.65c0-3.29-.94-4.96-4.05-4.96-1.81,0-4.99,1.16-4.99,6.29v10.31h-3.18v-18.92h3v2.68h.07c.69-1.01,2.46-3.22,5.71-3.22,2.93,0,6.62,1.19,6.62,6.58v12.88Z"/><path class="cls-1" d="m1006.75,373.25v-3.62h3.18v3.62h-3.18Zm3.18,22.35h-3.18v-18.92h3.18v18.92Z"/><path class="cls-1" d="m1014.7,376.68h3v2.68h.07c.69-1.01,2.32-3.22,5.71-3.22s4.48,2.06,5.03,3.07c1.59-1.77,2.86-3.07,5.79-3.07,2.03,0,5.86,1.05,5.86,6.37v13.09h-3.18v-12.23c0-2.6-.8-4.38-3.51-4.38s-4.45,2.53-4.45,5.06v11.54h-3.18v-13.09c0-1.59-.62-3.51-2.97-3.51-1.81,0-4.99,1.16-4.99,6.29v10.31h-3.18v-18.92Z"/><path class="cls-1" d="m1066.87,376.68h3.47l-7.2,18.92h-3.4l-6.91-18.92h3.69l4.92,15.41h.07l5.35-15.41Z"/><path class="cls-1" d="m1088.15,389.67c-.11.9-.98,3.58-3.36,5.17-.87.58-2.1,1.3-5.14,1.3-5.32,0-8.46-4.01-8.46-9.48,0-5.86,2.82-10.53,9.08-10.53,5.46,0,8.14,4.34,8.14,11.03h-13.82c0,3.94,1.85,6.22,5.5,6.22,3,0,4.78-2.32,4.88-3.73h3.18Zm-3.04-5.03c-.18-2.93-1.41-5.64-5.28-5.64-2.93,0-5.25,2.71-5.25,5.64h10.53Z"/><path class="cls-1" d="m1107.61,395.6h-3.18v-11.65c0-3.29-.94-4.96-4.05-4.96-1.81,0-4.99,1.16-4.99,6.29v10.31h-3.18v-18.92h3v2.68h.07c.69-1.01,2.46-3.22,5.71-3.22,2.93,0,6.62,1.19,6.62,6.58v12.88Z"/><path class="cls-1" d="m1112.39,373.25v-3.62h3.18v3.62h-3.18Zm3.18,22.35h-3.18v-18.92h3.18v18.92Z"/><path class="cls-1" d="m1120.25,382.43c.14-4.52,3.15-6.29,7.81-6.29,1.52,0,7.02.43,7.02,5.28v10.89c0,.8.4,1.12,1.05,1.12.29,0,.69-.07,1.05-.14v2.32c-.54.14-1.01.36-1.74.36-2.82,0-3.26-1.45-3.36-2.89-1.23,1.34-3.15,3.07-6.84,3.07-3.47,0-5.93-2.21-5.93-5.46,0-1.59.47-5.28,5.75-5.93l5.24-.65c.76-.07,1.66-.36,1.66-2.24,0-1.99-1.45-3.07-4.45-3.07-3.62,0-4.12,2.21-4.34,3.65h-2.93Zm11.65,3.51c-.51.4-1.3.69-5.25,1.19-1.55.22-4.05.69-4.05,3.07,0,2.06,1.05,3.29,3.44,3.29,2.97,0,5.86-1.92,5.86-4.45v-3.11Z"/><path class="cls-1" d="m1140.47,376.68h3v2.68h.07c.69-1.01,2.32-3.22,5.71-3.22s4.48,2.06,5.03,3.07c1.59-1.77,2.86-3.07,5.79-3.07,2.03,0,5.86,1.05,5.86,6.37v13.09h-3.18v-12.23c0-2.6-.8-4.38-3.51-4.38s-4.45,2.53-4.45,5.06v11.54h-3.18v-13.09c0-1.59-.62-3.51-2.97-3.51-1.81,0-4.99,1.16-4.99,6.29v10.31h-3.18v-18.92Z"/><path class="cls-1" d="m1171.4,391.77h3.76v3.54c0,4.92-3.04,5.5-3.76,5.61v-1.66c1.52-.15,1.92-1.95,1.92-3.65h-1.92v-3.83Z"/><path class="cls-1" d="m1206.24,403.09h-3.18v-9.48h-.07c-.83,1.34-2.49,2.53-5.03,2.53-6.44,0-8.32-6.04-8.32-10.56,0-5.32,2.86-9.44,7.88-9.44,3.44,0,4.88,2.13,5.64,3.22h.07v-2.68h3v26.41Zm-8.14-24.09c-4.92,0-5.17,4.67-5.17,7.09,0,4.16,1.63,7.31,5.1,7.31,2.03,0,5.17-1.34,5.17-6.37,0-3.08-.51-8.03-5.1-8.03Z"/><path class="cls-1" d="m1223.18,395.6v-2.75l-.07-.07c-1.34,2.21-2.97,3.36-6,3.36-2.78,0-6.15-1.34-6.15-5.86v-13.6h3.18v12.55c0,3.11,1.59,4.16,3.65,4.16,4.01,0,5.21-3.55,5.21-6.29v-10.42h3.18v18.92h-3Z"/><path class="cls-1" d="m1231.03,373.25v-3.62h3.18v3.62h-3.18Zm3.18,22.35h-3.18v-18.92h3.18v18.92Z"/><path class="cls-1" d="m1249.73,382.07c-.04-1.19-.47-3.18-4.48-3.18-.98,0-3.76.33-3.76,2.68,0,1.55.98,1.92,3.44,2.53l3.18.8c3.94.98,5.32,2.42,5.32,4.99,0,3.91-3.22,6.26-7.49,6.26-7.49,0-8.03-4.34-8.14-6.62h3.07c.11,1.48.54,3.87,5.03,3.87,2.28,0,4.34-.9,4.34-3,0-1.52-1.05-2.03-3.76-2.71l-3.69-.9c-2.64-.65-4.38-1.99-4.38-4.59,0-4.16,3.44-6.04,7.16-6.04,6.77,0,7.24,4.99,7.24,5.93h-3.08Z"/><path class="cls-1" d="m1282.55,395.6h-3.18v-11.65c0-3.29-.94-4.96-4.05-4.96-1.81,0-4.99,1.16-4.99,6.29v10.31h-3.18v-18.92h3v2.68h.07c.69-1.01,2.46-3.22,5.71-3.22,2.93,0,6.62,1.19,6.62,6.58v12.88Z"/><path class="cls-1" d="m1294.96,376.14c6.04,0,8.79,5.1,8.79,9.98s-2.75,9.98-8.79,9.98-8.79-5.1-8.79-9.98,2.75-9.98,8.79-9.98Zm0,17.22c4.56,0,5.5-4.7,5.5-7.23s-.94-7.23-5.5-7.23-5.5,4.7-5.5,7.23.94,7.23,5.5,7.23Z"/><path class="cls-1" d="m1318.12,382.07c-.04-1.19-.47-3.18-4.48-3.18-.98,0-3.76.33-3.76,2.68,0,1.55.98,1.92,3.44,2.53l3.18.8c3.94.98,5.32,2.42,5.32,4.99,0,3.91-3.22,6.26-7.49,6.26-7.49,0-8.03-4.34-8.14-6.62h3.07c.11,1.48.54,3.87,5.03,3.87,2.28,0,4.34-.9,4.34-3,0-1.52-1.05-2.03-3.76-2.71l-3.69-.9c-2.64-.65-4.38-1.99-4.38-4.59,0-4.16,3.44-6.04,7.16-6.04,6.77,0,7.24,4.99,7.24,5.93h-3.08Z"/><path class="cls-1" d="m1329.37,379.32v12.3c0,1.48,1.27,1.48,1.92,1.48h1.12v2.5c-1.16.11-2.06.25-2.39.25-3.15,0-3.83-1.77-3.83-4.05v-12.48h-2.57v-2.64h2.57v-5.28h3.18v5.28h3.04v2.64h-3.04Z"/><path class="cls-1" d="m1339.14,395.6h-3.18v-18.92h3v3.15h.07c1.27-2.21,2.93-3.69,5.32-3.69.4,0,.58.04.83.11v3.29h-1.19c-2.97,0-4.85,2.32-4.85,5.06v11Z"/><path class="cls-1" d="m1360.45,395.6v-2.75l-.07-.07c-1.34,2.21-2.97,3.36-6,3.36-2.78,0-6.15-1.34-6.15-5.86v-13.6h3.18v12.55c0,3.11,1.59,4.16,3.65,4.16,4.01,0,5.21-3.55,5.21-6.29v-10.42h3.18v18.92h-3Z"/><path class="cls-1" d="m1383.93,395.6h-3v-2.6h-.07c-1.37,2.57-3.55,3.15-5.39,3.15-6.44,0-8.32-6.04-8.32-10.56,0-5.32,2.86-9.44,7.88-9.44,3.44,0,4.88,2.13,5.64,3.22l.07-.25v-9.48h3.18v25.97Zm-8.39-2.21c2.03,0,5.17-1.34,5.17-6.37,0-3.08-.51-8.03-5.1-8.03-4.92,0-5.17,4.67-5.17,7.09,0,4.16,1.63,7.31,5.1,7.31Z"/><path class="cls-2" d="m63.02,58.82h47.75v13.67h-15.34v38.41h-17.07v-38.41h-15.34v-13.67Z"/><path class="cls-2" d="m118,110.91v-52.09h17.07v17.58h16.13v-17.58h17.07v52.09h-17.07v-20.18h-16.13v20.18h-17.07Z"/><path class="cls-2" d="m178.77,110.91v-52.09h42.47v12.15h-25.39v7.45h21.49v12.15h-21.49v8.18h26.41v12.15h-43.48Z"/><path class="cls-2" d="m299.73,116.77l-7.09-7.16c-1.69.72-3.58,1.35-5.68,1.88-2.1.53-4.52.8-7.27.8-4.1,0-7.84-.63-11.21-1.88-3.38-1.25-6.26-3.09-8.65-5.5-2.39-2.41-4.22-5.34-5.5-8.79-1.28-3.45-1.92-7.34-1.92-11.68,0-4,.65-7.68,1.95-11.03,1.3-3.35,3.17-6.22,5.61-8.61,2.43-2.39,5.33-4.21,8.68-5.46,3.35-1.25,7.03-1.88,11.03-1.88s7.92.69,11.32,2.06c3.4,1.37,6.29,3.3,8.68,5.79,2.39,2.48,4.21,5.38,5.46,8.68,1.25,3.3,1.88,6.84,1.88,10.6,0,3.38-.51,6.69-1.52,9.95-1.01,3.25-2.53,6.14-4.56,8.64l5.93,6.01-7.16,7.6Zm-16.06-31.18l5.57,5.64c.48-1.74.72-3.95.72-6.66,0-4.44-.93-7.94-2.78-10.53-1.86-2.58-4.4-3.87-7.63-3.87-1.83,0-3.4.42-4.7,1.27s-2.35,1.95-3.15,3.33c-.79,1.37-1.36,2.91-1.7,4.59-.34,1.69-.51,3.42-.51,5.21s.16,3.61.47,5.32c.31,1.71.86,3.3,1.63,4.77.77,1.47,1.83,2.65,3.18,3.55,1.35.89,2.99,1.34,4.92,1.34.82,0,1.69-.17,2.61-.51l-5.86-5.86,7.24-7.6Z"/><path class="cls-2" d="m314.92,58.82h17.07v31.18c0,1.45.1,2.73.29,3.83.19,1.11.57,2.1,1.12,2.97.55.87,1.37,1.54,2.46,2.03,1.08.48,2.47.72,4.16.72,2.89,0,4.94-.83,6.15-2.5,1.2-1.66,1.81-4.02,1.81-7.05v-31.18h17.07v29.44c0,8.35-2,14.43-6,18.27s-10.35,5.75-19.03,5.75c-4.15,0-7.77-.42-10.85-1.27-3.09-.84-5.69-2.21-7.81-4.09-2.12-1.88-3.73-4.36-4.81-7.45-1.08-3.09-1.63-6.85-1.63-11.29v-29.37Z"/><path class="cls-2" d="m375.62,110.91v-52.09h17.07v52.09h-17.07Z"/><path class="cls-2" d="m435.81,78.72c-.24-2.7-1.18-4.8-2.82-6.29-1.64-1.49-3.79-2.24-6.44-2.24-3.04,0-5.4,1.29-7.09,3.87-1.69,2.58-2.53,6.35-2.53,11.32,0,2.03.14,3.86.43,5.5.29,1.64.79,3.12,1.52,4.45.72,1.33,1.77,2.36,3.15,3.11s3.1,1.12,5.17,1.12c2.6,0,4.63-.81,6.08-2.42,1.45-1.61,2.34-3.75,2.68-6.4h16.42c-.77,6.7-3.39,11.97-7.85,15.81s-10.14,5.75-17.04,5.75c-4.24,0-8.08-.63-11.5-1.88-3.43-1.25-6.34-3.09-8.75-5.5s-4.25-5.32-5.5-8.72c-1.25-3.4-1.88-7.2-1.88-11.39s.66-7.91,1.99-11.29c1.33-3.37,3.17-6.27,5.53-8.68,2.36-2.41,5.13-4.24,8.28-5.5,3.16-1.25,6.55-1.88,10.17-1.88,7.86,0,14.02,1.85,18.48,5.53s7.03,8.93,7.71,15.73h-16.21Z"/><path class="cls-2" d="m459.97,58.82h17.07v16.86l14.98-16.86h20.04l-19.03,19.6,21.05,32.48h-20.47l-12.52-20.76-4.05,4.27v16.49h-17.07v-52.09Z"/><path class="cls-2" d="m544.11,110.91v-52.09h24.89c3.14,0,5.96.21,8.47.61,2.51.41,4.7,1.11,6.58,2.1,1.88.99,3.35,2.34,4.41,4.05,1.06,1.71,1.59,3.82,1.59,6.33s-.66,4.67-1.99,6.62c-1.33,1.95-2.93,3.53-4.81,4.74,2.75.72,4.88,2.17,6.4,4.34,1.52,2.17,2.28,4.7,2.28,7.6s-.52,5.28-1.56,7.31c-1.04,2.03-2.53,3.65-4.49,4.88s-4.29,2.12-7.02,2.68c-2.72.55-5.85.83-9.37.83h-25.39Zm17.07-39.93v8.68h7.09c1.74,0,3.15-.4,4.23-1.19s1.63-1.92,1.63-3.36c0-1.83-.57-2.98-1.7-3.44-1.13-.46-2.88-.69-5.24-.69h-6.01Zm0,18.16v9.62h7.45c2.36,0,4.18-.35,5.46-1.05,1.28-.7,1.92-1.94,1.92-3.73,0-2.07-.76-3.4-2.28-3.98s-3.89-.87-7.13-.87h-5.43Z"/><path class="cls-2" d="m616.67,92.75v18.16h-17.07v-52.09h24.6c8.49,0,14.46,1.17,17.91,3.51,3.45,2.34,5.17,6.11,5.17,11.32,0,3.14-.74,5.84-2.21,8.1s-3.65,3.81-6.55,4.63c1.74.63,3.07,1.19,4.02,1.7.94.51,1.78,1.22,2.53,2.13.75.92,1.31,2.17,1.7,3.76.39,1.59.58,3.67.58,6.22,0,3.91.1,6.4.29,7.49.19,1.08.7,1.63,1.52,1.63v1.59h-17.29c-.24-.63-.45-1.77-.61-3.44-.17-1.66-.25-3.56-.25-5.68,0-1.83-.11-3.3-.33-4.41-.22-1.11-.64-2-1.27-2.68-.63-.67-1.53-1.17-2.71-1.48-1.18-.31-2.78-.47-4.81-.47h-5.21Zm0-11.43h6.73c2.75,0,4.78-.39,6.11-1.16,1.32-.77,1.99-2.03,1.99-3.76s-.63-3.13-1.88-4.05c-1.25-.92-2.92-1.37-4.99-1.37h-7.96v10.35Z"/><path class="cls-2" d="m693.46,59.65c3.45,1.47,6.32,3.5,8.61,6.08,2.29,2.58,4,5.49,5.14,8.72,1.13,3.23,1.7,6.61,1.7,10.13,0,4.34-.69,8.24-2.06,11.68-1.37,3.45-3.3,6.37-5.79,8.75-2.48,2.39-5.39,4.2-8.72,5.43s-6.92,1.85-10.78,1.85c-4.05,0-7.75-.62-11.1-1.85s-6.23-3.05-8.64-5.46c-2.41-2.41-4.27-5.35-5.57-8.83-1.3-3.47-1.95-7.38-1.95-11.72,0-4,.65-7.68,1.95-11.03,1.3-3.35,3.17-6.22,5.61-8.61,2.43-2.39,5.33-4.21,8.68-5.46,3.35-1.25,7.03-1.88,11.03-1.88,4.49,0,8.45.74,11.9,2.21Zm-16.75,11.79c-1.3.84-2.35,1.95-3.15,3.33-.79,1.37-1.36,2.91-1.7,4.59-.34,1.69-.51,3.42-.51,5.21s.16,3.61.47,5.32c.31,1.71.86,3.3,1.63,4.77.77,1.47,1.83,2.65,3.18,3.55,1.35.89,2.99,1.34,4.92,1.34,3.52,0,6.11-1.35,7.78-4.05,1.66-2.7,2.49-6.34,2.49-10.92,0-1.83-.19-3.6-.58-5.32-.39-1.71-1-3.26-1.85-4.63-.84-1.37-1.93-2.46-3.25-3.25-1.33-.8-2.91-1.19-4.74-1.19s-3.4.42-4.7,1.27Z"/><path class="cls-2" d="m761.14,91.01h.14l5.86-32.19h16.49l-12.95,52.09h-16.78l-6-30.24h-.14l-5.93,30.24h-16.78l-12.95-52.09h16.5l5.86,32.19h.15l6.22-32.19h14.11l6.22,32.19Z"/><path class="cls-2" d="m823.65,87.25l-.65-11.86v-16.57h16.35v52.09h-15.99l-18.59-28.36.65,11.86v16.49h-16.35v-52.09h15.99l18.59,28.43Z"/><path class="cls-2" d="m873.78,110.91v-52.09h40.51v12.15h-23.44v9.48h18.66v12.15h-18.66v18.3h-17.07Z"/><path class="cls-2" d="m958.68,59.65c3.45,1.47,6.32,3.5,8.61,6.08,2.29,2.58,4,5.49,5.14,8.72,1.13,3.23,1.7,6.61,1.7,10.13,0,4.34-.69,8.24-2.06,11.68-1.37,3.45-3.3,6.37-5.79,8.75-2.48,2.39-5.39,4.2-8.72,5.43s-6.92,1.85-10.78,1.85c-4.05,0-7.75-.62-11.1-1.85s-6.23-3.05-8.64-5.46c-2.41-2.41-4.27-5.35-5.57-8.83-1.3-3.47-1.95-7.38-1.95-11.72,0-4,.65-7.68,1.95-11.03,1.3-3.35,3.17-6.22,5.61-8.61,2.43-2.39,5.33-4.21,8.68-5.46,3.35-1.25,7.03-1.88,11.03-1.88,4.49,0,8.45.74,11.9,2.21Zm-16.75,11.79c-1.3.84-2.35,1.95-3.15,3.33-.79,1.37-1.36,2.91-1.7,4.59-.34,1.69-.51,3.42-.51,5.21s.16,3.61.47,5.32c.31,1.71.86,3.3,1.63,4.77.77,1.47,1.83,2.65,3.18,3.55,1.35.89,2.99,1.34,4.92,1.34,3.52,0,6.11-1.35,7.78-4.05,1.66-2.7,2.49-6.34,2.49-10.92,0-1.83-.19-3.6-.58-5.32-.39-1.71-1-3.26-1.85-4.63-.84-1.37-1.93-2.46-3.25-3.25-1.33-.8-2.91-1.19-4.74-1.19s-3.4.42-4.7,1.27Z"/><path class="cls-2" d="m996.69,110.91h-19.17l18.45-27.06-16.64-25.03h19.17l7.38,13.31,7.45-13.31h19.17l-17.58,25.03,17.73,27.06h-19.17l-8.39-14.61-8.39,14.61Z"/><path class="cls-2" d="m77.92,172.67c0,1.83.04,3.34.11,4.52.07,1.18.24,2.29.51,3.33.26,1.04.71,1.87,1.34,2.5.63.63,1.47.94,2.53.94,1.35,0,2.41-.55,3.18-1.66.77-1.11,1.16-2.68,1.16-4.7v-34.36h17.07v31.98c0,6.99-1.69,12.32-5.07,15.99-3.38,3.67-8.46,5.5-15.27,5.5s-12.1-1.72-15.63-5.17c-3.52-3.45-5.28-8.5-5.28-15.16,0-1.16.05-2.39.14-3.69h15.19Z"/><path class="cls-2" d="m114.1,143.22h17.07v31.18c0,1.45.1,2.73.29,3.83.19,1.11.57,2.1,1.12,2.97.55.87,1.37,1.54,2.46,2.03,1.08.48,2.47.72,4.16.72,2.89,0,4.94-.83,6.15-2.5,1.2-1.66,1.81-4.02,1.81-7.05v-31.18h17.07v29.44c0,8.35-2,14.43-6,18.27s-10.35,5.75-19.03,5.75c-4.15,0-7.77-.42-10.85-1.27-3.09-.84-5.69-2.21-7.81-4.09-2.12-1.88-3.73-4.36-4.81-7.45-1.08-3.09-1.63-6.85-1.63-11.29v-29.37Z"/><path class="cls-2" d="m173.64,195.31v-52.09h20.62l9.19,32.48,9.19-32.48h20.62v52.09h-15.34v-15.92l.22-8.1.87-9.4h-.15l-9.48,33.42h-11.86l-9.48-33.42h-.14l.72,7.67.36,8.1v17.65h-15.34Z"/><path class="cls-2" d="m241.71,195.31v-52.09h25.1c7.33,0,12.87,1.56,16.6,4.67,3.74,3.11,5.61,7.42,5.61,12.91,0,5.79-1.79,10.29-5.35,13.49-3.57,3.21-9,4.81-16.28,4.81h-8.61v16.21h-17.07Zm24.16-28.36c2.12,0,3.8-.48,5.03-1.45,1.23-.96,1.85-2.51,1.85-4.63,0-1.16-.29-2.1-.87-2.82-.58-.72-1.32-1.28-2.21-1.66-.89-.38-1.86-.65-2.9-.8s-2.09-.22-3.14-.22h-4.85v11.58h7.09Z"/><path class="cls-2" d="m322.01,158.34c-.24-1.64-1.06-2.82-2.46-3.55-1.21-.63-2.68-.94-4.41-.94-3.62,0-5.43.99-5.43,2.97,0,1.35.81,2.4,2.42,3.15,1.61.75,4.18,1.53,7.71,2.35,3.04.77,5.56,1.48,7.56,2.13,2,.65,3.95,1.57,5.86,2.75,1.9,1.18,3.45,2.71,4.63,4.59,1.18,1.88,1.77,4.2,1.77,6.95,0,5.84-2.21,10.29-6.62,13.35-4.41,3.06-10.33,4.59-17.76,4.59-3.33,0-6.4-.46-9.22-1.37-2.82-.92-5.24-2.18-7.27-3.8-2.03-1.62-3.61-3.47-4.74-5.57s-1.75-4.33-1.85-6.69h16.35c.34,1.83,1.28,3.21,2.82,4.12,1.4.87,3.01,1.3,4.85,1.3,2.17,0,3.89-.34,5.17-1.01,1.28-.67,1.92-1.61,1.92-2.82,0-1.35-.78-2.39-2.35-3.11-1.57-.72-4.11-1.49-7.63-2.31-3.04-.72-5.57-1.41-7.6-2.06-2.03-.65-4-1.58-5.93-2.79-1.93-1.2-3.49-2.8-4.67-4.77-1.18-1.98-1.77-4.41-1.77-7.31,0-5.35,2.07-9.46,6.22-12.33s9.6-4.31,16.35-4.31c3.52,0,6.62.42,9.3,1.27s4.92,2.01,6.73,3.51c1.81,1.5,3.23,3.24,4.27,5.24,1.04,2,1.7,4.16,1.99,6.48h-16.21Z"/><path class="cls-2" d="m408.14,144.05c3.45,1.47,6.32,3.5,8.61,6.08,2.29,2.58,4,5.49,5.14,8.72,1.13,3.23,1.7,6.61,1.7,10.13,0,4.34-.69,8.24-2.06,11.68-1.37,3.45-3.3,6.37-5.79,8.75-2.48,2.39-5.39,4.2-8.72,5.43s-6.92,1.85-10.78,1.85c-4.05,0-7.75-.62-11.1-1.85s-6.23-3.05-8.64-5.46c-2.41-2.41-4.27-5.35-5.57-8.83-1.3-3.47-1.95-7.38-1.95-11.72,0-4,.65-7.68,1.95-11.03,1.3-3.35,3.17-6.22,5.61-8.61,2.43-2.39,5.33-4.21,8.68-5.46,3.35-1.25,7.03-1.88,11.03-1.88,4.49,0,8.45.74,11.9,2.21Zm-16.75,11.79c-1.3.84-2.35,1.95-3.15,3.33-.79,1.37-1.36,2.91-1.7,4.59-.34,1.69-.51,3.42-.51,5.21s.16,3.61.47,5.32c.31,1.71.86,3.3,1.63,4.77.77,1.47,1.83,2.65,3.18,3.55,1.35.89,2.99,1.34,4.92,1.34,3.52,0,6.11-1.35,7.78-4.05,1.66-2.7,2.49-6.34,2.49-10.92,0-1.83-.19-3.6-.58-5.32-.39-1.71-1-3.26-1.85-4.63-.84-1.37-1.93-2.46-3.25-3.25-1.33-.8-2.91-1.19-4.74-1.19s-3.4.42-4.7,1.27Z"/><path class="cls-2" d="m428,143.22h17.22l9.11,34.65,9.48-34.65h17.22l-18.09,52.09h-17.15l-17.8-52.09Z"/><path class="cls-2" d="m488.18,195.31v-52.09h42.47v12.15h-25.39v7.45h21.49v12.15h-21.49v8.18h26.41v12.15h-43.48Z"/><path class="cls-2" d="m556.41,177.15v18.16h-17.07v-52.09h24.6c8.49,0,14.46,1.17,17.91,3.51,3.45,2.34,5.17,6.11,5.17,11.32,0,3.14-.74,5.84-2.21,8.1s-3.65,3.81-6.55,4.63c1.74.63,3.07,1.19,4.02,1.7.94.51,1.78,1.22,2.53,2.13.75.92,1.31,2.17,1.7,3.76.39,1.59.58,3.67.58,6.22,0,3.91.1,6.4.29,7.49.19,1.08.7,1.63,1.52,1.63v1.59h-17.29c-.24-.63-.45-1.77-.61-3.44-.17-1.66-.25-3.56-.25-5.68,0-1.83-.11-3.3-.33-4.41-.22-1.11-.64-2-1.27-2.68-.63-.67-1.53-1.17-2.71-1.48-1.18-.31-2.78-.47-4.81-.47h-5.21Zm0-11.43h6.73c2.75,0,4.78-.39,6.11-1.16,1.32-.77,1.99-2.03,1.99-3.76s-.63-3.13-1.88-4.05c-1.25-.92-2.92-1.37-4.99-1.37h-7.96v10.35Z"/><path class="cls-2" d="m617.54,143.22h47.75v13.67h-15.34v38.41h-17.07v-38.41h-15.34v-13.67Z"/><path class="cls-2" d="m672.52,195.31v-52.09h17.07v17.58h16.13v-17.58h17.07v52.09h-17.07v-20.18h-16.13v20.18h-17.07Z"/><path class="cls-2" d="m733.29,195.31v-52.09h42.47v12.15h-25.39v7.45h21.49v12.15h-21.49v8.18h26.41v12.15h-43.48Z"/><path class="cls-2" d="m809.61,195.31v-52.09h17.07v39.93h23.44v12.15h-40.51Z"/><path class="cls-2" d="m853.16,195.31l18.67-52.09h17.36l18.67,52.09h-17l-2.03-6.87h-17l-1.95,6.87h-16.71Zm27.2-36.39l-5.28,18.67h10.78l-5.5-18.67Z"/><path class="cls-2" d="m911.25,195.31v-12.37l24.96-27.56h-23.95v-12.15h44.93v12.08l-25.32,27.85h26.33v12.15h-46.95Z"/><path class="cls-2" d="m997.56,195.31h-17.07v-18.95l-19.39-33.13h19.1l8.97,17.65,8.97-17.65h18.81l-19.39,32.84v19.24Z"/><path class="cls-2" d="m1045.96,195.31v-52.09h22.86c8.63,0,15.32,2.06,20.08,6.18,4.75,4.12,7.13,10.38,7.13,18.77,0,4.82-.64,8.96-1.92,12.41-1.28,3.45-3.12,6.26-5.54,8.43-2.41,2.17-5.31,3.76-8.68,4.78s-7.21,1.52-11.5,1.52h-22.43Zm17.07-12.15h3.62c4.05,0,7.11-1.13,9.19-3.4,2.07-2.27,3.11-5.81,3.11-10.63,0-5.3-.94-8.92-2.82-10.85-1.88-1.93-5.16-2.89-9.84-2.89h-3.25v27.78Z"/><path class="cls-2" d="m1139.53,144.05c3.45,1.47,6.32,3.5,8.61,6.08,2.29,2.58,4,5.49,5.14,8.72,1.13,3.23,1.7,6.61,1.7,10.13,0,4.34-.69,8.24-2.06,11.68-1.37,3.45-3.3,6.37-5.79,8.75-2.48,2.39-5.39,4.2-8.72,5.43s-6.92,1.85-10.78,1.85c-4.05,0-7.75-.62-11.1-1.85s-6.23-3.05-8.64-5.46c-2.41-2.41-4.27-5.35-5.57-8.83-1.3-3.47-1.95-7.38-1.95-11.72,0-4,.65-7.68,1.95-11.03,1.3-3.35,3.17-6.22,5.61-8.61,2.43-2.39,5.33-4.21,8.68-5.46,3.35-1.25,7.03-1.88,11.03-1.88,4.49,0,8.45.74,11.9,2.21Zm-16.75,11.79c-1.3.84-2.35,1.95-3.15,3.33-.79,1.37-1.36,2.91-1.7,4.59-.34,1.69-.51,3.42-.51,5.21s.16,3.61.47,5.32c.31,1.71.86,3.3,1.63,4.77.77,1.47,1.83,2.65,3.18,3.55,1.35.89,2.99,1.34,4.92,1.34,3.52,0,6.11-1.35,7.78-4.05,1.66-2.7,2.49-6.34,2.49-10.92,0-1.83-.19-3.6-.58-5.32-.39-1.71-1-3.26-1.85-4.63-.84-1.37-1.93-2.46-3.25-3.25-1.33-.8-2.91-1.19-4.74-1.19s-3.4.42-4.7,1.27Z"/><path class="cls-2" d="m1213.22,195.46h-11l-.65-5.14c-1.59,1.88-3.67,3.41-6.22,4.59-2.56,1.18-5.71,1.77-9.48,1.77-3.42,0-6.64-.55-9.66-1.66-3.01-1.11-5.71-2.79-8.07-5.03-2.36-2.24-4.21-5.05-5.54-8.43-1.33-3.38-1.99-7.26-1.99-11.65,0-4.15.63-7.93,1.88-11.36s3.07-6.39,5.46-8.9c2.39-2.51,5.27-4.44,8.64-5.79,3.38-1.35,7.14-2.03,11.28-2.03,6.46,0,11.94,1.66,16.42,4.99,4.49,3.33,7.24,8.1,8.25,14.32h-16.2c-.63-2.12-1.69-3.75-3.18-4.88-1.5-1.13-3.35-1.7-5.57-1.7-3.28,0-5.75,1.36-7.42,4.09-1.66,2.72-2.5,6.45-2.5,11.18,0,1.98.18,3.8.54,5.46.36,1.66.95,3.15,1.77,4.45.82,1.3,1.94,2.33,3.36,3.08,1.42.75,3.17,1.12,5.24,1.12,1.83,0,3.64-.57,5.43-1.7,1.78-1.13,2.89-2.57,3.33-4.31h-7.52v-11.29h23.37v28.79Z"/><path class="cls-2" d="m64.58,241.99c1.18-3.3,2.8-5.98,4.85-8.03,2.05-2.05,4.39-3.56,7.02-4.52s5.46-1.45,8.5-1.45c6.8,0,12.18,2.21,16.13,6.62,3.95,4.41,5.93,10.77,5.93,19.06,0,3.81-.4,7.33-1.19,10.56-.8,3.23-2.05,6.09-3.76,8.57-1.71,2.48-3.99,4.44-6.84,5.86-2.85,1.42-6.27,2.13-10.27,2.13s-7.43-.7-10.27-2.1c-2.85-1.4-5.14-3.33-6.87-5.79-1.74-2.46-3-5.32-3.8-8.57-.8-3.25-1.19-6.79-1.19-10.6,0-4.53.59-8.45,1.77-11.76Zm25.76,23.51c1.08-2.68,1.63-6.35,1.63-11.03,0-2.17-.06-4.08-.18-5.72-.12-1.64-.41-3.18-.87-4.63s-1.18-2.62-2.17-3.51c-.99-.89-2.3-1.34-3.94-1.34s-2.87.53-3.83,1.59c-.97,1.06-1.66,2.39-2.1,3.98s-.71,3.17-.83,4.74c-.12,1.57-.18,3.24-.18,5.03,0,4.87.5,8.57,1.52,11.11,1.01,2.53,2.87,3.8,5.57,3.8,2.51,0,4.31-1.34,5.39-4.02Z"/><path class="cls-2" d="m142.96,279.71h-15.05v-29.73h-11.79v-10.27c4.29-.1,7.74-1.02,10.35-2.79s4.29-4.74,5.06-8.93h11.43v51.73Z"/><path class="cls-2" d="m161.34,279.71c0-3.04.51-5.68,1.52-7.92,1.01-2.24,2.53-4.43,4.56-6.55,1.45-1.54,3.03-2.94,4.74-4.2,1.71-1.25,3.8-2.68,6.26-4.27,3.76-2.46,6.52-4.56,8.28-6.29,1.76-1.74,2.64-3.76,2.64-6.08,0-1.54-.62-2.79-1.85-3.73-1.23-.94-2.67-1.41-4.31-1.41-2.6,0-4.49.9-5.64,2.71-1.16,1.81-1.74,4.16-1.74,7.05h-13.53c.1-7.23,2.01-12.55,5.75-15.95,3.74-3.4,9.03-5.1,15.88-5.1,2.75,0,5.34.31,7.78.94,2.43.63,4.62,1.6,6.55,2.93,1.93,1.33,3.44,3.05,4.52,5.17,1.08,2.12,1.63,4.61,1.63,7.45,0,2.03-.34,3.83-1.01,5.43-.68,1.59-1.58,2.99-2.71,4.2-1.13,1.21-2.35,2.27-3.65,3.18-1.3.92-2.96,2-4.99,3.25l-1.16.72c-1.06.68-2.68,1.62-4.85,2.82-2.61,1.49-4.41,2.6-5.43,3.33h23.66v12.3h-42.9Z"/><path class="cls-2" d="m222.25,261.99c0,2.36.6,4.2,1.81,5.5,1.25,1.35,3.06,2.03,5.43,2.03,2.12,0,3.77-.59,4.96-1.77,1.18-1.18,1.77-2.57,1.77-4.16,0-1.3-.26-2.34-.8-3.11-.53-.77-1.24-1.34-2.13-1.7-.89-.36-1.85-.59-2.86-.69-1.01-.1-2.22-.14-3.62-.14v-8.9h.65c.29.05.53.07.72.07,2.07,0,3.86-.41,5.35-1.23,1.49-.82,2.24-2.17,2.24-4.05,0-1.54-.57-2.69-1.7-3.44s-2.54-1.12-4.23-1.12c-1.83,0-3.34.46-4.52,1.37-1.18.92-1.87,2.27-2.06,4.05h-13.6c.14-2.84.78-5.33,1.92-7.45,1.13-2.12,2.64-3.87,4.52-5.24,1.88-1.37,4.03-2.39,6.44-3.04s4.99-.98,7.74-.98c6.03,0,10.81,1.29,14.32,3.87,3.52,2.58,5.28,6.04,5.28,10.38,0,4.77-1.98,8.13-5.93,10.06,2.32.92,4.11,2.29,5.39,4.12,1.28,1.83,1.92,4,1.92,6.51,0,5.79-2.01,10.21-6.04,13.28-4.03,3.06-9.54,4.59-16.53,4.59-6.17,0-11.15-1.59-14.94-4.77s-5.68-7.86-5.68-14.03h14.18Z"/><path class="cls-2" d="m255.6,257l23.8-28.29h14.04v29.15h6.37v11.21h-6.37v10.63h-14.32v-10.63h-23.51v-12.08Zm11.36.87h12.15v-15.55l-12.15,15.55Z"/><path class="cls-2" d="m311.02,228.71h32.7v12.3h-22.14l-1.66,7.67c1.49-1.06,3.09-1.78,4.78-2.17,1.69-.39,3.62-.58,5.79-.58,5.02,0,9.14,1.42,12.37,4.27,1.59,1.4,2.82,3.1,3.69,5.1.87,2,1.3,4.26,1.3,6.76,0,3.38-.61,6.28-1.85,8.72-1.23,2.44-2.92,4.39-5.06,5.86-2.15,1.47-4.57,2.53-7.27,3.18-2.7.65-5.6.98-8.68.98-5.55,0-10.12-1.22-13.71-3.65-3.59-2.43-6.11-6.02-7.56-10.74l15.12-1.52s.02.12.07.22c.05.14.07.24.07.29.43,1.3,1.27,2.31,2.5,3.04,1.23.72,2.57,1.08,4.02,1.08,2.17,0,3.93-.64,5.28-1.92,1.35-1.28,2.03-2.88,2.03-4.81,0-2.22-.55-4-1.66-5.35-1.11-1.35-2.75-2.03-4.92-2.03-1.3,0-2.51.22-3.62.65-1.11.43-1.93,1.16-2.46,2.17l-14.18-.51,5.06-29.01Z"/><path class="cls-2" d="m381.34,242.31c-.39-1.35-1.11-2.36-2.17-3.04-1.06-.67-2.36-1.01-3.91-1.01-2.6,0-4.56,1.06-5.86,3.18-1.3,2.12-1.95,4.97-1.95,8.54,1.98-1.4,3.85-2.36,5.61-2.89,1.76-.53,3.87-.8,6.33-.8,2.85,0,5.36.49,7.56,1.48s4,2.29,5.43,3.91,2.48,3.39,3.18,5.32c.7,1.93,1.05,3.86,1.05,5.79,0,3.04-.51,5.69-1.52,7.96-1.01,2.27-2.45,4.15-4.31,5.64s-4.02,2.6-6.47,3.33-5.16,1.08-8.1,1.08c-7.67,0-13.58-2.17-17.73-6.51-4.15-4.34-6.22-11.02-6.22-20.04,0-3.91.5-7.48,1.48-10.71.99-3.23,2.45-6,4.38-8.32,1.93-2.31,4.28-4.1,7.05-5.35,2.77-1.25,5.89-1.88,9.37-1.88,2.51,0,4.88.23,7.13.69,2.24.46,4.31,1.21,6.18,2.24,1.88,1.04,3.47,2.42,4.78,4.16,1.3,1.74,2.22,3.86,2.75,6.37l-14.03.87Zm-11.5,15.92c-1.16,1.35-1.74,3.09-1.74,5.21,0,1.83.68,3.39,2.03,4.67s2.94,1.92,4.78,1.92c2.17,0,3.82-.63,4.96-1.88,1.13-1.25,1.7-2.99,1.7-5.21,0-2.03-.59-3.66-1.77-4.92-1.18-1.25-2.71-1.88-4.59-1.88-2.41.05-4.2.75-5.35,2.1Z"/><path class="cls-2" d="m402.61,241.01v-12.3h41.02v11.43c-2.31,1.88-4.46,4.18-6.44,6.91-1.98,2.73-3.71,5.81-5.21,9.26-1.5,3.45-2.69,7.16-3.58,11.14-.89,3.98-1.41,8.07-1.56,12.26h-15.63c.77-8.05,2.7-15.26,5.79-21.63,3.09-6.37,7.02-12.06,11.79-17.07h-26.19Z"/><path class="cls-2" d="m452.16,248.93c-1.06-1.47-1.59-3.65-1.59-6.55,0-2.36.55-4.46,1.66-6.29,1.11-1.83,2.64-3.35,4.59-4.56,1.95-1.2,4.18-2.1,6.69-2.68s5.16-.87,7.96-.87,5.47.35,7.88,1.05c2.41.7,4.5,1.68,6.26,2.93,1.76,1.25,3.11,2.75,4.05,4.49.94,1.74,1.41,3.62,1.41,5.64,0,2.56-.54,4.73-1.63,6.51-1.08,1.78-2.78,3.14-5.1,4.05,2.8,1.06,4.92,2.58,6.37,4.56,1.45,1.98,2.17,4.44,2.17,7.38,0,5.06-2.05,9.04-6.15,11.94-1.93,1.4-4.24,2.46-6.95,3.18-2.7.72-5.64,1.08-8.82,1.08s-5.89-.33-8.54-.98c-2.65-.65-5-1.65-7.05-3-2.05-1.35-3.64-3.05-4.78-5.1-1.13-2.05-1.7-4.42-1.7-7.13,0-2.89.69-5.22,2.06-6.98,1.37-1.76,3.44-3.29,6.19-4.59-2.27-1.25-3.93-2.62-4.99-4.09Zm24.42,19.1c.84-1.08,1.27-2.47,1.27-4.16,0-2.03-.63-3.63-1.88-4.81-1.26-1.18-2.89-1.77-4.92-1.77-2.17,0-3.9.57-5.17,1.7-1.28,1.13-1.92,2.79-1.92,4.96,0,1.98.68,3.5,2.03,4.56,1.35,1.06,3.01,1.59,4.99,1.59.63,0,1.25-.05,1.88-.15,1.64-.19,2.88-.83,3.72-1.92Zm-1.23-20.33c1.23-.94,1.85-2.28,1.85-4.02s-.59-3.03-1.77-4.02c-1.18-.99-2.67-1.48-4.45-1.48-1.93,0-3.5.48-4.7,1.45-1.21.97-1.81,2.36-1.81,4.2s.6,3.11,1.81,3.98c1.21.87,2.72,1.3,4.56,1.3s3.29-.47,4.52-1.41Z"/><path class="cls-2" d="m512.14,266.48c.38,1.35,1.11,2.36,2.17,3.04,1.06.68,2.36,1.01,3.91,1.01,2.65,0,4.62-1.06,5.9-3.18,1.28-2.12,1.92-4.97,1.92-8.54-1.98,1.4-3.85,2.36-5.61,2.89-1.76.53-3.87.8-6.33.8-2.85,0-5.35-.49-7.52-1.48-2.17-.99-3.98-2.29-5.43-3.91-1.45-1.61-2.52-3.4-3.22-5.35-.7-1.95-1.05-3.87-1.05-5.75,0-3.04.51-5.69,1.52-7.96,1.01-2.27,2.45-4.15,4.31-5.64,1.86-1.49,4.02-2.6,6.47-3.33,2.46-.72,5.16-1.08,8.1-1.08,7.67,0,13.58,2.17,17.72,6.51,4.15,4.34,6.22,11.02,6.22,20.04,0,3.91-.5,7.48-1.48,10.71-.99,3.23-2.45,6.01-4.38,8.32-1.93,2.31-4.28,4.1-7.05,5.35s-5.89,1.88-9.37,1.88c-2.51,0-4.88-.23-7.13-.69-2.24-.46-4.31-1.2-6.18-2.24-1.88-1.04-3.47-2.42-4.78-4.16-1.3-1.74-2.22-3.86-2.75-6.37l14.04-.87Zm11.54-15.99c1.13-1.35,1.7-3.09,1.7-5.21,0-1.83-.68-3.39-2.02-4.67-1.35-1.28-2.94-1.92-4.78-1.92-2.17,0-3.82.63-4.96,1.88-1.13,1.25-1.7,2.99-1.7,5.21,0,2.03.59,3.67,1.77,4.92,1.18,1.25,2.71,1.88,4.59,1.88,2.46-.05,4.26-.75,5.39-2.1Z"/><path class="cls-2" d="m547.11,241.99c1.18-3.3,2.8-5.98,4.85-8.03,2.05-2.05,4.39-3.56,7.02-4.52s5.46-1.45,8.5-1.45c6.8,0,12.18,2.21,16.13,6.62,3.95,4.41,5.93,10.77,5.93,19.06,0,3.81-.4,7.33-1.19,10.56-.8,3.23-2.05,6.09-3.76,8.57-1.71,2.48-3.99,4.44-6.84,5.86-2.85,1.42-6.27,2.13-10.27,2.13s-7.43-.7-10.27-2.1c-2.85-1.4-5.14-3.33-6.87-5.79-1.74-2.46-3-5.32-3.8-8.57-.8-3.25-1.19-6.79-1.19-10.6,0-4.53.59-8.45,1.77-11.76Zm25.76,23.51c1.08-2.68,1.63-6.35,1.63-11.03,0-2.17-.06-4.08-.18-5.72-.12-1.64-.41-3.18-.87-4.63s-1.18-2.62-2.17-3.51c-.99-.89-2.3-1.34-3.94-1.34s-2.87.53-3.83,1.59c-.97,1.06-1.66,2.39-2.1,3.98s-.71,3.17-.83,4.74c-.12,1.57-.18,3.24-.18,5.03,0,4.87.5,8.57,1.52,11.11,1.01,2.53,2.87,3.8,5.57,3.8,2.51,0,4.31-1.34,5.39-4.02Z"/></svg>