<?xml version="1.0" encoding="UTF-8"?><svg id="Layer_1" xmlns="http://www.w3.org/2000/svg" viewBox="0 0 1920 898.42"><defs><style>.cls-1{fill:none;}.cls-1,.cls-2,.cls-3,.cls-4,.cls-5,.cls-6{stroke-width:0px;}.cls-2{fill:#1f2121;}.cls-3{fill:#80abbb;}.cls-4{fill:#fff;}.cls-5{fill:#e95800;}.cls-6{fill:#003041;}</style></defs><rect class="cls-6" x="959.96" y=".2" width="960" height="580.52"/><path class="cls-6" d="m244.72,316.44c4.95,0,8.07,2.4,9.9,5.24l-4.23,2.3c-1.11-1.69-3.16-3.01-5.66-3.01-4.34,0-7.5,3.34-7.5,7.86s3.15,7.86,7.5,7.86c2.19,0,4.12-.9,5.17-1.83v-2.91h-6.39v-4.38h11.41v9.15c-2.44,2.73-5.85,4.52-10.19,4.52-7,0-12.74-4.88-12.74-12.41s5.74-12.38,12.74-12.38Z"/><path class="cls-6" d="m285.29,340.76l-4.7-8.57h-3.73v8.57h-5.09v-23.93h11.19c4.99,0,8.04,3.26,8.04,7.71s-2.65,6.49-5.24,7.1l5.38,9.11h-5.85Zm-3.08-19.55h-5.35v6.6h5.35c2.04,0,3.58-1.29,3.58-3.3s-1.54-3.3-3.58-3.3Z"/><path class="cls-6" d="m319.45,316.44c7.25,0,12.52,5.17,12.52,12.38s-5.27,12.38-12.52,12.38-12.49-5.17-12.49-12.38,5.28-12.38,12.49-12.38Zm0,4.52c-4.42,0-7.25,3.37-7.25,7.86s2.83,7.86,7.25,7.86,7.28-3.41,7.28-7.86-2.87-7.86-7.28-7.86Z"/><path class="cls-6" d="m346.78,316.83h5.17v14.21c0,3.34,1.83,5.63,5.56,5.63s5.49-2.3,5.49-5.63v-14.21h5.17v14.35c0,5.96-3.41,10.01-10.65,10.01s-10.73-4.09-10.73-9.97v-14.39Z"/><path class="cls-6" d="m385.87,340.76v-23.93h11.19c5.2,0,8.04,3.52,8.04,7.71s-2.87,7.64-8.04,7.64h-6.1v8.57h-5.09Zm10.51-19.55h-5.42v6.6h5.42c2.01,0,3.51-1.29,3.51-3.3s-1.51-3.3-3.51-3.3Z"/><path class="cls-6" d="m274.91,289.85v13.12h-43.32v-62.03h43.34v13.12h-28.27v10.9h24.85v13.12h-24.85v11.79h28.26Z"/><path class="cls-6" d="m398.32,289.85v13.12h-43.35v-62.03h43.34v13.12h-28.27v10.9h24.86v13.12h-24.86v11.79h28.28Z"/><path class="cls-6" d="m437.4,269.91h35.89v1.24c0,19.14-12.94,33.05-32.44,33.05-20.65,0-33.32-14.71-33.32-32.26s12.85-32.26,33.32-32.26c15.69,0,27.03,8.77,31.02,22.69h-14.89c-2.66-5.32-7.62-9.75-16.04-9.75-11.43,0-18.34,8.06-18.34,19.32,0,12.41,7,19.76,18.17,19.76,8.15,0,13.74-4.08,16.04-9.48h-19.41v-12.32Z"/><path class="cls-6" d="m517.94,294.49h-25.79l-3.1,8.77h-16.31l26.68-62.03h11.34l26.68,62.03h-16.31l-3.19-8.77Zm-21.36-12.32h16.93l-8.42-23.4-8.51,23.4Z"/><path class="cls-6" d="m586.79,294.49h-25.79l-3.1,8.77h-16.31l26.68-62.03h11.34l26.68,62.03h-16.31l-3.19-8.77Zm-21.36-12.32h16.93l-8.42-23.4-8.51,23.4Z"/><path class="cls-6" d="m633.17,286.86h-4.18v16.4h-15.07v-62.03h28.2c13.12,0,22.86,9.93,22.86,22.86,0,9.66-5.41,17.46-13.47,20.91l16.84,18.26h-20.29l-14.89-16.4Zm6.82-12.94c5.58,0,9.93-3.81,9.93-9.84s-4.34-9.93-9.93-9.93h-11.01v19.76h11.01Z"/><path class="cls-6" d="m693.66,241.22c24.81,0,37.93,13.38,37.93,31.02s-13.12,31.02-37.93,31.02h-19.59v-62.03h19.59Zm-1.42,49.36c15.51,0,24.28-6.2,24.28-18.35s-8.77-18.34-24.28-18.34h-3.1v36.69h3.1Z"/><polygon class="cls-5" points="297.11 289.85 297.11 241.06 283.96 241.06 283.96 303 345.83 303 345.83 289.85 297.11 289.85"/><polygon class="cls-5" points="323.42 263.54 323.42 241.06 310.26 241.06 310.26 276.69 345.83 276.69 345.83 263.54 323.42 263.54"/><rect class="cls-1" x="1.59" y=".2" width="960" height="580.52"/><path class="cls-4" d="m1203.08,316.44c4.95,0,8.07,2.4,9.9,5.24l-4.23,2.3c-1.11-1.69-3.16-3.01-5.66-3.01-4.34,0-7.5,3.34-7.5,7.86s3.15,7.86,7.5,7.86c2.19,0,4.12-.9,5.17-1.83v-2.91h-6.39v-4.38h11.41v9.15c-2.44,2.73-5.85,4.52-10.19,4.52-7,0-12.74-4.88-12.74-12.41s5.74-12.38,12.74-12.38Z"/><path class="cls-4" d="m1243.66,340.76l-4.7-8.57h-3.73v8.57h-5.09v-23.93h11.19c4.99,0,8.04,3.26,8.04,7.71s-2.65,6.49-5.24,7.1l5.38,9.11h-5.85Zm-3.08-19.55h-5.35v6.6h5.35c2.04,0,3.58-1.29,3.58-3.3s-1.54-3.3-3.58-3.3Z"/><path class="cls-4" d="m1277.81,316.44c7.25,0,12.52,5.17,12.52,12.38s-5.27,12.38-12.52,12.38-12.49-5.17-12.49-12.38,5.28-12.38,12.49-12.38Zm0,4.52c-4.42,0-7.25,3.37-7.25,7.86s2.83,7.86,7.25,7.86,7.28-3.41,7.28-7.86-2.87-7.86-7.28-7.86Z"/><path class="cls-4" d="m1305.15,316.83h5.17v14.21c0,3.34,1.83,5.63,5.56,5.63s5.49-2.3,5.49-5.63v-14.21h5.17v14.35c0,5.96-3.41,10.01-10.65,10.01s-10.73-4.09-10.73-9.97v-14.39Z"/><path class="cls-4" d="m1344.24,340.76v-23.93h11.19c5.2,0,8.04,3.52,8.04,7.71s-2.87,7.64-8.04,7.64h-6.1v8.57h-5.09Zm10.51-19.55h-5.42v6.6h5.42c2.01,0,3.51-1.29,3.51-3.3s-1.51-3.3-3.51-3.3Z"/><path class="cls-4" d="m1233.28,289.85v13.12h-43.32v-62.03h43.34v13.12h-28.27v10.9h24.85v13.12h-24.85v11.79h28.26Z"/><path class="cls-4" d="m1356.68,289.85v13.12h-43.35v-62.03h43.34v13.12h-28.27v10.9h24.86v13.12h-24.86v11.79h28.28Z"/><path class="cls-4" d="m1395.76,269.91h35.89v1.24c0,19.14-12.94,33.05-32.44,33.05-20.65,0-33.32-14.71-33.32-32.26s12.85-32.26,33.32-32.26c15.69,0,27.03,8.77,31.02,22.69h-14.89c-2.66-5.32-7.62-9.75-16.04-9.75-11.43,0-18.34,8.06-18.34,19.32,0,12.41,7,19.76,18.17,19.76,8.15,0,13.74-4.08,16.04-9.48h-19.41v-12.32Z"/><path class="cls-4" d="m1476.31,294.49h-25.79l-3.1,8.77h-16.31l26.68-62.03h11.34l26.68,62.03h-16.31l-3.19-8.77Zm-21.36-12.32h16.93l-8.42-23.4-8.51,23.4Z"/><path class="cls-4" d="m1545.16,294.49h-25.79l-3.1,8.77h-16.31l26.68-62.03h11.34l26.68,62.03h-16.31l-3.19-8.77Zm-21.36-12.32h16.93l-8.42-23.4-8.51,23.4Z"/><path class="cls-4" d="m1591.54,286.86h-4.18v16.4h-15.07v-62.03h28.2c13.12,0,22.86,9.93,22.86,22.86,0,9.66-5.41,17.46-13.47,20.91l16.84,18.26h-20.29l-14.89-16.4Zm6.82-12.94c5.58,0,9.93-3.81,9.93-9.84s-4.34-9.93-9.93-9.93h-11.01v19.76h11.01Z"/><path class="cls-4" d="m1652.02,241.22c24.81,0,37.93,13.38,37.93,31.02s-13.12,31.02-37.93,31.02h-19.59v-62.03h19.59Zm-1.42,49.36c15.51,0,24.28-6.2,24.28-18.35s-8.77-18.34-24.28-18.34h-3.1v36.69h3.1Z"/><polygon class="cls-5" points="1255.47 289.85 1255.47 241.06 1242.32 241.06 1242.32 303 1304.19 303 1304.19 289.85 1255.47 289.85"/><polygon class="cls-5" points="1281.78 263.54 1281.78 241.06 1268.63 241.06 1268.63 276.69 1304.19 276.69 1304.19 263.54 1281.78 263.54"/><rect class="cls-5" x="-.91" y="577.96" width="480" height="320.75"/><rect class="cls-3" x="479.09" y="577.96" width="480" height="320.75"/><rect class="cls-4" x="959.08" y="577.96" width="480" height="320.75"/><rect class="cls-2" x="1439.08" y="577.96" width="480" height="320.75"/><path class="cls-4" d="m105.95,758.27c3.06,0,4.99,1.49,6.12,3.24l-2.62,1.42c-.68-1.04-1.95-1.86-3.5-1.86-2.68,0-4.63,2.06-4.63,4.85s1.95,4.85,4.63,4.85c1.35,0,2.55-.56,3.19-1.13v-1.8h-3.95v-2.7h7.05v5.65c-1.51,1.68-3.61,2.79-6.29,2.79-4.32,0-7.87-3.01-7.87-7.67s3.55-7.65,7.87-7.65Z"/><path class="cls-4" d="m131.02,773.3l-2.9-5.3h-2.31v5.3h-3.15v-14.79h6.92c3.08,0,4.97,2.02,4.97,4.77s-1.64,4.01-3.24,4.39l3.33,5.63h-3.61Zm-1.9-12.08h-3.3v4.08h3.3c1.26,0,2.22-.8,2.22-2.04s-.95-2.04-2.22-2.04Z"/><path class="cls-4" d="m152.13,758.27c4.48,0,7.73,3.19,7.73,7.65s-3.26,7.65-7.73,7.65-7.72-3.19-7.72-7.65,3.26-7.65,7.72-7.65Zm0,2.79c-2.73,0-4.48,2.08-4.48,4.85s1.75,4.85,4.48,4.85,4.5-2.11,4.5-4.85-1.77-4.85-4.5-4.85Z"/><path class="cls-4" d="m169.02,758.52h3.19v8.78c0,2.06,1.13,3.48,3.44,3.48s3.39-1.42,3.39-3.48v-8.78h3.19v8.87c0,3.68-2.11,6.18-6.58,6.18s-6.63-2.53-6.63-6.16v-8.89Z"/><path class="cls-4" d="m193.17,773.3v-14.79h6.92c3.21,0,4.97,2.17,4.97,4.77s-1.77,4.72-4.97,4.72h-3.77v5.3h-3.15Zm6.5-12.08h-3.35v4.08h3.35c1.24,0,2.17-.8,2.17-2.04s-.93-2.04-2.17-2.04Z"/><path class="cls-4" d="m124.61,741.85v8.1h-26.77v-38.33h26.78v8.1h-17.47v6.74h15.36v8.1h-15.36v7.28h17.46Z"/><path class="cls-4" d="m200.86,741.85v8.1h-26.79v-38.33h26.78v8.1h-17.47v6.74h15.36v8.1h-15.36v7.28h17.48Z"/><path class="cls-4" d="m225.01,729.53h22.18v.77c0,11.83-8,20.43-20.04,20.43-12.76,0-20.59-9.09-20.59-19.93s7.94-19.93,20.59-19.93c9.69,0,16.7,5.42,19.17,14.02h-9.2c-1.64-3.29-4.71-6.02-9.91-6.02-7.06,0-11.34,4.98-11.34,11.94,0,7.67,4.33,12.21,11.23,12.21,5.04,0,8.49-2.52,9.91-5.86h-11.99v-7.61Z"/><path class="cls-4" d="m274.78,744.71h-15.94l-1.92,5.42h-10.08l16.48-38.33h7.01l16.48,38.33h-10.08l-1.97-5.42Zm-13.2-7.61h10.46l-5.2-14.46-5.26,14.46Z"/><path class="cls-4" d="m317.33,744.71h-15.94l-1.92,5.42h-10.08l16.48-38.33h7.01l16.48,38.33h-10.08l-1.97-5.42Zm-13.2-7.61h10.46l-5.2-14.46-5.26,14.46Z"/><path class="cls-4" d="m345.99,740h-2.59v10.13h-9.31v-38.33h17.43c8.1,0,14.13,6.13,14.13,14.13,0,5.97-3.34,10.79-8.32,12.92l10.4,11.28h-12.54l-9.2-10.13Zm4.22-7.99c3.45,0,6.13-2.36,6.13-6.08s-2.68-6.13-6.13-6.13h-6.8v12.21h6.8Z"/><path class="cls-4" d="m383.37,711.8c15.33,0,23.44,8.27,23.44,19.17s-8.1,19.17-23.44,19.17h-12.1v-38.33h12.1Zm-.88,30.5c9.58,0,15-3.83,15-11.34s-5.42-11.34-15-11.34h-1.92v22.67h1.92Z"/><polygon class="cls-4" points="138.32 741.84 138.32 711.7 130.2 711.7 130.2 749.97 168.43 749.97 168.43 741.84 138.32 741.84"/><polygon class="cls-4" points="154.58 725.59 154.58 711.7 146.45 711.7 146.45 733.71 168.43 733.71 168.43 725.59 154.58 725.59"/><path class="cls-4" d="m574.59,758.27c3.06,0,4.99,1.49,6.12,3.24l-2.62,1.42c-.68-1.04-1.95-1.86-3.5-1.86-2.68,0-4.63,2.06-4.63,4.85s1.95,4.85,4.63,4.85c1.35,0,2.55-.56,3.19-1.13v-1.8h-3.95v-2.7h7.05v5.65c-1.51,1.68-3.61,2.79-6.29,2.79-4.32,0-7.87-3.01-7.87-7.67s3.55-7.65,7.87-7.65Z"/><path class="cls-4" d="m599.66,773.3l-2.9-5.3h-2.31v5.3h-3.15v-14.79h6.92c3.08,0,4.97,2.02,4.97,4.77s-1.64,4.01-3.24,4.39l3.33,5.63h-3.61Zm-1.9-12.08h-3.3v4.08h3.3c1.26,0,2.22-.8,2.22-2.04s-.95-2.04-2.22-2.04Z"/><path class="cls-4" d="m620.77,758.27c4.48,0,7.73,3.19,7.73,7.65s-3.26,7.65-7.73,7.65-7.72-3.19-7.72-7.65,3.26-7.65,7.72-7.65Zm0,2.79c-2.73,0-4.48,2.08-4.48,4.85s1.75,4.85,4.48,4.85,4.5-2.11,4.5-4.85-1.77-4.85-4.5-4.85Z"/><path class="cls-4" d="m637.66,758.52h3.19v8.78c0,2.06,1.13,3.48,3.44,3.48s3.39-1.42,3.39-3.48v-8.78h3.19v8.87c0,3.68-2.11,6.18-6.58,6.18s-6.63-2.53-6.63-6.16v-8.89Z"/><path class="cls-4" d="m661.81,773.3v-14.79h6.92c3.21,0,4.97,2.17,4.97,4.77s-1.77,4.72-4.97,4.72h-3.77v5.3h-3.15Zm6.5-12.08h-3.35v4.08h3.35c1.24,0,2.17-.8,2.17-2.04s-.93-2.04-2.17-2.04Z"/><path class="cls-4" d="m593.25,741.85v8.1h-26.77v-38.33h26.78v8.1h-17.47v6.74h15.36v8.1h-15.36v7.28h17.46Z"/><path class="cls-4" d="m669.5,741.85v8.1h-26.79v-38.33h26.78v8.1h-17.47v6.74h15.36v8.1h-15.36v7.28h17.48Z"/><path class="cls-4" d="m693.65,729.53h22.18v.77c0,11.83-8,20.43-20.04,20.43-12.76,0-20.59-9.09-20.59-19.93s7.94-19.93,20.59-19.93c9.69,0,16.7,5.42,19.17,14.02h-9.2c-1.64-3.29-4.71-6.02-9.91-6.02-7.06,0-11.34,4.98-11.34,11.94,0,7.67,4.33,12.21,11.23,12.21,5.04,0,8.49-2.52,9.91-5.86h-11.99v-7.61Z"/><path class="cls-4" d="m743.42,744.71h-15.94l-1.92,5.42h-10.08l16.48-38.33h7.01l16.48,38.33h-10.08l-1.97-5.42Zm-13.2-7.61h10.46l-5.2-14.46-5.26,14.46Z"/><path class="cls-4" d="m785.97,744.71h-15.94l-1.92,5.42h-10.08l16.48-38.33h7.01l16.48,38.33h-10.08l-1.97-5.42Zm-13.2-7.61h10.46l-5.2-14.46-5.26,14.46Z"/><path class="cls-4" d="m814.63,740h-2.59v10.13h-9.31v-38.33h17.43c8.1,0,14.13,6.13,14.13,14.13,0,5.97-3.34,10.79-8.32,12.92l10.4,11.28h-12.54l-9.2-10.13Zm4.22-7.99c3.45,0,6.13-2.36,6.13-6.08s-2.68-6.13-6.13-6.13h-6.8v12.21h6.8Z"/><path class="cls-4" d="m852,711.8c15.33,0,23.44,8.27,23.44,19.17s-8.1,19.17-23.44,19.17h-12.1v-38.33h12.1Zm-.88,30.5c9.58,0,15-3.83,15-11.34s-5.42-11.34-15-11.34h-1.92v22.67h1.92Z"/><polygon class="cls-4" points="606.96 741.84 606.96 711.7 598.83 711.7 598.83 749.97 637.06 749.97 637.06 741.84 606.96 741.84"/><polygon class="cls-4" points="623.22 725.59 623.22 711.7 615.09 711.7 615.09 733.71 637.07 733.71 637.07 725.59 623.22 725.59"/><path class="cls-2" d="m1049.84,758.27c3.06,0,4.99,1.49,6.12,3.24l-2.62,1.42c-.68-1.04-1.95-1.86-3.5-1.86-2.68,0-4.63,2.06-4.63,4.85s1.95,4.85,4.63,4.85c1.35,0,2.55-.56,3.19-1.13v-1.8h-3.95v-2.7h7.05v5.65c-1.51,1.68-3.61,2.79-6.29,2.79-4.32,0-7.87-3.01-7.87-7.67s3.55-7.65,7.87-7.65Z"/><path class="cls-2" d="m1074.91,773.3l-2.9-5.3h-2.31v5.3h-3.15v-14.79h6.92c3.08,0,4.97,2.02,4.97,4.77s-1.64,4.01-3.24,4.39l3.33,5.63h-3.61Zm-1.9-12.08h-3.3v4.08h3.3c1.26,0,2.22-.8,2.22-2.04s-.95-2.04-2.22-2.04Z"/><path class="cls-2" d="m1096.01,758.27c4.48,0,7.73,3.19,7.73,7.65s-3.26,7.65-7.73,7.65-7.72-3.19-7.72-7.65,3.26-7.65,7.72-7.65Zm0,2.79c-2.73,0-4.48,2.08-4.48,4.85s1.75,4.85,4.48,4.85,4.5-2.11,4.5-4.85-1.77-4.85-4.5-4.85Z"/><path class="cls-2" d="m1112.91,758.52h3.19v8.78c0,2.06,1.13,3.48,3.44,3.48s3.39-1.42,3.39-3.48v-8.78h3.19v8.87c0,3.68-2.11,6.18-6.58,6.18s-6.63-2.53-6.63-6.16v-8.89Z"/><path class="cls-2" d="m1137.06,773.3v-14.79h6.92c3.21,0,4.97,2.17,4.97,4.77s-1.77,4.72-4.97,4.72h-3.77v5.3h-3.15Zm6.5-12.08h-3.35v4.08h3.35c1.24,0,2.17-.8,2.17-2.04s-.93-2.04-2.17-2.04Z"/><path class="cls-2" d="m1068.49,741.85v8.1h-26.77v-38.33h26.78v8.1h-17.47v6.74h15.36v8.1h-15.36v7.28h17.46Z"/><path class="cls-2" d="m1144.75,741.85v8.1h-26.79v-38.33h26.78v8.1h-17.47v6.74h15.36v8.1h-15.36v7.28h17.48Z"/><path class="cls-2" d="m1168.9,729.53h22.18v.77c0,11.83-8,20.43-20.04,20.43-12.76,0-20.59-9.09-20.59-19.93s7.94-19.93,20.59-19.93c9.69,0,16.7,5.42,19.17,14.02h-9.2c-1.64-3.29-4.71-6.02-9.91-6.02-7.06,0-11.34,4.98-11.34,11.94,0,7.67,4.33,12.21,11.23,12.21,5.04,0,8.49-2.52,9.91-5.86h-11.99v-7.61Z"/><path class="cls-2" d="m1218.67,744.71h-15.94l-1.92,5.42h-10.08l16.48-38.33h7.01l16.48,38.33h-10.08l-1.97-5.42Zm-13.2-7.61h10.46l-5.2-14.46-5.26,14.46Z"/><path class="cls-2" d="m1261.21,744.71h-15.94l-1.92,5.42h-10.08l16.48-38.33h7.01l16.48,38.33h-10.08l-1.97-5.42Zm-13.2-7.61h10.46l-5.2-14.46-5.26,14.46Z"/><path class="cls-2" d="m1289.87,740h-2.59v10.13h-9.31v-38.33h17.43c8.1,0,14.13,6.13,14.13,14.13,0,5.97-3.34,10.79-8.32,12.92l10.4,11.28h-12.54l-9.2-10.13Zm4.22-7.99c3.45,0,6.13-2.36,6.13-6.08s-2.68-6.13-6.13-6.13h-6.8v12.21h6.8Z"/><path class="cls-2" d="m1327.25,711.8c15.33,0,23.44,8.27,23.44,19.17s-8.1,19.17-23.44,19.17h-12.1v-38.33h12.1Zm-.88,30.5c9.58,0,15-3.83,15-11.34s-5.42-11.34-15-11.34h-1.92v22.67h1.92Z"/><polygon class="cls-2" points="1082.21 741.84 1082.21 711.7 1074.08 711.7 1074.08 749.97 1112.31 749.97 1112.31 741.84 1082.21 741.84"/><polygon class="cls-2" points="1098.46 725.59 1098.46 711.7 1090.34 711.7 1090.34 733.71 1112.31 733.71 1112.31 725.59 1098.46 725.59"/><path class="cls-4" d="m1533.59,758.27c3.06,0,4.99,1.49,6.12,3.24l-2.62,1.42c-.68-1.04-1.95-1.86-3.5-1.86-2.68,0-4.63,2.06-4.63,4.85s1.95,4.85,4.63,4.85c1.35,0,2.55-.56,3.19-1.13v-1.8h-3.95v-2.7h7.05v5.65c-1.51,1.68-3.61,2.79-6.29,2.79-4.32,0-7.87-3.01-7.87-7.67s3.55-7.65,7.87-7.65Z"/><path class="cls-4" d="m1558.66,773.3l-2.9-5.3h-2.31v5.3h-3.15v-14.79h6.92c3.08,0,4.97,2.02,4.97,4.77s-1.64,4.01-3.24,4.39l3.33,5.63h-3.61Zm-1.9-12.08h-3.3v4.08h3.3c1.26,0,2.22-.8,2.22-2.04s-.95-2.04-2.22-2.04Z"/><path class="cls-4" d="m1579.77,758.27c4.48,0,7.73,3.19,7.73,7.65s-3.26,7.65-7.73,7.65-7.72-3.19-7.72-7.65,3.26-7.65,7.72-7.65Zm0,2.79c-2.73,0-4.48,2.08-4.48,4.85s1.75,4.85,4.48,4.85,4.5-2.11,4.5-4.85-1.77-4.85-4.5-4.85Z"/><path class="cls-4" d="m1596.66,758.52h3.19v8.78c0,2.06,1.13,3.48,3.44,3.48s3.39-1.42,3.39-3.48v-8.78h3.19v8.87c0,3.68-2.11,6.18-6.58,6.18s-6.63-2.53-6.63-6.16v-8.89Z"/><path class="cls-4" d="m1620.81,773.3v-14.79h6.92c3.21,0,4.97,2.17,4.97,4.77s-1.77,4.72-4.97,4.72h-3.77v5.3h-3.15Zm6.5-12.08h-3.35v4.08h3.35c1.24,0,2.17-.8,2.17-2.04s-.93-2.04-2.17-2.04Z"/><path class="cls-4" d="m1552.25,741.85v8.1h-26.77v-38.33h26.78v8.1h-17.47v6.74h15.36v8.1h-15.36v7.28h17.46Z"/><path class="cls-4" d="m1628.5,741.85v8.1h-26.79v-38.33h26.78v8.1h-17.47v6.74h15.36v8.1h-15.36v7.28h17.48Z"/><path class="cls-4" d="m1652.65,729.53h22.18v.77c0,11.83-8,20.43-20.04,20.43-12.76,0-20.59-9.09-20.59-19.93s7.94-19.93,20.59-19.93c9.69,0,16.7,5.42,19.17,14.02h-9.2c-1.64-3.29-4.71-6.02-9.91-6.02-7.06,0-11.34,4.98-11.34,11.94,0,7.67,4.33,12.21,11.23,12.21,5.04,0,8.49-2.52,9.91-5.86h-11.99v-7.61Z"/><path class="cls-4" d="m1702.42,744.71h-15.94l-1.92,5.42h-10.08l16.48-38.33h7.01l16.48,38.33h-10.08l-1.97-5.42Zm-13.2-7.61h10.46l-5.2-14.46-5.26,14.46Z"/><path class="cls-4" d="m1744.97,744.71h-15.94l-1.92,5.42h-10.08l16.48-38.33h7.01l16.48,38.33h-10.08l-1.97-5.42Zm-13.2-7.61h10.46l-5.2-14.46-5.26,14.46Z"/><path class="cls-4" d="m1773.63,740h-2.59v10.13h-9.31v-38.33h17.43c8.1,0,14.13,6.13,14.13,14.13,0,5.97-3.34,10.79-8.32,12.92l10.4,11.28h-12.54l-9.2-10.13Zm4.22-7.99c3.45,0,6.13-2.36,6.13-6.08s-2.68-6.13-6.13-6.13h-6.8v12.21h6.8Z"/><path class="cls-4" d="m1811.01,711.8c15.33,0,23.44,8.27,23.44,19.17s-8.1,19.17-23.44,19.17h-12.1v-38.33h12.1Zm-.88,30.5c9.58,0,15-3.83,15-11.34s-5.42-11.34-15-11.34h-1.92v22.67h1.92Z"/><polygon class="cls-4" points="1565.96 741.84 1565.96 711.7 1557.84 711.7 1557.84 749.97 1596.07 749.97 1596.07 741.84 1565.96 741.84"/><polygon class="cls-4" points="1582.22 725.59 1582.22 711.7 1574.09 711.7 1574.09 733.71 1596.07 733.71 1596.07 725.59 1582.22 725.59"/></svg>