<?xml version="1.0" encoding="UTF-8"?><svg id="Layer_1" xmlns="http://www.w3.org/2000/svg" viewBox="0 0 1920 429.72"><defs><style>.cls-1{fill:#80abbb;}.cls-1,.cls-2,.cls-3,.cls-4{stroke-width:0px;}.cls-2{fill:#fff;}.cls-3{fill:#e95800;}.cls-4{fill:#003041;}</style></defs><rect class="cls-3" x="640.45" y="2.81" width="639.32" height="427.21"/><rect class="cls-4" y="2.81" width="639.32" height="427.21"/><rect class="cls-1" x="1280.68" y="2.81" width="639.32" height="427.21"/><path class="cls-2" d="m128.33,237.8c4.07,0,6.64,1.98,8.15,4.31l-3.48,1.89c-.91-1.39-2.6-2.48-4.66-2.48-3.58,0-6.17,2.75-6.17,6.47s2.59,6.47,6.17,6.47c1.8,0,3.39-.74,4.25-1.51v-2.39h-5.26v-3.6h9.39v7.53c-2.01,2.24-4.81,3.72-8.38,3.72-5.76,0-10.48-4.02-10.48-10.21s4.72-10.19,10.48-10.19Z"/><path class="cls-2" d="m161.72,257.81l-3.87-7.06h-3.07v7.06h-4.19v-19.69h9.21c4.11,0,6.61,2.69,6.61,6.35s-2.18,5.34-4.31,5.84l4.43,7.5h-4.81Zm-2.54-16.09h-4.4v5.43h4.4c1.68,0,2.95-1.06,2.95-2.72s-1.27-2.72-2.95-2.72Z"/><path class="cls-2" d="m189.84,237.8c5.96,0,10.3,4.25,10.3,10.19s-4.34,10.19-10.3,10.19-10.28-4.25-10.28-10.19,4.34-10.19,10.28-10.19Zm0,3.72c-3.63,0-5.97,2.78-5.97,6.47s2.33,6.47,5.97,6.47,5.99-2.81,5.99-6.47-2.36-6.47-5.99-6.47Z"/><path class="cls-2" d="m212.34,238.12h4.25v11.69c0,2.75,1.51,4.64,4.58,4.64s4.52-1.89,4.52-4.64v-11.69h4.25v11.81c0,4.9-2.81,8.24-8.77,8.24s-8.83-3.37-8.83-8.21v-11.84Z"/><path class="cls-2" d="m244.51,257.81v-19.69h9.21c4.28,0,6.61,2.89,6.61,6.35s-2.36,6.29-6.61,6.29h-5.02v7.06h-4.19Zm8.65-16.09h-4.46v5.43h4.46c1.65,0,2.89-1.06,2.89-2.72s-1.24-2.72-2.89-2.72Z"/><path class="cls-2" d="m153.18,215.92v10.79h-35.66v-51.06h35.67v10.79h-23.27v8.97h20.45v10.79h-20.45v9.7h23.26Z"/><path class="cls-2" d="m254.75,215.92v10.79h-35.68v-51.06h35.67v10.79h-23.27v8.97h20.46v10.79h-20.46v9.7h23.28Z"/><path class="cls-2" d="m286.92,199.51h29.54v1.02c0,15.75-10.65,27.2-26.7,27.2-16.99,0-27.42-12.11-27.42-26.55s10.58-26.55,27.42-26.55c12.91,0,22.25,7.22,25.53,18.67h-12.25c-2.19-4.38-6.27-8.02-13.2-8.02-9.41,0-15.1,6.64-15.1,15.9,0,10.21,5.76,16.27,14.95,16.27,6.71,0,11.31-3.36,13.2-7.81h-15.97v-10.14Z"/><path class="cls-2" d="m353.2,219.73h-21.22l-2.55,7.22h-13.42l21.95-51.06h9.34l21.95,51.06h-13.42l-2.63-7.22Zm-17.58-10.14h13.93l-6.93-19.26-7,19.26Z"/><path class="cls-2" d="m409.87,219.73h-21.22l-2.55,7.22h-13.42l21.95-51.06h9.34l21.95,51.06h-13.42l-2.63-7.22Zm-17.58-10.14h13.93l-6.93-19.26-7,19.26Z"/><path class="cls-2" d="m448.04,213.46h-3.44v13.49h-12.4v-51.06h23.21c10.79,0,18.82,8.17,18.82,18.82,0,7.95-4.45,14.37-11.09,17.21l13.86,15.03h-16.7l-12.25-13.49Zm5.62-10.65c4.59,0,8.17-3.14,8.17-8.1s-3.57-8.17-8.17-8.17h-9.06v16.27h9.06Z"/><path class="cls-2" d="m497.83,175.89c20.42,0,31.22,11.01,31.22,25.53s-10.79,25.53-31.22,25.53h-16.12v-51.06h16.12Zm-1.17,40.63c12.76,0,19.98-5.11,19.98-15.1s-7.22-15.1-19.98-15.1h-2.55v30.2h2.55Z"/><polygon class="cls-3" points="171.45 215.91 171.45 175.76 160.63 175.76 160.63 226.74 211.55 226.74 211.55 215.91 171.45 215.91"/><polygon class="cls-3" points="193.1 194.26 193.1 175.76 182.28 175.76 182.28 205.08 211.55 205.08 211.55 194.26 193.1 194.26"/><path class="cls-2" d="m761.32,237.8c4.07,0,6.64,1.98,8.15,4.31l-3.48,1.89c-.91-1.39-2.6-2.48-4.66-2.48-3.58,0-6.17,2.75-6.17,6.47s2.59,6.47,6.17,6.47c1.8,0,3.39-.74,4.25-1.51v-2.39h-5.26v-3.6h9.39v7.53c-2.01,2.24-4.81,3.72-8.38,3.72-5.76,0-10.48-4.02-10.48-10.21s4.72-10.19,10.48-10.19Z"/><path class="cls-2" d="m794.71,257.81l-3.87-7.06h-3.07v7.06h-4.19v-19.69h9.21c4.11,0,6.61,2.69,6.61,6.35s-2.18,5.34-4.31,5.84l4.43,7.5h-4.81Zm-2.54-16.09h-4.4v5.43h4.4c1.68,0,2.95-1.06,2.95-2.72s-1.27-2.72-2.95-2.72Z"/><path class="cls-2" d="m822.83,237.8c5.96,0,10.3,4.25,10.3,10.19s-4.34,10.19-10.3,10.19-10.28-4.25-10.28-10.19,4.34-10.19,10.28-10.19Zm0,3.72c-3.63,0-5.97,2.78-5.97,6.47s2.33,6.47,5.97,6.47,5.99-2.81,5.99-6.47-2.36-6.47-5.99-6.47Z"/><path class="cls-2" d="m845.32,238.12h4.25v11.69c0,2.75,1.51,4.64,4.58,4.64s4.52-1.89,4.52-4.64v-11.69h4.25v11.81c0,4.9-2.81,8.24-8.77,8.24s-8.83-3.37-8.83-8.21v-11.84Z"/><path class="cls-2" d="m877.49,257.81v-19.69h9.21c4.28,0,6.61,2.89,6.61,6.35s-2.36,6.29-6.61,6.29h-5.02v7.06h-4.19Zm8.65-16.09h-4.46v5.43h4.46c1.65,0,2.89-1.06,2.89-2.72s-1.24-2.72-2.89-2.72Z"/><path class="cls-2" d="m786.17,215.92v10.79h-35.66v-51.06h35.67v10.79h-23.27v8.97h20.45v10.79h-20.45v9.7h23.26Z"/><path class="cls-2" d="m887.74,215.92v10.79h-35.68v-51.06h35.67v10.79h-23.27v8.97h20.46v10.79h-20.46v9.7h23.28Z"/><path class="cls-2" d="m919.9,199.51h29.54v1.02c0,15.75-10.65,27.2-26.7,27.2-16.99,0-27.42-12.11-27.42-26.55s10.58-26.55,27.42-26.55c12.91,0,22.25,7.22,25.53,18.67h-12.25c-2.19-4.38-6.27-8.02-13.2-8.02-9.41,0-15.1,6.64-15.1,15.9,0,10.21,5.76,16.27,14.95,16.27,6.71,0,11.31-3.36,13.2-7.81h-15.97v-10.14Z"/><path class="cls-2" d="m986.19,219.73h-21.22l-2.55,7.22h-13.42l21.95-51.06h9.34l21.95,51.06h-13.42l-2.63-7.22Zm-17.58-10.14h13.93l-6.93-19.26-7,19.26Z"/><path class="cls-2" d="m1042.86,219.73h-21.22l-2.55,7.22h-13.42l21.95-51.06h9.34l21.95,51.06h-13.42l-2.63-7.22Zm-17.58-10.14h13.93l-6.93-19.26-7,19.26Z"/><path class="cls-2" d="m1081.03,213.46h-3.44v13.49h-12.4v-51.06h23.21c10.79,0,18.82,8.17,18.82,18.82,0,7.95-4.45,14.37-11.09,17.21l13.86,15.03h-16.7l-12.25-13.49Zm5.62-10.65c4.59,0,8.17-3.14,8.17-8.1s-3.57-8.17-8.17-8.17h-9.06v16.27h9.06Z"/><path class="cls-2" d="m1130.82,175.89c20.42,0,31.22,11.01,31.22,25.53s-10.79,25.53-31.22,25.53h-16.12v-51.06h16.12Zm-1.17,40.63c12.76,0,19.98-5.11,19.98-15.1s-7.22-15.1-19.98-15.1h-2.55v30.2h2.55Z"/><polygon class="cls-2" points="804.44 215.91 804.44 175.76 793.62 175.76 793.62 226.74 844.53 226.74 844.53 215.91 804.44 215.91"/><polygon class="cls-2" points="826.09 194.26 826.09 175.76 815.27 175.76 815.27 205.08 844.54 205.08 844.54 194.26 826.09 194.26"/><path class="cls-4" d="m1405.64,237.8c4.07,0,6.64,1.98,8.15,4.31l-3.48,1.89c-.91-1.39-2.6-2.48-4.66-2.48-3.58,0-6.17,2.75-6.17,6.47s2.59,6.47,6.17,6.47c1.8,0,3.39-.74,4.25-1.51v-2.39h-5.26v-3.6h9.39v7.53c-2.01,2.24-4.81,3.72-8.38,3.72-5.76,0-10.48-4.02-10.48-10.21s4.72-10.19,10.48-10.19Z"/><path class="cls-4" d="m1439.03,257.81l-3.87-7.06h-3.07v7.06h-4.19v-19.69h9.21c4.11,0,6.61,2.69,6.61,6.35s-2.18,5.34-4.31,5.84l4.43,7.5h-4.81Zm-2.54-16.09h-4.4v5.43h4.4c1.68,0,2.95-1.06,2.95-2.72s-1.27-2.72-2.95-2.72Z"/><path class="cls-4" d="m1467.15,237.8c5.96,0,10.3,4.25,10.3,10.19s-4.34,10.19-10.3,10.19-10.28-4.25-10.28-10.19,4.34-10.19,10.28-10.19Zm0,3.72c-3.63,0-5.97,2.78-5.97,6.47s2.33,6.47,5.97,6.47,5.99-2.81,5.99-6.47-2.36-6.47-5.99-6.47Z"/><path class="cls-4" d="m1489.64,238.12h4.25v11.69c0,2.75,1.51,4.64,4.58,4.64s4.52-1.89,4.52-4.64v-11.69h4.25v11.81c0,4.9-2.81,8.24-8.77,8.24s-8.83-3.37-8.83-8.21v-11.84Z"/><path class="cls-4" d="m1521.81,257.81v-19.69h9.21c4.28,0,6.61,2.89,6.61,6.35s-2.36,6.29-6.61,6.29h-5.02v7.06h-4.19Zm8.65-16.09h-4.46v5.43h4.46c1.65,0,2.89-1.06,2.89-2.72s-1.24-2.72-2.89-2.72Z"/><path class="cls-4" d="m1430.49,215.92v10.79h-35.66v-51.06h35.67v10.79h-23.27v8.97h20.45v10.79h-20.45v9.7h23.26Z"/><path class="cls-4" d="m1532.06,215.92v10.79h-35.68v-51.06h35.67v10.79h-23.27v8.97h20.46v10.79h-20.46v9.7h23.28Z"/><path class="cls-4" d="m1564.22,199.51h29.54v1.02c0,15.75-10.65,27.2-26.7,27.2-16.99,0-27.42-12.11-27.42-26.55s10.58-26.55,27.42-26.55c12.91,0,22.25,7.22,25.53,18.67h-12.25c-2.19-4.38-6.27-8.02-13.2-8.02-9.41,0-15.1,6.64-15.1,15.9,0,10.21,5.76,16.27,14.95,16.27,6.71,0,11.31-3.36,13.2-7.81h-15.97v-10.14Z"/><path class="cls-4" d="m1630.51,219.73h-21.22l-2.55,7.22h-13.42l21.95-51.06h9.34l21.95,51.06h-13.42l-2.63-7.22Zm-17.58-10.14h13.93l-6.93-19.26-7,19.26Z"/><path class="cls-4" d="m1687.18,219.73h-21.22l-2.55,7.22h-13.42l21.95-51.06h9.34l21.95,51.06h-13.42l-2.63-7.22Zm-17.58-10.14h13.93l-6.93-19.26-7,19.26Z"/><path class="cls-4" d="m1725.35,213.46h-3.44v13.49h-12.4v-51.06h23.21c10.79,0,18.82,8.17,18.82,18.82,0,7.95-4.45,14.37-11.09,17.21l13.86,15.03h-16.7l-12.25-13.49Zm5.62-10.65c4.59,0,8.17-3.14,8.17-8.1s-3.57-8.17-8.17-8.17h-9.06v16.27h9.06Z"/><path class="cls-4" d="m1775.13,175.89c20.42,0,31.22,11.01,31.22,25.53s-10.79,25.53-31.22,25.53h-16.12v-51.06h16.12Zm-1.17,40.63c12.76,0,19.98-5.11,19.98-15.1s-7.22-15.1-19.98-15.1h-2.55v30.2h2.55Z"/><polygon class="cls-2" points="1448.76 215.91 1448.76 175.76 1437.93 175.76 1437.93 226.74 1488.85 226.74 1488.85 215.91 1448.76 215.91"/><polygon class="cls-2" points="1470.41 194.26 1470.41 175.76 1459.59 175.76 1459.59 205.08 1488.85 205.08 1488.85 194.26 1470.41 194.26"/></svg>