<?xml version="1.0" encoding="UTF-8"?><svg id="Layer_1" xmlns="http://www.w3.org/2000/svg" viewBox="0 0 1920 701.9"><defs><style>.cls-1{fill:#e95800;}.cls-1,.cls-2{stroke-width:0px;}.cls-2{fill:#003041;}</style></defs><path class="cls-2" d="m530.69,398.03c8.97,0,14.63,4.36,17.94,9.49l-7.67,4.16c-2.01-3.06-5.72-5.46-10.27-5.46-7.87,0-13.59,6.05-13.59,14.24s5.71,14.24,13.59,14.24c3.96,0,7.47-1.63,9.36-3.32v-5.27h-11.58v-7.93h20.68v16.58c-4.42,4.94-10.59,8.19-18.46,8.19-12.68,0-23.09-8.84-23.09-22.49s10.4-22.43,23.09-22.43Z"/><path class="cls-2" d="m604.22,442.12l-8.51-15.54h-6.76v15.54h-9.23v-43.37h20.28c9.04,0,14.56,5.92,14.56,13.98s-4.81,11.77-9.49,12.87l9.75,16.52h-10.6Zm-5.59-35.43h-9.69v11.96h9.69c3.7,0,6.5-2.34,6.5-5.98s-2.79-5.98-6.5-5.98Z"/><path class="cls-2" d="m666.13,398.03c13.13,0,22.69,9.36,22.69,22.43s-9.55,22.43-22.69,22.43-22.63-9.36-22.63-22.43,9.56-22.43,22.63-22.43Zm0,8.19c-8,0-13.14,6.11-13.14,14.24s5.14,14.24,13.14,14.24,13.2-6.18,13.2-14.24-5.2-14.24-13.2-14.24Z"/><path class="cls-2" d="m715.68,398.75h9.36v25.75c0,6.05,3.32,10.21,10.08,10.21s9.95-4.16,9.95-10.21v-25.75h9.36v26.01c0,10.79-6.18,18.14-19.31,18.14s-19.44-7.41-19.44-18.07v-26.07Z"/><path class="cls-2" d="m786.52,442.12v-43.37h20.28c9.43,0,14.56,6.37,14.56,13.98s-5.2,13.85-14.56,13.85h-11.05v15.54h-9.23Zm19.05-35.43h-9.82v11.96h9.82c3.64,0,6.37-2.34,6.37-5.98s-2.73-5.98-6.37-5.98Z"/><path class="cls-2" d="m585.42,349.86v23.77h-78.52v-112.43h78.54v23.77h-51.24v19.76h45.04v23.77h-45.04v21.36h51.22Z"/><path class="cls-2" d="m809.08,349.86v23.77h-78.57v-112.43h78.54v23.77h-51.24v19.76h45.06v23.77h-45.06v21.36h51.26Z"/><path class="cls-2" d="m879.91,313.72h65.05v2.25c0,34.69-23.45,59.91-58.79,59.91-37.42,0-60.39-26.66-60.39-58.47s23.29-58.47,60.39-58.47c28.43,0,48.99,15.9,56.22,41.12h-26.98c-4.82-9.64-13.81-17.67-29.07-17.67-20.72,0-33.25,14.62-33.25,35.01,0,22.49,12.69,35.82,32.93,35.82,14.78,0,24.9-7.39,29.07-17.19h-35.17v-22.33Z"/><path class="cls-2" d="m1025.89,358.25h-46.74l-5.62,15.9h-29.55l48.35-112.43h20.56l48.35,112.43h-29.55l-5.78-15.9Zm-38.71-22.33h30.68l-15.26-42.4-15.42,42.4Z"/><path class="cls-2" d="m1150.67,358.25h-46.74l-5.62,15.9h-29.55l48.35-112.43h20.56l48.35,112.43h-29.55l-5.78-15.9Zm-38.71-22.33h30.68l-15.26-42.4-15.42,42.4Z"/><path class="cls-2" d="m1234.73,344.44h-7.58v29.72h-27.31v-112.43h51.11c23.77,0,41.44,17.99,41.44,41.44,0,17.51-9.8,31.64-24.41,37.91l30.52,33.09h-36.78l-26.98-29.72Zm12.37-23.45c10.12,0,17.99-6.91,17.99-17.83s-7.87-17.99-17.99-17.99h-19.95v35.82h19.95Z"/><path class="cls-2" d="m1344.36,261.72c44.97,0,68.74,24.25,68.74,56.21s-23.77,56.22-68.74,56.22h-35.5v-112.43h35.5Zm-2.57,89.47c28.11,0,44.01-11.24,44.01-33.25s-15.9-33.25-44.01-33.25h-5.62v66.5h5.62Z"/><polygon class="cls-1" points="625.64 349.84 625.64 261.42 601.81 261.42 601.81 373.68 713.94 373.68 713.94 349.84 625.64 349.84"/><polygon class="cls-1" points="673.32 302.16 673.32 261.42 649.48 261.42 649.48 326 713.94 326 713.94 302.16 673.32 302.16"/></svg>