<?xml version="1.0" encoding="UTF-8"?><svg id="Layer_1" xmlns="http://www.w3.org/2000/svg" viewBox="0 0 1920 272.73"><defs><style>.cls-1{fill:#e95800;}.cls-1,.cls-2{stroke-width:0px;}.cls-2{fill:#003041;}</style></defs><path class="cls-2" d="m1378.22,139.1v11.67h-38.53v-55.17h38.54v11.67h-25.14v9.69h22.1v11.67h-22.1v10.48h25.13Z"/><path class="cls-2" d="m1487.98,139.1v11.67h-38.56v-55.17h38.54v11.67h-25.14v9.69h22.11v11.67h-22.11v10.48h25.16Z"/><path class="cls-2" d="m1522.74,121.37h31.92v1.1c0,17.02-11.51,29.4-28.85,29.4-18.36,0-29.64-13.08-29.64-28.69s11.43-28.69,29.64-28.69c13.95,0,24.04,7.8,27.59,20.18h-13.24c-2.37-4.73-6.78-8.67-14.27-8.67-10.17,0-16.32,7.17-16.32,17.18,0,11.03,6.23,17.58,16.16,17.58,7.25,0,12.22-3.63,14.27-8.43h-17.26v-10.96Z"/><path class="cls-2" d="m1594.37,143.22h-22.94l-2.76,7.8h-14.5l23.72-55.17h10.09l23.72,55.17h-14.5l-2.84-7.8Zm-19-10.96h15.05l-7.49-20.81-7.57,20.81Z"/><path class="cls-2" d="m1655.6,143.22h-22.94l-2.76,7.8h-14.5l23.72-55.17h10.09l23.72,55.17h-14.5l-2.84-7.8Zm-19-10.96h15.05l-7.49-20.81-7.57,20.81Z"/><path class="cls-2" d="m1696.85,136.44h-3.72v14.58h-13.4v-55.17h25.08c11.67,0,20.34,8.83,20.34,20.33,0,8.59-4.81,15.53-11.98,18.6l14.97,16.24h-18.05l-13.24-14.58Zm6.07-11.51c4.97,0,8.83-3.39,8.83-8.75s-3.86-8.83-8.83-8.83h-9.79v17.58h9.79Z"/><path class="cls-2" d="m1750.65,95.85c22.07,0,33.73,11.9,33.73,27.59s-11.67,27.59-33.73,27.59h-17.42v-55.17h17.42Zm-1.26,43.9c13.79,0,21.6-5.52,21.6-16.32s-7.8-16.32-21.6-16.32h-2.76v32.63h2.76Z"/><polygon class="cls-1" points="1397.96 139.1 1397.96 95.7 1386.27 95.7 1386.27 150.79 1441.29 150.79 1441.29 139.1 1397.96 139.1"/><polygon class="cls-1" points="1421.36 115.7 1421.36 95.7 1409.66 95.7 1409.66 127.39 1441.29 127.39 1441.29 115.7 1421.36 115.7"/><path class="cls-1" d="m1340.99,195.82v-24.3h11.37c5.28,0,8.16,3.57,8.16,7.83s-2.91,7.76-8.16,7.76h-6.19v8.71h-5.17Zm10.67-19.85h-5.5v6.7h5.5c2.04,0,3.57-1.31,3.57-3.35s-1.53-3.35-3.57-3.35Z"/><path class="cls-1" d="m1372.1,195.82v-24.3h5.17v24.3h-5.17Z"/><path class="cls-1" d="m1390.46,195.82v-24.3h11.37c5.28,0,8.16,3.57,8.16,7.83s-2.91,7.76-8.16,7.76h-6.19v8.71h-5.17Zm10.67-19.85h-5.5v6.7h5.5c2.04,0,3.57-1.31,3.57-3.35s-1.53-3.35-3.57-3.35Z"/><path class="cls-1" d="m1421.57,195.82v-24.3h17.19v4.44h-12.02v5.28h11.77v4.44h-11.77v5.65h12.02v4.48h-17.19Z"/><path class="cls-2" d="m774.77,139.1v11.67h-38.53v-55.17h38.54v11.67h-25.14v9.69h22.1v11.67h-22.1v10.48h25.13Z"/><path class="cls-2" d="m884.53,139.1v11.67h-38.56v-55.17h38.54v11.67h-25.14v9.69h22.11v11.67h-22.11v10.48h25.16Z"/><path class="cls-2" d="m919.29,121.37h31.92v1.1c0,17.02-11.51,29.4-28.85,29.4-18.36,0-29.64-13.08-29.64-28.69s11.43-28.69,29.64-28.69c13.95,0,24.04,7.8,27.59,20.18h-13.24c-2.37-4.73-6.78-8.67-14.27-8.67-10.17,0-16.32,7.17-16.32,17.18,0,11.03,6.23,17.58,16.16,17.58,7.25,0,12.22-3.63,14.27-8.43h-17.26v-10.96Z"/><path class="cls-2" d="m990.92,143.22h-22.94l-2.76,7.8h-14.5l23.72-55.17h10.09l23.72,55.17h-14.5l-2.84-7.8Zm-19-10.96h15.05l-7.49-20.81-7.57,20.81Z"/><path class="cls-2" d="m1052.15,143.22h-22.94l-2.76,7.8h-14.5l23.72-55.17h10.09l23.72,55.17h-14.5l-2.84-7.8Zm-19-10.96h15.05l-7.49-20.81-7.57,20.81Z"/><path class="cls-2" d="m1093.4,136.44h-3.72v14.58h-13.4v-55.17h25.08c11.67,0,20.34,8.83,20.34,20.33,0,8.59-4.81,15.53-11.98,18.6l14.97,16.24h-18.05l-13.24-14.58Zm6.07-11.51c4.97,0,8.83-3.39,8.83-8.75s-3.86-8.83-8.83-8.83h-9.79v17.58h9.79Z"/><path class="cls-2" d="m1147.2,95.85c22.07,0,33.73,11.9,33.73,27.59s-11.67,27.59-33.73,27.59h-17.42v-55.17h17.42Zm-1.26,43.9c13.79,0,21.6-5.52,21.6-16.32s-7.8-16.32-21.6-16.32h-2.76v32.63h2.76Z"/><polygon class="cls-1" points="794.51 139.1 794.51 95.7 782.81 95.7 782.81 150.79 837.84 150.79 837.84 139.1 794.51 139.1"/><polygon class="cls-1" points="817.91 115.7 817.91 95.7 806.21 95.7 806.21 127.39 837.84 127.39 837.84 115.7 817.91 115.7"/><path class="cls-1" d="m751.27,195.82l-4.77-8.71h-3.79v8.71h-5.17v-24.3h11.37c5.06,0,8.16,3.32,8.16,7.83s-2.7,6.59-5.32,7.21l5.46,9.25h-5.94Zm-3.13-19.85h-5.43v6.7h5.43c2.08,0,3.64-1.31,3.64-3.35s-1.57-3.35-3.64-3.35Z"/><path class="cls-1" d="m786.35,195.82l-1.53-4.19h-10.86l-1.53,4.19h-5.68l9.4-24.3h6.48l9.36,24.3h-5.65Zm-6.96-19.82l-4.04,11.15h8.05l-4.01-11.15Z"/><path class="cls-1" d="m802.63,195.82v-24.3h5.17v24.3h-5.17Z"/><path class="cls-1" d="m820.99,195.82v-24.3h5.17v19.74h10.27v4.55h-15.45Z"/><path class="cls-2" d="m174.14,139.1v11.67h-38.53v-55.17h38.54v11.67h-25.14v9.69h22.1v11.67h-22.1v10.48h25.13Z"/><path class="cls-2" d="m283.89,139.1v11.67h-38.56v-55.17h38.54v11.67h-25.14v9.69h22.11v11.67h-22.11v10.48h25.16Z"/><path class="cls-2" d="m318.65,121.37h31.92v1.1c0,17.02-11.51,29.4-28.85,29.4-18.36,0-29.64-13.08-29.64-28.69s11.43-28.69,29.64-28.69c13.95,0,24.04,7.8,27.59,20.18h-13.24c-2.37-4.73-6.78-8.67-14.27-8.67-10.17,0-16.32,7.17-16.32,17.18,0,11.03,6.23,17.58,16.16,17.58,7.25,0,12.22-3.63,14.27-8.43h-17.26v-10.96Z"/><path class="cls-2" d="m390.29,143.22h-22.94l-2.76,7.8h-14.5l23.72-55.17h10.09l23.72,55.17h-14.5l-2.84-7.8Zm-19-10.96h15.05l-7.49-20.81-7.57,20.81Z"/><path class="cls-2" d="m451.52,143.22h-22.94l-2.76,7.8h-14.5l23.72-55.17h10.09l23.72,55.17h-14.5l-2.84-7.8Zm-19-10.96h15.05l-7.49-20.81-7.57,20.81Z"/><path class="cls-2" d="m492.77,136.44h-3.72v14.58h-13.4v-55.17h25.08c11.67,0,20.34,8.83,20.34,20.33,0,8.59-4.81,15.53-11.98,18.6l14.97,16.24h-18.05l-13.24-14.58Zm6.07-11.51c4.97,0,8.83-3.39,8.83-8.75s-3.86-8.83-8.83-8.83h-9.79v17.58h9.79Z"/><path class="cls-2" d="m546.57,95.85c22.07,0,33.73,11.9,33.73,27.59s-11.67,27.59-33.73,27.59h-17.42v-55.17h17.42Zm-1.26,43.9c13.79,0,21.6-5.52,21.6-16.32s-7.8-16.32-21.6-16.32h-2.76v32.63h2.76Z"/><polygon class="cls-1" points="193.88 139.1 193.88 95.7 182.18 95.7 182.18 150.79 237.21 150.79 237.21 139.1 193.88 139.1"/><polygon class="cls-1" points="217.28 115.7 217.28 95.7 205.58 95.7 205.58 127.39 237.21 127.39 237.21 115.7 217.28 115.7"/><path class="cls-1" d="m136.9,195.82v-24.3h12.79c4.63,0,6.99,2.95,6.99,6.19,0,3.06-1.89,5.1-4.19,5.57,2.59.4,4.66,2.91,4.66,5.97,0,3.64-2.44,6.56-7.07,6.56h-13.19Zm5.17-14.53h6.48c1.75,0,2.84-1.13,2.84-2.7s-1.09-2.66-2.84-2.66h-6.48v5.35Zm0,10.13h6.67c1.97,0,3.13-1.13,3.13-2.88,0-1.53-1.09-2.84-3.13-2.84h-6.67v5.72Z"/><path class="cls-1" d="m169.44,195.82v-24.3h17.19v4.44h-12.02v5.28h11.77v4.44h-11.77v5.65h12.02v4.48h-17.19Z"/><path class="cls-1" d="m199.05,195.82v-24.3h5.17v19.74h10.27v4.55h-15.45Z"/><path class="cls-1" d="m228.45,195.82v-19.74h-7.1v-4.55h19.38v4.55h-7.07v19.74h-5.21Z"/></svg>