<?xml version="1.0" encoding="UTF-8"?><svg id="Layer_1" xmlns="http://www.w3.org/2000/svg" viewBox="0 0 1920 701.9"><defs><style>.cls-1{fill:#e95800;}.cls-1,.cls-2{stroke-width:0px;}.cls-2{fill:#003041;}</style></defs><path class="cls-2" d="m585.42,383.4v23.77h-78.52v-112.43h78.54v23.77h-51.24v19.76h45.04v23.77h-45.04v21.36h51.22Z"/><path class="cls-2" d="m809.08,383.4v23.77h-78.57v-112.43h78.54v23.77h-51.24v19.76h45.06v23.77h-45.06v21.36h51.26Z"/><path class="cls-2" d="m879.91,347.26h65.05v2.25c0,34.69-23.45,59.91-58.79,59.91-37.42,0-60.39-26.66-60.39-58.47s23.29-58.47,60.39-58.47c28.43,0,48.99,15.9,56.22,41.12h-26.98c-4.82-9.64-13.81-17.67-29.07-17.67-20.72,0-33.25,14.62-33.25,35.01,0,22.49,12.69,35.82,32.93,35.82,14.78,0,24.9-7.39,29.07-17.19h-35.17v-22.33Z"/><path class="cls-2" d="m1025.89,391.79h-46.74l-5.62,15.9h-29.55l48.35-112.43h20.56l48.35,112.43h-29.55l-5.78-15.9Zm-38.71-22.33h30.68l-15.26-42.4-15.42,42.4Z"/><path class="cls-2" d="m1150.67,391.79h-46.74l-5.62,15.9h-29.55l48.35-112.43h20.56l48.35,112.43h-29.55l-5.78-15.9Zm-38.71-22.33h30.68l-15.26-42.4-15.42,42.4Z"/><path class="cls-2" d="m1234.73,377.98h-7.58v29.72h-27.31v-112.43h51.11c23.77,0,41.44,17.99,41.44,41.44,0,17.51-9.8,31.64-24.41,37.91l30.52,33.09h-36.78l-26.98-29.72Zm12.37-23.45c10.12,0,17.99-6.91,17.99-17.83s-7.87-17.99-17.99-17.99h-19.95v35.82h19.95Z"/><path class="cls-2" d="m1344.36,295.26c44.97,0,68.74,24.25,68.74,56.21s-23.77,56.22-68.74,56.22h-35.5v-112.43h35.5Zm-2.57,89.47c28.11,0,44.01-11.24,44.01-33.25s-15.9-33.25-44.01-33.25h-5.62v66.5h5.62Z"/><polygon class="cls-1" points="625.64 383.39 625.64 294.96 601.81 294.96 601.81 407.23 713.94 407.23 713.94 383.39 625.64 383.39"/><polygon class="cls-1" points="673.32 335.7 673.32 294.97 649.48 294.97 649.48 359.54 713.94 359.54 713.94 335.7 673.32 335.7"/></svg>