<?xml version="1.0" encoding="UTF-8"?><svg id="Layer_1" xmlns="http://www.w3.org/2000/svg" xmlns:xlink="http://www.w3.org/1999/xlink" viewBox="0 0 1920 834.05"><defs><style>.cls-1{fill:url(#linear-gradient);}.cls-1,.cls-2,.cls-3,.cls-4,.cls-5,.cls-6,.cls-7,.cls-8,.cls-9,.cls-10,.cls-11,.cls-12,.cls-13,.cls-14,.cls-15,.cls-16,.cls-17,.cls-18{stroke-width:0px;}.cls-2{fill:url(#linear-gradient-11);}.cls-3{fill:url(#linear-gradient-12);}.cls-4{fill:url(#linear-gradient-13);}.cls-5{fill:url(#linear-gradient-10);}.cls-6{fill:url(#linear-gradient-14);}.cls-19{fill:none;stroke:#003041;stroke-miterlimit:10;stroke-width:2px;}.cls-7{fill:url(#linear-gradient-4);}.cls-8{fill:url(#linear-gradient-2);}.cls-9{fill:url(#linear-gradient-3);}.cls-10{fill:url(#linear-gradient-8);}.cls-11{fill:url(#linear-gradient-9);}.cls-12{fill:url(#linear-gradient-7);}.cls-13{fill:url(#linear-gradient-5);}.cls-14{fill:url(#linear-gradient-6);}.cls-20{fill:#fff;font-family:Halcom-ExtraBold, Halcom;font-size:18.87px;font-weight:700;letter-spacing:.23em;}.cls-15{fill:#9376c1;}.cls-16{fill:#80abbb;}.cls-17{fill:#e95800;}.cls-18{fill:#003041;}</style><linearGradient id="linear-gradient" x1="1216.03" y1="446.87" x2="733.18" y2="446.87" gradientUnits="userSpaceOnUse"><stop offset="0" stop-color="#80abbb"/><stop offset="1" stop-color="#003041"/></linearGradient><linearGradient id="linear-gradient-2" y1="446.84" y2="446.84" xlink:href="#linear-gradient"/><linearGradient id="linear-gradient-3" y1="446.86" y2="446.86" xlink:href="#linear-gradient"/><linearGradient id="linear-gradient-4" y1="447.02" y2="447.02" xlink:href="#linear-gradient"/><linearGradient id="linear-gradient-5" y1="446.84" y2="446.84" xlink:href="#linear-gradient"/><linearGradient id="linear-gradient-6" x1="1216.03" y1="400.06" x2="733.18" y2="400.06" xlink:href="#linear-gradient"/><linearGradient id="linear-gradient-7" x1="1216.03" y1="400.06" x2="733.18" y2="400.06" xlink:href="#linear-gradient"/><linearGradient id="linear-gradient-8" x1="1216.03" y1="400.06" x2="733.18" y2="400.06" xlink:href="#linear-gradient"/><linearGradient id="linear-gradient-9" x1="1216.03" y1="400.3" x2="733.18" y2="400.3" xlink:href="#linear-gradient"/><linearGradient id="linear-gradient-10" x1="1216.03" y1="400.3" x2="733.18" y2="400.3" xlink:href="#linear-gradient"/><linearGradient id="linear-gradient-11" x1="1216.03" y1="400.3" x2="733.18" y2="400.3" xlink:href="#linear-gradient"/><linearGradient id="linear-gradient-12" x1="1216.03" y1="400.3" x2="733.18" y2="400.3" xlink:href="#linear-gradient"/><linearGradient id="linear-gradient-13" x1="1216.03" y1="400.12" x2="733.18" y2="400.12" xlink:href="#linear-gradient"/><linearGradient id="linear-gradient-14" x1="1216.03" y1="389.29" x2="733.18" y2="389.29" xlink:href="#linear-gradient"/></defs><rect class="cls-16" x="718.13" y="95.76" width="470.19" height="128.99"/><path class="cls-15" d="m148.33,181.64c4.07,0,6.64,1.98,8.15,4.31l-3.48,1.89c-.91-1.39-2.6-2.48-4.66-2.48-3.58,0-6.17,2.75-6.17,6.47s2.59,6.47,6.17,6.47c1.8,0,3.39-.74,4.25-1.51v-2.39h-5.26v-3.6h9.39v7.53c-2.01,2.24-4.81,3.72-8.38,3.72-5.76,0-10.48-4.02-10.48-10.21s4.72-10.19,10.48-10.19Z"/><path class="cls-15" d="m181.72,201.65l-3.87-7.06h-3.07v7.06h-4.19v-19.69h9.21c4.11,0,6.61,2.69,6.61,6.35s-2.18,5.34-4.31,5.84l4.43,7.5h-4.81Zm-2.54-16.09h-4.4v5.43h4.4c1.68,0,2.95-1.06,2.95-2.72s-1.27-2.72-2.95-2.72Z"/><path class="cls-15" d="m209.84,181.64c5.96,0,10.3,4.25,10.3,10.19s-4.34,10.19-10.3,10.19-10.28-4.25-10.28-10.19,4.34-10.19,10.28-10.19Zm0,3.72c-3.63,0-5.97,2.78-5.97,6.47s2.33,6.47,5.97,6.47,5.99-2.81,5.99-6.47-2.36-6.47-5.99-6.47Z"/><path class="cls-15" d="m232.34,181.96h4.25v11.69c0,2.75,1.51,4.64,4.58,4.64s4.52-1.89,4.52-4.64v-11.69h4.25v11.81c0,4.9-2.81,8.24-8.77,8.24s-8.83-3.37-8.83-8.21v-11.84Z"/><path class="cls-15" d="m264.51,201.65v-19.69h9.21c4.28,0,6.61,2.89,6.61,6.35s-2.36,6.29-6.61,6.29h-5.02v7.06h-4.19Zm8.65-16.09h-4.46v5.43h4.46c1.65,0,2.89-1.06,2.89-2.72s-1.24-2.72-2.89-2.72Z"/><path class="cls-15" d="m173.18,159.76v10.79h-35.66v-51.06h35.67v10.79h-23.27v8.97h20.45v10.79h-20.45v9.7h23.26Z"/><path class="cls-15" d="m274.75,159.76v10.79h-35.68v-51.06h35.67v10.79h-23.27v8.97h20.46v10.79h-20.46v9.7h23.28Z"/><path class="cls-15" d="m306.92,143.35h29.54v1.02c0,15.75-10.65,27.2-26.7,27.2-16.99,0-27.42-12.11-27.42-26.55s10.58-26.55,27.42-26.55c12.91,0,22.25,7.22,25.53,18.67h-12.25c-2.19-4.38-6.27-8.02-13.2-8.02-9.41,0-15.1,6.64-15.1,15.9,0,10.21,5.76,16.27,14.95,16.27,6.71,0,11.31-3.36,13.2-7.81h-15.97v-10.14Z"/><path class="cls-15" d="m373.2,163.57h-21.22l-2.55,7.22h-13.42l21.95-51.06h9.34l21.95,51.06h-13.42l-2.63-7.22Zm-17.58-10.14h13.93l-6.93-19.26-7,19.26Z"/><path class="cls-15" d="m429.87,163.57h-21.22l-2.55,7.22h-13.42l21.95-51.06h9.34l21.95,51.06h-13.42l-2.63-7.22Zm-17.58-10.14h13.93l-6.93-19.26-7,19.26Z"/><path class="cls-15" d="m468.04,157.3h-3.44v13.49h-12.4v-51.06h23.21c10.79,0,18.82,8.17,18.82,18.82,0,7.95-4.45,14.37-11.09,17.21l13.86,15.03h-16.7l-12.25-13.49Zm5.62-10.65c4.59,0,8.17-3.14,8.17-8.1s-3.57-8.17-8.17-8.17h-9.06v16.27h9.06Z"/><path class="cls-15" d="m517.83,119.73c20.42,0,31.22,11.01,31.22,25.53s-10.79,25.53-31.22,25.53h-16.12v-51.06h16.12Zm-1.17,40.63c12.76,0,19.98-5.11,19.98-15.1s-7.22-15.1-19.98-15.1h-2.55v30.2h2.55Z"/><polygon class="cls-15" points="191.45 159.75 191.45 119.6 180.63 119.6 180.63 170.58 231.55 170.58 231.55 159.75 191.45 159.75"/><polygon class="cls-15" points="213.1 138.1 213.1 119.6 202.28 119.6 202.28 148.92 231.55 148.92 231.55 138.1 213.1 138.1"/><path class="cls-18" d="m761.32,181.64c4.07,0,6.64,1.98,8.15,4.31l-3.48,1.89c-.91-1.39-2.6-2.48-4.66-2.48-3.58,0-6.17,2.75-6.17,6.47s2.59,6.47,6.17,6.47c1.8,0,3.39-.74,4.25-1.51v-2.39h-5.26v-3.6h9.39v7.53c-2.01,2.24-4.81,3.72-8.38,3.72-5.76,0-10.48-4.02-10.48-10.21s4.72-10.19,10.48-10.19Z"/><path class="cls-18" d="m794.71,201.65l-3.87-7.06h-3.07v7.06h-4.19v-19.69h9.21c4.11,0,6.61,2.69,6.61,6.35s-2.18,5.34-4.31,5.84l4.43,7.5h-4.81Zm-2.54-16.09h-4.4v5.43h4.4c1.68,0,2.95-1.06,2.95-2.72s-1.27-2.72-2.95-2.72Z"/><path class="cls-18" d="m822.83,181.64c5.96,0,10.3,4.25,10.3,10.19s-4.34,10.19-10.3,10.19-10.28-4.25-10.28-10.19,4.34-10.19,10.28-10.19Zm0,3.72c-3.63,0-5.97,2.78-5.97,6.47s2.33,6.47,5.97,6.47,5.99-2.81,5.99-6.47-2.36-6.47-5.99-6.47Z"/><path class="cls-18" d="m845.32,181.96h4.25v11.69c0,2.75,1.51,4.64,4.58,4.64s4.52-1.89,4.52-4.64v-11.69h4.25v11.81c0,4.9-2.81,8.24-8.77,8.24s-8.83-3.37-8.83-8.21v-11.84Z"/><path class="cls-18" d="m877.49,201.65v-19.69h9.21c4.28,0,6.61,2.89,6.61,6.35s-2.36,6.29-6.61,6.29h-5.02v7.06h-4.19Zm8.65-16.09h-4.46v5.43h4.46c1.65,0,2.89-1.06,2.89-2.72s-1.24-2.72-2.89-2.72Z"/><path class="cls-18" d="m786.17,159.76v10.79h-35.66v-51.06h35.67v10.79h-23.27v8.97h20.45v10.79h-20.45v9.7h23.26Z"/><path class="cls-18" d="m887.74,159.76v10.79h-35.68v-51.06h35.67v10.79h-23.27v8.97h20.46v10.79h-20.46v9.7h23.28Z"/><path class="cls-18" d="m919.9,143.35h29.54v1.02c0,15.75-10.65,27.2-26.7,27.2-16.99,0-27.42-12.11-27.42-26.55s10.58-26.55,27.42-26.55c12.91,0,22.25,7.22,25.53,18.67h-12.25c-2.19-4.38-6.27-8.02-13.2-8.02-9.41,0-15.1,6.64-15.1,15.9,0,10.21,5.76,16.27,14.95,16.27,6.71,0,11.31-3.36,13.2-7.81h-15.97v-10.14Z"/><path class="cls-18" d="m986.19,163.57h-21.22l-2.55,7.22h-13.42l21.95-51.06h9.34l21.95,51.06h-13.42l-2.63-7.22Zm-17.58-10.14h13.93l-6.93-19.26-7,19.26Z"/><path class="cls-18" d="m1042.86,163.57h-21.22l-2.55,7.22h-13.42l21.95-51.06h9.34l21.95,51.06h-13.42l-2.63-7.22Zm-17.58-10.14h13.93l-6.93-19.26-7,19.26Z"/><path class="cls-18" d="m1081.03,157.3h-3.44v13.49h-12.4v-51.06h23.21c10.79,0,18.82,8.17,18.82,18.82,0,7.95-4.45,14.37-11.09,17.21l13.86,15.03h-16.7l-12.25-13.49Zm5.62-10.65c4.59,0,8.17-3.14,8.17-8.1s-3.57-8.17-8.17-8.17h-9.06v16.27h9.06Z"/><path class="cls-18" d="m1130.82,119.73c20.42,0,31.22,11.01,31.22,25.53s-10.79,25.53-31.22,25.53h-16.12v-51.06h16.12Zm-1.17,40.63c12.76,0,19.98-5.11,19.98-15.1s-7.22-15.1-19.98-15.1h-2.55v30.2h2.55Z"/><polygon class="cls-17" points="804.44 159.75 804.44 119.6 793.62 119.6 793.62 170.58 844.53 170.58 844.53 159.75 804.44 159.75"/><polygon class="cls-17" points="826.09 138.1 826.09 119.6 815.27 119.6 815.27 148.92 844.54 148.92 844.54 138.1 826.09 138.1"/><rect class="cls-17" x="1372.39" y="95.76" width="470.19" height="128.99"/><path class="cls-16" d="m1415.58,181.64c4.07,0,6.64,1.98,8.15,4.31l-3.48,1.89c-.91-1.39-2.6-2.48-4.66-2.48-3.58,0-6.17,2.75-6.17,6.47s2.59,6.47,6.17,6.47c1.8,0,3.39-.74,4.25-1.51v-2.39h-5.26v-3.6h9.39v7.53c-2.01,2.24-4.81,3.72-8.38,3.72-5.76,0-10.48-4.02-10.48-10.21s4.72-10.19,10.48-10.19Z"/><path class="cls-16" d="m1448.97,201.65l-3.87-7.06h-3.07v7.06h-4.19v-19.69h9.21c4.11,0,6.61,2.69,6.61,6.35s-2.18,5.34-4.31,5.84l4.43,7.5h-4.81Zm-2.54-16.09h-4.4v5.43h4.4c1.68,0,2.95-1.06,2.95-2.72s-1.27-2.72-2.95-2.72Z"/><path class="cls-16" d="m1477.08,181.64c5.96,0,10.3,4.25,10.3,10.19s-4.34,10.19-10.3,10.19-10.28-4.25-10.28-10.19,4.34-10.19,10.28-10.19Zm0,3.72c-3.63,0-5.97,2.78-5.97,6.47s2.33,6.47,5.97,6.47,5.99-2.81,5.99-6.47-2.36-6.47-5.99-6.47Z"/><path class="cls-16" d="m1499.58,181.96h4.25v11.69c0,2.75,1.51,4.64,4.58,4.64s4.52-1.89,4.52-4.64v-11.69h4.25v11.81c0,4.9-2.81,8.24-8.77,8.24s-8.83-3.37-8.83-8.21v-11.84Z"/><path class="cls-16" d="m1531.75,201.65v-19.69h9.21c4.28,0,6.61,2.89,6.61,6.35s-2.36,6.29-6.61,6.29h-5.02v7.06h-4.19Zm8.65-16.09h-4.46v5.43h4.46c1.65,0,2.89-1.06,2.89-2.72s-1.24-2.72-2.89-2.72Z"/><path class="cls-16" d="m1440.43,159.76v10.79h-35.66v-51.06h35.67v10.79h-23.27v8.97h20.45v10.79h-20.45v9.7h23.26Z"/><path class="cls-16" d="m1542,159.76v10.79h-35.68v-51.06h35.67v10.79h-23.27v8.97h20.46v10.79h-20.46v9.7h23.28Z"/><path class="cls-16" d="m1574.16,143.35h29.54v1.02c0,15.75-10.65,27.2-26.7,27.2-16.99,0-27.42-12.11-27.42-26.55s10.58-26.55,27.42-26.55c12.91,0,22.25,7.22,25.53,18.67h-12.25c-2.19-4.38-6.27-8.02-13.2-8.02-9.41,0-15.1,6.64-15.1,15.9,0,10.21,5.76,16.27,14.95,16.27,6.71,0,11.31-3.36,13.2-7.81h-15.97v-10.14Z"/><path class="cls-16" d="m1640.45,163.57h-21.22l-2.55,7.22h-13.42l21.95-51.06h9.34l21.95,51.06h-13.42l-2.63-7.22Zm-17.58-10.14h13.93l-6.93-19.26-7,19.26Z"/><path class="cls-16" d="m1697.12,163.57h-21.22l-2.55,7.22h-13.42l21.95-51.06h9.34l21.95,51.06h-13.42l-2.63-7.22Zm-17.58-10.14h13.93l-6.93-19.26-7,19.26Z"/><path class="cls-16" d="m1735.29,157.3h-3.44v13.49h-12.4v-51.06h23.21c10.79,0,18.82,8.17,18.82,18.82,0,7.95-4.45,14.37-11.09,17.21l13.86,15.03h-16.7l-12.25-13.49Zm5.62-10.65c4.59,0,8.17-3.14,8.17-8.1s-3.57-8.17-8.17-8.17h-9.06v16.27h9.06Z"/><path class="cls-16" d="m1785.07,119.73c20.42,0,31.22,11.01,31.22,25.53s-10.79,25.53-31.22,25.53h-16.12v-51.06h16.12Zm-1.17,40.63c12.76,0,19.98-5.11,19.98-15.1s-7.22-15.1-19.98-15.1h-2.55v30.2h2.55Z"/><polygon class="cls-16" points="1458.7 159.75 1458.7 119.6 1447.87 119.6 1447.87 170.58 1498.79 170.58 1498.79 159.75 1458.7 159.75"/><polygon class="cls-16" points="1480.35 138.1 1480.35 119.6 1469.52 119.6 1469.52 148.92 1498.79 148.92 1498.79 138.1 1480.35 138.1"/><path class="cls-18" d="m145.47,721.4c3.32,0,5.41,1.98,6.64,4.31l-2.84,1.89c-.74-1.39-2.12-2.48-3.8-2.48-2.91,0-5.03,2.75-5.03,6.47s2.11,6.47,5.03,6.47c1.47,0,2.77-.74,3.46-1.51v-2.39h-4.28v-3.6h7.65v7.53c-1.63,2.24-3.92,3.72-6.83,3.72-4.69,0-8.54-4.02-8.54-10.21s3.85-10.19,8.54-10.19Z"/><path class="cls-18" d="m172.67,741.41l-3.15-7.06h-2.5v7.06h-3.42v-19.69h7.51c3.35,0,5.39,2.69,5.39,6.35s-1.78,5.34-3.51,5.84l3.61,7.5h-3.92Zm-2.07-16.09h-3.59v5.43h3.59c1.37,0,2.4-1.06,2.4-2.72s-1.03-2.72-2.4-2.72Z"/><path class="cls-18" d="m195.58,721.4c4.86,0,8.39,4.25,8.39,10.19s-3.54,10.19-8.39,10.19-8.37-4.25-8.37-10.19,3.54-10.19,8.37-10.19Zm0,3.72c-2.96,0-4.86,2.78-4.86,6.47s1.9,6.47,4.86,6.47,4.88-2.81,4.88-6.47-1.92-6.47-4.88-6.47Z"/><path class="cls-18" d="m213.91,721.72h3.46v11.69c0,2.75,1.23,4.64,3.73,4.64s3.68-1.89,3.68-4.64v-11.69h3.46v11.81c0,4.9-2.29,8.24-7.14,8.24s-7.19-3.37-7.19-8.21v-11.84Z"/><path class="cls-18" d="m240.13,741.41v-19.69h7.51c3.49,0,5.39,2.89,5.39,6.35s-1.92,6.29-5.39,6.29h-4.09v7.06h-3.42Zm7.05-16.09h-3.63v5.43h3.63c1.35,0,2.36-1.06,2.36-2.72s-1.01-2.72-2.36-2.72Z"/><path class="cls-18" d="m165.72,699.52v10.79h-29.06v-51.06h29.06v10.79h-18.96v8.97h16.67v10.79h-16.67v9.7h18.95Z"/><path class="cls-18" d="m248.48,699.52v10.79h-29.07v-51.06h29.06v10.79h-18.96v8.97h16.67v10.79h-16.67v9.7h18.97Z"/><path class="cls-18" d="m274.69,683.1h24.07v1.02c0,15.75-8.68,27.2-21.75,27.2-13.85,0-22.35-12.11-22.35-26.55s8.62-26.55,22.35-26.55c10.52,0,18.13,7.22,20.8,18.67h-9.98c-1.78-4.38-5.11-8.02-10.76-8.02-7.67,0-12.3,6.64-12.3,15.9,0,10.21,4.69,16.27,12.18,16.27,5.47,0,9.21-3.36,10.76-7.81h-13.02v-10.14Z"/><path class="cls-18" d="m328.7,703.33h-17.29l-2.08,7.22h-10.94l17.89-51.06h7.61l17.89,51.06h-10.94l-2.14-7.22Zm-14.32-10.14h11.35l-5.65-19.26-5.71,19.26Z"/><path class="cls-18" d="m374.87,703.33h-17.29l-2.08,7.22h-10.94l17.89-51.06h7.61l17.89,51.06h-10.94l-2.14-7.22Zm-14.32-10.14h11.35l-5.65-19.26-5.71,19.26Z"/><path class="cls-18" d="m405.98,697.06h-2.81v13.49h-10.1v-51.06h18.91c8.8,0,15.33,8.17,15.33,18.82,0,7.95-3.63,14.37-9.03,17.21l11.29,15.03h-13.61l-9.98-13.49Zm4.58-10.65c3.74,0,6.66-3.14,6.66-8.1s-2.91-8.17-6.66-8.17h-7.38v16.27h7.38Z"/><path class="cls-18" d="m446.54,659.49c16.64,0,25.44,11.01,25.44,25.53s-8.8,25.53-25.44,25.53h-13.13v-51.06h13.13Zm-.95,40.63c10.4,0,16.28-5.11,16.28-15.1s-5.88-15.1-16.28-15.1h-2.08v30.2h2.08Z"/><polygon class="cls-17" points="180.6 699.51 180.6 659.36 171.78 659.36 171.78 710.34 213.27 710.34 213.27 699.51 180.6 699.51"/><polygon class="cls-17" points="198.24 677.86 198.24 659.36 189.42 659.36 189.42 688.68 213.27 688.68 213.27 677.86 198.24 677.86"/><path class="cls-18" d="m761.32,735.77c4.07,0,6.64,1.98,8.15,4.31l-3.48,1.89c-.91-1.39-2.6-2.48-4.66-2.48-3.58,0-6.17,2.75-6.17,6.47s2.59,6.47,6.17,6.47c1.8,0,3.39-.74,4.25-1.51v-2.39h-5.26v-3.6h9.39v7.53c-2.01,2.24-4.81,3.72-8.38,3.72-5.76,0-10.48-4.02-10.48-10.21s4.72-10.19,10.48-10.19Z"/><path class="cls-18" d="m794.71,755.79l-3.87-7.06h-3.07v7.06h-4.19v-19.69h9.21c4.11,0,6.61,2.69,6.61,6.35s-2.18,5.34-4.31,5.84l4.43,7.5h-4.81Zm-2.54-16.09h-4.4v5.43h4.4c1.68,0,2.95-1.06,2.95-2.72s-1.27-2.72-2.95-2.72Z"/><path class="cls-18" d="m822.83,735.77c5.96,0,10.3,4.25,10.3,10.19s-4.34,10.19-10.3,10.19-10.28-4.25-10.28-10.19,4.34-10.19,10.28-10.19Zm0,3.72c-3.63,0-5.97,2.78-5.97,6.47s2.33,6.47,5.97,6.47,5.99-2.81,5.99-6.47-2.36-6.47-5.99-6.47Z"/><path class="cls-18" d="m845.32,736.09h4.25v11.69c0,2.75,1.51,4.64,4.58,4.64s4.52-1.89,4.52-4.64v-11.69h4.25v11.81c0,4.9-2.81,8.24-8.77,8.24s-8.83-3.37-8.83-8.21v-11.84Z"/><path class="cls-18" d="m877.49,755.79v-19.69h9.21c4.28,0,6.61,2.89,6.61,6.35s-2.36,6.29-6.61,6.29h-5.02v7.06h-4.19Zm8.65-16.09h-4.46v5.43h4.46c1.65,0,2.89-1.06,2.89-2.72s-1.24-2.72-2.89-2.72Z"/><path class="cls-18" d="m786.17,669.32v10.79h-35.66v-51.06h35.67v10.79h-23.27v8.97h20.45v10.79h-20.45v9.7h23.26Z"/><path class="cls-18" d="m887.74,669.32v10.79h-35.68v-51.06h35.67v10.79h-23.27v8.97h20.46v10.79h-20.46v9.7h23.28Z"/><path class="cls-18" d="m919.9,652.91h29.54v1.02c0,15.75-10.65,27.2-26.7,27.2-16.99,0-27.42-12.11-27.42-26.55s10.58-26.55,27.42-26.55c12.91,0,22.25,7.22,25.53,18.67h-12.25c-2.19-4.38-6.27-8.02-13.2-8.02-9.41,0-15.1,6.64-15.1,15.9,0,10.21,5.76,16.27,14.95,16.27,6.71,0,11.31-3.36,13.2-7.81h-15.97v-10.14Z"/><path class="cls-18" d="m986.19,673.13h-21.22l-2.55,7.22h-13.42l21.95-51.06h9.34l21.95,51.06h-13.42l-2.63-7.22Zm-17.58-10.14h13.93l-6.93-19.26-7,19.26Z"/><path class="cls-18" d="m1042.86,673.13h-21.22l-2.55,7.22h-13.42l21.95-51.06h9.34l21.95,51.06h-13.42l-2.63-7.22Zm-17.58-10.14h13.93l-6.93-19.26-7,19.26Z"/><path class="cls-18" d="m1081.03,666.86h-3.44v13.49h-12.4v-51.06h23.21c10.79,0,18.82,8.17,18.82,18.82,0,7.95-4.45,14.37-11.09,17.21l13.86,15.03h-16.7l-12.25-13.49Zm5.62-10.65c4.59,0,8.17-3.14,8.17-8.1s-3.57-8.17-8.17-8.17h-9.06v16.27h9.06Z"/><path class="cls-18" d="m1130.82,629.3c20.42,0,31.22,11.01,31.22,25.53s-10.79,25.53-31.22,25.53h-16.12v-51.06h16.12Zm-1.17,40.63c12.76,0,19.98-5.11,19.98-15.1s-7.22-15.1-19.98-15.1h-2.55v30.2h2.55Z"/><polygon class="cls-17" points="804.44 669.32 804.44 629.16 793.62 629.16 793.62 680.14 844.53 680.14 844.53 669.32 804.44 669.32"/><polygon class="cls-17" points="826.09 647.66 826.09 629.16 815.27 629.16 815.27 658.49 844.54 658.49 844.54 647.66 826.09 647.66"/><path class="cls-18" d="m1385.39,681.09c3.99.83,6.1,3.29,7.09,5.89l-3.8,1.14c-.61-1.55-2.04-2.96-4.06-3.38-3.5-.73-6.6,1.43-7.36,5.07s1.22,6.86,4.72,7.59c1.76.37,3.47-.03,4.47-.61l.49-2.34-5.15-1.07.74-3.52,9.19,1.92-1.54,7.37c-2.42,1.79-5.47,2.66-8.97,1.93-5.64-1.18-9.44-6.07-8.17-12.14,1.27-6.1,6.71-9.01,12.34-7.83Z"/><path class="cls-18" d="m1413.98,707.51l-2.34-7.7-3.01-.63-1.44,6.91-4.1-.86,4.03-19.28,9.02,1.88c4.02.84,5.92,3.98,5.18,7.57s-3.23,4.78-5.41,4.84l2.8,8.25-4.71-.98Zm.81-16.27l-4.31-.9-1.11,5.32,4.31.9c1.65.34,3.11-.44,3.44-2.06s-.69-2.92-2.33-3.26Z"/><path class="cls-18" d="m1445.59,693.66c5.84,1.22,9.21,6.27,8,12.08-1.21,5.81-6.33,9.08-12.17,7.86s-9.19-6.26-7.98-12.07c1.21-5.81,6.33-9.08,12.14-7.87Zm-.76,3.64c-3.56-.74-6.41,1.5-7.16,5.11-.75,3.58.96,6.81,4.52,7.55s6.44-1.52,7.19-5.1c.75-3.61-.99-6.81-4.54-7.55Z"/><path class="cls-18" d="m1467.55,698.58l4.16.87-2.39,11.44c-.56,2.69.53,4.85,3.53,5.47s4.81-.93,5.37-3.62l2.39-11.44,4.16.87-2.41,11.56c-1,4.8-4.43,7.49-10.27,6.27-5.9-1.23-7.96-5.1-6.97-9.84l2.42-11.59Z"/><path class="cls-18" d="m1495.01,724.43l4.03-19.28,9.02,1.88c4.19.88,5.88,4.19,5.18,7.57s-3.6,5.67-7.76,4.8l-4.91-1.03-1.44,6.91-4.1-.86Zm11.76-13.98l-4.36-.91-1.11,5.32,4.36.91c1.62.34,3.05-.45,3.39-2.07s-.66-2.91-2.28-3.25Z"/><path class="cls-18" d="m1414.19,664.75l-2.21,10.57-34.9-7.29,10.44-49.98,34.91,7.29-2.21,10.57-22.78-4.76-1.83,8.78,20.02,4.18-2.21,10.57-20.02-4.18-1.98,9.5,22.77,4.75Z"/><path class="cls-18" d="m1513.61,685.52l-2.21,10.57-34.93-7.29,10.44-49.98,34.91,7.29-2.21,10.57-22.78-4.76-1.83,8.78,20.03,4.18-2.21,10.57-20.03-4.18-1.98,9.5,22.79,4.76Z"/><path class="cls-18" d="m1548.45,676.03l28.92,6.04-.21,1c-3.22,15.42-15.99,24.45-31.69,21.17-16.63-3.47-24.37-17.46-21.42-31.6,3.01-14.42,15.78-23.83,32.27-20.38,12.64,2.64,20.3,11.62,21.17,23.5l-11.99-2.5c-1.25-4.73-4.5-9.14-11.28-10.55-9.21-1.92-16.14,3.41-18.03,12.48-2.09,10,2.31,17.1,11.31,18.98,6.57,1.37,11.75-.97,14.52-4.94l-15.64-3.27,2.07-9.92Z"/><path class="cls-18" d="m1609.2,709.38l-20.78-4.34-3.98,6.55-13.14-2.74,31.93-45.49,9.14,1.91,11.05,54.47-13.14-2.74-1.09-7.6Zm-15.13-13.52l13.64,2.85-2.85-20.27-10.79,17.42Z"/><path class="cls-18" d="m1664.67,720.96l-20.78-4.34-3.98,6.55-13.14-2.74,31.93-45.49,9.14,1.91,11.05,54.47-13.14-2.74-1.09-7.6Zm-15.13-13.52l13.64,2.85-2.85-20.27-10.79,17.42Z"/><path class="cls-18" d="m1703.32,722.62l-3.37-.7-2.76,13.21-12.14-2.53,10.44-49.98,22.72,4.75c10.57,2.21,16.75,11.84,14.57,22.27-1.63,7.78-7.29,13.16-14.37,14.58l10.49,17.54-16.35-3.41-9.24-15.71Zm7.67-9.28c4.5.94,8.64-1.4,9.65-6.26,1.01-4.86-1.83-8.73-6.33-9.67l-8.87-1.85-3.33,15.92,8.87,1.85Z"/><path class="cls-18" d="m1759.73,696.03c19.99,4.17,28.31,17.16,25.34,31.37-2.97,14.21-15.79,22.78-35.78,18.61l-15.78-3.3,10.44-49.98,15.78,3.3Zm-9.45,39.53c12.49,2.61,20.61-.91,22.65-10.7,2.04-9.78-3.98-16.26-16.48-18.86l-2.5-.52-6.17,29.56,2.5.52Z"/><polygon class="cls-17" points="1432.07 668.48 1440.28 629.18 1429.68 626.96 1419.26 676.87 1469.1 687.28 1471.32 676.68 1432.07 668.48"/><polygon class="cls-17" points="1457.69 651.71 1461.47 633.6 1450.87 631.39 1444.88 660.1 1473.53 666.08 1475.74 655.48 1457.69 651.71"/><circle class="cls-16" cx="81.31" cy="154.59" r="18.64"/><text class="cls-20" transform="translate(76.52 160.31)"><tspan x="0" y="0">1</tspan></text><circle class="cls-16" cx="1326.38" cy="154.59" r="18.64"/><text class="cls-20" transform="translate(1320.52 160.31)"><tspan x="0" y="0">3</tspan></text><circle class="cls-16" cx="672.13" cy="154.59" r="18.64"/><text class="cls-20" transform="translate(666.41 160.31)"><tspan x="0" y="0">2</tspan></text><circle class="cls-16" cx="81.31" cy="694.65" r="18.64"/><text class="cls-20" transform="translate(76.16 700.38)"><tspan x="0" y="0">7</tspan></text><circle class="cls-16" cx="1326.38" cy="694.65" r="18.64"/><text class="cls-20" transform="translate(1320.23 700.38)"><tspan x="0" y="0">9</tspan></text><circle class="cls-16" cx="672.13" cy="694.65" r="18.64"/><text class="cls-20" transform="translate(665.65 700.38)"><tspan x="0" y="0">8</tspan></text><circle class="cls-16" cx="81.31" cy="404.23" r="18.64"/><text class="cls-20" transform="translate(75.15 409.95)"><tspan x="0" y="0">4</tspan></text><circle class="cls-16" cx="1326.38" cy="404.23" r="18.64"/><text class="cls-20" transform="translate(1320.23 409.95)"><tspan x="0" y="0">6</tspan></text><circle class="cls-16" cx="672.13" cy="404.23" r="18.64"/><text class="cls-20" transform="translate(666.25 409.95)"><tspan x="0" y="0">5</tspan></text><path class="cls-17" d="m1385.64,440.14c4.07,0,6.64,1.98,8.15,4.31l-3.48,1.89c-.91-1.39-2.6-2.48-4.66-2.48-3.58,0-6.17,2.75-6.17,6.47s2.59,6.47,6.17,6.47c1.8,0,3.39-.74,4.25-1.51v-2.39h-5.26v-3.6h9.39v7.53c-2.01,2.24-4.81,3.72-8.38,3.72-5.76,0-10.48-4.02-10.48-10.21s4.72-10.19,10.48-10.19Z"/><path class="cls-17" d="m1419.03,460.15l-3.87-7.06h-3.07v7.06h-4.19v-19.69h9.21c4.11,0,6.61,2.69,6.61,6.35s-2.18,5.34-4.31,5.84l4.43,7.5h-4.81Zm-2.54-16.09h-4.4v5.43h4.4c1.68,0,2.95-1.06,2.95-2.72s-1.27-2.72-2.95-2.72Z"/><path class="cls-17" d="m1447.15,440.14c5.96,0,10.3,4.25,10.3,10.19s-4.34,10.19-10.3,10.19-10.28-4.25-10.28-10.19,4.34-10.19,10.28-10.19Zm0,3.72c-3.63,0-5.97,2.78-5.97,6.47s2.33,6.47,5.97,6.47,5.99-2.81,5.99-6.47-2.36-6.47-5.99-6.47Z"/><path class="cls-17" d="m1469.64,440.46h4.25v11.69c0,2.75,1.51,4.64,4.58,4.64s4.52-1.89,4.52-4.64v-11.69h4.25v11.81c0,4.9-2.81,8.24-8.77,8.24s-8.83-3.37-8.83-8.21v-11.84Z"/><path class="cls-17" d="m1501.81,460.15v-19.69h9.21c4.28,0,6.61,2.89,6.61,6.35s-2.36,6.29-6.61,6.29h-5.02v7.06h-4.19Zm8.65-16.09h-4.46v5.43h4.46c1.65,0,2.89-1.06,2.89-2.72s-1.24-2.72-2.89-2.72Z"/><path class="cls-16" d="m1410.49,418.26v10.79h-35.66v-51.06h35.67v10.79h-23.27v8.97h20.45v10.79h-20.45v9.7h23.26Z"/><path class="cls-16" d="m1512.06,418.26v10.79h-35.68v-51.06h35.67v10.79h-23.27v8.97h20.46v10.79h-20.46v9.7h23.28Z"/><path class="cls-16" d="m1544.22,401.85h29.54v1.02c0,15.75-10.65,27.2-26.7,27.2-16.99,0-27.42-12.11-27.42-26.55s10.58-26.55,27.42-26.55c12.91,0,22.25,7.22,25.53,18.67h-12.25c-2.19-4.38-6.27-8.02-13.2-8.02-9.41,0-15.1,6.64-15.1,15.9,0,10.21,5.76,16.27,14.95,16.27,6.71,0,11.31-3.36,13.2-7.81h-15.97v-10.14Z"/><path class="cls-16" d="m1610.51,422.07h-21.22l-2.55,7.22h-13.42l21.95-51.06h9.34l21.95,51.06h-13.42l-2.63-7.22Zm-17.58-10.14h13.93l-6.93-19.26-7,19.26Z"/><path class="cls-16" d="m1667.18,422.07h-21.22l-2.55,7.22h-13.42l21.95-51.06h9.34l21.95,51.06h-13.42l-2.63-7.22Zm-17.58-10.14h13.93l-6.93-19.26-7,19.26Z"/><path class="cls-16" d="m1705.35,415.8h-3.44v13.49h-12.4v-51.06h23.21c10.79,0,18.82,8.17,18.82,18.82,0,7.95-4.45,14.37-11.09,17.21l13.86,15.03h-16.7l-12.25-13.49Zm5.62-10.65c4.59,0,8.17-3.14,8.17-8.1s-3.57-8.17-8.17-8.17h-9.06v16.27h9.06Z"/><path class="cls-16" d="m1755.13,378.23c20.42,0,31.22,11.01,31.22,25.53s-10.79,25.53-31.22,25.53h-16.12v-51.06h16.12Zm-1.17,40.63c12.76,0,19.98-5.11,19.98-15.1s-7.22-15.1-19.98-15.1h-2.55v30.2h2.55Z"/><polygon class="cls-18" points="1428.76 418.25 1428.76 378.1 1417.93 378.1 1417.93 429.08 1468.85 429.08 1468.85 418.25 1428.76 418.25"/><polygon class="cls-18" points="1450.41 396.6 1450.41 378.1 1439.59 378.1 1439.59 407.42 1468.85 407.42 1468.85 396.6 1450.41 396.6"/><path class="cls-19" d="m148.33,436.67c4.07,0,6.64,1.98,8.15,4.31l-3.48,1.89c-.91-1.39-2.6-2.48-4.66-2.48-3.58,0-6.17,2.75-6.17,6.47s2.59,6.47,6.17,6.47c1.8,0,3.39-.74,4.25-1.51v-2.39h-5.26v-3.6h9.39v7.53c-2.01,2.24-4.81,3.72-8.38,3.72-5.76,0-10.48-4.02-10.48-10.21s4.72-10.19,10.48-10.19Z"/><path class="cls-19" d="m181.72,456.69l-3.87-7.06h-3.07v7.06h-4.19v-19.69h9.21c4.11,0,6.61,2.69,6.61,6.35s-2.18,5.34-4.31,5.84l4.43,7.5h-4.81Zm-2.54-16.09h-4.4v5.43h4.4c1.68,0,2.95-1.06,2.95-2.72s-1.27-2.72-2.95-2.72Z"/><path class="cls-19" d="m209.84,436.67c5.96,0,10.3,4.25,10.3,10.19s-4.34,10.19-10.3,10.19-10.28-4.25-10.28-10.19,4.34-10.19,10.28-10.19Zm0,3.72c-3.63,0-5.97,2.78-5.97,6.47s2.33,6.47,5.97,6.47,5.99-2.81,5.99-6.47-2.36-6.47-5.99-6.47Z"/><path class="cls-19" d="m232.34,436.99h4.25v11.69c0,2.75,1.51,4.64,4.58,4.64s4.52-1.89,4.52-4.64v-11.69h4.25v11.81c0,4.9-2.81,8.24-8.77,8.24s-8.83-3.37-8.83-8.21v-11.84Z"/><path class="cls-19" d="m264.51,456.69v-19.69h9.21c4.28,0,6.61,2.89,6.61,6.35s-2.36,6.29-6.61,6.29h-5.02v7.06h-4.19Zm8.65-16.09h-4.46v5.43h4.46c1.65,0,2.89-1.06,2.89-2.72s-1.24-2.72-2.89-2.72Z"/><path class="cls-19" d="m173.18,414.79v10.79h-35.66v-51.06h35.67v10.79h-23.27v8.97h20.45v10.79h-20.45v9.7h23.26Z"/><path class="cls-19" d="m274.75,414.79v10.79h-35.68v-51.06h35.67v10.79h-23.27v8.97h20.46v10.79h-20.46v9.7h23.28Z"/><path class="cls-19" d="m306.92,398.38h29.54v1.02c0,15.75-10.65,27.2-26.7,27.2-16.99,0-27.42-12.11-27.42-26.55s10.58-26.55,27.42-26.55c12.91,0,22.25,7.22,25.53,18.67h-12.25c-2.19-4.38-6.27-8.02-13.2-8.02-9.41,0-15.1,6.64-15.1,15.9,0,10.21,5.76,16.27,14.95,16.27,6.71,0,11.31-3.36,13.2-7.81h-15.97v-10.14Z"/><path class="cls-19" d="m373.2,418.6h-21.22l-2.55,7.22h-13.42l21.95-51.06h9.34l21.95,51.06h-13.42l-2.63-7.22Zm-17.58-10.14h13.93l-6.93-19.26-7,19.26Z"/><path class="cls-19" d="m429.87,418.6h-21.22l-2.55,7.22h-13.42l21.95-51.06h9.34l21.95,51.06h-13.42l-2.63-7.22Zm-17.58-10.14h13.93l-6.93-19.26-7,19.26Z"/><path class="cls-19" d="m468.04,412.33h-3.44v13.49h-12.4v-51.06h23.21c10.79,0,18.82,8.17,18.82,18.82,0,7.95-4.45,14.37-11.09,17.21l13.86,15.03h-16.7l-12.25-13.49Zm5.62-10.65c4.59,0,8.17-3.14,8.17-8.1s-3.57-8.17-8.17-8.17h-9.06v16.27h9.06Z"/><path class="cls-19" d="m517.83,374.77c20.42,0,31.22,11.01,31.22,25.53s-10.79,25.53-31.22,25.53h-16.12v-51.06h16.12Zm-1.17,40.63c12.76,0,19.98-5.11,19.98-15.1s-7.22-15.1-19.98-15.1h-2.55v30.2h2.55Z"/><polygon class="cls-19" points="191.45 414.79 191.45 374.63 180.63 374.63 180.63 425.61 231.55 425.61 231.55 414.79 191.45 414.79"/><polygon class="cls-19" points="213.1 393.13 213.1 374.63 202.28 374.63 202.28 403.96 231.55 403.96 231.55 393.13 213.1 393.13"/><path class="cls-1" d="m761.32,436.67c4.07,0,6.64,1.98,8.15,4.31l-3.48,1.89c-.91-1.39-2.6-2.48-4.66-2.48-3.58,0-6.17,2.75-6.17,6.47s2.59,6.47,6.17,6.47c1.8,0,3.39-.74,4.25-1.51v-2.39h-5.26v-3.6h9.39v7.53c-2.01,2.24-4.81,3.72-8.38,3.72-5.76,0-10.48-4.02-10.48-10.21s4.72-10.19,10.48-10.19Z"/><path class="cls-8" d="m794.71,456.69l-3.87-7.06h-3.07v7.06h-4.19v-19.69h9.21c4.11,0,6.61,2.69,6.61,6.35s-2.18,5.34-4.31,5.84l4.43,7.5h-4.81Zm-2.54-16.09h-4.4v5.43h4.4c1.68,0,2.95-1.06,2.95-2.72s-1.27-2.72-2.95-2.72Z"/><path class="cls-9" d="m822.83,436.67c5.96,0,10.3,4.25,10.3,10.19s-4.34,10.19-10.3,10.19-10.28-4.25-10.28-10.19,4.34-10.19,10.28-10.19Zm0,3.72c-3.63,0-5.97,2.78-5.97,6.47s2.33,6.47,5.97,6.47,5.99-2.81,5.99-6.47-2.36-6.47-5.99-6.47Z"/><path class="cls-7" d="m845.32,436.99h4.25v11.69c0,2.75,1.51,4.64,4.58,4.64s4.52-1.89,4.52-4.64v-11.69h4.25v11.81c0,4.9-2.81,8.24-8.77,8.24s-8.83-3.37-8.83-8.21v-11.84Z"/><path class="cls-13" d="m877.49,456.69v-19.69h9.21c4.28,0,6.61,2.89,6.61,6.35s-2.36,6.29-6.61,6.29h-5.02v7.06h-4.19Zm8.65-16.09h-4.46v5.43h4.46c1.65,0,2.89-1.06,2.89-2.72s-1.24-2.72-2.89-2.72Z"/><path class="cls-14" d="m786.17,414.79v10.79h-35.66v-51.06h35.67v10.79h-23.27v8.97h20.45v10.79h-20.45v9.7h23.26Z"/><path class="cls-12" d="m887.74,414.79v10.79h-35.68v-51.06h35.67v10.79h-23.27v8.97h20.46v10.79h-20.46v9.7h23.28Z"/><path class="cls-10" d="m919.9,398.38h29.54v1.02c0,15.75-10.65,27.2-26.7,27.2-16.99,0-27.42-12.11-27.42-26.55s10.58-26.55,27.42-26.55c12.91,0,22.25,7.22,25.53,18.67h-12.25c-2.19-4.38-6.27-8.02-13.2-8.02-9.41,0-15.1,6.64-15.1,15.9,0,10.21,5.76,16.27,14.95,16.27,6.71,0,11.31-3.36,13.2-7.81h-15.97v-10.14Z"/><path class="cls-11" d="m986.19,418.6h-21.22l-2.55,7.22h-13.42l21.95-51.06h9.34l21.95,51.06h-13.42l-2.63-7.22Zm-17.58-10.14h13.93l-6.93-19.26-7,19.26Z"/><path class="cls-5" d="m1042.86,418.6h-21.22l-2.55,7.22h-13.42l21.95-51.06h9.34l21.95,51.06h-13.42l-2.63-7.22Zm-17.58-10.14h13.93l-6.93-19.26-7,19.26Z"/><path class="cls-2" d="m1081.03,412.33h-3.44v13.49h-12.4v-51.06h23.21c10.79,0,18.82,8.17,18.82,18.82,0,7.95-4.45,14.37-11.09,17.21l13.86,15.03h-16.7l-12.25-13.49Zm5.62-10.65c4.59,0,8.17-3.14,8.17-8.1s-3.57-8.17-8.17-8.17h-9.06v16.27h9.06Z"/><path class="cls-3" d="m1130.82,374.77c20.42,0,31.22,11.01,31.22,25.53s-10.79,25.53-31.22,25.53h-16.12v-51.06h16.12Zm-1.17,40.63c12.76,0,19.98-5.11,19.98-15.1s-7.22-15.1-19.98-15.1h-2.55v30.2h2.55Z"/><polygon class="cls-4" points="804.44 414.79 804.44 374.63 793.62 374.63 793.62 425.61 844.53 425.61 844.53 414.79 804.44 414.79"/><polygon class="cls-6" points="826.09 393.13 826.09 374.63 815.27 374.63 815.27 403.96 844.54 403.96 844.54 393.13 826.09 393.13"/></svg>