<?xml version="1.0" encoding="UTF-8"?><svg id="Layer_1" xmlns="http://www.w3.org/2000/svg" viewBox="0 0 1920 272.73"><defs><style>.cls-1{fill:#73acbc;}.cls-1,.cls-2,.cls-3{stroke-width:0px;}.cls-2{fill:#fff;}.cls-3{fill:#003041;}</style></defs><rect class="cls-1" x="417.17" y="168.64" width="160.18" height="27.91"/><path class="cls-3" d="m174.14,143.2v11.67h-38.53v-55.17h38.54v11.67h-25.14v9.69h22.1v11.67h-22.1v10.48h25.13Z"/><path class="cls-3" d="m283.9,143.2v11.67h-38.56v-55.17h38.54v11.67h-25.14v9.69h22.11v11.67h-22.11v10.48h25.16Z"/><path class="cls-3" d="m318.66,125.47h31.92v1.1c0,17.02-11.51,29.4-28.85,29.4-18.36,0-29.64-13.08-29.64-28.69s11.43-28.69,29.64-28.69c13.95,0,24.04,7.8,27.59,20.18h-13.24c-2.37-4.73-6.78-8.67-14.27-8.67-10.17,0-16.32,7.17-16.32,17.18,0,11.03,6.23,17.58,16.16,17.58,7.25,0,12.22-3.63,14.27-8.43h-17.26v-10.96Z"/><path class="cls-3" d="m390.29,147.32h-22.94l-2.76,7.8h-14.5l23.72-55.17h10.09l23.72,55.17h-14.5l-2.84-7.8Zm-19-10.96h15.05l-7.49-20.81-7.57,20.81Z"/><path class="cls-3" d="m451.52,147.32h-22.94l-2.76,7.8h-14.5l23.72-55.17h10.09l23.72,55.17h-14.5l-2.84-7.8Zm-19-10.96h15.05l-7.49-20.81-7.57,20.81Z"/><path class="cls-3" d="m492.77,140.54h-3.72v14.58h-13.4v-55.17h25.08c11.67,0,20.34,8.83,20.34,20.33,0,8.59-4.81,15.53-11.98,18.6l14.97,16.24h-18.05l-13.24-14.58Zm6.07-11.51c4.97,0,8.83-3.39,8.83-8.75s-3.86-8.83-8.83-8.83h-9.79v17.58h9.79Z"/><path class="cls-3" d="m546.57,99.95c22.07,0,33.73,11.9,33.73,27.59s-11.67,27.59-33.73,27.59h-17.42v-55.17h17.42Zm-1.26,43.9c13.79,0,21.6-5.52,21.6-16.32s-7.8-16.32-21.6-16.32h-2.76v32.63h2.76Z"/><polygon class="cls-1" points="193.88 143.2 193.88 99.81 182.19 99.81 182.19 154.89 237.21 154.89 237.21 143.2 193.88 143.2"/><polygon class="cls-1" points="217.28 119.8 217.28 99.81 205.58 99.81 205.58 131.49 237.21 131.49 237.21 119.8 217.28 119.8"/><path class="cls-2" d="m424.69,190.65v-16.01h8.02c3.6,0,5.57,2.42,5.57,5.33s-1.97,5.26-5.57,5.26h-3.89v5.42h-4.13Zm7.46-12.53h-3.34v3.6h3.34c1.1,0,1.92-.7,1.92-1.78s-.82-1.82-1.92-1.82Z"/><path class="cls-2" d="m453.39,174.38c4.9,0,8.54,3.41,8.54,8.28s-3.65,8.28-8.54,8.28-8.57-3.41-8.57-8.28,3.67-8.28,8.57-8.28Zm0,3.65c-2.66,0-4.37,2.02-4.37,4.63s1.7,4.63,4.37,4.63,4.34-2.04,4.34-4.63-1.7-4.63-4.34-4.63Z"/><path class="cls-2" d="m469.54,190.65v-16.01h4.13v12.41h6.43v3.6h-10.56Z"/><path class="cls-2" d="m489.06,190.65v-6.46l-6.07-9.55h4.66l3.48,5.9,3.43-5.9h4.68l-6.05,9.55v6.46h-4.13Z"/><path class="cls-2" d="m519.97,190.65v-10.8l-4.06,10.8h-1.82l-4.03-10.8v10.8h-4.13v-16.01h5.74l3.34,9.07,3.36-9.07h5.74v16.01h-4.13Z"/><path class="cls-2" d="m543.56,190.65l-.82-2.42h-6.65l-.82,2.42h-4.49l6.02-16.01h5.18l6.05,16.01h-4.49Zm-4.15-12.41l-2.23,6.5h4.49l-2.26-6.5Z"/><path class="cls-2" d="m564.89,190.65l-3.48-5.38-3.48,5.38h-4.9l5.59-8.21-5.23-7.8h4.87l3.14,5.02,3.1-5.02h4.9l-5.21,7.78,5.57,8.23h-4.87Z"/><polygon class="cls-1" points="1179.4 196.55 1067.01 196.06 1067.01 168.15 1179.4 168.64 1179.4 196.55"/><path class="cls-3" d="m776.18,143.2v11.67h-38.53v-55.17h38.54v11.67h-25.14v9.69h22.1v11.67h-22.1v10.48h25.13Z"/><path class="cls-3" d="m885.94,143.2v11.67h-38.56v-55.17h38.54v11.67h-25.14v9.69h22.11v11.67h-22.11v10.48h25.16Z"/><path class="cls-3" d="m920.7,125.47h31.92v1.1c0,17.02-11.51,29.4-28.85,29.4-18.36,0-29.64-13.08-29.64-28.69s11.43-28.69,29.64-28.69c13.95,0,24.04,7.8,27.59,20.18h-13.24c-2.37-4.73-6.78-8.67-14.27-8.67-10.17,0-16.32,7.17-16.32,17.18,0,11.03,6.23,17.58,16.16,17.58,7.25,0,12.22-3.63,14.27-8.43h-17.26v-10.96Z"/><path class="cls-3" d="m992.33,147.32h-22.94l-2.76,7.8h-14.5l23.72-55.17h10.09l23.72,55.17h-14.5l-2.84-7.8Zm-19-10.96h15.05l-7.49-20.81-7.57,20.81Z"/><path class="cls-3" d="m1053.57,147.32h-22.94l-2.76,7.8h-14.5l23.72-55.17h10.09l23.72,55.17h-14.5l-2.84-7.8Zm-19-10.96h15.05l-7.49-20.81-7.57,20.81Z"/><path class="cls-3" d="m1094.82,140.54h-3.72v14.58h-13.4v-55.17h25.08c11.67,0,20.34,8.83,20.34,20.33,0,8.59-4.81,15.53-11.98,18.6l14.97,16.24h-18.05l-13.24-14.58Zm6.07-11.51c4.97,0,8.83-3.39,8.83-8.75s-3.86-8.83-8.83-8.83h-9.79v17.58h9.79Z"/><path class="cls-3" d="m1148.61,99.95c22.07,0,33.73,11.9,33.73,27.59s-11.67,27.59-33.73,27.59h-17.42v-55.17h17.42Zm-1.26,43.9c13.79,0,21.6-5.52,21.6-16.32s-7.8-16.32-21.6-16.32h-2.76v32.63h2.76Z"/><polygon class="cls-1" points="795.93 143.2 795.93 99.81 784.23 99.81 784.23 154.89 839.25 154.89 839.25 143.2 795.93 143.2"/><polygon class="cls-1" points="819.32 119.8 819.32 99.81 807.62 99.81 807.62 131.49 839.25 131.49 839.25 119.8 819.32 119.8"/><path class="cls-2" d="m1080.95,190.65l-6.02-16.01h4.68l3.94,11.54,3.96-11.54h4.68l-6.05,16.01h-5.18Z"/><path class="cls-2" d="m1106.15,174.38c4.9,0,8.54,3.41,8.54,8.28s-3.65,8.28-8.54,8.28-8.57-3.41-8.57-8.28,3.67-8.28,8.57-8.28Zm0,3.65c-2.66,0-4.37,2.02-4.37,4.63s1.7,4.63,4.37,4.63,4.34-2.04,4.34-4.63-1.7-4.63-4.34-4.63Z"/><path class="cls-2" d="m1122.3,190.65v-16.01h4.13v12.41h6.43v3.6h-10.56Z"/><path class="cls-2" d="m1141.69,190.65v-12.41h-4.49v-3.6h13.08v3.6h-4.46v12.41h-4.13Z"/><path class="cls-2" d="m1167.34,190.65l-.82-2.42h-6.65l-.82,2.42h-4.49l6.02-16.01h5.18l6.05,16.01h-4.49Zm-4.15-12.41l-2.23,6.5h4.49l-2.26-6.5Z"/><polygon class="cls-1" points="1781.44 196.55 1639.5 196.06 1639.5 168.15 1781.44 168.64 1781.44 196.55"/><path class="cls-3" d="m1378.23,143.2v11.67h-38.53v-55.17h38.54v11.67h-25.14v9.69h22.1v11.67h-22.1v10.48h25.13Z"/><path class="cls-3" d="m1487.98,143.2v11.67h-38.56v-55.17h38.54v11.67h-25.14v9.69h22.11v11.67h-22.11v10.48h25.16Z"/><path class="cls-3" d="m1522.74,125.47h31.92v1.1c0,17.02-11.51,29.4-28.85,29.4-18.36,0-29.64-13.08-29.64-28.69s11.43-28.69,29.64-28.69c13.95,0,24.04,7.8,27.59,20.18h-13.24c-2.37-4.73-6.78-8.67-14.27-8.67-10.17,0-16.32,7.17-16.32,17.18,0,11.03,6.23,17.58,16.16,17.58,7.25,0,12.22-3.63,14.27-8.43h-17.26v-10.96Z"/><path class="cls-3" d="m1594.37,147.32h-22.94l-2.76,7.8h-14.5l23.72-55.17h10.09l23.72,55.17h-14.5l-2.84-7.8Zm-19-10.96h15.05l-7.49-20.81-7.57,20.81Z"/><path class="cls-3" d="m1655.61,147.32h-22.94l-2.76,7.8h-14.5l23.72-55.17h10.09l23.72,55.17h-14.5l-2.84-7.8Zm-19-10.96h15.05l-7.49-20.81-7.57,20.81Z"/><path class="cls-3" d="m1696.86,140.54h-3.72v14.58h-13.4v-55.17h25.08c11.67,0,20.34,8.83,20.34,20.33,0,8.59-4.81,15.53-11.98,18.6l14.97,16.24h-18.05l-13.24-14.58Zm6.07-11.51c4.97,0,8.83-3.39,8.83-8.75s-3.86-8.83-8.83-8.83h-9.79v17.58h9.79Z"/><path class="cls-3" d="m1750.66,99.95c22.07,0,33.73,11.9,33.73,27.59s-11.67,27.59-33.73,27.59h-17.42v-55.17h17.42Zm-1.26,43.9c13.79,0,21.6-5.52,21.6-16.32s-7.8-16.32-21.6-16.32h-2.76v32.63h2.76Z"/><polygon class="cls-1" points="1397.97 143.2 1397.97 99.81 1386.27 99.81 1386.27 154.89 1441.29 154.89 1441.29 143.2 1397.97 143.2"/><polygon class="cls-1" points="1421.36 119.8 1421.36 99.81 1409.67 99.81 1409.67 131.49 1441.29 131.49 1441.29 119.8 1421.36 119.8"/><path class="cls-2" d="m1657.84,190.65v-6.43h-6.65v6.43h-4.13v-16.01h4.13v5.98h6.65v-5.98h4.13v16.01h-4.13Z"/><path class="cls-2" d="m1674.73,190.65v-6.46l-6.07-9.55h4.66l3.48,5.9,3.43-5.9h4.68l-6.05,9.55v6.46h-4.13Z"/><path class="cls-2" d="m1691.6,190.65v-16.01h11.74v3.48h-7.61v2.66h7.44v3.5h-7.44v2.88h7.61v3.48h-11.74Z"/><path class="cls-2" d="m1710.44,182.66c0-4.94,3.74-8.28,8.54-8.28,3.98,0,6.05,2.18,7.1,4.3l-3.55,1.68c-.53-1.27-1.9-2.33-3.55-2.33-2.5,0-4.34,2.02-4.34,4.63s1.85,4.63,4.34,4.63c1.66,0,3.02-1.06,3.55-2.33l3.55,1.68c-1.03,2.06-3.12,4.3-7.1,4.3-4.8,0-8.54-3.36-8.54-8.28Z"/><path class="cls-2" d="m1741.14,174.38c4.9,0,8.54,3.41,8.54,8.28s-3.65,8.28-8.54,8.28-8.57-3.41-8.57-8.28,3.67-8.28,8.57-8.28Zm0,3.65c-2.66,0-4.37,2.02-4.37,4.63s1.7,4.63,4.37,4.63,4.34-2.04,4.34-4.63-1.7-4.63-4.34-4.63Z"/><path class="cls-2" d="m1768.19,190.65l-6.77-9.67v9.67h-4.13v-16.01h4.25l6.48,9.22v-9.22h4.15v16.01h-3.98Z"/></svg>