<?xml version="1.0" encoding="UTF-8"?><svg id="Layer_1" xmlns="http://www.w3.org/2000/svg" viewBox="0 0 1920 485.06"><defs><style>.cls-1{stroke-width:.48px;}.cls-1,.cls-2{fill:none;stroke:#a0a0a0;stroke-miterlimit:10;}.cls-2{stroke-width:.48px;}.cls-3{fill:#d8d8d8;}.cls-3,.cls-4,.cls-5{stroke-width:0px;}.cls-4{fill:#e95800;}.cls-5{fill:#003041;}</style></defs><path class="cls-5" d="m182.54,274.99c6.5,0,10.6,3.16,13,6.88l-5.56,3.02c-1.46-2.22-4.15-3.96-7.44-3.96-5.71,0-9.85,4.38-9.85,10.32s4.14,10.32,9.85,10.32c2.87,0,5.42-1.18,6.78-2.4v-3.82h-8.39v-5.75h14.98v12.01c-3.2,3.58-7.68,5.93-13.38,5.93-9.19,0-16.73-6.41-16.73-16.3s7.54-16.26,16.73-16.26Z"/><path class="cls-5" d="m235.82,306.93l-6.17-11.26h-4.9v11.26h-6.69v-31.43h14.7c6.55,0,10.55,4.29,10.55,10.13s-3.49,8.53-6.88,9.33l7.07,11.97h-7.68Zm-4.05-25.68h-7.02v8.67h7.02c2.68,0,4.71-1.7,4.71-4.33s-2.02-4.33-4.71-4.33Z"/><path class="cls-5" d="m280.69,274.99c9.52,0,16.44,6.78,16.44,16.26s-6.92,16.25-16.44,16.25-16.4-6.78-16.4-16.25,6.93-16.26,16.4-16.26Zm0,5.94c-5.8,0-9.52,4.43-9.52,10.32s3.72,10.32,9.52,10.32,9.56-4.48,9.56-10.32-3.77-10.32-9.56-10.32Z"/><path class="cls-5" d="m316.59,275.51h6.78v18.66c0,4.38,2.41,7.4,7.31,7.4s7.21-3.02,7.21-7.4v-18.66h6.78v18.85c0,7.82-4.48,13.15-13.99,13.15s-14.09-5.37-14.09-13.1v-18.9Z"/><path class="cls-5" d="m367.93,306.93v-31.43h14.7c6.83,0,10.55,4.62,10.55,10.13s-3.77,10.03-10.55,10.03h-8.01v11.26h-6.69Zm13.81-25.68h-7.12v8.67h7.12c2.64,0,4.62-1.7,4.62-4.33s-1.98-4.33-4.62-4.33Z"/><path class="cls-5" d="m222.19,240.07v17.23h-56.9v-81.48h56.92v17.23h-37.13v14.32h32.64v17.23h-32.64v15.48h37.11Z"/><path class="cls-5" d="m384.28,240.07v17.23h-56.94v-81.48h56.92v17.23h-37.13v14.32h32.66v17.23h-32.66v15.48h37.15Z"/><path class="cls-5" d="m435.61,213.88h47.14v1.63c0,25.14-16.99,43.41-42.6,43.41-27.12,0-43.76-19.32-43.76-42.37s16.88-42.37,43.76-42.37c20.6,0,35.5,11.52,40.74,29.8h-19.55c-3.49-6.98-10.01-12.8-21.07-12.8-15.02,0-24.09,10.59-24.09,25.37,0,16.3,9.19,25.96,23.86,25.96,10.71,0,18.04-5.36,21.07-12.46h-25.49v-16.18Z"/><path class="cls-5" d="m541.39,246.16h-33.87l-4.08,11.52h-21.42l35.04-81.48h14.9l35.04,81.48h-21.42l-4.19-11.52Zm-28.05-16.18h22.23l-11.06-30.73-11.17,30.73Z"/><path class="cls-5" d="m631.82,246.16h-33.87l-4.08,11.52h-21.42l35.04-81.48h14.9l35.04,81.48h-21.42l-4.19-11.52Zm-28.05-16.18h22.23l-11.06-30.73-11.17,30.73Z"/><path class="cls-5" d="m692.73,236.15h-5.5v21.53h-19.79v-81.48h37.04c17.23,0,30.03,13.04,30.03,30.03,0,12.69-7.1,22.93-17.69,27.47l22.11,23.98h-26.66l-19.55-21.53Zm8.96-16.99c7.33,0,13.04-5.01,13.04-12.92s-5.7-13.04-13.04-13.04h-14.46v25.96h14.46Z"/><path class="cls-5" d="m772.18,176.2c32.59,0,49.82,17.58,49.82,40.74s-17.23,40.74-49.82,40.74h-25.72v-81.48h25.72Zm-1.86,64.83c20.37,0,31.89-8.15,31.89-24.1s-11.52-24.09-31.89-24.09h-4.08v48.19h4.08Z"/><polygon class="cls-4" points="251.35 240.07 251.35 175.99 234.07 175.99 234.07 257.34 315.33 257.34 315.33 240.07 251.35 240.07"/><polygon class="cls-4" points="285.9 205.51 285.9 175.99 268.62 175.99 268.62 222.79 315.33 222.79 315.33 205.51 285.9 205.51"/><polygon class="cls-3" points="101.07 240.07 101.07 175.99 83.8 175.99 83.8 257.34 165.06 257.34 165.06 240.07 101.07 240.07"/><polygon class="cls-3" points="135.62 205.51 135.62 175.99 118.35 175.99 118.35 222.79 165.06 222.79 165.06 205.51 135.62 205.51"/><polygon class="cls-3" points="182.79 158.54 182.79 94.46 165.51 94.46 165.51 175.81 246.77 175.81 246.77 158.54 182.79 158.54"/><polygon class="cls-3" points="217.34 123.98 217.34 94.46 200.07 94.46 200.07 141.26 246.77 141.26 246.77 123.98 217.34 123.98"/><polygon class="cls-3" points="182.79 371.4 182.79 307.32 165.51 307.32 165.51 388.68 246.77 388.68 246.77 371.4 182.79 371.4"/><polygon class="cls-3" points="217.34 336.85 217.34 307.33 200.07 307.33 200.07 354.12 246.77 354.12 246.77 336.85 217.34 336.85"/><polygon class="cls-3" points="839.88 240.37 839.88 176.3 822.61 176.3 822.61 257.65 903.86 257.65 903.86 240.37 839.88 240.37"/><polygon class="cls-3" points="874.43 205.82 874.43 176.3 857.16 176.3 857.16 223.09 903.86 223.09 903.86 205.82 874.43 205.82"/><line class="cls-1" x1="165.29" y1="78.69" x2="165.29" y2="406.36"/><line class="cls-1" x1="822.29" y1="78.69" x2="822.29" y2="406.36"/><line class="cls-2" x1="913.63" y1="176.05" x2="74.18" y2="176.05"/><line class="cls-2" x1="913.63" y1="257.46" x2="74.18" y2="257.46"/><line class="cls-2" x1="913.63" y1="307.09" x2="74.18" y2="307.09"/><path class="cls-5" d="m1154.38,240.07v17.23h-56.9v-81.48h56.92v17.23h-37.13v14.32h32.64v17.23h-32.64v15.48h37.11Z"/><path class="cls-5" d="m1316.47,240.07v17.23h-56.94v-81.48h56.92v17.23h-37.13v14.32h32.66v17.23h-32.66v15.48h37.15Z"/><path class="cls-5" d="m1367.79,213.88h47.14v1.63c0,25.14-16.99,43.41-42.6,43.41-27.12,0-43.76-19.32-43.76-42.37s16.88-42.37,43.76-42.37c20.6,0,35.5,11.52,40.74,29.8h-19.55c-3.49-6.98-10.01-12.8-21.07-12.8-15.02,0-24.09,10.59-24.09,25.37,0,16.3,9.19,25.96,23.86,25.96,10.71,0,18.04-5.36,21.07-12.46h-25.49v-16.18Z"/><path class="cls-5" d="m1473.58,246.16h-33.87l-4.08,11.52h-21.42l35.04-81.48h14.9l35.04,81.48h-21.42l-4.19-11.52Zm-28.05-16.18h22.23l-11.06-30.73-11.17,30.73Z"/><path class="cls-5" d="m1564.01,246.16h-33.87l-4.08,11.52h-21.42l35.04-81.48h14.9l35.04,81.48h-21.42l-4.19-11.52Zm-28.05-16.18h22.23l-11.06-30.73-11.17,30.73Z"/><path class="cls-5" d="m1624.92,236.15h-5.5v21.53h-19.79v-81.48h37.04c17.23,0,30.03,13.04,30.03,30.03,0,12.69-7.1,22.93-17.69,27.47l22.11,23.98h-26.66l-19.55-21.53Zm8.96-16.99c7.33,0,13.04-5.01,13.04-12.92s-5.7-13.04-13.04-13.04h-14.46v25.96h14.46Z"/><path class="cls-5" d="m1704.37,176.2c32.59,0,49.82,17.58,49.82,40.74s-17.23,40.74-49.82,40.74h-25.72v-81.48h25.72Zm-1.86,64.83c20.37,0,31.89-8.15,31.89-24.1s-11.52-24.09-31.89-24.09h-4.08v48.19h4.08Z"/><polygon class="cls-4" points="1183.54 240.07 1183.54 175.99 1166.26 175.99 1166.26 257.34 1247.52 257.34 1247.52 240.07 1183.54 240.07"/><polygon class="cls-4" points="1218.09 205.51 1218.09 175.99 1200.81 175.99 1200.81 222.79 1247.52 222.79 1247.52 205.51 1218.09 205.51"/><polygon class="cls-3" points="1033.26 240.07 1033.26 175.99 1015.99 175.99 1015.99 257.34 1097.25 257.34 1097.25 240.07 1033.26 240.07"/><polygon class="cls-3" points="1067.81 205.51 1067.81 175.99 1050.54 175.99 1050.54 222.79 1097.25 222.79 1097.25 205.51 1067.81 205.51"/><polygon class="cls-3" points="1114.98 158.54 1114.98 94.46 1097.7 94.46 1097.7 175.81 1178.96 175.81 1178.96 158.54 1114.98 158.54"/><polygon class="cls-3" points="1149.53 123.98 1149.53 94.46 1132.25 94.46 1132.25 141.26 1178.96 141.26 1178.96 123.98 1149.53 123.98"/><polygon class="cls-3" points="1114.98 321.8 1114.98 257.72 1097.7 257.72 1097.7 339.08 1178.96 339.08 1178.96 321.8 1114.98 321.8"/><polygon class="cls-3" points="1149.53 287.25 1149.53 257.73 1132.25 257.73 1132.25 304.52 1178.96 304.52 1178.96 287.25 1149.53 287.25"/><polygon class="cls-3" points="1772.07 240.37 1772.07 176.3 1754.79 176.3 1754.79 257.65 1836.05 257.65 1836.05 240.37 1772.07 240.37"/><polygon class="cls-3" points="1806.62 205.82 1806.62 176.3 1789.35 176.3 1789.35 223.09 1836.05 223.09 1836.05 205.82 1806.62 205.82"/><line class="cls-1" x1="1097.48" y1="78.69" x2="1097.48" y2="406.36"/><line class="cls-1" x1="1754.48" y1="78.69" x2="1754.48" y2="406.36"/><line class="cls-2" x1="1845.82" y1="176.05" x2="1006.37" y2="176.05"/><line class="cls-2" x1="1845.82" y1="257.46" x2="1006.37" y2="257.46"/></svg>