<?xml version="1.0" encoding="UTF-8"?><svg xmlns="http://www.w3.org/2000/svg" viewBox="0 0 1920 898.42"><defs><style>.cls-1{fill:none;}.cls-1,.cls-2,.cls-3,.cls-4,.cls-5,.cls-6{stroke-width:0px;}.cls-2{fill:#1f2121;}.cls-3{fill:#80abbb;}.cls-4{fill:#fff;}.cls-5{fill:#e95800;}.cls-6{fill:#003041;}</style></defs><g id="Layer_2"><rect class="cls-6" x="959.96" y=".2" width="960" height="580.52"/><rect class="cls-5" x="-.91" y="577.96" width="480" height="320.75"/><rect class="cls-3" x="479.09" y="577.96" width="480" height="320.75"/><rect class="cls-4" x="959.08" y="577.96" width="480" height="320.75"/><rect class="cls-2" x="1439.08" y="577.96" width="480" height="320.75"/></g><g id="Layer_1"><path class="cls-6" d="m274.91,306.85v13.12h-43.32v-62.03h43.34v13.12h-28.27v10.9h24.85v13.12h-24.85v11.79h28.26Z"/><path class="cls-6" d="m398.32,306.85v13.12h-43.35v-62.03h43.34v13.12h-28.27v10.9h24.86v13.12h-24.86v11.79h28.28Z"/><path class="cls-6" d="m437.4,286.91h35.89v1.24c0,19.14-12.94,33.05-32.44,33.05-20.65,0-33.32-14.71-33.32-32.26s12.85-32.26,33.32-32.26c15.69,0,27.03,8.77,31.02,22.69h-14.89c-2.66-5.32-7.62-9.75-16.04-9.75-11.43,0-18.34,8.06-18.34,19.32,0,12.41,7,19.76,18.17,19.76,8.15,0,13.74-4.08,16.04-9.48h-19.41v-12.32Z"/><path class="cls-6" d="m517.94,311.49h-25.79l-3.1,8.77h-16.31l26.68-62.03h11.34l26.68,62.03h-16.31l-3.19-8.77Zm-21.36-12.32h16.93l-8.42-23.4-8.51,23.4Z"/><path class="cls-6" d="m586.79,311.49h-25.79l-3.1,8.77h-16.31l26.68-62.03h11.34l26.68,62.03h-16.31l-3.19-8.77Zm-21.36-12.32h16.93l-8.42-23.4-8.51,23.4Z"/><path class="cls-6" d="m633.17,303.86h-4.18v16.4h-15.07v-62.03h28.2c13.12,0,22.86,9.93,22.86,22.86,0,9.66-5.41,17.46-13.47,20.91l16.84,18.26h-20.29l-14.89-16.4Zm6.82-12.94c5.58,0,9.93-3.81,9.93-9.84s-4.34-9.93-9.93-9.93h-11.01v19.76h11.01Z"/><path class="cls-6" d="m693.66,258.22c24.81,0,37.93,13.38,37.93,31.02s-13.12,31.02-37.93,31.02h-19.59v-62.03h19.59Zm-1.42,49.36c15.51,0,24.28-6.2,24.28-18.35s-8.77-18.34-24.28-18.34h-3.1v36.69h3.1Z"/><polygon class="cls-5" points="297.11 306.85 297.11 258.06 283.96 258.06 283.96 320 345.83 320 345.83 306.85 297.11 306.85"/><polygon class="cls-5" points="323.42 280.54 323.42 258.06 310.26 258.06 310.26 293.69 345.83 293.69 345.83 280.54 323.42 280.54"/><rect class="cls-1" x="1.59" y=".2" width="960" height="580.52"/><path class="cls-4" d="m1233.28,306.85v13.12h-43.32v-62.03h43.34v13.12h-28.27v10.9h24.85v13.12h-24.85v11.79h28.26Z"/><path class="cls-4" d="m1356.68,306.85v13.12h-43.35v-62.03h43.34v13.12h-28.27v10.9h24.86v13.12h-24.86v11.79h28.28Z"/><path class="cls-4" d="m1395.76,286.91h35.89v1.24c0,19.14-12.94,33.05-32.44,33.05-20.65,0-33.32-14.71-33.32-32.26s12.85-32.26,33.32-32.26c15.69,0,27.03,8.77,31.02,22.69h-14.89c-2.66-5.32-7.62-9.75-16.04-9.75-11.43,0-18.34,8.06-18.34,19.32,0,12.41,7,19.76,18.17,19.76,8.15,0,13.74-4.08,16.04-9.48h-19.41v-12.32Z"/><path class="cls-4" d="m1476.31,311.49h-25.79l-3.1,8.77h-16.31l26.68-62.03h11.34l26.68,62.03h-16.31l-3.19-8.77Zm-21.36-12.32h16.93l-8.42-23.4-8.51,23.4Z"/><path class="cls-4" d="m1545.16,311.49h-25.79l-3.1,8.77h-16.31l26.68-62.03h11.34l26.68,62.03h-16.31l-3.19-8.77Zm-21.36-12.32h16.93l-8.42-23.4-8.51,23.4Z"/><path class="cls-4" d="m1591.54,303.86h-4.18v16.4h-15.07v-62.03h28.2c13.12,0,22.86,9.93,22.86,22.86,0,9.66-5.41,17.46-13.47,20.91l16.84,18.26h-20.29l-14.89-16.4Zm6.82-12.94c5.58,0,9.93-3.81,9.93-9.84s-4.34-9.93-9.93-9.93h-11.01v19.76h11.01Z"/><path class="cls-4" d="m1652.02,258.22c24.81,0,37.93,13.38,37.93,31.02s-13.12,31.02-37.93,31.02h-19.59v-62.03h19.59Zm-1.42,49.36c15.51,0,24.28-6.2,24.28-18.35s-8.77-18.34-24.28-18.34h-3.1v36.69h3.1Z"/><polygon class="cls-5" points="1255.47 306.85 1255.47 258.06 1242.32 258.06 1242.32 320 1304.19 320 1304.19 306.85 1255.47 306.85"/><polygon class="cls-5" points="1281.78 280.54 1281.78 258.06 1268.63 258.06 1268.63 293.69 1304.19 293.69 1304.19 280.54 1281.78 280.54"/><path class="cls-4" d="m124.61,747.85v8.1h-26.77v-38.33h26.78v8.1h-17.47v6.74h15.36v8.1h-15.36v7.28h17.46Z"/><path class="cls-4" d="m200.86,747.85v8.1h-26.79v-38.33h26.78v8.1h-17.47v6.74h15.36v8.1h-15.36v7.28h17.48Z"/><path class="cls-4" d="m225.01,735.53h22.18v.77c0,11.83-8,20.43-20.04,20.43-12.76,0-20.59-9.09-20.59-19.93s7.94-19.93,20.59-19.93c9.69,0,16.7,5.42,19.17,14.02h-9.2c-1.64-3.29-4.71-6.02-9.91-6.02-7.06,0-11.34,4.98-11.34,11.94,0,7.67,4.33,12.21,11.23,12.21,5.04,0,8.49-2.52,9.91-5.86h-11.99v-7.61Z"/><path class="cls-4" d="m274.78,750.71h-15.94l-1.92,5.42h-10.08l16.48-38.33h7.01l16.48,38.33h-10.08l-1.97-5.42Zm-13.2-7.61h10.46l-5.2-14.46-5.26,14.46Z"/><path class="cls-4" d="m317.33,750.71h-15.94l-1.92,5.42h-10.08l16.48-38.33h7.01l16.48,38.33h-10.08l-1.97-5.42Zm-13.2-7.61h10.46l-5.2-14.46-5.26,14.46Z"/><path class="cls-4" d="m345.99,746h-2.59v10.13h-9.31v-38.33h17.43c8.1,0,14.13,6.13,14.13,14.13,0,5.97-3.34,10.79-8.32,12.92l10.4,11.28h-12.54l-9.2-10.13Zm4.22-7.99c3.45,0,6.13-2.36,6.13-6.08s-2.68-6.13-6.13-6.13h-6.8v12.21h6.8Z"/><path class="cls-4" d="m383.37,717.8c15.33,0,23.44,8.27,23.44,19.17s-8.1,19.17-23.44,19.17h-12.1v-38.33h12.1Zm-.88,30.5c9.58,0,15-3.83,15-11.34s-5.42-11.34-15-11.34h-1.92v22.67h1.92Z"/><polygon class="cls-4" points="138.32 747.84 138.32 717.7 130.2 717.7 130.2 755.97 168.43 755.97 168.43 747.84 138.32 747.84"/><polygon class="cls-4" points="154.58 731.59 154.58 717.7 146.45 717.7 146.45 739.71 168.43 739.71 168.43 731.59 154.58 731.59"/><path class="cls-4" d="m593.25,747.85v8.1h-26.77v-38.33h26.78v8.1h-17.47v6.74h15.36v8.1h-15.36v7.28h17.46Z"/><path class="cls-4" d="m669.5,747.85v8.1h-26.79v-38.33h26.78v8.1h-17.47v6.74h15.36v8.1h-15.36v7.28h17.48Z"/><path class="cls-4" d="m693.65,735.53h22.18v.77c0,11.83-8,20.43-20.04,20.43-12.76,0-20.59-9.09-20.59-19.93s7.94-19.93,20.59-19.93c9.69,0,16.7,5.42,19.17,14.02h-9.2c-1.64-3.29-4.71-6.02-9.91-6.02-7.06,0-11.34,4.98-11.34,11.94,0,7.67,4.33,12.21,11.23,12.21,5.04,0,8.49-2.52,9.91-5.86h-11.99v-7.61Z"/><path class="cls-4" d="m743.42,750.71h-15.94l-1.92,5.42h-10.08l16.48-38.33h7.01l16.48,38.33h-10.08l-1.97-5.42Zm-13.2-7.61h10.46l-5.2-14.46-5.26,14.46Z"/><path class="cls-4" d="m785.97,750.71h-15.94l-1.92,5.42h-10.08l16.48-38.33h7.01l16.48,38.33h-10.08l-1.97-5.42Zm-13.2-7.61h10.46l-5.2-14.46-5.26,14.46Z"/><path class="cls-4" d="m814.63,746h-2.59v10.13h-9.31v-38.33h17.43c8.1,0,14.13,6.13,14.13,14.13,0,5.97-3.34,10.79-8.32,12.92l10.4,11.28h-12.54l-9.2-10.13Zm4.22-7.99c3.45,0,6.13-2.36,6.13-6.08s-2.68-6.13-6.13-6.13h-6.8v12.21h6.8Z"/><path class="cls-4" d="m852,717.8c15.33,0,23.44,8.27,23.44,19.17s-8.1,19.17-23.44,19.17h-12.1v-38.33h12.1Zm-.88,30.5c9.58,0,15-3.83,15-11.34s-5.42-11.34-15-11.34h-1.92v22.67h1.92Z"/><polygon class="cls-4" points="606.96 747.84 606.96 717.7 598.83 717.7 598.83 755.97 637.06 755.97 637.06 747.84 606.96 747.84"/><polygon class="cls-4" points="623.22 731.59 623.22 717.7 615.09 717.7 615.09 739.71 637.07 739.71 637.07 731.59 623.22 731.59"/><path class="cls-2" d="m1068.49,747.85v8.1h-26.77v-38.33h26.78v8.1h-17.47v6.74h15.36v8.1h-15.36v7.28h17.46Z"/><path class="cls-2" d="m1144.75,747.85v8.1h-26.79v-38.33h26.78v8.1h-17.47v6.74h15.36v8.1h-15.36v7.28h17.48Z"/><path class="cls-2" d="m1168.9,735.53h22.18v.77c0,11.83-8,20.43-20.04,20.43-12.76,0-20.59-9.09-20.59-19.93s7.94-19.93,20.59-19.93c9.69,0,16.7,5.42,19.17,14.02h-9.2c-1.64-3.29-4.71-6.02-9.91-6.02-7.06,0-11.34,4.98-11.34,11.94,0,7.67,4.33,12.21,11.23,12.21,5.04,0,8.49-2.52,9.91-5.86h-11.99v-7.61Z"/><path class="cls-2" d="m1218.67,750.71h-15.94l-1.92,5.42h-10.08l16.48-38.33h7.01l16.48,38.33h-10.08l-1.97-5.42Zm-13.2-7.61h10.46l-5.2-14.46-5.26,14.46Z"/><path class="cls-2" d="m1261.21,750.71h-15.94l-1.92,5.42h-10.08l16.48-38.33h7.01l16.48,38.33h-10.08l-1.97-5.42Zm-13.2-7.61h10.46l-5.2-14.46-5.26,14.46Z"/><path class="cls-2" d="m1289.87,746h-2.59v10.13h-9.31v-38.33h17.43c8.1,0,14.13,6.13,14.13,14.13,0,5.97-3.34,10.79-8.32,12.92l10.4,11.28h-12.54l-9.2-10.13Zm4.22-7.99c3.45,0,6.13-2.36,6.13-6.08s-2.68-6.13-6.13-6.13h-6.8v12.21h6.8Z"/><path class="cls-2" d="m1327.25,717.8c15.33,0,23.44,8.27,23.44,19.17s-8.1,19.17-23.44,19.17h-12.1v-38.33h12.1Zm-.88,30.5c9.58,0,15-3.83,15-11.34s-5.42-11.34-15-11.34h-1.92v22.67h1.92Z"/><polygon class="cls-2" points="1082.21 747.84 1082.21 717.7 1074.08 717.7 1074.08 755.97 1112.31 755.97 1112.31 747.84 1082.21 747.84"/><polygon class="cls-2" points="1098.46 731.59 1098.46 717.7 1090.34 717.7 1090.34 739.71 1112.31 739.71 1112.31 731.59 1098.46 731.59"/><path class="cls-4" d="m1552.25,747.85v8.1h-26.77v-38.33h26.78v8.1h-17.47v6.74h15.36v8.1h-15.36v7.28h17.46Z"/><path class="cls-4" d="m1628.5,747.85v8.1h-26.79v-38.33h26.78v8.1h-17.47v6.74h15.36v8.1h-15.36v7.28h17.48Z"/><path class="cls-4" d="m1652.65,735.53h22.18v.77c0,11.83-8,20.43-20.04,20.43-12.76,0-20.59-9.09-20.59-19.93s7.94-19.93,20.59-19.93c9.69,0,16.7,5.42,19.17,14.02h-9.2c-1.64-3.29-4.71-6.02-9.91-6.02-7.06,0-11.34,4.98-11.34,11.94,0,7.67,4.33,12.21,11.23,12.21,5.04,0,8.49-2.52,9.91-5.86h-11.99v-7.61Z"/><path class="cls-4" d="m1702.42,750.71h-15.94l-1.92,5.42h-10.08l16.48-38.33h7.01l16.48,38.33h-10.08l-1.97-5.42Zm-13.2-7.61h10.46l-5.2-14.46-5.26,14.46Z"/><path class="cls-4" d="m1744.97,750.71h-15.94l-1.92,5.42h-10.08l16.48-38.33h7.01l16.48,38.33h-10.08l-1.97-5.42Zm-13.2-7.61h10.46l-5.2-14.46-5.26,14.46Z"/><path class="cls-4" d="m1773.63,746h-2.59v10.13h-9.31v-38.33h17.43c8.1,0,14.13,6.13,14.13,14.13,0,5.97-3.34,10.79-8.32,12.92l10.4,11.28h-12.54l-9.2-10.13Zm4.22-7.99c3.45,0,6.13-2.36,6.13-6.08s-2.68-6.13-6.13-6.13h-6.8v12.21h6.8Z"/><path class="cls-4" d="m1811.01,717.8c15.33,0,23.44,8.27,23.44,19.17s-8.1,19.17-23.44,19.17h-12.1v-38.33h12.1Zm-.88,30.5c9.58,0,15-3.83,15-11.34s-5.42-11.34-15-11.34h-1.92v22.67h1.92Z"/><polygon class="cls-4" points="1565.96 747.84 1565.96 717.7 1557.84 717.7 1557.84 755.97 1596.07 755.97 1596.07 747.84 1565.96 747.84"/><polygon class="cls-4" points="1582.22 731.59 1582.22 717.7 1574.09 717.7 1574.09 739.71 1596.07 739.71 1596.07 731.59 1582.22 731.59"/></g></svg>